<svg viewBox="0 0 600 400" xmlns="http://www.w3.org/2000/svg">
<g transform="translate(72, 364)">
<g>
<g>
<circle cx="80" cy="-185.86666666666665" fill="#000000" r="5"/>
<circle cx="160" cy="-34" fill="#000000" r="5"/>
<circle cx="240" cy="-283.3333333333333" fill="#000000" r="5"/>
<circle cx="320" cy="-317.3333333333333" fill="#000000" r="5"/>
<circle cx="400" cy="-170" fill="#000000" r="5"/>
<circle cx="256" cy="-283.3333333333333" fill="#000000" r="5"/>
<circle cx="128" cy="-124.66666666666667" fill="#000000" r="5"/>
</g>
</g>
<g>
<g>
<path d="M80,-185.86667 L80,-185.86667 L80.14015,-185.55556 L80.280304,-185.24445 L80.420456,-184.93333 L80.56061,-184.62222 L80.70076,-184.31113 L80.84091,-184.00003 L80.98106,-183.68895 L81.1212,-183.37787 L81.26134,-183.06679 L81.40148,-182.75574 L81.54162,-182.44469 L81.68175,-182.13365 L81.82188,-181.82263 L81.962,-181.51161 L82.10211,-181.20062 L82.242226,-180.88965 L82.38234,-180.5787 L82.52244,-180.26776 L82.66254,-179.95685 L82.80263,-179.64595 L82.94271,-179.33508 L83.08279,-179.02425 L83.222855,-178.71342 L83.36292,-178.40263 L83.502975,-178.09187 L83.64302,-177.78113 L83.78306,-177.47043 L83.92308,-177.15974 L84.0631,-176.8491 L84.20311,-176.5385 L84.34311,-176.22792 L84.4831,-175.91739 L84.62308,-175.60689 L84.76305,-175.29643 L84.903,-174.98601 L85.042946,-174.67561 L85.18288,-174.36528 L85.3228,-174.05498 L85.46271,-173.74472 L85.6026,-173.43452 L85.742485,-173.12436 L85.88235,-172.81424 L86.0222,-172.50418 L86.16204,-172.19415 L86.30187,-171.88419 L86.44168,-171.57428 L86.581474,-171.26442 L86.72125,-170.9546 L86.861015,-170.64487 L87.00076,-170.33517 L87.140495,-170.02553 L87.280205,-169.71596 L87.41991,-169.40645 L87.559586,-169.09698 L87.69924,-168.7876 L87.83888,-168.47827 L87.97851,-168.169 L88.11812,-167.8598 L88.2577,-167.55067 L88.39727,-167.24161 L88.53681,-166.93262 L88.67634,-166.6237 L88.81585,-166.31485 L88.95533,-166.00607 L89.094795,-165.69737 L89.23424,-165.38875 L89.37366,-165.08018 L89.513054,-164.77171 L89.65243,-164.46332 L89.79178,-164.15501 L89.931114,-163.84677 L90.07042,-163.53862 L90.2097,-163.23056 L90.34895,-162.92258 L90.48819,-162.61467 L90.627396,-162.30687 L90.76658,-161.99915 L90.90574,-161.69151 L91.04487,-161.38397 L91.183975,-161.0765 L91.32305,-160.76915 L91.462105,-160.46188 L91.60113,-160.15472 L91.74013,-159.84764 L91.8791,-159.54066 L92.018036,-159.2338 L92.15695,-158.92702 L92.29583,-158.62033 L92.434685,-158.31377 L92.57351,-158.0073 L92.71231,-157.70091 L92.851074,-157.39465 L92.98981,-157.0885 L93.12851,-156.78246 L93.26718,-156.47652 L93.40582,-156.17068 L93.54443,-155.86496 L93.68301,-155.55936 L93.821556,-155.25386 L93.96007,-154.94849 L94.09854,-154.64322 L94.23699,-154.33807 L94.3754,-154.03305 L94.51378,-153.72815 L94.65212,-153.42336 L94.79043,-153.1187 L94.928696,-152.81415 L95.06693,-152.50974 L95.20514,-152.20544 L95.3433,-151.90128 L95.48143,-151.59723 L95.61952,-151.29332 L95.757576,-150.98953 L95.89559,-150.68588 L96.03357,-150.38237 L96.17152,-150.07898 L96.30942,-149.77574 L96.44728,-149.47263 L96.585106,-149.16965 L96.72289,-148.8668 L96.860634,-148.5641 L96.99834,-148.26154 L97.136,-147.95912 L97.27363,-147.65685 L97.41121,-147.3547 L97.54875,-147.05272 L97.68625,-146.75087 L97.82371,-146.44917 L97.96113,-146.14763 L98.098495,-145.84624 L98.235825,-145.54498 L98.373116,-145.24388 L98.51035,-144.94295 L98.64755,-144.64215 L98.784706,-144.34152 L98.921814,-144.04105 L99.058876,-143.74072 L99.19589,-143.44057 L99.33287,-143.14056 L99.469795,-142.84073 L99.606674,-142.54105 L99.74351,-142.24153 L99.880295,-141.94218 L100.01703,-141.64299 L100.15372,-141.34398 L100.29036,-141.04514 L100.426956,-140.74644 L100.5635,-140.44794 L100.7,-140.1496 L100.83644,-139.85144 L100.97284,-139.55344 L101.10919,-139.25563 L101.24548,-138.95798 L101.38173,-138.66052 L101.51793,-138.36324 L101.65407,-138.06613 L101.79016,-137.7692 L101.9262,-137.47246 L102.06219,-137.1759 L102.19812,-136.87952 L102.334,-136.58333 L102.46983,-136.28732 L102.605606,-135.99152 L102.741325,-135.69588 L102.87699,-135.40045 L103.0126,-135.1052 L103.148155,-134.81015 L103.28366,-134.51529 L103.419106,-134.22061 L103.55449,-133.92615 L103.68983,-133.63187 L103.825096,-133.3378 L103.96032,-133.04391 L104.09548,-132.75024 L104.23058,-132.45677 L104.36563,-132.1635 L104.50062,-131.87044 L104.635544,-131.57758 L104.77041,-131.28491 L104.90522,-130.99246 L105.03997,-130.70023 L105.17466,-130.4082 L105.309296,-130.11638 L105.44386,-129.82477 L105.57837,-129.53337 L105.712814,-129.24219 L105.8472,-128.95123 L105.98152,-128.66048 L106.11578,-128.36995 L106.249985,-128.07964 L106.38412,-127.78955 L106.51819,-127.49968 L106.6522,-127.21003 L106.78614,-126.92061 L106.92002,-126.63141 L107.05383,-126.34244 L107.187584,-126.05369 L107.321266,-125.765175 L107.45489,-125.47688 L107.58844,-125.18883 L107.721924,-124.901 L107.85535,-124.6134 L107.9887,-124.32604 L108.12199,-124.038925 L108.2552,-123.75204 L108.38835,-123.465385 L108.52143,-123.17897 L108.65445,-122.8928 L108.78739,-122.60687 L108.920265,-122.32118 L109.05307,-122.035736 L109.18581,-121.750534 L109.31847,-121.465576 L109.451065,-121.18087 L109.58359,-120.89641 L109.716034,-120.6122 L109.84842,-120.32824 L109.98073,-120.044525 L110.11296,-119.76107 L110.245125,-119.47787 L110.37721,-119.194916 L110.50923,-118.912224 L110.641174,-118.62978 L110.77304,-118.34761 L110.90484,-118.06569 L111.03656,-117.784035 L111.168205,-117.50264 L111.299774,-117.221504 L111.43127,-116.940636 L111.56268,-116.660034 L111.69403,-116.3797 L111.825294,-116.09963 L111.95648,-115.81983 L112.08759,-115.5403 L112.21863,-115.26104 L112.34958,-114.982056 L112.48046,-114.70334 L112.61126,-114.424904 L112.74198,-114.146736 L112.87262,-113.86885 L113.00318,-113.59125 L113.13366,-113.31392 L113.26406,-113.036865 L113.39438,-112.7601 L113.52462,-112.48362 L113.65478,-112.20741 L113.78486,-111.9315 L113.91485,-111.65587 L114.04476,-111.38053 L114.17459,-111.10548 L114.30434,-110.83071 L114.434,-110.55624 L114.56358,-110.28206 L114.69308,-110.00817 L114.82249,-109.73457 L114.95181,-109.46128 L115.081055,-109.18828 L115.21021,-108.91557 L115.33929,-108.643166 L115.46827,-108.37106 L115.59717,-108.09926 L115.72598,-107.82776 L115.854706,-107.55656 L115.983345,-107.28567 L116.1119,-107.015076 L116.240364,-106.7448 L116.36874,-106.47482 L116.497025,-106.20516 L116.62522,-105.93581 L116.75333,-105.66677 L116.88135,-105.39804 L117.00928,-105.12962 L117.137115,-104.86153 L117.26486,-104.59374 L117.39252,-104.32628 L117.52008,-104.059135 L117.64756,-103.792305 L117.77494,-103.5258 L117.90223,-103.25961 L118.02943,-102.99375 L118.15653,-102.72822 L118.28355,-102.463005 L118.41046,-102.19812 L118.537285,-101.93356 L118.66402,-101.66934 L118.79065,-101.40544 L118.91719,-101.14188 L119.04364,-100.87865 L119.16999,-100.615746 L119.29624,-100.35318 L119.4224,-100.09095 L119.54846,-99.829056 L119.67442,-99.567505 L119.80029,-99.30629 L119.92606,-99.04542 L120.051735,-98.78489 L120.17731,-98.5247 L120.30278,-98.264854 L120.42816,-98.005356 L120.55344,-97.7462 L120.67861,-97.4874 L120.80369,-97.22894 L120.928665,-96.97083 L121.05354,-96.71307 L121.17832,-96.45567 L121.30299,-96.19862 L121.427574,-95.941925 L121.55204,-95.685585 L121.676414,-95.4296 L121.80068,-95.17398 L121.92484,-94.91872 L122.048904,-94.66381 L122.17286,-94.40926 L122.296715,-94.15508 L122.42046,-93.90126 L122.54411,-93.64781 L122.66765,-93.39472 L122.791084,-93.142006 L122.91441,-92.889656 L123.03764,-92.63767 L123.16076,-92.38606 L123.28377,-92.13482 L123.40668,-91.88396 L123.52947,-91.63346 L123.65216,-91.38335 L123.77474,-91.133606 L123.89722,-90.88425 L124.019585,-90.63526 L124.14184,-90.38666 L124.263985,-90.138435 L124.386024,-89.890594 L124.50796,-89.64314 L124.629776,-89.396065 L124.75148,-89.14938 L124.87308,-88.90308 L124.99456,-88.65717 L125.11594,-88.41165 L125.2372,-88.16652 L125.35835,-87.921776 L125.479385,-87.67743 L125.60031,-87.43348 L125.72112,-87.18992 L125.84183,-86.94676 L125.96241,-86.703995 L126.08288,-86.461624 L126.20324,-86.21966 L126.32348,-85.978096 L126.4436,-85.73693 L126.563614,-85.49617 L126.68351,-85.25581 L126.80329,-85.01587 L126.92296,-84.77632 L127.0425,-84.537186 L127.161934,-84.29846 L127.28124,-84.06014 L127.40044,-83.822235 L127.51951,-83.58475 L127.638466,-83.347664 L127.75731,-83.111 L127.87603,-82.87475 L127.99463,-82.638916 L128.11311,-82.4035 L128.23148,-82.16851 L128.3497,-81.93394 L128.46783,-81.69978 L128.58583,-81.46606 L128.7037,-81.23275 L128.82146,-80.99987 L128.93909,-80.76742 L129.0566,-80.53539 L129.174,-80.303795 L129.29126,-80.072624 L129.4084,-79.84189 L129.5254,-79.61158 L129.6423,-79.381714 L129.75908,-79.152275 L129.87572,-78.92327 L129.99223,-78.69471 L130.10863,-78.46658 L130.2249,-78.2389 L130.34105,-78.01165 L130.45706,-77.78484 L130.57295,-77.55848 L130.6887,-77.33256 L130.80435,-77.107086 L130.91986,-76.88206 L131.03523,-76.65747 L131.15048,-76.43334 L131.26561,-76.209656 L131.3806,-75.98643 L131.49547,-75.76364 L131.6102,-75.54131 L131.72481,-75.31944 L131.83928,-75.09802 L131.95361,-74.87706 L132.06783,-74.656555 L132.18192,-74.43651 L132.29585,-74.21693 L132.40968,-73.997795 L132.52336,-73.77914 L132.63692,-73.560936 L132.75034,-73.3432 L132.86362,-73.12593 L132.97678,-72.909134 L133.08978,-72.692795 L133.20267,-72.47693 L133.31541,-72.261536 L133.42804,-72.046616 L133.54051,-71.83216 L133.65285,-71.61819 L133.76506,-71.404686 L133.87714,-71.19166 L133.98906,-70.97911 L134.10086,-70.767044 L134.21252,-70.55545 L134.32405,-70.344345 L134.43542,-70.13372 L134.54668,-69.92358 L134.65778,-69.71391 L134.76875,-69.50474 L134.87958,-69.29605 L134.99026,-69.08785 L135.10081,-68.88014 L135.21123,-68.67292 L135.32149,-68.46619 L135.43163,-68.25995 L135.54161,-68.05421 L135.65144,-67.84896 L135.76115,-67.6442 L135.87071,-67.43995 L135.98013,-67.23619 L136.0894,-67.03293 L136.19853,-66.83017 L136.30753,-66.627914 L136.41637,-66.42616 L136.52507,-66.224915 L136.63362,-66.02417 L136.74203,-65.82393 L136.8503,-65.6242 L136.95842,-65.42497 L137.06639,-65.22626 L137.17421,-65.02806 L137.28189,-64.83037 L137.38942,-64.633194 L137.49681,-64.43653 L137.60405,-64.24038 L137.71114,-64.044754 L137.81808,-63.84964 L137.92488,-63.65505 L138.03152,-63.460976 L138.13802,-63.26742 L138.24435,-63.074394 L138.35056,-62.88189 L138.4566,-62.689907 L138.5625,-62.49845 L138.66824,-62.307526 L138.77383,-62.117126 L138.87927,-61.927254 L138.98456,-61.737915 L139.0897,-61.549107 L139.19469,-61.360832 L139.29951,-61.17309 L139.40419,-60.985886 L139.50871,-60.799217 L139.61308,-60.613087 L139.7173,-60.427494 L139.82137,-60.242443 L139.92528,-60.05793 L140.02902,-59.87396 L140.13263,-59.690533 L140.23607,-59.507652 L140.33934,-59.325317 L140.44247,-59.143528 L140.54544,-58.962284 L140.64825,-58.781593 L140.75092,-58.60145 L140.85341,-58.42186 L140.95575,-58.242825 L141.05794,-58.06434 L141.15996,-57.88641 L141.26183,-57.709038 L141.36353,-57.53222 L141.46507,-57.355965 L141.56645,-57.180267 L141.66768,-57.005127 L141.76874,-56.830555 L141.86963,-56.65654 L141.97037,-56.483093 L142.07095,-56.31021 L142.17137,-56.137894 L142.27162,-55.966145 L142.3717,-55.794968 L142.47163,-55.624355 L142.5714,-55.45432 L142.671,-55.28485 L142.77043,-55.11596 L142.8697,-54.947643 L142.96881,-54.7799 L143.06775,-54.612736 L143.16652,-54.446148 L143.26514,-54.28014 L143.36357,-54.11471 L143.46185,-53.949863 L143.55997,-53.785603 L143.65791,-53.62192 L143.75568,-53.458828 L143.85329,-53.29632 L143.95073,-53.1344 L144.048,-52.97307 L144.1451,-52.812325 L144.24203,-52.652172 L144.33879,-52.492615 L144.4354,-52.33365 L144.53181,-52.175274 L144.62807,-52.017498 L144.72415,-51.860317 L144.82005,-51.703735 L144.9158,-51.547752 L145.01137,-51.39237 L145.10677,-51.237587 L145.20198,-51.08341 L145.29703,-50.929832 L145.3919,-50.776863 L145.48662,-50.624496 L145.58115,-50.472736 L145.67549,-50.321587 L145.76968,-50.171047 L145.86368,-50.02112 L145.95752,-49.8718 L146.05116,-49.723095 L146.14465,-49.575 L146.23795,-49.427525 L146.33109,-49.280666 L146.42403,-49.134422 L146.5168,-48.9888 L146.6094,-48.843796 L146.70181,-48.699413 L146.79405,-48.555653 L146.88612,-48.412514 L146.978,-48.27 L147.0697,-48.128113 L147.16122,-47.98685 L147.25258,-47.84622 L147.34373,-47.706215 L147.43472,-47.56684 L147.52553,-47.4281 L147.61615,-47.28999 L147.70659,-47.152515 L147.79684,-47.015675 L147.88692,-46.879467 L147.97682,-46.7439 L148.06653,-46.60897 L148.15605,-46.47468 L148.24539,-46.34103 L148.33456,-46.208023 L148.42354,-46.07566 L148.51233,-45.94394 L148.60094,-45.812862 L148.68936,-45.682434 L148.7776,-45.552654 L148.86565,-45.423523 L148.95352,-45.29504 L149.0412,-45.16721 L149.1287,-45.040028 L149.21599,-44.9135 L149.30312,-44.787632 L149.39005,-44.66242 L149.47678,-44.537857 L149.56334,-44.41396 L149.6497,-44.290718 L149.73587,-44.168137 L149.82187,-44.046215 L149.90765,-43.92496 L149.99327,-43.804367 L150.07867,-43.68444 L150.16391,-43.565178 L150.24895,-43.446583 L150.33379,-43.32866 L150.41844,-43.211403 L150.5029,-43.094814 L150.58716,-42.9789 L150.67123,-42.863663 L150.75511,-42.749096 L150.8388,-42.635204 L150.9223,-42.52199 L151.0056,-42.409454 L151.0887,-42.297596 L151.17162,-42.186417 L151.25433,-42.075924 L151.33685,-41.966106 L151.41917,-41.85698 L151.50131,-41.74853 L151.58324,-41.640774 L151.66498,-41.5337 L151.74652,-41.427315 L151.82785,-41.321617 L151.909,-41.216614 L151.98994,-41.1123 L152.0707,-41.00868 L152.15125,-40.905754 L152.2316,-40.80352 L152.31174,-40.70199 L152.3917,-40.60115 L152.47144,-40.50101 L152.551,-40.40157 L152.63034,-40.302834 L152.70949,-40.204796 L152.78844,-40.107464 L152.86719,-40.010834 L152.94572,-39.91491 L153.02406,-39.819695 L153.1022,-39.725185 L153.18015,-39.631386 L153.25787,-39.538296 L153.3354,-39.445915 L153.41273,-39.35425 L153.48985,-39.263298 L153.56677,-39.17306 L153.64348,-39.08354 L153.71999,-38.994736 L153.79628,-38.90665 L153.87238,-38.819283 L153.94826,-38.73264 L154.02394,-38.646713 L154.09941,-38.561512 L154.17468,-38.477036 L154.24974,-38.393284 L154.3246,-38.310257 L154.39923,-38.22796 L154.47366,-38.14639 L154.5479,-38.06555 L154.62192,-37.985443 L154.69572,-37.906067 L154.76932,-37.827423 L154.8427,-37.749516 L154.91588,-37.67234 L154.98885,-37.595905 L155.06158,-37.52021 L155.13414,-37.44525 L155.20647,-37.371033 L155.27858,-37.297554 L155.35048,-37.22482 L155.42218,-37.15283 L155.49365,-37.081585 L155.56493,-37.011086 L155.63597,-36.94133 L155.7068,-36.872326 L155.77744,-36.804073 L155.84784,-36.73657 L155.91803,-36.66982 L155.988,-36.603817 L156.05777,-36.538574 L156.1273,-36.474083 L156.19664,-36.41035 L156.26575,-36.347378 L156.33464,-36.28516 L156.40332,-36.223705 L156.47177,-36.16301 L156.54001,-36.103077 L156.60803,-36.043907 L156.67583,-35.985504 L156.74342,-35.927864 L156.81078,-35.87099 L156.87793,-35.814888 L156.94484,-35.759552 L157.01155,-35.70499 L157.07803,-35.651196 L157.14429,-35.598175 L157.21033,-35.54593 L157.27614,-35.49446 L157.34174,-35.443764 L157.4071,-35.39385 L157.47226,-35.344707 L157.53719,-35.29635 L157.60188,-35.24877 L157.66637,-35.201973 L157.73062,-35.15596 L157.79465,-35.110733 L157.85846,-35.066288 L157.92203,-35.022633 L157.98538,-34.979763 L158.04852,-34.937683 L158.11142,-34.896393 L158.17409,-34.855896 L158.23654,-34.81619 L158.29877,-34.777275 L158.36076,-34.73916 L158.42252,-34.701836 L158.48405,-34.66531 L158.54536,-34.629585 L158.60645,-34.594658 L158.6673,-34.56053 L158.72792,-34.527206 L158.78831,-34.494682 L158.84848,-34.462967 L158.9084,-34.432053 L158.96811,-34.401947 L159.02757,-34.372646 L159.0868,-34.344154 L159.14581,-34.316475 L159.20459,-34.289604 L159.26314,-34.263546 L159.32144,-34.238304 L159.37952,-34.213875 L159.43735,-34.190258 L159.49496,-34.16746 L159.55234,-34.14548 L159.60947,-34.12432 L159.66638,-34.10398 L159.72305,-34.08446 L159.77948,-34.065765 L159.83568,-34.047894 L159.89163,-34.030846 L159.94736,-34.01462 L160.00285,-33.99923 L160.0581,-33.98466 L160.11311,-33.97092 L160.1679,-33.958008 L160.22244,-33.94592 L160.27675,-33.934654 L160.33083,-33.924213 L160.38467,-33.914593 L160.43828,-33.905792 L160.49165,-33.89781 L160.5448,-33.89065 L160.59773,-33.884308 L160.65042,-33.878777 L160.70288,-33.874065 L160.75511,-33.870167 L160.80711,-33.86708 L160.85889,-33.864807 L160.91045,-33.863342 L160.96178,-33.86269 L161.01288,-33.862843 L161.06375,-33.863808 L161.11441,-33.865574 L161.16484,-33.86815 L161.21506,-33.87153 L161.26505,-33.87571 L161.31482,-33.880695 L161.36438,-33.88648 L161.41371,-33.893063 L161.46283,-33.900448 L161.51172,-33.908627 L161.56041,-33.917606 L161.60887,-33.92738 L161.65712,-33.937946 L161.70515,-33.949306 L161.75298,-33.96146 L161.80058,-33.974407 L161.84798,-33.98814 L161.89516,-34.002663 L161.94214,-34.017975 L161.9889,-34.034073 L162.03545,-34.05096 L162.0818,-34.068626 L162.12793,-34.087082 L162.17386,-34.106316 L162.21959,-34.12633 L162.26509,-34.14713 L162.31041,-34.168705 L162.35551,-34.19106 L162.40042,-34.214188 L162.44511,-34.238094 L162.48961,-34.262775 L162.5339,-34.28823 L162.57799,-34.31446 L162.62189,-34.34146 L162.66557,-34.36923 L162.70908,-34.39777 L162.75237,-34.42708 L162.79546,-34.457153 L162.83836,-34.487995 L162.88107,-34.5196 L162.92357,-34.55197 L162.96588,-34.585102 L163.00801,-34.618996 L163.04993,-34.653652 L163.09166,-34.689068 L163.13321,-34.725243 L163.17456,-34.762173 L163.21571,-34.79986 L163.25668,-34.838303 L163.29747,-34.8775 L163.33806,-34.91745 L163.37846,-34.95815 L163.41867,-34.999603 L163.45871,-35.041805 L163.49855,-35.084755 L163.53821,-35.128456 L163.57768,-35.1729 L163.61697,-35.21809 L163.65608,-35.264027 L163.695,-35.310703 L163.73375,-35.358124 L163.77232,-35.406284 L163.8107,-35.455185 L163.8489,-35.504826 L163.88693,-35.555202 L163.92477,-35.60632 L163.96245,-35.65817 L163.99995,-35.710754 L164.03726,-35.764072 L164.0744,-35.818123 L164.11137,-35.872906 L164.14818,-35.928417 L164.1848,-35.984657 L164.22124,-36.041626 L164.25752,-36.099323 L164.29362,-36.157745 L164.32957,-36.216892 L164.36534,-36.27676 L164.40094,-36.337353 L164.43637,-36.398666 L164.47163,-36.4607 L164.50673,-36.523457 L164.54166,-36.58693 L164.57642,-36.65112 L164.61102,-36.716022 L164.64546,-36.781643 L164.67973,-36.847977 L164.71384,-36.915024 L164.74779,-36.98278 L164.78159,-37.05125 L164.81522,-37.12043 L164.84868,-37.190315 L164.88199,-37.26091 L164.91515,-37.33221 L164.94814,-37.404213 L164.98097,-37.476925 L165.01366,-37.550335 L165.04617,-37.62445 L165.07855,-37.699265 L165.11076,-37.77478 L165.14282,-37.850994 L165.17474,-37.927902 L165.2065,-38.00551 L165.2381,-38.083813 L165.26956,-38.162807 L165.30087,-38.2425 L165.33203,-38.32288 L165.36304,-38.403954 L165.3939,-38.485714 L165.42462,-38.568165 L165.45518,-38.651306 L165.48561,-38.73513 L165.51588,-38.81964 L165.54602,-38.90484 L165.576,-38.990715 L165.60587,-39.07728 L165.63556,-39.16452 L165.66513,-39.25244 L165.69455,-39.34104 L165.72385,-39.43032 L165.75299,-39.52028 L165.782,-39.61091 L165.81085,-39.702213 L165.83958,-39.794193 L165.86818,-39.886845 L165.89665,-39.98017 L165.92497,-40.074165 L165.95316,-40.168827 L165.98122,-40.264156 L166.00914,-40.360153 L166.03693,-40.456818 L166.06459,-40.554146 L166.09212,-40.652138 L166.11952,-40.750793 L166.14679,-40.85011 L166.17393,-40.95009 L166.20094,-41.050724 L166.22783,-41.15202 L166.2546,-41.25397 L166.28122,-41.35658 L166.30774,-41.45984 L166.33412,-41.563755 L166.36038,-41.668327 L166.38652,-41.77355 L166.41254,-41.879417 L166.43843,-41.98594 L166.4642,-42.09311 L166.48985,-42.200928 L166.51538,-42.30939 L166.5408,-42.4185 L166.5661,-42.52825 L166.59128,-42.63865 L166.61633,-42.749687 L166.64128,-42.861362 L166.6661,-42.973682 L166.69083,-43.08664 L166.71542,-43.200233 L166.73991,-43.314465 L166.7643,-43.429333 L166.78856,-43.54483 L166.81271,-43.660965 L166.83676,-43.777733 L166.86069,-43.89513 L166.88452,-44.013157 L166.90823,-44.131813 L166.93184,-44.251095 L166.95534,-44.371006 L166.97874,-44.49154 L167.00203,-44.6127 L167.0252,-44.734486 L167.0483,-44.85689 L167.07127,-44.97992 L167.09415,-45.103565 L167.11693,-45.227833 L167.1396,-45.352715 L167.16217,-45.478218 L167.18465,-45.604336 L167.20702,-45.731064 L167.2293,-45.85841 L167.25146,-45.98637 L167.27354,-46.114937 L167.29553,-46.244118 L167.31743,-46.373905 L167.33922,-46.504303 L167.36092,-46.635307 L167.38252,-46.76692 L167.40404,-46.89913 L167.42546,-47.031948 L167.4468,-47.16537 L167.46803,-47.299393 L167.48918,-47.434017 L167.51024,-47.56924 L167.5312,-47.705063 L167.5521,-47.84148 L167.57289,-47.978493 L167.5936,-48.116104 L167.61423,-48.254307 L167.63477,-48.393105 L167.65523,-48.532494 L167.6756,-48.67247 L167.69588,-48.81304 L167.7161,-48.954197 L167.73622,-49.095943 L167.75626,-49.238274 L167.77623,-49.38119 L167.79611,-49.52469 L167.81592,-49.668774 L167.83565,-49.81344 L167.8553,-49.958687 L167.87486,-50.10451 L167.89436,-50.250916 L167.91379,-50.3979 L167.93314,-50.54546 L167.95242,-50.693592 L167.97162,-50.842304 L167.99075,-50.991585 L168.00981,-51.14144 L168.0288,-51.291866 L168.04771,-51.44286 L168.06656,-51.594425 L168.08534,-51.74656 L168.10405,-51.899258 L168.1227,-52.05252 L168.14127,-52.206352 L168.15979,-52.360744 L168.17822,-52.515697 L168.19661,-52.671215 L168.21492,-52.827293 L168.23318,-52.98393 L168.25137,-53.14112 L168.2695,-53.298874 L168.28757,-53.45718 L168.30559,-53.616043 L168.32353,-53.775455 L168.34142,-53.935425 L168.35925,-54.095943 L168.37703,-54.25701 L168.39474,-54.418633 L168.4124,-54.5808 L168.43001,-54.743515 L168.44756,-54.906773 L168.46506,-55.07058 L168.4825,-55.23493 L168.4999,-55.39982 L168.51723,-55.565254 L168.53452,-55.731228 L168.55176,-55.897743 L168.56894,-56.064793 L168.58609,-56.232384 L168.60318,-56.40051 L168.62021,-56.56917 L168.6372,-56.738365 L168.65416,-56.908092 L168.67107,-57.078354 L168.68793,-57.24914 L168.70474,-57.420464 L168.72151,-57.59231 L168.73824,-57.76469 L168.75493,-57.93759 L168.77158,-58.11102 L168.78818,-58.284973 L168.80473,-58.45945 L168.82126,-58.634445 L168.83775,-58.809963 L168.8542,-58.986004 L168.8706,-59.16256 L168.887,-59.339634 L168.90332,-59.517227 L168.91963,-59.695335 L168.9359,-59.873955 L168.95213,-60.053093 L168.96834,-60.23274 L168.98451,-60.4129 L169.00066,-60.593567 L169.01677,-60.774746 L169.03284,-60.95643 L169.04889,-61.138622 L169.06491,-61.32132 L169.0809,-61.504524 L169.09688,-61.68823 L169.11281,-61.872437 L169.12872,-62.057148 L169.14462,-62.24236 L169.16048,-62.42807 L169.17633,-62.614277 L169.19214,-62.80098 L169.20793,-62.988182 L169.22371,-63.175877 L169.23946,-63.364067 L169.25519,-63.55275 L169.2709,-63.74192 L169.2866,-63.931587 L169.30228,-64.12174 L169.31793,-64.31238 L169.33357,-64.50351 L169.3492,-64.69512 L169.36482,-64.88722 L169.38042,-65.07981 L169.396,-65.27287 L169.41156,-65.46642 L169.42712,-65.66045 L169.44266,-65.854965 L169.45819,-66.04995 L169.47372,-66.245415 L169.48923,-66.44136 L169.50475,-66.63777 L169.52023,-66.83466 L169.53572,-67.03203 L169.55121,-67.229866 L169.56668,-67.42817 L169.58215,-67.626945 L169.59763,-67.82619 L169.61308,-68.0259 L169.62854,-68.22608 L169.644,-68.42673 L169.65945,-68.62784 L169.6749,-68.82941 L169.69035,-69.03144 L169.70581,-69.23394 L169.72127,-69.43689 L169.73672,-69.640305 L169.75218,-69.84418 L169.76764,-70.04851 L169.7831,-70.25329 L169.79857,-70.45853 L169.81404,-70.66422 L169.82953,-70.87037 L169.845,-71.076965 L169.8605,-71.284004 L169.876,-71.4915 L169.89151,-71.69945 L169.90703,-71.90784 L169.92256,-72.11667 L169.9381,-72.32595 L169.95366,-72.535675 L169.96922,-72.74584 L169.98479,-72.95645 L170.00038,-73.167496 L170.01599,-73.37899 L170.03162,-73.59091 L170.04724,-73.803276 L170.0629,-74.016075 L170.07857,-74.22931 L170.09425,-74.44298 L170.10995,-74.657074 L170.12569,-74.87161 L170.14143,-75.08657 L170.1572,-75.30196 L170.17297,-75.517784 L170.18878,-75.73403 L170.20462,-75.95071 L170.22047,-76.16781 L170.23634,-76.38533 L170.25226,-76.60328 L170.26819,-76.82164 L170.28413,-77.040436 L170.30013,-77.25964 L170.31613,-77.47927 L170.33217,-77.69931 L170.34824,-77.91977 L170.36433,-78.14065 L170.38046,-78.36194 L170.39662,-78.58364 L170.41281,-78.805756 L170.42903,-79.02828 L170.4453,-79.25122 L170.46158,-79.47456 L170.4779,-79.69832 L170.49426,-79.92248 L170.51067,-80.14704 L170.5271,-80.37202 L170.54358,-80.59739 L170.56007,-80.82316 L170.57663,-81.04934 L170.59322,-81.27591 L170.60985,-81.50289 L170.62651,-81.73026 L170.64323,-81.95803 L170.65999,-82.186195 L170.67677,-82.41476 L170.69362,-82.64371 L170.71051,-82.873055 L170.72743,-83.10279 L170.74442,-83.33292 L170.76143,-83.56344 L170.7785,-83.79434 L170.79562,-84.025635 L170.81279,-84.25731 L170.83002,-84.48937 L170.84727,-84.72182 L170.8646,-84.95465 L170.88197,-85.18786 L170.89938,-85.42145 L170.91687,-85.65542 L170.93439,-85.88977 L170.95198,-86.1245 L170.96962,-86.3596 L170.9873,-86.59507 L171.00507,-86.830925 L171.02287,-87.06715 L171.04074,-87.30374 L171.05865,-87.5407 L171.07664,-87.77804 L171.09468,-88.01575 L171.1128,-88.253815 L171.13097,-88.492256 L171.14919,-88.73106 L171.16748,-88.97022 L171.18584,-89.209755 L171.20425,-89.449646 L171.22273,-89.689896 L171.24129,-89.93051 L171.2599,-90.17148 L171.2786,-90.41281 L171.29733,-90.654495 L171.31616,-90.89653 L171.33505,-91.13893 L171.354,-91.381676 L171.37303,-91.62478 L171.39214,-91.868225 L171.41132,-92.11203 L171.43056,-92.35618 L171.44987,-92.60068 L171.46927,-92.84552 L171.48874,-93.090706 L171.50829,-93.33624 L171.52791,-93.58212 L171.54759,-93.82834 L171.56737,-94.0749 L171.58723,-94.3218 L171.60716,-94.56904 L171.62717,-94.81662 L171.64726,-95.06454 L171.66743,-95.31278 L171.6877,-95.56137 L171.70804,-95.81029 L171.72845,-96.05954 L171.74896,-96.30913 L171.76955,-96.55904 L171.79022,-96.80928 L171.81099,-97.05985 L171.83183,-97.31075 L171.85277,-97.56197 L171.8738,-97.81352 L171.89491,-98.06539 L171.9161,-98.31759 L171.93741,-98.57011 L171.95879,-98.822945 L171.98027,-99.0761 L172.00183,-99.329575 L172.0235,-99.58337 L172.04526,-99.83748 L172.0671,-100.0919 L172.08905,-100.34664 L172.11108,-100.601685 L172.13322,-100.85705 L172.15546,-101.112724 L172.1778,-101.368706 L172.20023,-101.625 L172.22276,-101.8816 L172.24539,-102.138504 L172.26813,-102.39571 L172.29095,-102.65323 L172.31389,-102.91104 L172.33693,-103.16916 L172.36008,-103.42758 L172.38333,-103.6863 L172.40668,-103.94532 L172.43015,-104.204636 L172.4537,-104.46425 L172.47737,-104.72416 L172.50116,-104.98436 L172.52504,-105.24486 L172.54904,-105.505646 L172.57315,-105.76672 L172.59737,-106.0281 L172.6217,-106.28976 L172.64615,-106.551704 L172.6707,-106.813934 L172.69537,-107.076454 L172.72015,-107.33926 L172.74506,-107.60234 L172.77007,-107.865715 L172.7952,-108.129364 L172.82045,-108.393295 L172.84581,-108.6575 L172.8713,-108.92199 L172.89691,-109.18675 L172.92262,-109.4518 L172.94847,-109.71711 L172.97444,-109.982704 L173.00053,-110.248566 L173.02673,-110.514694 L173.05307,-110.7811 L173.07953,-111.047775 L173.10611,-111.31471 L173.13281,-111.581924 L173.15965,-111.849396 L173.18661,-112.117134 L173.2137,-112.38514 L173.24092,-112.653404 L173.26826,-112.92193 L173.29575,-113.19072 L173.32335,-113.45977 L173.35109,-113.72907 L173.37897,-113.998634 L173.40697,-114.268456 L173.4351,-114.53853 L173.46336,-114.80886 L173.49178,-115.079445 L173.52031,-115.35027 L173.549,-115.62136 L173.5778,-115.89269 L173.60675,-116.164276 L173.63585,-116.436104 L173.66507,-116.70818 L173.69444,-116.98051 L173.72395,-117.253075 L173.7536,-117.52588 L173.78339,-117.798935 L173.81332,-118.07223 L173.8434,-118.34576 L173.87361,-118.61953 L173.90398,-118.89354 L173.9345,-119.167786 L173.96515,-119.44227 L173.99594,-119.71698 L174.0269,-119.99193 L174.058,-120.26711 L174.08925,-120.54253 L174.12064,-120.81817 L174.15219,-121.09404 L174.18388,-121.37014 L174.21573,-121.64646 L174.24773,-121.92302 L174.27989,-122.19979 L174.3122,-122.47679 L174.34467,-122.75401 L174.37727,-123.031456 L174.41005,-123.30913 L174.44298,-123.587006 L174.47607,-123.86511 L174.50931,-124.143425 L174.54271,-124.42196 L174.57628,-124.700714 L174.61,-124.979675 L174.64389,-125.25885 L174.67793,-125.53824 L174.71214,-125.81783 L174.7465,-126.09764 L174.78105,-126.37766 L174.81575,-126.65788 L174.8506,-126.93831 L174.88564,-127.21895 L174.92084,-127.49979 L174.95619,-127.78082 L174.99173,-128.06207 L175.02742,-128.3435 L175.0633,-128.62515 L175.09933,-128.907 L175.13554,-129.18903 L175.17192,-129.47127 L175.20847,-129.7537 L175.2452,-130.03632 L175.28209,-130.31914 L175.31917,-130.60214 L175.35641,-130.88535 L175.39383,-131.16875 L175.43144,-131.45232 L175.46921,-131.73608 L175.50717,-132.02003 L175.5453,-132.30417 L175.5836,-132.5885 L175.6221,-132.873 L175.66077,-133.1577 L175.69962,-133.44257 L175.73866,-133.72762 L175.77788,-134.01283 L175.81728,-134.29825 L175.85686,-134.58383 L175.89662,-134.86958 L175.93658,-135.15552 L175.97673,-135.44162 L176.01704,-135.7279 L176.05757,-136.01436 L176.09827,-136.30098 L176.13916,-136.58777 L176.18024,-136.87473 L176.22151,-137.16183 L176.26299,-137.44913 L176.30463,-137.73659 L176.34648,-138.0242 L176.38852,-138.31198 L176.43076,-138.59993 L176.47319,-138.88803 L176.51581,-139.17628 L176.55862,-139.4647 L176.60164,-139.75328 L176.64487,-140.04202 L176.68828,-140.3309 L176.73189,-140.61995 L176.7757,-140.90915 L176.8197,-141.19849 L176.86392,-141.48799 L176.90833,-141.77763 L176.95294,-142.06743 L176.99776,-142.35738 L177.04279,-142.64746 L177.08801,-142.93768 L177.13344,-143.22807 L177.17908,-143.51859 L177.22493,-143.80925 L177.27098,-144.10005 L177.31725,-144.39099 L177.36371,-144.68207 L177.41039,-144.9733 L177.45728,-145.26465 L177.50436,-145.55614 L177.55168,-145.84776 L177.5992,-146.13953 L177.64694,-146.43141 L177.69489,-146.72343 L177.74304,-147.01558 L177.79143,-147.30786 L177.84001,-147.60027 L177.88882,-147.89279 L177.93785,-148.18546 L177.9871,-148.47824 L178.03656,-148.77115 L178.08624,-149.06418 L178.13615,-149.35733 L178.18626,-149.65059 L178.23662,-149.94398 L178.28719,-150.23749 L178.33797,-150.53111 L178.38898,-150.82486 L178.44022,-151.11871 L178.49168,-151.41267 L178.54337,-151.70676 L178.59528,-152.00095 L178.64742,-152.29524 L178.69978,-152.58966 L178.75238,-152.88417 L178.8052,-153.1788 L178.85826,-153.47354 L178.91156,-153.76837 L178.96507,-154.06331 L179.01881,-154.35835 L179.0728,-154.6535 L179.12701,-154.94875 L179.18146,-155.24408 L179.23615,-155.53954 L179.29106,-155.83507 L179.34622,-156.1307 L179.40161,-156.42644 L179.45724,-156.72226 L179.5131,-157.01817 L179.56921,-157.31418 L179.62556,-157.61029 L179.68214,-157.90648 L179.73897,-158.20274 L179.79605,-158.49911 L179.85335,-158.79556 L179.9109,-159.0921 L179.9687,-159.38872 L180.02675,-159.68542 L180.08504,-159.98221 L180.14357,-160.27908 L180.20236,-160.57602 L180.26138,-160.87305 L180.32066,-161.17015 L180.38019,-161.46733 L180.43996,-161.76459 L180.49998,-162.06192 L180.56026,-162.35931 L180.62079,-162.65678 L180.68156,-162.95433 L180.7426,-163.25195 L180.8039,-163.54964 L180.86543,-163.84738 L180.92723,-164.1452 L180.98927,-164.44308 L181.05159,-164.74103 L181.11415,-165.03905 L181.17697,-165.33711 L181.24005,-165.63525 L181.3034,-165.93344 L181.367,-166.2317 L181.43086,-166.53001 L181.495,-166.82838 L181.55937,-167.1268 L181.62402,-167.4253 L181.68893,-167.72382 L181.7541,-168.0224 L181.81955,-168.32104 L181.88527,-168.61974 L181.95123,-168.91847 L182.01747,-169.21725 L182.08398,-169.51608 L182.15076,-169.81496 L182.2178,-170.11388 L182.28513,-170.41284 L182.3527,-170.71185 L182.42058,-171.01091 L182.48871,-171.31 L182.5571,-171.60913 L182.62578,-171.9083 L182.69473,-172.2075 L182.76396,-172.50674 L182.83347,-172.80603 L182.90324,-173.10533 L182.9733,-173.40468 L183.04362,-173.70406 L183.11423,-174.00346 L183.18512,-174.3029 L183.25629,-174.60237 L183.32774,-174.90186 L183.39948,-175.20137 L183.47148,-175.50092 L183.54378,-175.80049 L183.61636,-176.10008 L183.68922,-176.39969 L183.76237,-176.69933 L183.8358,-176.99898 L183.90952,-177.29866 L183.98352,-177.59834 L184.05782,-177.89806 L184.1324,-178.19777 L184.20728,-178.49751 L184.28244,-178.79726 L184.35788,-179.09703 L184.43362,-179.3968 L184.50966,-179.69658 L184.58598,-179.99637 L184.6626,-180.29617 L184.73952,-180.59598 L184.81673,-180.8958 L184.89423,-181.19562 L184.97203,-181.49544 L185.05013,-181.79526 L185.12851,-182.09508 L185.2072,-182.3949 L185.2862,-182.69473 L185.36548,-182.99455 L185.44507,-183.29437 L185.52496,-183.59418 L185.60515,-183.894 L185.68564,-184.19379 L185.76643,-184.49359 L185.84753,-184.79338 L185.92894,-185.09315 L186.01065,-185.39291 L186.09267,-185.69267 L186.17499,-185.99242 L186.25763,-186.29214 L186.34056,-186.59186 L186.42381,-186.89156 L186.50737,-187.19124 L186.59123,-187.49089 L186.6754,-187.79054 L186.75989,-188.09016 L186.8447,-188.38976 L186.92981,-188.68933 L187.01523,-188.98889 L187.10098,-189.28842 L187.18703,-189.58792 L187.2734,-189.88739 L187.36009,-190.18684 L187.4471,-190.48627 L187.53442,-190.78564 L187.62206,-191.085 L187.71002,-191.38434 L187.7983,-191.68362 L187.8869,-191.98288 L187.97583,-192.2821 L188.06506,-192.58128 L188.15463,-192.88043 L188.24452,-193.17953 L188.33475,-193.4786 L188.42528,-193.77762 L188.51614,-194.07661 L188.60735,-194.37555 L188.69885,-194.67444 L188.7907,-194.9733 L188.88287,-195.2721 L188.97539,-195.57085 L189.0682,-195.86955 L189.16138,-196.16821 L189.25487,-196.46681 L189.3487,-196.76537 L189.44286,-197.06387 L189.53735,-197.36232 L189.63217,-197.6607 L189.72734,-197.95905 L189.82283,-198.25732 L189.91867,-198.55554 L190.01483,-198.8537 L190.11134,-199.1518 L190.20819,-199.44983 L190.30537,-199.7478 L190.4029,-200.04572 L190.50076,-200.34355 L190.59897,-200.64133 L190.69751,-200.93904 L190.7964,-201.23668 L190.89565,-201.53426 L190.99521,-201.83176 L191.09514,-202.12918 L191.1954,-202.42654 L191.29602,-202.72382 L191.39697,-203.02103 L191.49828,-203.31816 L191.59993,-203.61522 L191.70193,-203.9122 L191.80429,-204.20909 L191.907,-204.5059 L192.01004,-204.80264 L192.11345,-205.09929 L192.21721,-205.39586 L192.32132,-205.69235 L192.42578,-205.98875 L192.53061,-206.28506 L192.63577,-206.58128 L192.7413,-206.87741 L192.8472,-207.17346 L192.95345,-207.4694 L193.06004,-207.76527 L193.167,-208.06104 L193.27432,-208.3567 L193.382,-208.65228 L193.49004,-208.94777 L193.59843,-209.24315 L193.7072,-209.53844 L193.81633,-209.83362 L193.92583,-210.1287 L194.03568,-210.42368 L194.1459,-210.71855 L194.25648,-211.01332 L194.36743,-211.308 L194.47876,-211.60255 L194.59044,-211.897 L194.7025,-212.19135 L194.81493,-212.48558 L194.92772,-212.77971 L195.04088,-213.07372 L195.15442,-213.36761 L195.26833,-213.66139 L195.3826,-213.95506 L195.49725,-214.24861 L195.61229,-214.54205 L195.72769,-214.83537 L195.84348,-215.12856 L195.95963,-215.42163 L196.07616,-215.71458 L196.19307,-216.00742 L196.31035,-216.30013 L196.42802,-216.59271 L196.54607,-216.88516 L196.6645,-217.17749 L196.78331,-217.4697 L196.9025,-217.76176 L197.02206,-218.05371 L197.14203,-218.34552 L197.26236,-218.63719 L197.38309,-218.92873 L197.5042,-219.22014 L197.6257,-219.51141 L197.74759,-219.80254 L197.86986,-220.09354 L197.99251,-220.3844 L198.11555,-220.67511 L198.239,-220.96568 L198.36282,-221.25612 L198.48705,-221.5464 L198.61166,-221.83655 L198.73666,-222.12654 L198.86206,-222.4164 L198.98785,-222.7061 L199.11403,-222.99565 L199.24062,-223.28506 L199.36758,-223.57431 L199.49496,-223.86342 L199.62273,-224.15236 L199.7509,-224.44116 L199.87947,-224.7298 L200.00844,-225.01826 L200.1378,-225.3066 L200.26756,-225.59476 L200.39774,-225.88277 L200.5283,-226.17061 L200.65929,-226.45828 L200.79066,-226.7458 L200.92244,-227.03316 L201.05463,-227.32034 L201.18723,-227.60736 L201.32022,-227.89423 L201.45363,-228.18091 L201.58745,-228.46742 L201.72166,-228.75377 L201.85631,-229.03993 L201.99135,-229.32594 L202.1268,-229.61176 L202.26266,-229.89742 L202.39894,-230.18289 L202.53563,-230.46819 L202.67274,-230.7533 L202.81026,-231.03824 L202.9482,-231.323 L203.08655,-231.60757 L203.22531,-231.89197 L203.36449,-232.17618 L203.50409,-232.4602 L203.6441,-232.74403 L203.78455,-233.0277 L203.9254,-233.31116 L204.06668,-233.59442 L204.20839,-233.8775 L204.35051,-234.1604 L204.49306,-234.4431 L204.63602,-234.7256 L204.7794,-235.00792 L204.92323,-235.29002 L205.06747,-235.57195 L205.21214,-235.85367 L205.35724,-236.13518 L205.50276,-236.4165 L205.64871,-236.69762 L205.79509,-236.97855 L205.9419,-237.25925 L206.08914,-237.53976 L206.23682,-237.82007 L206.38492,-238.10016 L206.53346,-238.38005 L206.68242,-238.65973 L206.83183,-238.9392 L206.98167,-239.21844 L207.13194,-239.4975 L207.28265,-239.77632 L207.4338,-240.05495 L207.58539,-240.33334 L207.73741,-240.61153 L207.88988,-240.8895 L208.04277,-241.16725 L208.1961,-241.44478 L208.3499,-241.72209 L208.50412,-241.99918 L208.65878,-242.27603 L208.8139,-242.55267 L208.96945,-242.82909 L209.12544,-243.10527 L209.28189,-243.38123 L209.43878,-243.65697 L209.59612,-243.93246 L209.7539,-244.20773 L209.91214,-244.48277 L210.07082,-244.75758 L210.22995,-245.03215 L210.38953,-245.30649 L210.54956,-245.58058 L210.71004,-245.85445 L210.87097,-246.12807 L211.03236,-246.40146 L211.1942,-246.6746 L211.3565,-246.94751 L211.51926,-247.22017 L211.68246,-247.49258 L211.84613,-247.76476 L212.01024,-248.03668 L212.17482,-248.30835 L212.33986,-248.57979 L212.50536,-248.85097 L212.67131,-249.1219 L212.83774,-249.39258 L213.00461,-249.663 L213.17195,-249.93318 L213.33975,-250.2031 L213.50803,-250.47275 L213.67676,-250.74216 L213.84595,-251.0113 L214.01561,-251.2802 L214.18575,-251.54883 L214.35634,-251.81718 L214.5274,-252.0853 L214.69894,-252.35313 L214.87094,-252.62071 L215.04341,-252.88802 L215.21635,-253.15506 L215.38977,-253.42184 L215.56366,-253.68835 L215.738,-253.95459 L215.91284,-254.22055 L216.08815,-254.48625 L216.26393,-254.75166 L216.44019,-255.01682 L216.61691,-255.28168 L216.79413,-255.54628 L216.97182,-255.8106 L217.14998,-256.07465 L217.32863,-256.33838 L217.50775,-256.60187 L217.68735,-256.86505 L217.86743,-257.128 L218.048,-257.3906 L218.22905,-257.65295 L218.41058,-257.915 L218.5926,-258.1768 L218.77512,-258.43826 L218.9581,-258.69943 L219.14157,-258.96036 L219.32553,-259.22095 L219.50998,-259.48126 L219.69492,-259.7413 L219.88034,-260.001 L220.06625,-260.26044 L220.25266,-260.5196 L220.43956,-260.7784 L220.62695,-261.03696 L220.81482,-261.2952 L221.0032,-261.55313 L221.19206,-261.81076 L221.38142,-262.06808 L221.57129,-262.3251 L221.76164,-262.58182 L221.95248,-262.83823 L222.14383,-263.09433 L222.33568,-263.35013 L222.52803,-263.60562 L222.72087,-263.86078 L222.91422,-264.11563 L223.10806,-264.37018 L223.3024,-264.62442 L223.49725,-264.87833 L223.69261,-265.13193 L223.88846,-265.3852 L224.08482,-265.63815 L224.28168,-265.8908 L224.47905,-266.14313 L224.67693,-266.3951 L224.87532,-266.6468 L225.0742,-266.89813 L225.2736,-267.14917 L225.47353,-267.39987 L225.67393,-267.65024 L225.87488,-267.90027 L226.07631,-268.15 L226.27827,-268.39935 L226.48074,-268.6484 L226.68372,-268.89713 L226.8872,-269.1455 L227.09122,-269.39355 L227.29575,-269.64127 L227.5008,-269.8886 L227.70634,-270.13565 L227.91243,-270.38235 L228.11902,-270.6287 L228.32614,-270.8747 L228.53377,-271.12036 L228.74193,-271.3657 L228.9506,-271.6107 L229.1598,-271.85532 L229.36952,-272.09958 L229.57977,-272.34354 L229.79054,-272.5871 L230.00183,-272.83035 L230.21365,-273.0732 L230.426,-273.31577 L230.63887,-273.55792 L230.85228,-273.79974 L231.06621,-274.04123 L231.28065,-274.28232 L231.49565,-274.52307 L231.71117,-274.76346 L231.92722,-275.0035 L232.1438,-275.24316 L232.36092,-275.48248 L232.57855,-275.7214 L232.79674,-275.96 L233.01546,-276.1982 L233.23471,-276.43607 L233.4545,-276.67352 L233.67482,-276.91064 L233.89568,-277.14737 L234.11708,-277.38376 L234.33902,-277.61975 L234.5615,-277.85535 L234.78452,-278.0906 L235.00807,-278.32547 L235.23218,-278.55997 L235.45682,-278.7941 L235.682,-279.02783 L235.90773,-279.26117 L236.134,-279.49414 L236.36082,-279.72675 L236.5882,-279.95895 L236.81612,-280.1908 L237.04457,-280.4222 L237.27357,-280.6533 L237.50314,-280.88394 L237.73325,-281.11423 L237.9639,-281.34412 L238.19511,-281.5736 L238.42686,-281.8027 L238.65918,-282.03143 L238.89204,-282.25974 L239.12546,-282.48767 L239.35944,-282.71518 L239.59396,-282.94232 L239.82906,-283.16904 L240.06468,-283.3954 L240.30089,-283.6213 L240.53763,-283.84683 L240.77493,-284.07193 L241.01279,-284.29663 L241.25117,-284.52094 L241.49011,-284.74478 L241.72958,-284.96823 L241.96959,-285.19125 L242.21011,-285.41385 L242.45119,-285.636 L242.69278,-285.85773 L242.93489,-286.07898 L243.17754,-286.2998 L243.42068,-286.5202 L243.66435,-286.7401 L243.90854,-286.9596 L244.15323,-287.17862 L244.39842,-287.39716 L244.64412,-287.61523 L244.8903,-287.83286 L245.137,-288.05 L245.38419,-288.26666 L245.63185,-288.48285 L245.88002,-288.69855 L246.12866,-288.91376 L246.37779,-289.12848 L246.6274,-289.34268 L246.87747,-289.55643 L247.12802,-289.76962 L247.37904,-289.98236 L247.63054,-290.19455 L247.88249,-290.40625 L248.1349,-290.6174 L248.38777,-290.82806 L248.64108,-291.03818 L248.89487,-291.2478 L249.14908,-291.45685 L249.40375,-291.66537 L249.65886,-291.87338 L249.91441,-292.08084 L250.1704,-292.28775 L250.4268,-292.49408 L250.68365,-292.6999 L250.94093,-292.90515 L251.19864,-293.10983 L251.45676,-293.31393 L251.71529,-293.5175 L251.97424,-293.7205 L252.23361,-293.92288 L252.4934,-294.1247 L252.75357,-294.32596 L253.01416,-294.5266 L253.27515,-294.72668 L253.53653,-294.92615 L253.7983,-295.12503 L254.06047,-295.3233 L254.32303,-295.521 L254.58597,-295.71805 L254.84929,-295.91452 L255.11299,-296.11035 L255.37708,-296.30557 L255.64153,-296.50015 L255.90634,-296.69415 L256.17154,-296.88748 L256.43707,-297.0802 L256.703,-297.27228 L256.96927,-297.4637 L257.2359,-297.6545 L257.50287,-297.84464 L257.7702,-298.03412 L258.03787,-298.22296 L258.3059,-298.41116 L258.57425,-298.59866 L258.84296,-298.78552 L259.112,-298.9717 L259.38135,-299.15723 L259.65103,-299.34204 L259.92105,-299.52618 L260.1914,-299.70966 L260.46204,-299.89246 L260.73303,-300.07455 L261.0043,-300.25595 L261.2759,-300.43665 L261.54782,-300.61664 L261.82,-300.79593 L262.09253,-300.97452 L262.36533,-301.15237 L262.63843,-301.32953 L262.91183,-301.50598 L263.18552,-301.68167 L263.45947,-301.85666 L263.73373,-302.0309 L264.00827,-302.20444 L264.28308,-302.37723 L264.55817,-302.54926 L264.83353,-302.72055 L265.10913,-302.89108 L265.38504,-303.06088 L265.66116,-303.22992 L265.9376,-303.3982 L266.21426,-303.5657 L266.49118,-303.73245 L266.76834,-303.89844 L267.04575,-304.06363 L267.32343,-304.22806 L267.60132,-304.39172 L267.87946,-304.55457 L268.15784,-304.71664 L268.43643,-304.87793 L268.71527,-305.0384 L268.99435,-305.1981 L269.27362,-305.35696 L269.55313,-305.51505 L269.83286,-305.6723 L270.1128,-305.82874 L270.39294,-305.98438 L270.6733,-306.1392 L270.95386,-306.29318 L271.23462,-306.44632 L271.5156,-306.59866 L271.79675,-306.75015 L272.07813,-306.9008 L272.35965,-307.0506 L272.6414,-307.19955 L272.9233,-307.34766 L273.20538,-307.49493 L273.48767,-307.64133 L273.7701,-307.78687 L274.05273,-307.93155 L274.33554,-308.07535 L274.6185,-308.21826 L274.9016,-308.36032 L275.18488,-308.50153 L275.46832,-308.6418 L275.75192,-308.78122 L276.03564,-308.91974 L276.31955,-309.05737 L276.60358,-309.1941 L276.88776,-309.32993 L277.1721,-309.46484 L277.45654,-309.59888 L277.74112,-309.73196 L278.02585,-309.86417 L278.31067,-309.99542 L278.59564,-310.1258 L278.88074,-310.25522 L279.16595,-310.3837 L279.45126,-310.51126 L279.7367,-310.63788 L280.02225,-310.76358 L280.3079,-310.8883 L280.59366,-311.0121 L280.87952,-311.13492 L281.16547,-311.2568 L281.4515,-311.37775 L281.73764,-311.4977 L282.02386,-311.6167 L282.31018,-311.73474 L282.59656,-311.85178 L282.88303,-311.96786 L283.1696,-312.08295 L283.4562,-312.19708 L283.7429,-312.3102 L284.02966,-312.42233 L284.31647,-312.53348 L284.60336,-312.64362 L284.8903,-312.75275 L285.17728,-312.86087 L285.46432,-312.96802 L285.75143,-313.07413 L286.03857,-313.17923 L286.32578,-313.2833 L286.613,-313.38635 L286.90027,-313.48837 L287.18756,-313.58936 L287.47488,-313.6893 L287.76224,-313.78824 L288.04962,-313.8861 L288.33704,-313.98294 L288.62445,-314.07874 L288.9119,-314.17346 L289.19934,-314.26712 L289.48682,-314.35974 L289.7743,-314.4513 L290.06177,-314.54178 L290.34924,-314.6312 L290.63672,-314.71954 L290.9242,-314.8068 L291.21164,-314.89297 L291.49908,-314.97806 L291.78653,-315.06207 L292.07394,-315.145 L292.36136,-315.2268 L292.6487,-315.3075 L292.93607,-315.38712 L293.2234,-315.46564 L293.51068,-315.54303 L293.79794,-315.6193 L294.08517,-315.69446 L294.37234,-315.7685 L294.6595,-315.84143 L294.94656,-315.9132 L295.2336,-315.98386 L295.5206,-316.05338 L295.80753,-316.12177 L296.0944,-316.189 L296.3812,-316.2551 L296.66794,-316.32004 L296.95462,-316.38382 L297.2412,-316.44644 L297.52774,-316.5079 L297.8142,-316.5682 L298.10056,-316.62735 L298.38687,-316.6853 L298.67307,-316.7421 L298.95917,-316.7977 L299.2452,-316.8521 L299.53113,-316.90536 L299.81696,-316.9574 L300.1027,-317.00824 L300.38834,-317.0579 L300.67383,-317.10635 L300.95926,-317.1536 L301.24454,-317.19965 L301.52972,-317.24448 L301.8148,-317.2881 L302.09973,-317.33047 L302.38455,-317.37164 L302.66925,-317.4116 L302.9538,-317.45032 L303.23822,-317.4878 L303.5225,-317.52405 L303.80664,-317.55905 L304.09067,-317.5928 L304.3745,-317.6253 L304.65823,-317.65656 L304.94177,-317.68655 L305.2252,-317.7153 L305.50842,-317.7428 L305.7915,-317.769 L306.07443,-317.79395 L306.35718,-317.81763 L306.63977,-317.84003 L306.92218,-317.86115 L307.2044,-317.88098 L307.48645,-317.8995 L307.76834,-317.91675 L308.05002,-317.9327 L308.33154,-317.94736 L308.61282,-317.96072 L308.89395,-317.97278 L309.17487,-317.98352 L309.4556,-317.99295 L309.7361,-318.00104 L310.01642,-318.00784 L310.2965,-318.0133 L310.57642,-318.01743 L310.85608,-318.02023 L311.13556,-318.0217 L311.4148,-318.02185 L311.6938,-318.02063 L311.9726,-318.01807 L312.25113,-318.01416 L312.52945,-318.0089 L312.80756,-318.0023 L313.0854,-317.99432 L313.363,-317.985 L313.64035,-317.97427 L313.91748,-317.9622 L314.19434,-317.94873 L314.47095,-317.9339 L314.7473,-317.9177 L315.0234,-317.9001 L315.29922,-317.8811 L315.5748,-317.86072 L315.85007,-317.83896 L316.1251,-317.81577 L316.39984,-317.7912 L316.67432,-317.7652 L316.94852,-317.7378 L317.2224,-317.70898 L317.49603,-317.67874 L317.76938,-317.6471 L318.0424,-317.614 L318.31516,-317.5795 L318.5876,-317.54358 L318.8597,-317.5062 L319.13156,-317.46738 L319.40308,-317.42712 L319.6743,-317.3854 L319.9452,-317.34225 L320.2158,-317.29764 L320.48605,-317.25156 L320.756,-317.20407 L321.02563,-317.1551 L321.29495,-317.1047 L321.56393,-317.0529 L321.8326,-316.99963 L322.10095,-316.94495 L322.369,-316.88882 L322.6367,-316.8313 L322.90405,-316.77237 L323.1711,-316.712 L323.43784,-316.65024 L323.70425,-316.5871 L323.97034,-316.52252 L324.2361,-316.45657 L324.50153,-316.38925 L324.76663,-316.32053 L325.0314,-316.25043 L325.29587,-316.17896 L325.55997,-316.1061 L325.82376,-316.0319 L326.08722,-315.9563 L326.35037,-315.87936 L326.61316,-315.80106 L326.87564,-315.7214 L327.1378,-315.6404 L327.39957,-315.55807 L327.66104,-315.47443 L327.92218,-315.3894 L328.18298,-315.30307 L328.44345,-315.2154 L328.70358,-315.1264 L328.96338,-315.0361 L329.22284,-314.9445 L329.48196,-314.85156 L329.74075,-314.75732 L329.9992,-314.6618 L330.25732,-314.56497 L330.5151,-314.46686 L330.77252,-314.36746 L331.02963,-314.26675 L331.28638,-314.1648 L331.5428,-314.06152 L331.79886,-313.95703 L332.05457,-313.85123 L332.30994,-313.74417 L332.565,-313.63586 L332.81967,-313.5263 L333.07404,-313.4155 L333.32803,-313.30344 L333.5817,-313.19016 L333.835,-313.07562 L334.08795,-312.95984 L334.34058,-312.84283 L334.59283,-312.7246 L334.84476,-312.60516 L335.09634,-312.4845 L335.34756,-312.36264 L335.59842,-312.23953 L335.84894,-312.11526 L336.09912,-311.98978 L336.34894,-311.8631 L336.5984,-311.7352 L336.8475,-311.60614 L337.09625,-311.47592 L337.34467,-311.34448 L337.5927,-311.21188 L337.8404,-311.07813 L338.08774,-310.94318 L338.33472,-310.80707 L338.58133,-310.66983 L338.82758,-310.5314 L339.0735,-310.39185 L339.31903,-310.25116 L339.56424,-310.1093 L339.80905,-309.96634 L340.05353,-309.8222 L340.29764,-309.67697 L340.54138,-309.5306 L340.78476,-309.38312 L341.02777,-309.2345 L341.27042,-309.08478 L341.51273,-308.93396 L341.75464,-308.78204 L341.99622,-308.62903 L342.2374,-308.47488 L342.47824,-308.31967 L342.7187,-308.1634 L342.9588,-308.006 L343.19852,-307.84753 L343.4379,-307.68802 L343.67688,-307.5274 L343.9155,-307.36575 L344.15375,-307.203 L344.39163,-307.0392 L344.62915,-306.8744 L344.86627,-306.7085 L345.10306,-306.54156 L345.33945,-306.3736 L345.57547,-306.2046 L345.81113,-306.03455 L346.0464,-305.86346 L346.28128,-305.69138 L346.5158,-305.51825 L346.74994,-305.34415 L346.9837,-305.169 L347.2171,-304.99286 L347.45013,-304.8157 L347.68277,-304.63757 L347.915,-304.4584 L348.14688,-304.2783 L348.3784,-304.09717 L348.6095,-303.91507 L348.84024,-303.732 L349.0706,-303.54794 L349.30057,-303.3629 L349.53015,-303.17694 L349.75934,-302.99 L349.98816,-302.8021 L350.2166,-302.61325 L350.44464,-302.42346 L350.67233,-302.2327 L350.8996,-302.04102 L351.1265,-301.8484 L351.353,-301.65485 L351.5791,-301.4604 L351.80484,-301.26498 L352.03018,-301.06866 L352.25513,-300.87143 L352.47968,-300.67328 L352.70386,-300.4742 L352.9276,-300.27426 L353.151,-300.07343 L353.374,-299.87167 L353.59662,-299.66904 L353.81882,-299.46555 L354.04062,-299.26114 L354.26202,-299.05585 L354.48306,-298.8497 L354.70367,-298.6427 L354.92392,-298.4348 L355.14374,-298.22607 L355.3632,-298.01648 L355.5822,-297.80603 L355.80087,-297.59473 L356.0191,-297.3826 L356.23694,-297.16962 L356.45438,-296.9558 L356.67142,-296.74118 L356.88806,-296.5257 L357.10428,-296.30942 L357.32013,-296.09232 L357.53555,-295.8744 L357.75058,-295.65564 L357.9652,-295.43613 L358.1794,-295.2158 L358.39322,-294.99466 L358.60663,-294.7727 L358.81964,-294.55 L359.03223,-294.3265 L359.24442,-294.10223 L359.4562,-293.87717 L359.66757,-293.65134 L359.8785,-293.42474 L360.08908,-293.1974 L360.29922,-292.96927 L360.50894,-292.7404 L360.71826,-292.51077 L360.92715,-292.2804 L361.13565,-292.0493 L361.34372,-291.8174 L361.5514,-291.58484 L361.75864,-291.35153 L361.96548,-291.1175 L362.1719,-290.88272 L362.3779,-290.64725 L362.5835,-290.41104 L362.78867,-290.17416 L362.99344,-289.93655 L363.19775,-289.69824 L363.40167,-289.45923 L363.60516,-289.21954 L363.80826,-288.97916 L364.0109,-288.7381 L364.21313,-288.49634 L364.41495,-288.25394 L364.61636,-288.01083 L364.81732,-287.7671 L365.01788,-287.52264 L365.218,-287.2776 L365.4177,-287.03183 L365.61697,-286.78546 L365.81583,-286.53842 L366.01422,-286.29077 L366.21222,-286.04245 L366.4098,-285.79352 L366.60693,-285.54395 L366.80365,-285.29373 L366.99994,-285.04294 L367.1958,-284.7915 L367.3912,-284.53946 L367.5862,-284.2868 L367.78076,-284.03354 L367.97488,-283.7797 L368.1686,-283.52524 L368.36188,-283.27017 L368.5547,-283.01456 L368.7471,-282.75833 L368.93906,-282.50156 L369.13058,-282.24417 L369.3217,-281.98624 L369.51233,-281.72775 L369.70258,-281.4687 L369.89233,-281.20905 L370.0817,-280.94888 L370.2706,-280.68814 L370.45908,-280.42688 L370.6471,-280.16507 L370.8347,-279.9027 L371.02182,-279.63983 L371.20853,-279.37643 L371.3948,-279.1125 L371.58063,-278.84805 L371.76602,-278.58307 L371.95096,-278.3176 L372.13544,-278.0516 L372.3195,-277.78513 L372.50308,-277.51813 L372.68625,-277.25064 L372.86896,-276.98267 L373.05124,-276.7142 L373.23303,-276.44525 L373.41443,-276.17584 L373.59534,-275.90594 L373.77582,-275.6356 L373.95584,-275.36475 L374.1354,-275.09348 L374.3145,-274.82172 L374.4932,-274.5495 L374.67142,-274.27686 L374.84918,-274.00375 L375.0265,-273.73022 L375.20337,-273.45627 L375.37976,-273.18185 L375.55573,-272.90704 L375.7312,-272.63177 L375.90625,-272.3561 L376.08084,-272.08002 L376.25497,-271.80353 L376.42865,-271.5266 L376.60184,-271.2493 L376.7746,-270.97162 L376.9469,-270.6935 L377.11874,-270.415 L377.2901,-270.13614 L377.46103,-269.85687 L377.63147,-269.57724 L377.80145,-269.29724 L377.97098,-269.01688 L378.14005,-268.73615 L378.30865,-268.45505 L378.4768,-268.17358 L378.64447,-267.89175 L378.81168,-267.60962 L378.97842,-267.32712 L379.14468,-267.04428 L379.31052,-266.7611 L379.47583,-266.4776 L379.64072,-266.19376 L379.8051,-265.9096 L379.96906,-265.62512 L380.13254,-265.34033 L380.29553,-265.05524 L380.45804,-264.76984 L380.6201,-264.48413 L380.78168,-264.19815 L380.94278,-263.91183 L381.10342,-263.62524 L381.26358,-263.33838 L381.42328,-263.05124 L381.5825,-262.7638 L381.7412,-262.4761 L381.89948,-262.18814 L382.05728,-261.8999 L382.21457,-261.61142 L382.3714,-261.32266 L382.52777,-261.03366 L382.68362,-260.74445 L382.83902,-260.45496 L382.99396,-260.16522 L383.14838,-259.87524 L383.30234,-259.58505 L383.4558,-259.29465 L383.6088,-259.004 L383.7613,-258.71317 L383.91333,-258.4221 L384.06488,-258.1308 L384.2159,-257.83932 L384.3665,-257.54764 L384.51657,-257.25574 L384.66617,-256.96368 L384.8153,-256.67142 L384.96393,-256.37897 L385.11206,-256.08633 L385.2597,-255.79353 L385.40686,-255.50055 L385.55353,-255.20741 L385.69974,-254.91411 L385.84543,-254.62065 L385.99063,-254.32703 L386.1353,-254.03326 L386.27954,-253.73933 L386.42328,-253.44528 L386.5665,-253.1511 L386.70923,-252.85675 L386.85147,-252.5623 L386.99323,-252.26772 L387.1345,-251.973 L387.27524,-251.67818 L387.4155,-251.38326 L387.55527,-251.08821 L387.69452,-250.79306 L387.83328,-250.4978 L387.97156,-250.20247 L388.10934,-249.90703 L388.2466,-249.6115 L388.38336,-249.31589 L388.51962,-249.0202 L388.6554,-248.72444 L388.79065,-248.42862 L388.9254,-248.13272 L389.0597,-247.83675 L389.19342,-247.54073 L389.3267,-247.24466 L389.4594,-246.94853 L389.59167,-246.65237 L389.7234,-246.35616 L389.8546,-246.0599 L389.98535,-245.76363 L390.11554,-245.46732 L390.24524,-245.17099 L390.37445,-244.87463 L390.5031,-244.57826 L390.6313,-244.28188 L390.75897,-243.98549 L390.8861,-243.68909 L391.01276,-243.3927 L391.1389,-243.09631 L391.2645,-242.79993 L391.3896,-242.50356 L391.5142,-242.20721 L391.63824,-241.91087 L391.7618,-241.61458 L391.88486,-241.3183 L392.0074,-241.02206 L392.1294,-240.72586 L392.2509,-240.4297 L392.37186,-240.13359 L392.4923,-239.83754 L392.61224,-239.54153 L392.73166,-239.24559 L392.85056,-238.9497 L392.96893,-238.65388 L393.0868,-238.35815 L393.20413,-238.06248 L393.32092,-237.76689 L393.43723,-237.47139 L393.55298,-237.17598 L393.6682,-236.88066 L393.78293,-236.58543 L393.89713,-236.29031 L394.0108,-235.9953 L394.12393,-235.7004 L394.23654,-235.40561 L394.34863,-235.11093 L394.46017,-234.81638 L394.5712,-234.52196 L394.6817,-234.22766 L394.7917,-233.9335 L394.90112,-233.63948 L395.01,-233.3456 L395.1184,-233.05186 L395.22623,-232.75829 L395.33356,-232.46486 L395.44034,-232.1716 L395.54657,-231.87851 L395.65228,-231.58557 L395.75748,-231.29282 L395.8621,-231.00023 L395.96622,-230.70784 L396.0698,-230.41562 L396.17282,-230.1236 L396.2753,-229.83177 L396.37726,-229.54013 L396.47867,-229.2487 L396.57956,-228.95747 L396.6799,-228.66646 L396.7797,-228.37566 L396.87894,-228.08508 L396.97766,-227.79472 L397.07584,-227.5046 L397.17346,-227.21469 L397.27057,-226.92503 L397.3671,-226.6356 L397.4631,-226.34642 L397.55856,-226.0575 L397.65347,-225.76881 L397.74783,-225.4804 L397.84164,-225.19223 L397.93494,-224.90433 L398.02765,-224.6167 L398.1198,-224.32935 L398.21146,-224.04227 L398.30252,-223.75548 L398.39307,-223.46896 L398.48303,-223.18274 L398.57245,-222.89682 L398.66135,-222.61119 L398.74966,-222.32587 L398.83743,-222.04085 L398.92465,-221.75615 L399.0113,-221.47176 L399.0974,-221.18768 L399.18295,-220.90393 L399.26797,-220.62051 L399.35242,-220.33743 L399.43628,-220.05469 L399.51962,-219.77228 L399.6024,-219.4902 L399.6846,-219.2085 L399.76627,-218.92712 L399.84735,-218.64612 L399.9279,-218.36548 L400.00787,-218.0852 L400.08728,-217.8053 L400.16614,-217.52576 L400.24442,-217.2466 L400.32214,-216.96782 L400.3993,-216.68944 L400.47592,-216.41144 L400.55194,-216.13385 L400.6274,-215.85664 L400.70233,-215.57985 L400.77664,-215.30345 L400.85043,-215.02748 L400.92365,-214.7519 L400.99628,-214.47678 L401.06833,-214.20206 L401.13983,-213.92776 L401.21075,-213.6539 L401.28113,-213.3805 L401.35092,-213.10751 L401.42014,-212.83498 L401.48877,-212.5629 L401.55685,-212.29126 L401.62436,-212.0201 L401.69128,-211.74939 L401.75763,-211.47914 L401.82343,-211.20938 L401.88864,-210.94008 L401.95325,-210.67126 L402.0173,-210.40292 L402.08078,-210.13509 L402.14368,-209.86772 L402.20602,-209.60086 L402.26776,-209.3345 L402.32892,-209.06865 L402.3895,-208.8033 L402.4495,-208.53847 L402.50894,-208.27415 L402.56778,-208.01036 L402.62604,-207.74709 L402.68372,-207.48434 L402.7408,-207.22214 L402.79733,-206.96046 L402.85324,-206.69934 L402.9086,-206.43877 L402.96335,-206.17873 L403.01752,-205.91925 L403.0711,-205.66034 L403.1241,-205.40198 L403.1765,-205.1442 L403.22836,-204.88698 L403.2796,-204.63034 L403.33023,-204.37427 L403.38028,-204.11879 L403.42975,-203.8639 L403.47864,-203.60962 L403.52692,-203.35591 L403.57462,-203.10281 L403.6217,-202.85031 L403.6682,-202.59843 L403.71414,-202.34717 L403.75946,-202.09651 L403.8042,-201.84648 L403.84833,-201.59708 L403.89185,-201.3483 L403.93478,-201.10016 L403.97714,-200.85265 L404.0189,-200.60579 L404.06003,-200.35957 L404.1006,-200.11401 L404.14053,-199.86911 L404.17987,-199.62486 L404.21863,-199.38127 L404.25677,-199.13837 L404.2943,-198.89612 L404.33127,-198.65456 L404.3676,-198.41367 L404.40335,-198.17346 L404.43848,-197.93394 L404.473,-197.69513 L404.50693,-197.457 L404.54025,-197.21959 L404.57297,-196.98286 L404.60507,-196.74686 L404.63657,-196.51157 L404.66748,-196.277 L404.69775,-196.04315 L404.72745,-195.81003 L404.7565,-195.57764 L404.78497,-195.34598 L404.8128,-195.11505 L404.84006,-194.88487 L404.86667,-194.65546 L404.8927,-194.42677 L404.9181,-194.19885 L404.94287,-193.9717 L404.96707,-193.7453 L404.99063,-193.51967 L405.01358,-193.29483 L405.0359,-193.07074 L405.05762,-192.84746 L405.0787,-192.62494 L405.09918,-192.40323 L405.11905,-192.1823 L405.1383,-191.96217 L405.15692,-191.74284 L405.17493,-191.52432 L405.19232,-191.30661 L405.20908,-191.08972 L405.22522,-190.87364 L405.24075,-190.6584 L405.25565,-190.44397 L405.26993,-190.23038 L405.2836,-190.01762 L405.29663,-189.80571 L405.30902,-189.59464 L405.32083,-189.38441 L405.33197,-189.17503 L405.3425,-188.96652 L405.35242,-188.75887 L405.3617,-188.55208 L405.37033,-188.34616 L405.37836,-188.14111 L405.38574,-187.93695 L405.39252,-187.73367 L405.39865,-187.53127 L405.40414,-187.32976 L405.40903,-187.12915 L405.41327,-186.92943 L405.41687,-186.73062 L405.41986,-186.53271 L405.4222,-186.33572 L405.42392,-186.13963 L405.425,-185.94449 L405.4254,-185.75024 L405.42523,-185.55695 L405.4244,-185.36456 L405.4229,-185.17313 L405.4208,-184.98264 L405.4181,-184.79308 L405.4147,-184.60448 L405.41068,-184.41682 L405.406,-184.23013 L405.40073,-184.0444 L405.39478,-183.85965 L405.38818,-183.67586 L405.38095,-183.49303 L405.3731,-183.31119 L405.3646,-183.13033 L405.35544,-182.95045 L405.34564,-182.77158 L405.3352,-182.59369 L405.32413,-182.41681 L405.31238,-182.24094 L405.30002,-182.06606 L405.287,-181.8922 L405.27332,-181.71935 L405.259,-181.54753 L405.24402,-181.37672 L405.2284,-181.20695 L405.21213,-181.03821 L405.19522,-180.87051 L405.17764,-180.70386 L405.15942,-180.53824 L405.14056,-180.37367 L405.12103,-180.21017 L405.10086,-180.04771 L405.08005,-179.88632 L405.05856,-179.72601 L405.0364,-179.56676 L405.0136,-179.40858 L404.99017,-179.25148 L404.96606,-179.09547 L404.9413,-178.94055 L404.9159,-178.78671 L404.8898,-178.63397 L404.86307,-178.48233 L404.8357,-178.3318 L404.80762,-178.18237 L404.77893,-178.03407 L404.74954,-177.88687 L404.7195,-177.7408 L404.6888,-177.59586 L404.65744,-177.45204 L404.62543,-177.30936 L404.59274,-177.1678 L404.5594,-177.0274 L404.52536,-176.88814 L404.4907,-176.75003 L404.45535,-176.61308 L404.41934,-176.4773 L404.38266,-176.34267 L404.3453,-176.2092 L404.30728,-176.0769 L404.26862,-175.9458 L404.22925,-175.81586 L404.18924,-175.6871 L404.14853,-175.55954 L404.10718,-175.43318 L404.06512,-175.308 L404.02243,-175.18404 L403.97903,-175.06126 L403.935,-174.93971 L403.89026,-174.81937 L403.84488,-174.70024 L403.7988,-174.58234 L403.75204,-174.46565 L403.70462,-174.3502 L403.6565,-174.236 L403.60773,-174.12302 L403.55826,-174.01129 L403.50815,-173.9008 L403.4573,-173.79158 L403.40582,-173.6836 L403.35364,-173.57689 L403.3008,-173.47144 L403.24725,-173.36725 L403.19305,-173.26433 L403.13815,-173.16269 L403.08258,-173.06235 L403.0263,-172.96327 L402.96936,-172.8655 L402.9117,-172.769 L402.8534,-172.67381 L402.7944,-172.57993 L402.7347,-172.48734 L402.67435,-172.39607 L402.61328,-172.3061 L402.55154,-172.21747 L402.4891,-172.13016 L402.42596,-172.04416 L402.36215,-171.9595 L402.29764,-171.87617 L402.23245,-171.79419 L402.16656,-171.71356 L402.09998,-171.63426 L402.0327,-171.55632 L401.96475,-171.47974 L401.8961,-171.40451 L401.82675,-171.33066 L401.75668,-171.25816 L401.68594,-171.18704 L401.61453,-171.11731 L401.5424,-171.04895 L401.46957,-170.98198 L401.39603,-170.9164 L401.3218,-170.8522 L401.2469,-170.78941 L401.17126,-170.72803 L401.09497,-170.66805 L401.01794,-170.60948 L400.94022,-170.55232 L400.8618,-170.49658 L400.78268,-170.44228 L400.70285,-170.38939 L400.6223,-170.33794 L400.5411,-170.28792 L400.45917,-170.23935 L400.37653,-170.19221 L400.29318,-170.14653 L400.20914,-170.1023 L400.12436,-170.05952 L400.0389,-170.01822 L399.95273,-169.97836 L399.86588,-169.93999 L399.7783,-169.90306 L399.69,-169.8676 L399.601,-169.83359 L399.51132,-169.80104 L399.42093,-169.76993 L399.32983,-169.74025 L399.23807,-169.71202 L399.1456,-169.68523 L399.05243,-169.65987 L398.95856,-169.63593 L398.864,-169.6134 L398.76877,-169.59232 L398.67282,-169.57263 L398.5762,-169.55437 L398.4789,-169.53752 L398.38092,-169.52206 L398.28226,-169.50801 L398.18292,-169.49536 L398.0829,-169.4841 L397.98218,-169.47423 L397.8808,-169.46574 L397.77875,-169.45865 L397.67603,-169.45293 L397.57263,-169.44856 L397.46854,-169.44559 L397.3638,-169.44398 L397.2584,-169.44373 L397.15234,-169.44484 L397.0456,-169.44731 L396.9382,-169.45113 L396.83014,-169.4563 L396.7214,-169.4628 L396.61203,-169.47066 L396.502,-169.47984 L396.3913,-169.49036 L396.27997,-169.50221 L396.16797,-169.51538 L396.05533,-169.52988 L395.94202,-169.5457 L395.82806,-169.56282 L395.71347,-169.58127 L395.59824,-169.60101 L395.48236,-169.62206 L395.3658,-169.64441 L395.24866,-169.66805 L395.13086,-169.69298 L395.0124,-169.71921 L394.8933,-169.7467 L394.7736,-169.7755 L394.65326,-169.80556 L394.53226,-169.83688 L394.41064,-169.86949 L394.2884,-169.90337 L394.16553,-169.93849 L394.04202,-169.97487 L393.9179,-170.01251 L393.79315,-170.0514 L393.6678,-170.09154 L393.5418,-170.13292 L393.4152,-170.17554 L393.28796,-170.21938 L393.16013,-170.26447 L393.03168,-170.31078 L392.9026,-170.3583 L392.77292,-170.40706 L392.6426,-170.45702 L392.51172,-170.5082 L392.3802,-170.5606 L392.24808,-170.61418 L392.11536,-170.66898 L391.98203,-170.72496 L391.8481,-170.78215 L391.7136,-170.84052 L391.57846,-170.90007 L391.44275,-170.96082 L391.30643,-171.02274 L391.1695,-171.08582 L391.032,-171.15009 L390.89392,-171.21552 L390.75522,-171.2821 L390.61594,-171.34985 L390.47607,-171.41876 L390.33563,-171.48882 L390.1946,-171.56001 L390.05298,-171.63237 L389.9108,-171.70586 L389.768,-171.78047 L389.62466,-171.85623 L389.4807,-171.93312 L389.3362,-172.01114 L389.19113,-172.09027 L389.04547,-172.17052 L388.89926,-172.25188 L388.75247,-172.33435 L388.6051,-172.41794 L388.45715,-172.50261 L388.3087,-172.5884 L388.1596,-172.67526 L388.00998,-172.76323 L387.8598,-172.8523 L387.70908,-172.94243 L387.55777,-173.03365 L387.4059,-173.12593 L387.2535,-173.2193 L387.10056,-173.31374 L386.94702,-173.40923 L386.79297,-173.50578 L386.63834,-173.60341 L386.4832,-173.70207 L386.32745,-173.80179 L386.1712,-173.90256 L386.0144,-174.00436 L385.8571,-174.10721 L385.6992,-174.21107 L385.54077,-174.316 L385.3818,-174.42192 L385.22232,-174.52888 L385.0623,-174.63686 L384.90173,-174.74585 L384.74063,-174.85585 L384.579,-174.96687 L384.41687,-175.07889 L384.25418,-175.1919 L384.09097,-175.30591 L383.92725,-175.42091 L383.763,-175.53691 L383.5982,-175.6539 L383.43292,-175.77185 L383.26712,-175.8908 L383.10077,-176.01071 L382.93393,-176.13159 L382.76657,-176.25343 L382.5987,-176.37625 L382.43033,-176.50002 L382.2614,-176.62474 L382.092,-176.75041 L381.92212,-176.87704 L381.7517,-177.00461 L381.58078,-177.13312 L381.40936,-177.26256 L381.23743,-177.39293 L381.065,-177.52423 L380.8921,-177.65646 L380.7187,-177.78961 L380.54477,-177.92368 L380.37036,-178.05865 L380.19547,-178.19455 L380.02008,-178.33134 L379.84418,-178.46904 L379.66782,-178.60764 L379.49097,-178.74713 L379.31363,-178.8875 L379.1358,-179.02878 L378.95752,-179.17091 L378.77872,-179.31395 L378.59946,-179.45786 L378.4197,-179.60263 L378.2395,-179.74828 L378.0588,-179.89479 L377.87766,-180.04216 L377.696,-180.19038 L377.5139,-180.33946 L377.33133,-180.48938 L377.1483,-180.64015 L376.96475,-180.79178 L376.7808,-180.94423 L376.59634,-181.0975 L376.41144,-181.25163 L376.22607,-181.40657 L376.04025,-181.56233 L375.85397,-181.71892 L375.66727,-181.87631 L375.48007,-182.03453 L375.29242,-182.19354 L375.10434,-182.35336 L374.9158,-182.51399 L374.7268,-182.6754 L374.53735,-182.83762 L374.34747,-183.00061 L374.15717,-183.1644 L373.96637,-183.32896 L373.77518,-183.4943 L373.58353,-183.66042 L373.39142,-183.8273 L373.1989,-183.99495 L373.00595,-184.16336 L372.81253,-184.33253 L372.6187,-184.50246 L372.42447,-184.67314 L372.22977,-184.84456 L372.03464,-185.01672 L371.8391,-185.18964 L371.64313,-185.36327 L371.44675,-185.53764 L371.2499,-185.71275 L371.05267,-185.88857 L370.85504,-186.06512 L370.65695,-186.24239 L370.45847,-186.42035 L370.25955,-186.59904 L370.06024,-186.77843 L369.8605,-186.95853 L369.66037,-187.13931 L369.4598,-187.3208 L369.25885,-187.50298 L369.0575,-187.68584 L368.8557,-187.86937 L368.65353,-188.0536 L368.45096,-188.2385 L368.248,-188.42407 L368.04462,-188.6103 L367.84085,-188.79721 L367.63666,-188.98476 L367.4321,-189.17297 L367.22714,-189.36185 L367.0218,-189.55136 L366.81607,-189.74153 L366.60992,-189.93233 L366.4034,-190.12378 L366.19653,-190.31586 L365.98923,-190.50856 L365.78156,-190.70189 L365.57352,-190.89584 L365.36508,-191.09041 L365.15628,-191.2856 L364.94708,-191.4814 L364.73752,-191.6778 L364.5276,-191.8748 L364.3173,-192.07242 L364.1066,-192.27061 L363.89557,-192.4694 L363.68414,-192.6688 L363.47235,-192.86876 L363.2602,-193.0693 L363.0477,-193.27043 L362.8348,-193.47214 L362.62158,-193.6744 L362.40796,-193.87723 L362.19403,-194.08063 L361.9797,-194.28458 L361.76505,-194.48909 L361.55002,-194.69414 L361.33463,-194.89975 L361.11893,-195.1059 L360.90283,-195.31258 L360.68643,-195.5198 L360.46964,-195.72755 L360.25253,-195.93584 L360.03506,-196.14464 L359.8173,-196.35396 L359.59912,-196.5638 L359.38065,-196.77415 L359.16183,-196.98502 L358.9427,-197.19638 L358.7232,-197.40825 L358.5034,-197.62062 L358.28323,-197.83348 L358.06274,-198.04683 L357.84192,-198.26067 L357.6208,-198.47498 L357.39932,-198.68977 L357.17752,-198.90504 L356.9554,-199.12079 L356.73297,-199.337 L356.51022,-199.55368 L356.28714,-199.77081 L356.06375,-199.9884 L355.84003,-200.20644 L355.616,-200.42493 L355.39166,-200.64386 L355.16702,-200.86324 L354.94205,-201.08304 L354.7168,-201.30328 L354.4912,-201.52397 L354.26535,-201.74507 L354.03915,-201.96658 L353.81268,-202.18852 L353.58588,-202.41087 L353.3588,-202.63365 L353.1314,-202.85681 L352.90372,-203.08038 L352.67575,-203.30437 L352.44748,-203.52873 L352.2189,-203.7535 L351.99005,-203.97864 L351.7609,-204.20418 L351.53146,-204.43008 L351.30176,-204.65637 L351.07175,-204.88304 L350.84146,-205.11008 L350.61087,-205.33746 L350.38004,-205.56522 L350.1489,-205.79333 L349.91748,-206.0218 L349.6858,-206.25063 L349.45383,-206.4798 L349.2216,-206.7093 L348.98907,-206.93915 L348.7563,-207.16933 L348.52325,-207.39984 L348.28995,-207.63068 L348.05637,-207.86185 L347.8225,-208.09332 L347.5884,-208.32512 L347.35403,-208.55724 L347.1194,-208.78966 L346.8845,-209.02238 L346.64935,-209.2554 L346.41394,-209.48872 L346.17828,-209.72235 L345.94235,-209.95625 L345.7062,-210.19044 L345.4698,-210.42491 L345.23312,-210.65967 L344.99622,-210.8947 L344.75903,-211.12999 L344.52164,-211.36555 L344.284,-211.60138 L344.0461,-211.83746 L343.80798,-212.0738 L343.5696,-212.31041 L343.33102,-212.54724 L343.09216,-212.78433 L342.8531,-213.02165 L342.6138,-213.25922 L342.37427,-213.49701 L342.1345,-213.73503 L341.8945,-213.97328 L341.65427,-214.21176 L341.41382,-214.45045 L341.17316,-214.68935 L340.93225,-214.92847 L340.69113,-215.16779 L340.4498,-215.4073 L340.20825,-215.64703 L339.9665,-215.88695 L339.7245,-216.12704 L339.4823,-216.36734 L339.2399,-216.60782 L338.99725,-216.84848 L338.75443,-217.08931 L338.51138,-217.33032 L338.26816,-217.5715 L338.0247,-217.81284 L337.78104,-218.05434 L337.53717,-218.296 L337.29312,-218.53781 L337.04886,-218.77977 L336.8044,-219.02188 L336.55975,-219.26413 L336.3149,-219.50652 L336.06985,-219.74904 L335.82465,-219.9917 L335.57922,-220.23448 L335.3336,-220.47737 L335.0878,-220.7204 L334.84183,-220.96355 L334.59564,-221.20679 L334.3493,-221.45015 L334.10275,-221.69362 L333.85605,-221.93718 L333.60916,-222.18083 L333.3621,-222.42459 L333.11484,-222.66843 L332.8674,-222.91235 L332.6198,-223.15637 L332.37204,-223.40045 L332.1241,-223.64462 L331.876,-223.88885 L331.62772,-224.13315 L331.3793,-224.37752 L331.13068,-224.62193 L330.88193,-224.86641 L330.633,-225.11093 L330.3839,-225.35551 L330.13467,-225.60013 L329.88525,-225.84479 L329.6357,-226.08948 L329.386,-226.3342 L329.13614,-226.57896 L328.8861,-226.82375 L328.63596,-227.06854 L328.38565,-227.31335 L328.1352,-227.5582 L327.88458,-227.80304 L327.63382,-228.04788 L327.38293,-228.29274 L327.1319,-228.53758 L326.88074,-228.78242 L326.62943,-229.02727 L326.37796,-229.27208 L326.1264,-229.51689 L325.87466,-229.76167 L325.62283,-230.00644 L325.37085,-230.25117 L325.11874,-230.49586 L324.86652,-230.74054 L324.61414,-230.98517 L324.36166,-231.22975 L324.10904,-231.47427 L323.85632,-231.71877 L323.60345,-231.9632 L323.3505,-232.20757 L323.0974,-232.45187 L322.8442,-232.69612 L322.59088,-232.9403 L322.33746,-233.1844 L322.0839,-233.42842 L321.83026,-233.67236 L321.57648,-233.91623 L321.3226,-234.16 L321.06863,-234.40367 L320.81454,-234.64726 L320.56036,-234.89075 L320.3061,-235.13412 L320.0517,-235.3774 L319.7972,-235.62056 L319.54263,-235.8636 L319.28796,-236.10652 L319.03317,-236.34933 L318.77832,-236.59201 L318.52335,-236.83455 L318.2683,-237.07697 L318.01318,-237.31924 L317.75797,-237.56139 L317.50266,-237.80338 L317.24725,-238.04521 L316.9918,-238.2869 L316.73624,-238.52843 L316.4806,-238.7698 L316.22488,-239.01102 L315.9691,-239.25204 L315.71323,-239.49292 L315.45728,-239.73361 L315.20126,-239.97412 L314.9452,-240.21445 L314.68906,-240.45459 L314.43283,-240.69455 L314.17654,-240.93431 L313.9202,-241.17387 L313.66376,-241.41322 L313.4073,-241.65237 L313.15076,-241.89133 L312.89417,-242.13005 L312.6375,-242.36856 L312.3808,-242.60686 L312.12402,-242.84492 L311.86722,-243.08276 L311.61032,-243.32037 L311.35342,-243.55774 L311.09644,-243.79488 L310.83942,-244.03175 L310.58237,-244.2684 L310.32526,-244.50479 L310.06808,-244.74092 L309.8109,-244.9768 L309.55368,-245.21242 L309.2964,-245.44777 L309.0391,-245.68285 L308.78174,-245.91765 L308.52435,-246.15218 L308.26694,-246.38641 L308.0095,-246.62038 L307.752,-246.85405 L307.4945,-247.08743 L307.23697,-247.32051 L306.97943,-247.5533 L306.72183,-247.78577 L306.46423,-248.01794 L306.2066,-248.2498 L305.94894,-248.48134 L305.69128,-248.71257 L305.43362,-248.94347 L305.1759,-249.17404 L304.9182,-249.4043 L304.6605,-249.6342 L304.40274,-249.86377 L304.145,-250.093 L303.88724,-250.32188 L303.6295,-250.55043 L303.37173,-250.77861 L303.11395,-251.00644 L302.85617,-251.2339 L302.59842,-251.461 L302.34064,-251.68773 L302.08286,-251.9141 L301.8251,-252.14008 L301.56732,-252.36568 L301.30957,-252.59091 L301.05182,-252.81573 L300.7941,-253.04018 L300.53638,-253.26424 L300.27866,-253.48788 L300.02097,-253.71114 L299.76328,-253.93398 L299.50558,-254.1564 L299.24796,-254.37842 L298.9903,-254.60002 L298.7327,-254.82121 L298.4751,-255.04196 L298.21753,-255.26228 L297.96,-255.48218 L297.70248,-255.70164 L297.445,-255.92065 L297.18756,-256.13922 L296.9301,-256.35736 L296.67273,-256.57504 L296.41537,-256.79227 L296.15805,-257.009 L295.90076,-257.2253 L295.64352,-257.44113 L295.38632,-257.6565 L295.12915,-257.8714 L294.87204,-258.08582 L294.61496,-258.29974 L294.3579,-258.51318 L294.10092,-258.72614 L293.844,-258.9386 L293.5871,-259.15054 L293.33026,-259.362 L293.0735,-259.57297 L292.81677,-259.78342 L292.5601,-259.99335 L292.30347,-260.2028 L292.0469,-260.41168 L291.7904,-260.62006 L291.534,-260.8279 L291.27762,-261.03525 L291.0213,-261.24203 L290.76508,-261.44827 L290.5089,-261.654 L290.2528,-261.85916 L289.99677,-262.06375 L289.7408,-262.26782 L289.48492,-262.4713 L289.2291,-262.67426 L288.97336,-262.87662 L288.7177,-263.07843 L288.46213,-263.27966 L288.20663,-263.48032 L287.9512,-263.68042 L287.6959,-263.8799 L287.44064,-264.0788 L287.1855,-264.27713 L286.9304,-264.47485 L286.6754,-264.67197 L286.42053,-264.8685 L286.1657,-265.0644 L285.911,-265.2597 L285.6564,-265.4544 L285.4019,-265.64847 L285.1475,-265.84192 L284.89316,-266.03473 L284.63895,-266.22693 L284.38483,-266.4185 L284.13083,-266.6094 L283.87692,-266.7997 L283.62314,-266.98935 L283.36945,-267.17834 L283.11584,-267.36667 L282.8624,-267.55435 L282.60904,-267.7414 L282.3558,-267.92776 L282.10266,-268.11346 L281.84967,-268.29846 L281.59677,-268.48282 L281.34402,-268.6665 L281.09137,-268.8495 L280.83884,-269.0318 L280.58646,-269.2134 L280.33417,-269.39435 L280.08203,-269.57455 L279.83002,-269.7541 L279.57813,-269.9329 L279.32635,-270.11102 L279.07474,-270.28842 L278.82327,-270.4651 L278.5719,-270.64105 L278.32068,-270.81628 L278.0696,-270.9908 L277.8187,-271.16458 L277.5679,-271.33765 L277.31726,-271.50995 L277.06674,-271.68152 L276.81638,-271.85233 L276.56616,-272.0224 L276.3161,-272.1917 L276.0662,-272.36026 L275.81644,-272.52808 L275.56683,-272.6951 L275.31738,-272.86136 L275.0681,-273.02686 L274.81897,-273.19156 L274.57,-273.3555 L274.32117,-273.51865 L274.07254,-273.681 L273.82404,-273.84256 L273.5757,-274.00333 L273.32758,-274.1633 L273.0796,-274.32248 L272.83176,-274.48083 L272.5841,-274.6384 L272.33664,-274.79514 L272.08932,-274.95105 L271.84222,-275.10617 L271.59528,-275.26044 L271.3485,-275.41388 L271.1019,-275.5665 L270.8555,-275.71826 L270.60928,-275.8692 L270.36325,-276.0193 L270.11737,-276.16852 L269.8717,-276.3169 L269.62622,-276.46445 L269.38095,-276.6111 L269.13583,-276.75693 L268.89093,-276.90186 L268.64624,-277.04593 L268.4017,-277.18912 L268.1574,-277.33145 L267.91327,-277.47287 L267.66937,-277.61343 L267.42566,-277.75308 L267.18213,-277.89185 L266.9388,-278.02972 L266.6957,-278.1667 L266.45282,-278.30276 L266.21014,-278.4379 L265.96765,-278.57214 L265.7254,-278.70547 L265.48337,-278.83786 L265.24152,-278.96936 L264.9999,-279.0999 L264.75848,-279.22952 L264.5173,-279.35822 L264.27637,-279.48596 L264.0356,-279.61276 L263.7951,-279.73862 L263.5548,-279.86353 L263.31476,-279.98746 L263.07492,-280.11047 L262.8353,-280.23248 L262.59592,-280.35358 L262.35678,-280.47366 L262.1179,-280.59277 L261.8792,-280.71094 L261.64078,-280.8281 L261.40256,-280.94427 L261.1646,-281.05948 L260.92688,-281.17368 L260.68942,-281.2869 L260.45218,-281.39908 L260.2152,-281.51028 L259.97845,-281.62048 L259.74197,-281.72968 L259.50574,-281.83786 L259.26974,-281.945 L259.034,-282.05112 L258.79852,-282.15622 L258.5633,-282.2603 L258.3283,-282.36334 L258.0936,-282.46536 L257.85916,-282.5663 L257.62497,-282.66623 L257.39105,-282.7651 L257.15738,-282.8629 L256.92398,-282.9597 L256.69086,-283.05536 L256.458,-283.15 L256.2254,-283.24356 L255.99309,-283.33606 L255.76105,-283.4275 L255.52927,-283.51785 L255.29776,-283.60712 L255.06654,-283.6953 L254.83559,-283.78247 L254.6049,-283.86853 L254.37448,-283.95352 L254.14435,-284.03748 L253.91447,-284.12033 L253.68486,-284.20215 L253.45554,-284.2829 L253.22647,-284.36258 L252.99768,-284.4412 L252.76915,-284.51877 L252.5409,-284.59528 L252.31291,-284.67075 L252.08519,-284.74515 L251.85773,-284.81848 L251.63054,-284.8908 L251.40363,-284.96204 L251.17697,-285.03226 L250.95058,-285.1014 L250.72446,-285.16953 L250.4986,-285.23657 L250.27301,-285.3026 L250.04768,-285.36758 L249.82262,-285.43152 L249.59782,-285.49442 L249.37329,-285.55627 L249.14902,-285.61713 L248.925,-285.6769 L248.70126,-285.73566 L248.47777,-285.7934 L248.25455,-285.8501 L248.03159,-285.90576 L247.8089,-285.9604 L247.58646,-286.014 L247.36427,-286.0666 L247.14236,-286.11813 L246.9207,-286.16867 L246.69931,-286.2182 L246.47816,-286.2667 L246.2573,-286.31418 L246.03667,-286.36063 L245.8163,-286.40607 L245.59619,-286.4505 L245.37634,-286.4939 L245.15675,-286.53632 L244.93742,-286.5777 L244.71835,-286.61807 L244.49953,-286.65747 L244.28096,-286.69583 L244.06265,-286.7332 L243.8446,-286.76953 L243.6268,-286.8049 L243.40926,-286.83923 L243.19197,-286.8726 L242.97493,-286.90494 L242.75815,-286.9363 L242.54161,-286.96664 L242.32533,-286.996 L242.10931,-287.02438 L241.89354,-287.05176 L241.67801,-287.07816 L241.46275,-287.10355 L241.24773,-287.12796 L241.03296,-287.15137 L240.81844,-287.1738 L240.60417,-287.19525 L240.39015,-287.21573 L240.17639,-287.2352 L239.96288,-287.25372 L239.7496,-287.27124 L239.53658,-287.28778 L239.3238,-287.30338 L239.11128,-287.31796 L238.899,-287.33157 L238.68697,-287.34424 L238.47519,-287.35593 L238.26364,-287.36664 L238.05235,-287.37637 L237.84131,-287.38516 L237.63051,-287.39297 L237.41995,-287.3998 L237.20964,-287.4057 L236.99957,-287.4106 L236.78975,-287.41458 L236.58017,-287.41757 L236.37082,-287.41962 L236.16173,-287.42072 L235.95288,-287.42084 L235.74428,-287.42 L235.5359,-287.41824 L235.32777,-287.41553 L235.11989,-287.41183 L234.91225,-287.40723 L234.70485,-287.40167 L234.49768,-287.39514 L234.29077,-287.3877 L234.08408,-287.37927 L233.87764,-287.36993 L233.67143,-287.35965 L233.46547,-287.34842 L233.25974,-287.33627 L233.05424,-287.32318 L232.849,-287.30914 L232.64398,-287.2942 L232.43921,-287.2783 L232.23466,-287.26144 L232.03036,-287.24368 L231.8263,-287.225 L231.62245,-287.20538 L231.41885,-287.18484 L231.21548,-287.1634 L231.01236,-287.14102 L230.80946,-287.1177 L230.60681,-287.09348 L230.40437,-287.06833 L230.20218,-287.04227 L230.00021,-287.0153 L229.7985,-286.9874 L229.597,-286.9586 L229.39572,-286.92886 L229.19469,-286.89822 L228.9939,-286.86667 L228.79332,-286.83423 L228.59297,-286.80087 L228.39287,-286.7666 L228.19298,-286.73145 L227.99333,-286.69537 L227.7939,-286.6584 L227.59471,-286.6205 L227.39574,-286.58176 L227.197,-286.54208 L226.99849,-286.50153 L226.80022,-286.46005 L226.60216,-286.4177 L226.40433,-286.37445 L226.20673,-286.33032 L226.00934,-286.2853 L225.8122,-286.23938 L225.61526,-286.19257 L225.41856,-286.1449 L225.22209,-286.0963 L225.02583,-286.04688 L224.8298,-285.99652 L224.634,-285.9453 L224.43842,-285.89322 L224.24307,-285.84024 L224.04793,-285.78638 L223.85301,-285.73166 L223.65833,-285.67606 L223.46385,-285.6196 L223.2696,-285.56226 L223.07558,-285.50406 L222.88177,-285.44498 L222.68819,-285.385 L222.49481,-285.32422 L222.30167,-285.26254 L222.10875,-285.19998 L221.91603,-285.1366 L221.72354,-285.07233 L221.53128,-285.0072 L221.33922,-284.94122 L221.14738,-284.8744 L220.95576,-284.8067 L220.76436,-284.73816 L220.57318,-284.66876 L220.3822,-284.59854 L220.19145,-284.52744 L220.00092,-284.4555 L219.8106,-284.3827 L219.62048,-284.30905 L219.43059,-284.2346 L219.2409,-284.15927 L219.05144,-284.0831 L218.86218,-284.0061 L218.67316,-283.92825 L218.48433,-283.84958 L218.29572,-283.77005 L218.10732,-283.6897 L217.91911,-283.60852 L217.73114,-283.5265 L217.54337,-283.44363 L217.35582,-283.35995 L217.16847,-283.27545 L216.98134,-283.19012 L216.7944,-283.10397 L216.6077,-283.01697 L216.42119,-282.92917 L216.23488,-282.84055 L216.0488,-282.7511 L215.86292,-282.66083 L215.67723,-282.56973 L215.49176,-282.47784 L215.3065,-282.38513 L215.12146,-282.2916 L214.9366,-282.19724 L214.75197,-282.10208 L214.56754,-282.00613 L214.3833,-281.90936 L214.19928,-281.81177 L214.01546,-281.7134 L213.83183,-281.6142 L213.64842,-281.51422 L213.46521,-281.41342 L213.28221,-281.31183 L213.09941,-281.20944 L212.91681,-281.10626 L212.7344,-281.00226 L212.55222,-280.8975 L212.37022,-280.7919 L212.18843,-280.68555 L212.00684,-280.57837 L211.82544,-280.47043 L211.64426,-280.3617 L211.46327,-280.25217 L211.28247,-280.14188 L211.10188,-280.0308 L210.9215,-279.9189 L210.7413,-279.80624 L210.5613,-279.6928 L210.3815,-279.57858 L210.2019,-279.4636 L210.02249,-279.34784 L209.84329,-279.2313 L209.66428,-279.11398 L209.48547,-278.99588 L209.30685,-278.877 L209.12843,-278.7574 L208.9502,-278.637 L208.77217,-278.5158 L208.59433,-278.3939 L208.41669,-278.2712 L208.23924,-278.14774 L208.06198,-278.02353 L207.88492,-277.89853 L207.70805,-277.7728 L207.53137,-277.6463 L207.35489,-277.51904 L207.17859,-277.39105 L207.00249,-277.26227 L206.82657,-277.13275 L206.65085,-277.0025 L206.47533,-276.8715 L206.29999,-276.73972 L206.12483,-276.6072 L205.94987,-276.47397 L205.7751,-276.33997 L205.60052,-276.2052 L205.42613,-276.06973 L205.25192,-275.9335 L205.0779,-275.79654 L204.90407,-275.65884 L204.73042,-275.52042 L204.55696,-275.38123 L204.3837,-275.24133 L204.21062,-275.10068 L204.03772,-274.95932 L203.865,-274.81723 L203.69247,-274.6744 L203.52013,-274.53085 L203.34796,-274.38657 L203.176,-274.24158 L203.0042,-274.09583 L202.83258,-273.9494 L202.66116,-273.80222 L202.48991,-273.65433 L202.31886,-273.50574 L202.14798,-273.3564 L201.97728,-273.2064 L201.80676,-273.05563 L201.63643,-272.90417 L201.46628,-272.75198 L201.2963,-272.59912 L201.12651,-272.44553 L200.9569,-272.29123 L200.78746,-272.13623 L200.6182,-271.98053 L200.44913,-271.8241 L200.28023,-271.667 L200.1115,-271.5092 L199.94296,-271.35068 L199.7746,-271.19147 L199.6064,-271.03156 L199.43839,-270.87097 L199.27055,-270.7097 L199.10289,-270.5477 L198.93541,-270.385 L198.7681,-270.22165 L198.60095,-270.0576 L198.43399,-269.89285 L198.26721,-269.72745 L198.1006,-269.5613 L197.93416,-269.39453 L197.76788,-269.22705 L197.60179,-269.0589 L197.43587,-268.89008 L197.27013,-268.72055 L197.10455,-268.55038 L196.93915,-268.37952 L196.77391,-268.20798 L196.60884,-268.03577 L196.44395,-267.86288 L196.27922,-267.68933 L196.11467,-267.51514 L195.95029,-267.34024 L195.78607,-267.1647 L195.62202,-266.98846 L195.45815,-266.8116 L195.29443,-266.63406 L195.13089,-266.45587 L194.96753,-266.277 L194.80432,-266.0975 L194.64128,-265.91733 L194.4784,-265.7365 L194.31569,-265.55502 L194.15315,-265.3729 L193.99077,-265.19012 L193.82855,-265.00668 L193.6665,-264.8226 L193.50462,-264.63788 L193.34291,-264.4525 L193.18135,-264.26648 L193.01996,-264.07983 L192.85873,-263.89252 L192.69766,-263.7046 L192.53676,-263.516 L192.37602,-263.32678 L192.21544,-263.13693 L192.05502,-262.94644 L191.89476,-262.7553 L191.73466,-262.56357 L191.57472,-262.3712 L191.41495,-262.17816 L191.25533,-261.98453 L191.09587,-261.79025 L190.93657,-261.59537 L190.77744,-261.39984 L190.61845,-261.2037 L190.45963,-261.00693 L190.30095,-260.80954 L190.14244,-260.61154 L189.98409,-260.41293 L189.8259,-260.21368 L189.66786,-260.01385 L189.50996,-259.8134 L189.35223,-259.6123 L189.19467,-259.4106 L189.03725,-259.2083 L188.87999,-259.0054 L188.72287,-258.8019 L188.56592,-258.59778 L188.40912,-258.39307 L188.25247,-258.18774 L188.09596,-257.9818 L187.93962,-257.77527 L187.78343,-257.56815 L187.6274,-257.36044 L187.4715,-257.1521 L187.31577,-256.9432 L187.16017,-256.7337 L187.00475,-256.5236 L186.84946,-256.3129 L186.69432,-256.10162 L186.53934,-255.88976 L186.38449,-255.67729 L186.2298,-255.46425 L186.07526,-255.25063 L185.92087,-255.03642 L185.76662,-254.82162 L185.61253,-254.60626 L185.45857,-254.39032 L185.30478,-254.17378 L185.15111,-253.95668 L184.9976,-253.73901 L184.84424,-253.52075 L184.69102,-253.30194 L184.53795,-253.08253 L184.38501,-252.86258 L184.23222,-252.64204 L184.07959,-252.42094 L183.92708,-252.19928 L183.77473,-251.97707 L183.62251,-251.75427 L183.47044,-251.53091 L183.31853,-251.307 L183.16673,-251.08253 L183.01509,-250.8575 L182.86359,-250.63191 L182.71223,-250.40578 L182.561,-250.1791 L182.40993,-249.95184 L182.25899,-249.72404 L182.10818,-249.4957 L181.95752,-249.2668 L181.807,-249.03737 L181.65662,-248.80737 L181.50638,-248.57684 L181.35626,-248.34578 L181.2063,-248.11415 L181.05646,-247.882 L180.90677,-247.6493 L180.7572,-247.41608 L180.60779,-247.18231 L180.4585,-246.94801 L180.30934,-246.71317 L180.16032,-246.4778 L180.01144,-246.24191 L179.8627,-246.00548 L179.71408,-245.76852 L179.56561,-245.53104 L179.41727,-245.29303 L179.26904,-245.05449 L179.12097,-244.81544 L178.97302,-244.57587 L178.82521,-244.33577 L178.67752,-244.09515 L178.52997,-243.85402 L178.38255,-243.61237 L178.23526,-243.3702 L178.0881,-243.12752 L177.94107,-242.88432 L177.79417,-242.64063 L177.6474,-242.39642 L177.50076,-242.1517 L177.35425,-241.90648 L177.20787,-241.66074 L177.06161,-241.4145 L176.91548,-241.16777 L176.76949,-240.92053 L176.62361,-240.67279 L176.47786,-240.42455 L176.33224,-240.17581 L176.18675,-239.92657 L176.04138,-239.67685 L175.89613,-239.42664 L175.75102,-239.17592 L175.60603,-238.92471 L175.46117,-238.67302 L175.31642,-238.42084 L175.1718,-238.16817 L175.0273,-237.91502 L174.88292,-237.66138 L174.73868,-237.40726 L174.59454,-237.15266 L174.45053,-236.89757 L174.30664,-236.64201 L174.16289,-236.38597 L174.01924,-236.12946 L173.87572,-235.87247 L173.73232,-235.615 L173.58904,-235.35707 L173.44586,-235.09866 L173.30283,-234.8398 L173.1599,-234.58044 L173.01709,-234.32063 L172.8744,-234.06036 L172.73183,-233.79962 L172.58939,-233.53842 L172.44705,-233.27675 L172.30482,-233.01463 L172.16272,-232.75204 L172.02074,-232.489 L171.87888,-232.22551 L171.73712,-231.96155 L171.59547,-231.69714 L171.45395,-231.4323 L171.31255,-231.16698 L171.17125,-230.90123 L171.03006,-230.63503 L170.88899,-230.36836 L170.74805,-230.10127 L170.60721,-229.83372 L170.46648,-229.56573 L170.32585,-229.29732 L170.18535,-229.02844 L170.04495,-228.75914 L169.90468,-228.4894 L169.7645,-228.21922 L169.62444,-227.94861 L169.48448,-227.67755 L169.34465,-227.40608 L169.20491,-227.13417 L169.06529,-226.86183 L168.92578,-226.58907 L168.78638,-226.31586 L168.64708,-226.04225 L168.50789,-225.7682 L168.3688,-225.49373 L168.22983,-225.21884 L168.09096,-224.94353 L167.9522,-224.6678 L167.81354,-224.39166 L167.67499,-224.1151 L167.53654,-223.83812 L167.39821,-223.56073 L167.25996,-223.28293 L167.12184,-223.00471 L166.98381,-222.7261 L166.84589,-222.44707 L166.70807,-222.16763 L166.57036,-221.88779 L166.43274,-221.60754 L166.29523,-221.32689 L166.15782,-221.04584 L166.02051,-220.76439 L165.8833,-220.48254 L165.7462,-220.2003 L165.60919,-219.91765 L165.47229,-219.63461 L165.33548,-219.35118 L165.19878,-219.06735 L165.06216,-218.78314 L164.92566,-218.49854 L164.78925,-218.21355 L164.65294,-217.92818 L164.51672,-217.64241 L164.38062,-217.35626 L164.2446,-217.06973 L164.10867,-216.7828 L163.97285,-216.49551 L163.83713,-216.20786 L163.70149,-215.9198 L163.56596,-215.63138 L163.43051,-215.34258 L163.29517,-215.0534 L163.15991,-214.76385 L163.02477,-214.47394 L162.8897,-214.18365 L162.75473,-213.893 L162.61986,-213.60197 L162.48506,-213.3106 L162.35037,-213.01884 L162.21577,-212.72673 L162.08127,-212.43425 L161.94685,-212.14142 L161.81253,-211.84822 L161.6783,-211.55467 L161.54416,-211.26077 L161.4101,-210.9665 L161.27614,-210.67189 L161.14226,-210.37692 L161.00848,-210.0816 L160.87479,-209.78593 L160.74118,-209.48993 L160.60765,-209.19356 L160.47423,-208.89685 L160.34088,-208.59981 L160.20763,-208.30241 L160.07445,-208.00467 L159.94136,-207.70659 L159.80836,-207.40819 L159.67546,-207.10944 L159.54263,-206.81033 L159.40988,-206.51091 L159.27724,-206.21117 L159.14465,-205.91107 L159.01216,-205.61066 L158.87976,-205.3099 L158.74744,-205.00882 L158.6152,-204.70743 L158.48305,-204.40569 L158.35097,-204.10364 L158.21898,-203.80125 L158.08707,-203.49857 L157.95525,-203.19554 L157.8235,-202.89221 L157.69183,-202.58856 L157.56024,-202.28459 L157.42874,-201.9803 L157.2973,-201.6757 L157.16595,-201.37079 L157.0347,-201.06557 L156.9035,-200.76004 L156.77238,-200.45421 L156.64136,-200.14806 L156.5104,-199.8416 L156.37952,-199.53485 L156.24872,-199.2278 L156.118,-198.92043 L155.98735,-198.61278 L155.85677,-198.30481 L155.72627,-197.99657 L155.59586,-197.688 L155.4655,-197.37917 L155.33524,-197.07002 L155.20503,-196.76059 L155.0749,-196.45087 L154.94485,-196.14085 L154.81488,-195.83055 L154.68497,-195.51997 L154.55513,-195.20909 L154.42537,-194.89793 L154.29568,-194.5865 L154.16608,-194.27478 L154.03653,-193.96278 L153.90704,-193.6505 L153.77765,-193.33794 L153.64832,-193.02512 L153.51904,-192.712 L153.38985,-192.39862 L153.26073,-192.08496 L153.13167,-191.77104 L153.00267,-191.45685 L152.87375,-191.1424 L152.7449,-190.82767 L152.61612,-190.51266 L152.4874,-190.1974 L152.35875,-189.88188 L152.23016,-189.5661 L152.10164,-189.25006 L151.97319,-188.93376 L151.8448,-188.6172 L151.71648,-188.30038 L151.58821,-187.98332 L151.46002,-187.666 L151.3319,-187.34842 L151.20383,-187.0306 L151.07582,-186.71252 L150.94788,-186.3942 L150.82,-186.07564 L150.69218,-185.75682 L150.56444,-185.43776 L150.43675,-185.11845 L150.30911,-184.79892 L150.18155,-184.47913 L150.05403,-184.1591 L149.92659,-183.83885 L149.79921,-183.51836 L149.67188,-183.19763 L149.5446,-182.87666 L149.41739,-182.55547 L149.29024,-182.23404 L149.16315,-181.91238 L149.03612,-181.5905 L148.90913,-181.26839 L148.78221,-180.94604 L148.65535,-180.62349 L148.52855,-180.3007 L148.4018,-179.9777 L148.2751,-179.65448 L148.14847,-179.33104 L148.02188,-179.00737 L147.89536,-178.6835 L147.76888,-178.3594 L147.64246,-178.03511 L147.51608,-177.71059 L147.38977,-177.38586 L147.26352,-177.06093 L147.13731,-176.73578 L147.01115,-176.41043 L146.88506,-176.08487 L146.759,-175.75911 L146.63301,-175.43315 L146.50706,-175.10698 L146.38116,-174.78061 L146.25531,-174.45406 L146.12952,-174.12729 L146.00377,-173.80032 L145.87808,-173.47318 L145.75243,-173.14583 L145.62683,-172.8183 L145.50128,-172.49057 L145.37578,-172.16264 L145.25032,-171.83455 L145.12492,-171.50626 L144.99956,-171.17778 L144.87424,-170.8491 L144.74898,-170.52026 L144.62376,-170.19124 L144.49858,-169.86203 L144.37346,-169.53265 L144.24837,-169.20308 L144.12332,-168.87335 L143.99834,-168.54344 L143.87338,-168.21335 L143.74847,-167.88309 L143.62361,-167.55266 L143.4988,-167.22206 L143.37401,-166.8913 L143.24928,-166.56036 L143.12459,-166.22926 L142.99992,-165.898 L142.87532,-165.56657 L142.75075,-165.23499 L142.62622,-164.90324 L142.50172,-164.57133 L142.37729,-164.23927 L142.25287,-163.90706 L142.12851,-163.57468 L142.00417,-163.24216 L141.87988,-162.90947 L141.75563,-162.57664 L141.63141,-162.24367 L141.50723,-161.91054 L141.38309,-161.57726 L141.25899,-161.24384 L141.13492,-160.91028 L141.01088,-160.57657 L140.88689,-160.24272 L140.76292,-159.90874 L140.639,-159.5746 L140.51512,-159.24034 L140.39127,-158.90594 L140.26744,-158.57141 L140.14365,-158.23674 L140.0199,-157.90195 L139.89618,-157.56702 L139.77249,-157.23195 L139.64883,-156.89676 L139.5252,-156.56145 L139.40163,-156.22601 L139.27806,-155.89044 L139.15454,-155.55475 L139.03104,-155.21895 L138.90758,-154.88303 L138.78413,-154.54697 L138.66072,-154.2108 L138.53735,-153.87453 L138.414,-153.53813 L138.29068,-153.20163 L138.16739,-152.865 L138.04413,-152.52827 L137.9209,-152.19144 L137.79768,-151.85448 L137.6745,-151.51743 L137.55135,-151.18027 L137.42822,-150.843 L137.30513,-150.50563 L137.18205,-150.16817 L137.05899,-149.8306 L136.93597,-149.49292 L136.81297,-149.15517 L136.69,-148.8173 L136.56705,-148.47934 L136.44412,-148.1413 L136.32121,-147.80316 L136.19833,-147.46492 L136.07547,-147.1266 L135.95264,-146.7882 L135.82982,-146.44969 L135.70703,-146.11111 L135.58426,-145.77245 L135.4615,-145.4337 L135.33878,-145.09488 L135.21606,-144.75597 L135.09338,-144.41698 L134.9707,-144.07791 L134.84805,-143.73877 L134.72542,-143.39955 L134.60281,-143.06026 L134.48022,-142.7209 L134.35764,-142.38147 L134.23508,-142.04196 L134.11253,-141.7024 L133.99002,-141.36276 L133.86751,-141.02306 L133.74501,-140.68329 L133.62254,-140.34346 L133.50008,-140.00357 L133.37764,-139.66362 L133.2552,-139.32362 L133.13278,-138.98355 L133.01039,-138.64343 L132.888,-138.30325 L132.76563,-137.96303 L132.64326,-137.62274 L132.52092,-137.28241 L132.39857,-136.94203 L132.27626,-136.6016 L132.15395,-136.26112 L132.03165,-135.9206 L131.90936,-135.58003 L131.78708,-135.23943 L131.66481,-134.89877 L131.54256,-134.55809 L131.4203,-134.21736 L131.29807,-133.87659 L131.17584,-133.53578 L131.05362,-133.19495 L130.93141,-132.85408 L130.8092,-132.51318 L130.68701,-132.17224 L130.56482,-131.83128 L130.44264,-131.4903 L130.32047,-131.14928 L130.1983,-130.80824 L130.07614,-130.46716 L129.95398,-130.12608 L129.83183,-129.78497 L129.70969,-129.44385 L129.58755,-129.10269 L129.46541,-128.76152 L129.34328,-128.42035 L129.22115,-128.07915 L129.09903,-127.73794 L128.97691,-127.39671 L128.85478,-127.05548 L128.73267,-126.71424 L128.61055,-126.37299 L128.48845,-126.03173 L128.36633,-125.690475 L128.24422,-125.349205 L128.12212,-125.007935" fill="none" stroke="#35C788" stroke-linejoin="round" stroke-width="2"/>
</g>
</g>
<g>
<g>
<line stroke="black" stroke-width="1" x1="0" x2="0" y1="0" y2="10"/>
<line stroke="black" stroke-width="1" x1="160" x2="160" y1="0" y2="10"/>
<line stroke="black" stroke-width="1" x1="320" x2="320" y1="0" y2="10"/>
<line stroke="black" stroke-width="1" x1="480" x2="480" y1="0" y2="10"/>
</g>
<line stroke="black" stroke-width="1" x1="0" x2="480" y1="0" y2="0"/>
<g>
<text font-size="12" text-anchor="middle" x="0" y="20">
-5
</text>
<text font-size="12" text-anchor="middle" x="160" y="20">
0
</text>
<text font-size="12" text-anchor="middle" x="320" y="20">
5
</text>
<text font-size="12" text-anchor="middle" x="480" y="20">
10
</text>
</g>
<text font-size="12" text-anchor="middle" x="240" y="30">
x [m]
</text>
</g>
<g>
<g>
<line stroke="black" stroke-width="1" x1="0" x2="-10" y1="-56.666666666666664" y2="-56.666666666666664"/>
<line stroke="black" stroke-width="1" x1="0" x2="-10" y1="-170" y2="-170"/>
<line stroke="black" stroke-width="1" x1="0" x2="-10" y1="-283.3333333333333" y2="-283.3333333333333"/>
</g>
<line stroke="black" stroke-width="1" x1="0" x2="0" y1="0" y2="-340"/>
<g>
<text dominant-baseline="middle" font-size="12" text-anchor="end" x="-15" y="-56.666666666666664">
-5
</text>
<text dominant-baseline="middle" font-size="12" text-anchor="end" x="-15" y="-170">
0
</text>
<text dominant-baseline="middle" font-size="12" text-anchor="end" x="-15" y="-283.3333333333333">
5
</text>
</g>
<text font-size="12" text-anchor="middle" transform="rotate(-90 -24 -170)" x="-24" y="-182">
y [m]
</text>
</g>
</g>
</svg>