<?xml version="1.0" encoding="UTF-8"?>
<svg xmlns="http://www.w3.org/2000/svg" viewBox="0 0 600 600" width="600" height="600">
<style>
  .title { font: bold 16px sans-serif; }
  .axis-label { font: 12px sans-serif; }
  .legend { font: 12px sans-serif; }
</style>
<rect width="100%" height="100%" fill="white"/>
<text x="300" y="30" class="title" text-anchor="middle">Theta* vs A* Path Planning</text>
<g stroke="#eee" stroke-width="0.5">
<line x1="50" y1="50" x2="50" y2="550"/>
<line x1="50" y1="550" x2="550" y2="550"/>
<line x1="75" y1="50" x2="75" y2="550"/>
<line x1="50" y1="525" x2="550" y2="525"/>
<line x1="100" y1="50" x2="100" y2="550"/>
<line x1="50" y1="500" x2="550" y2="500"/>
<line x1="125" y1="50" x2="125" y2="550"/>
<line x1="50" y1="475" x2="550" y2="475"/>
<line x1="150" y1="50" x2="150" y2="550"/>
<line x1="50" y1="450" x2="550" y2="450"/>
<line x1="175" y1="50" x2="175" y2="550"/>
<line x1="50" y1="425" x2="550" y2="425"/>
<line x1="200" y1="50" x2="200" y2="550"/>
<line x1="50" y1="400" x2="550" y2="400"/>
<line x1="225" y1="50" x2="225" y2="550"/>
<line x1="50" y1="375" x2="550" y2="375"/>
<line x1="250" y1="50" x2="250" y2="550"/>
<line x1="50" y1="350" x2="550" y2="350"/>
<line x1="275" y1="50" x2="275" y2="550"/>
<line x1="50" y1="325" x2="550" y2="325"/>
<line x1="300" y1="50" x2="300" y2="550"/>
<line x1="50" y1="300" x2="550" y2="300"/>
<line x1="325" y1="50" x2="325" y2="550"/>
<line x1="50" y1="275" x2="550" y2="275"/>
<line x1="350" y1="50" x2="350" y2="550"/>
<line x1="50" y1="250" x2="550" y2="250"/>
<line x1="375" y1="50" x2="375" y2="550"/>
<line x1="50" y1="225" x2="550" y2="225"/>
<line x1="400" y1="50" x2="400" y2="550"/>
<line x1="50" y1="200" x2="550" y2="200"/>
<line x1="425" y1="50" x2="425" y2="550"/>
<line x1="50" y1="175" x2="550" y2="175"/>
<line x1="450" y1="50" x2="450" y2="550"/>
<line x1="50" y1="150" x2="550" y2="150"/>
<line x1="475" y1="50" x2="475" y2="550"/>
<line x1="50" y1="125" x2="550" y2="125"/>
<line x1="500" y1="50" x2="500" y2="550"/>
<line x1="50" y1="100" x2="550" y2="100"/>
<line x1="525" y1="50" x2="525" y2="550"/>
<line x1="50" y1="75" x2="550" y2="75"/>
<line x1="550" y1="50" x2="550" y2="550"/>
<line x1="50" y1="50" x2="550" y2="50"/>
</g>
<g fill="#333">
<rect x="46" y="546" width="8" height="8" rx="1"/>
<rect x="46" y="46" width="8" height="8" rx="1"/>
<rect x="46" y="546" width="8" height="8" rx="1"/>
<rect x="546" y="546" width="8" height="8" rx="1"/>
<rect x="71" y="546" width="8" height="8" rx="1"/>
<rect x="71" y="46" width="8" height="8" rx="1"/>
<rect x="46" y="521" width="8" height="8" rx="1"/>
<rect x="546" y="521" width="8" height="8" rx="1"/>
<rect x="96" y="546" width="8" height="8" rx="1"/>
<rect x="96" y="46" width="8" height="8" rx="1"/>
<rect x="46" y="496" width="8" height="8" rx="1"/>
<rect x="546" y="496" width="8" height="8" rx="1"/>
<rect x="121" y="546" width="8" height="8" rx="1"/>
<rect x="121" y="46" width="8" height="8" rx="1"/>
<rect x="46" y="471" width="8" height="8" rx="1"/>
<rect x="546" y="471" width="8" height="8" rx="1"/>
<rect x="146" y="546" width="8" height="8" rx="1"/>
<rect x="146" y="46" width="8" height="8" rx="1"/>
<rect x="46" y="446" width="8" height="8" rx="1"/>
<rect x="546" y="446" width="8" height="8" rx="1"/>
<rect x="171" y="546" width="8" height="8" rx="1"/>
<rect x="171" y="46" width="8" height="8" rx="1"/>
<rect x="46" y="421" width="8" height="8" rx="1"/>
<rect x="546" y="421" width="8" height="8" rx="1"/>
<rect x="196" y="546" width="8" height="8" rx="1"/>
<rect x="196" y="46" width="8" height="8" rx="1"/>
<rect x="46" y="396" width="8" height="8" rx="1"/>
<rect x="546" y="396" width="8" height="8" rx="1"/>
<rect x="221" y="546" width="8" height="8" rx="1"/>
<rect x="221" y="46" width="8" height="8" rx="1"/>
<rect x="46" y="371" width="8" height="8" rx="1"/>
<rect x="546" y="371" width="8" height="8" rx="1"/>
<rect x="246" y="546" width="8" height="8" rx="1"/>
<rect x="246" y="46" width="8" height="8" rx="1"/>
<rect x="46" y="346" width="8" height="8" rx="1"/>
<rect x="546" y="346" width="8" height="8" rx="1"/>
<rect x="271" y="546" width="8" height="8" rx="1"/>
<rect x="271" y="46" width="8" height="8" rx="1"/>
<rect x="46" y="321" width="8" height="8" rx="1"/>
<rect x="546" y="321" width="8" height="8" rx="1"/>
<rect x="296" y="546" width="8" height="8" rx="1"/>
<rect x="296" y="46" width="8" height="8" rx="1"/>
<rect x="46" y="296" width="8" height="8" rx="1"/>
<rect x="546" y="296" width="8" height="8" rx="1"/>
<rect x="321" y="546" width="8" height="8" rx="1"/>
<rect x="321" y="46" width="8" height="8" rx="1"/>
<rect x="46" y="271" width="8" height="8" rx="1"/>
<rect x="546" y="271" width="8" height="8" rx="1"/>
<rect x="346" y="546" width="8" height="8" rx="1"/>
<rect x="346" y="46" width="8" height="8" rx="1"/>
<rect x="46" y="246" width="8" height="8" rx="1"/>
<rect x="546" y="246" width="8" height="8" rx="1"/>
<rect x="371" y="546" width="8" height="8" rx="1"/>
<rect x="371" y="46" width="8" height="8" rx="1"/>
<rect x="46" y="221" width="8" height="8" rx="1"/>
<rect x="546" y="221" width="8" height="8" rx="1"/>
<rect x="396" y="546" width="8" height="8" rx="1"/>
<rect x="396" y="46" width="8" height="8" rx="1"/>
<rect x="46" y="196" width="8" height="8" rx="1"/>
<rect x="546" y="196" width="8" height="8" rx="1"/>
<rect x="421" y="546" width="8" height="8" rx="1"/>
<rect x="421" y="46" width="8" height="8" rx="1"/>
<rect x="46" y="171" width="8" height="8" rx="1"/>
<rect x="546" y="171" width="8" height="8" rx="1"/>
<rect x="446" y="546" width="8" height="8" rx="1"/>
<rect x="446" y="46" width="8" height="8" rx="1"/>
<rect x="46" y="146" width="8" height="8" rx="1"/>
<rect x="546" y="146" width="8" height="8" rx="1"/>
<rect x="471" y="546" width="8" height="8" rx="1"/>
<rect x="471" y="46" width="8" height="8" rx="1"/>
<rect x="46" y="121" width="8" height="8" rx="1"/>
<rect x="546" y="121" width="8" height="8" rx="1"/>
<rect x="496" y="546" width="8" height="8" rx="1"/>
<rect x="496" y="46" width="8" height="8" rx="1"/>
<rect x="46" y="96" width="8" height="8" rx="1"/>
<rect x="546" y="96" width="8" height="8" rx="1"/>
<rect x="521" y="546" width="8" height="8" rx="1"/>
<rect x="521" y="46" width="8" height="8" rx="1"/>
<rect x="46" y="71" width="8" height="8" rx="1"/>
<rect x="546" y="71" width="8" height="8" rx="1"/>
<rect x="546" y="546" width="8" height="8" rx="1"/>
<rect x="546" y="46" width="8" height="8" rx="1"/>
<rect x="46" y="46" width="8" height="8" rx="1"/>
<rect x="546" y="46" width="8" height="8" rx="1"/>
<rect x="296" y="421" width="8" height="8" rx="1"/>
<rect x="296" y="396" width="8" height="8" rx="1"/>
<rect x="296" y="371" width="8" height="8" rx="1"/>
<rect x="296" y="346" width="8" height="8" rx="1"/>
<rect x="296" y="321" width="8" height="8" rx="1"/>
<rect x="296" y="296" width="8" height="8" rx="1"/>
<rect x="296" y="271" width="8" height="8" rx="1"/>
<rect x="296" y="246" width="8" height="8" rx="1"/>
<rect x="296" y="221" width="8" height="8" rx="1"/>
<rect x="296" y="196" width="8" height="8" rx="1"/>
<rect x="171" y="171" width="8" height="8" rx="1"/>
<rect x="196" y="171" width="8" height="8" rx="1"/>
<rect x="221" y="171" width="8" height="8" rx="1"/>
<rect x="246" y="171" width="8" height="8" rx="1"/>
<rect x="271" y="171" width="8" height="8" rx="1"/>
<rect x="296" y="171" width="8" height="8" rx="1"/>
<rect x="321" y="171" width="8" height="8" rx="1"/>
</g>
<polyline fill="none" stroke="#0066CC" stroke-width="2" stroke-linecap="round" stroke-linejoin="round" points="100.0,500.0 125.0,500.0 150.0,500.0 175.0,500.0 200.0,500.0 225.0,500.0 250.0,500.0 275.0,475.0 300.0,450.0 325.0,425.0 325.0,400.0 325.0,375.0 325.0,350.0 325.0,325.0 350.0,300.0 375.0,275.0 400.0,250.0 425.0,225.0 450.0,200.0 475.0,175.0 475.0,150.0 500.0,125.0 500.0,100.0 "/>
<g fill="#0066CC">
<circle cx="100" cy="500" r="3"/>
<circle cx="125" cy="500" r="3"/>
<circle cx="150" cy="500" r="3"/>
<circle cx="175" cy="500" r="3"/>
<circle cx="200" cy="500" r="3"/>
<circle cx="225" cy="500" r="3"/>
<circle cx="250" cy="500" r="3"/>
<circle cx="275" cy="475" r="3"/>
<circle cx="300" cy="450" r="3"/>
<circle cx="325" cy="425" r="3"/>
<circle cx="325" cy="400" r="3"/>
<circle cx="325" cy="375" r="3"/>
<circle cx="325" cy="350" r="3"/>
<circle cx="325" cy="325" r="3"/>
<circle cx="350" cy="300" r="3"/>
<circle cx="375" cy="275" r="3"/>
<circle cx="400" cy="250" r="3"/>
<circle cx="425" cy="225" r="3"/>
<circle cx="450" cy="200" r="3"/>
<circle cx="475" cy="175" r="3"/>
<circle cx="475" cy="150" r="3"/>
<circle cx="500" cy="125" r="3"/>
<circle cx="500" cy="100" r="3"/>
</g>
<polyline fill="none" stroke="#CC0000" stroke-width="3" stroke-linecap="round" stroke-linejoin="round" points="100.0,500.0 300.0,450.0 500.0,100.0 "/>
<g fill="#CC0000">
<circle cx="100" cy="500" r="5"/>
<circle cx="300" cy="450" r="5"/>
<circle cx="500" cy="100" r="5"/>
</g>
<circle cx="100" cy="500" r="8" fill="#00AA00" stroke="white" stroke-width="2"/>
<text x="112" y="504" class="axis-label" fill="#00AA00">S</text>
<circle cx="500" cy="100" r="8" fill="#0000AA" stroke="white" stroke-width="2"/>
<text x="512" y="104" class="axis-label" fill="#0000AA">G</text>
<rect x="460" y="50" width="130" height="70" fill="white" stroke="#ccc" rx="4"/>
<line x1="470" y1="75" x2="500" y2="75" stroke="#0066CC" stroke-width="2"/>
<text x="510" y="79" class="legend">A* (23 pts)</text>
<line x1="470" y1="100" x2="500" y2="100" stroke="#CC0000" stroke-width="3"/>
<text x="510" y="104" class="legend">Theta* (3 pts)</text>
</svg>
