<?xml version="1.0" encoding="UTF-8"?>
<svg xmlns="http://www.w3.org/2000/svg" width="800" height="600" viewBox="0 0 800 600">
<rect width="100%" height="100%" fill="white"/>
<text x="400" y="30" text-anchor="middle" font-size="16" font-family="sans-serif">CGMRES NMPC - Trajectory</text>
<line x1="60" y1="540" x2="740" y2="540" stroke="black" stroke-width="1"/>
<line x1="60" y1="60" x2="60" y2="540" stroke="black" stroke-width="1"/>
<path d="M 144.55,180.92 L 141.70,183.77 L 138.57,185.60 L 135.49,186.54 L 132.67,186.75 L 130.26,186.48 L 128.29,185.99 L 126.72,185.57 L 125.52,185.30 L 124.70,185.16 L 124.27,185.11 L 124.24,185.10 L 124.61,185.15 L 125.37,185.24 L 126.53,185.33 L 128.07,185.58 L 129.96,186.10 L 132.14,187.04 L 134.46,188.55 L 136.74,190.74 L 138.69,193.71 L 139.99,197.44 L 140.24,201.79 L 139.08,206.40 L 136.30,210.73 L 131.86,214.03 L 126.10,215.52 L 119.85,214.51 L 114.29,210.70 L 110.86,204.44 L 110.79,196.90 L 114.62,189.96 L 121.85,185.91 L 130.52,186.46 L 137.66,192.08 L 140.23,201.22 L 136.53,210.39 L 127.53,215.37 L 117.09,213.08 L 110.73,203.99 L 112.56,192.64 L 122.32,185.84 L 134.33,188.52 L 140.36,199.69 L 135.35,211.79 L 122.35,215.44 L 111.45,206.81 L 112.51,192.54 L 125.40,185.45 L 138.54,192.89 L 138.65,208.39 L 124.77,216.12 L 111.16,207.19 L 112.98,190.59 L 129.33,185.71 L 140.49,199.14 L 131.72,214.71 L 113.66,212.07 L 109.31,193.92 L 125.69,184.17 L 139.86,197.48 L 129.52,214.42 L 109.51,217.59 L 103.29,197.94 L 116.05,181.24 L 134.05,192.43 L 125.99,212.48 L 105.15,205.39 L 105.86,182.99 L 128.53,180.71 L 131.66,203.68 L 111.67,216.19 L 96.64,198.09 L 115.56,184.79 L 127.69,204.11 L 108.53,215.87 L 96.61,197.30 L 114.60,185.19 L 127.36,202.27 L 111.94,216.42 L 96.57,202.81 L 107.55,185.94 L 125.67,193.76 L 121.60,212.66 L 102.67,212.91 L 97.81,195.02 L 113.32,185.63 L 126.67,197.32 L 120.19,213.40 L 103.26,213.05 L 97.26,197.64 L 108.62,186.17 L 123.50,191.33 L 125.62,206.52 L 113.66,215.47 L 100.25,209.83 L 98.00,195.87 L 108.10,186.55 L 121.15,189.35 L 126.54,201.12 L 120.84,212.30 L 109.00,215.01 L 99.43,208.18 L 97.93,196.93 L 104.61,188.26 L 115.05,186.66 L 123.52,192.25 L 126.23,201.63 L 122.61,210.25 L 114.84,214.71 L 106.33,213.84 L 100.08,208.60 L 97.74,201.20 L 99.46,194.04 L 104.19,188.93 L 110.38,186.76 L 116.50,187.48 L 121.43,190.46 L 124.58,194.81 L 125.82,199.61 L 125.38,204.16 L 123.71,207.98 L 121.27,210.85 L 118.49,212.76 L 115.72,213.83 L 113.18,214.25 L 111.00,214.22 L 109.25,213.92 L 107.93,213.53 L 107.02,213.17 L 106.50,212.91 L 106.34,212.83 L 106.53,212.93 L 107.08,213.22 L 107.99,213.66 L 109.31,214.19 L 111.05,214.68 L 113.24,215.02 L 115.86,215.02 L 118.82,214.47 L 121.97,213.17 L 125.05,210.93 L 127.68,207.65 L 129.41,203.38 L 129.72,198.38 L 128.20,193.20 L 124.64,188.62 L 119.21,185.62 L 112.62,185.14 L 106.14,187.77 L 101.39,193.45 L 99.97,201.12 L 102.86,208.79 L 109.75,213.92 L 118.74,214.31 L 126.58,209.13 L 129.79,199.88 L 126.33,190.29 L 117.11,185.07 L 106.38,187.49 L 100.10,196.99 L 102.54,208.52 L 113.00,214.78 L 124.99,210.96 L 129.88,198.92 L 123.24,187.30 L 109.55,185.68 L 100.13,196.29 L 103.84,210.39 L 118.17,214.77 L 129.47,204.33 L 125.62,189.02 L 109.85,185.42 L 99.57,198.44 L 107.55,213.43 L 124.85,211.69 L 129.41,194.51 L 114.33,184.35 L 99.80,195.92 L 106.73,213.58 L 125.94,210.97 L 127.60,191.26 L 108.20,185.74 L 99.23,204.25 L 116.73,215.80 L 130.47,199.43 L 114.84,184.28 L 98.61,199.39 L 113.44,216.41 L 131.21,201.85 L 116.28,183.87 L 99.09,200.28 L 117.39,216.07 L 132.78,196.95 L 115.33,179.12 L 95.15,194.44 L 112.58,213.39 L 127.15,191.67 L 106.21,175.45 L 95.05,199.90 L 122.10,203.30 L 116.13,176.29 L 92.84,191.82 L 115.87,208.44 L 122.75,180.48 L 93.94,184.99 L 102.99,213.12 L 123.81,191.58 L 94.83,182.52 L 101.62,212.51 L 123.79,190.63 L 92.74,185.07 L 107.09,213.61 L 121.80,184.81 L 89.90,192.17 L 116.90,211.33 L 121.57,178.16 L 90.94,192.67 L 123.10,204.59 L 107.06,173.83 L 98.20,207.78 L 127.03,187.09 L 91.19,185.39 L 119.62,207.94 L 111.11,172.26 L 98.96,207.30 L 135.06,197.18 L 98.24,188.26 L 126.87,213.68 L 112.18,177.91 L 104.37,216.20 L 129.02,185.36 L 93.78,204.02 L 133.81,199.68 L 94.74,188.41 L 128.88,211.22 L 104.54,177.66 L 120.20,216.48 L 113.96,174.74 L 111.06,217.25 L 121.27,175.47 L 105.87,216.06 L 125.53,176.90 L 103.10,215.01 L 127.80,177.85 L 100.56,213.67 L 127.86,177.39 L 100.72,214.24 L 126.80,176.14 L 103.44,216.42 L 122.82,173.65 L 110.01,219.24 L 115.03,171.75 L 120.02,219.63 L 105.76,173.26 L 131.79,214.67 L 95.10,181.73 L 140.42,202.14 L 90.46,198.28 L 138.76,183.54 L 98.99,215.28 L 122.87,169.92 L 121.41,221.57 L 98.47,174.82 L 140.33,206.48 L 88.12,198.05 L 137.31,177.57 L 107.61,222.29 L 107.85,168.20 L 121.08,220.23 L 80.15,186.02 L 132.94,191.05 L 115.47,141.41 L 104.43,192.45 L 137.90,152.87 L 127.34,203.20 L 136.60,253.37 L 143.07,303.74 L 155.90,352.63 L 194.10,385.11 L 242.42,397.78 L 291.93,404.05 L 335.75,427.70 L 380.45,449.43 L 425.20,471.13 L 469.46,494.03 L 516.74,508.45 L 564.85,519.85 L 614.17,516.16 L 566.69,503.80 L 518.05,497.37 L 472.39,479.42 L 426.71,461.50 L 382.00,441.30 L 355.54,399.98 L 329.79,358.22 L 301.56,318.08 L 274.63,277.07 L 248.91,235.29 L 240.00,283.54" fill="none" stroke="red" stroke-width="2"/>
<circle cx="144.55" cy="180.92" r="6" fill="blue"/>
<text x="154.55" y="180.92" font-size="12" font-family="sans-serif">Start</text>
<circle cx="325.92" cy="80.15" r="6" fill="green"/>
<text x="335.92" y="80.15" font-size="12" font-family="sans-serif">Goal</text>
<text x="400" y="580" text-anchor="middle" font-size="12" font-family="sans-serif">x [m]</text>
<text x="20" y="300" text-anchor="middle" font-size="12" font-family="sans-serif" transform="rotate(-90, 20, 300)">y [m]</text>
</svg>
