<?xml version="1.0" encoding="UTF-8"?>
<svg xmlns="http://www.w3.org/2000/svg" width="800" height="600" viewBox="0 0 800 600">
<rect width="100%" height="100%" fill="white"/>
<text x="400" y="30" text-anchor="middle" font-size="16" font-family="sans-serif">CGMRES NMPC - Trajectory</text>
<line x1="60" y1="540" x2="740" y2="540" stroke="black" stroke-width="1"/>
<line x1="60" y1="60" x2="60" y2="540" stroke="black" stroke-width="1"/>
<path d="M 75.10,93.93 L 74.39,94.63 L 73.61,95.09 L 72.85,95.32 L 72.15,95.38 L 71.55,95.31 L 71.06,95.19 L 70.67,95.08 L 70.37,95.01 L 70.17,94.98 L 70.06,94.97 L 70.05,94.96 L 70.14,94.98 L 70.33,95.00 L 70.62,95.02 L 71.00,95.08 L 71.48,95.20 L 72.02,95.43 L 72.60,95.80 L 73.17,96.34 L 73.66,97.07 L 74.00,98.00 L 74.07,99.08 L 73.79,100.23 L 73.10,101.31 L 71.99,102.13 L 70.56,102.50 L 69.00,102.25 L 67.62,101.30 L 66.77,99.74 L 66.77,97.86 L 67.73,96.14 L 69.54,95.14 L 71.71,95.28 L 73.50,96.66 L 74.16,98.93 L 73.25,101.23 L 71.01,102.48 L 68.40,101.92 L 66.82,99.65 L 67.28,96.83 L 69.71,95.15 L 72.69,95.82 L 74.19,98.60 L 72.95,101.61 L 69.72,102.51 L 67.01,100.37 L 67.22,96.83 L 70.39,95.03 L 73.66,96.84 L 73.72,100.69 L 70.27,102.59 L 66.91,100.34 L 67.54,96.25 L 71.65,95.19 L 74.21,98.69 L 71.73,102.36 L 67.36,101.20 L 67.17,96.57 L 71.63,95.03 L 74.23,99.10 L 71.01,102.83 L 66.57,100.49 L 68.14,95.62 L 73.28,96.54 L 72.88,101.84 L 67.49,102.40 L 66.64,96.95 L 72.14,95.83 L 77.08,98.72 L 75.57,104.34 L 69.78,103.12 L 71.60,97.38 L 77.24,99.74 L 74.00,105.04 L 69.24,100.91 L 74.36,97.06 L 77.13,102.94 L 70.70,104.08 L 71.35,97.48 L 77.70,99.73 L 73.80,105.33 L 69.86,99.64 L 76.60,97.71 L 75.78,104.78 L 69.59,101.08 L 75.77,97.17 L 77.52,104.37 L 70.28,102.36 L 75.77,97.08 L 77.51,104.60 L 70.20,101.83 L 76.66,97.26 L 76.75,105.26 L 70.38,100.24 L 78.42,98.59 L 74.25,105.77 L 71.73,97.75 L 79.27,101.68 L 70.97,103.94 L 75.71,96.64 L 76.83,105.37 L 70.32,99.30 L 79.26,100.36 L 71.49,105.10 L 75.29,96.73 L 76.54,105.93 L 70.83,98.48 L 79.46,102.41 L 69.94,103.44 L 78.10,98.25 L 72.76,106.44 L 74.61,96.74 L 77.18,106.37 L 71.41,98.13 L 79.47,104.31 L 69.78,100.95 L 80.11,101.65 L 69.81,103.43 L 79.59,99.45 L 70.59,105.15 L 78.78,98.19 L 71.41,106.15 L 77.63,97.16 L 72.09,106.71 L 77.38,96.91 L 72.10,106.82 L 77.34,96.78 L 71.74,106.74 L 78.00,97.06 L 70.79,106.19 L 78.94,97.75 L 69.51,104.89 L 80.07,99.34 L 68.57,102.87 L 80.67,102.13 L 68.69,99.70 L 79.94,104.74 L 70.74,96.40 L 77.19,107.12 L 74.99,94.71 L 73.84,107.36 L 80.04,96.16 L 69.31,103.33 L 82.03,100.64 L 69.61,96.45 L 79.29,105.44 L 75.26,92.76 L 71.18,105.49 L 81.11,96.41 L 67.60,97.50 L 79.74,103.74 L 74.66,90.98 L 71.13,104.32 L 78.64,92.63 L 65.00,95.69 L 78.95,97.49 L 69.80,86.73 L 73.50,100.46 L 81.73,88.75 L 69.58,96.15 L 83.05,100.78 L 76.09,88.25 L 87.05,78.86 L 73.10,75.59 L 79.57,88.28 L 85.31,75.14 L 71.39,78.65 L 82.82,87.50 L 73.86,76.17 L 88.26,75.58 L 101.64,80.96 L 115.99,82.35 L 129.46,77.19 L 142.80,71.73 L 157.19,70.77 L 170.40,65.00 L 183.25,71.55 L 193.27,81.92 L 197.65,95.66 L 201.09,109.66 L 204.37,123.70 L 210.39,136.80 L 215.63,150.24 L 220.88,163.67 L 225.77,177.23 L 227.05,191.59 L 230.19,205.67 L 233.27,219.75 L 236.47,233.81 L 239.12,247.98 L 241.69,262.17 L 244.27,276.36 L 246.86,290.54 L 249.40,304.74 L 252.70,318.77 L 255.77,332.86 L 258.67,346.99 L 261.57,361.11 L 260.92,375.52 L 268.80,387.59 L 259.00,398.17 L 244.81,400.76 L 232.31,407.94 L 222.19,418.21 L 214.20,430.21 L 207.60,443.04 L 202.39,456.48 L 198.21,470.28 L 192.38,483.47 L 192.24,497.88 L 200.69,509.56 L 189.57,500.39 L 180.41,511.53 L 188.05,523.76 L 184.56,509.77 L 186.64,524.03 L 192.60,510.90 L 178.50,513.93 L 166.15,521.38 L 161.40,535.00 L 174.13,528.21 L 159.72,528.72 L 167.88,516.84 L 164.79,502.77 L 151.67,496.80 L 137.80,492.88 L 123.40,493.35 L 109.21,490.81 L 100.01,479.72 L 105.94,466.58 L 115.31,455.63 L 128.56,449.97 L 142.96,449.35 L 156.93,452.88 L 169.61,459.71 L 180.88,468.71 L 189.74,480.07 L 198.31,491.65 L 203.72,505.01 L 200.31,491.01 L 198.30,476.74 L 193.73,463.07 L 187.68,450.00 L 181.98,436.76 L 195.99,440.09 L 210.24,442.25 L 224.64,442.82 L 239.01,441.70 L 251.54,448.82 L 265.32,453.01 L 279.61,454.94 L 269.53,465.24 L 263.03,478.10 L 255.13,490.15 L 246.35,501.58 L 260.76,501.79 L 272.97,494.14 L 282.89,483.69 L 285.35,497.89 L 279.67,511.13 L 271.81,523.21 L 261.88,533.65 L 251.37,523.79 L 239.25,516.00 L 226.41,509.46 L 224.18,495.22 L 221.42,481.08 L 207.82,476.33 L 193.75,473.19 L 189.17,486.85 L 184.83,500.59 L 179.64,514.04 L 181.56,499.76 L 183.41,485.46 L 176.06,473.07 L 170.40,459.82 L 162.75,447.60 L 155.44,435.18 L 169.77,436.74 L 183.57,440.88 L 197.59,437.54 L 210.74,431.66 L 209.04,417.35 L 207.52,403.02 L 197.74,392.44 L 188.44,381.44 L 185.17,395.48 L 185.71,409.88 L 188.56,424.00 L 192.28,437.92 L 198.56,450.89 L 205.34,463.61 L 190.99,462.32 L 176.80,459.81 L 162.41,460.54 L 148.11,458.73 L 155.20,471.28 L 168.39,477.08 L 182.36,480.59" fill="none" stroke="red" stroke-width="2"/>
<circle cx="75.10" cy="93.93" r="6" fill="blue"/>
<text x="85.10" y="93.93" font-size="12" font-family="sans-serif">Start</text>
<circle cx="120.14" cy="68.90" r="6" fill="green"/>
<text x="130.14" y="68.90" font-size="12" font-family="sans-serif">Goal</text>
<text x="400" y="580" text-anchor="middle" font-size="12" font-family="sans-serif">x [m]</text>
<text x="20" y="300" text-anchor="middle" font-size="12" font-family="sans-serif" transform="rotate(-90, 20, 300)">y [m]</text>
</svg>
