<?xml version="1.0" encoding="UTF-8"?>
<svg xmlns="http://www.w3.org/2000/svg" width="800" height="600" viewBox="0 0 800 600">
<rect width="100%" height="100%" fill="white"/>
<text x="400" y="30" text-anchor="middle" font-size="16" font-family="sans-serif">CGMRES NMPC - Trajectory</text>
<line x1="60" y1="540" x2="740" y2="540" stroke="black" stroke-width="1"/>
<line x1="60" y1="60" x2="60" y2="540" stroke="black" stroke-width="1"/>
<path d="M 339.00,277.01 L 339.00,277.01 L 339.00,277.01 L 339.00,277.01 L 339.00,277.01 L 339.00,277.01 L 339.00,277.01 L 339.00,277.01 L 339.00,277.01 L 339.00,277.01 L 339.00,277.01 L 339.00,277.01 L 339.00,277.01 L 339.00,277.01 L 339.00,277.01 L 339.00,277.01 L 339.00,277.01 L 339.00,277.01 L 339.00,277.01 L 339.00,277.01 L 339.00,277.01 L 339.00,277.01 L 339.00,277.01 L 339.00,277.01 L 339.00,277.01 L 339.00,277.01 L 339.00,277.01 L 339.00,277.01 L 339.00,277.01 L 339.00,277.01 L 339.00,277.01 L 339.00,277.01 L 338.99,277.01 L 338.99,277.01 L 338.99,277.00 L 339.00,277.01 L 338.98,277.01 L 338.99,276.98 L 338.99,276.93 L 339.04,276.88 L 339.01,276.81 L 338.94,276.88 L 339.05,276.86 L 339.14,276.94 L 339.27,276.93 L 339.41,276.91 L 339.56,276.85 L 339.56,276.68 L 339.74,276.67 L 339.83,276.85 L 339.64,276.77 L 339.84,276.67 L 340.00,276.50 L 340.25,276.53 L 339.99,276.49 L 340.27,276.53 L 340.49,276.71 L 340.78,276.78 L 341.04,276.95 L 341.16,276.65 L 341.33,276.94 L 340.99,276.85 L 341.29,277.06 L 341.12,276.72 L 341.24,276.34 L 341.29,275.94 L 341.49,275.57 L 341.82,275.86 L 341.85,276.30 L 342.21,276.59 L 342.44,276.17 L 342.80,276.50 L 342.80,276.00 L 342.79,275.49 L 342.29,275.68 L 341.88,275.32 L 341.77,274.78 L 341.34,275.15 L 340.83,275.43 L 340.59,274.89 L 341.11,275.19 L 340.83,275.75 L 340.41,275.27 L 340.15,275.86 L 339.60,275.50 L 339.27,274.91 L 339.67,275.47 L 340.10,276.02 L 340.36,275.35 L 339.95,274.74 L 340.43,275.31 L 341.16,275.50 L 340.60,276.03 L 341.38,276.17 L 340.74,275.69 L 340.25,276.34 L 340.22,277.17 L 341.05,276.98 L 341.61,277.63 L 340.87,277.17 L 340.68,276.31 L 340.70,275.41 L 339.89,275.83 L 339.03,276.15 L 339.96,276.10 L 339.50,276.93 L 338.80,277.59 L 338.87,278.57 L 339.71,278.03 L 340.70,277.90 L 341.69,277.64 L 342.57,278.18 L 343.32,278.91 L 344.25,278.40 L 345.07,277.71 L 346.15,277.75 L 346.37,278.83 L 347.36,279.34 L 347.05,278.26 L 348.18,278.12 L 347.05,278.33 L 348.18,278.04 L 348.50,276.90 L 349.27,276.00 L 348.35,275.22 L 348.57,276.42 L 349.80,276.58 L 349.73,277.83 L 348.80,276.97 L 347.54,276.79 L 348.78,277.17 L 349.04,275.89 L 350.28,276.37 L 351.58,276.06 L 350.23,276.14 L 348.87,276.31 L 349.90,275.39 L 348.68,276.07 L 349.81,276.92 L 348.38,276.96 L 347.18,276.15 L 347.91,274.89 L 347.49,276.30 L 346.06,275.88 L 344.93,274.89 L 343.87,275.98 L 343.21,277.36 L 341.77,276.81 L 343.28,276.42 L 342.15,275.33 L 342.99,276.67 L 344.22,275.64 L 344.49,274.04 L 344.14,272.45 L 345.78,272.33 L 346.98,273.48 L 345.31,273.61 L 343.62,273.68 L 344.13,272.05 L 345.60,272.94 L 343.96,272.37 L 343.42,270.70 L 342.83,272.37 L 344.07,271.09 L 345.27,272.42 L 346.61,271.20 L 347.21,269.48 L 345.38,269.24 L 346.66,267.89 L 344.85,268.35 L 344.43,270.18 L 343.07,268.86 L 342.04,267.24 L 340.11,267.29 L 340.75,265.45 L 339.52,263.93 L 341.49,263.76 L 343.15,264.85 L 344.02,263.04 L 342.34,264.16 L 341.74,262.22 L 340.92,264.10 L 341.43,266.10 L 342.91,267.56 L 340.82,267.76 L 341.55,265.78 L 341.96,263.69 L 340.61,262.03 L 339.68,263.98 L 337.73,264.92 L 336.21,266.49 L 335.31,264.49 L 336.85,262.90 L 336.28,265.05 L 336.08,267.29 L 333.82,267.19 L 332.25,268.83 L 333.57,270.70 L 335.87,270.84 L 338.00,269.92 L 337.78,272.24 L 336.89,270.07 L 334.53,270.02 L 333.04,268.16 L 331.76,266.14 L 331.91,263.74 L 330.24,265.49 L 330.26,263.05 L 327.81,262.89 L 327.72,260.42 L 329.81,259.08 L 332.05,260.18 L 333.97,261.80 L 334.32,259.30 L 336.73,258.48 L 339.15,259.29 L 337.21,257.60 L 339.71,256.93 L 340.21,254.38 L 340.31,256.99 L 342.78,257.90 L 340.21,258.51 L 341.33,260.93 L 340.38,263.43 L 342.72,264.76 L 344.56,266.75 L 345.36,269.34 L 347.98,268.54 L 345.23,268.74 L 342.57,269.49 L 342.62,272.26 L 339.84,271.98 L 342.04,273.73 L 343.49,276.16 L 345.18,278.44 L 344.37,275.70 L 346.18,277.93 L 343.30,277.95 L 341.15,276.00 L 338.52,274.75 L 339.40,271.96 L 338.03,269.35 L 340.97,268.97 L 343.94,268.87 L 341.52,270.63 L 344.43,269.91 L 343.25,272.69 L 343.74,269.70 L 342.47,266.93 L 339.49,267.59 L 339.16,264.53 L 336.88,266.62 L 339.92,267.24 L 341.33,264.45 L 342.62,261.60 L 343.90,264.47 L 341.43,266.45 L 342.53,269.43 L 339.49,270.39 L 338.36,273.40 L 337.38,276.47 L 334.38,275.23 L 331.32,274.08 L 334.37,272.86 L 336.15,275.63 L 337.71,278.55 L 335.29,280.83 L 338.36,282.16 L 336.77,279.20 L 338.27,276.17 L 341.52,277.15 L 343.43,279.97 L 345.71,277.41 L 344.73,274.11 L 348.19,274.06 L 347.71,270.61 L 344.43,271.80 L 341.40,273.57 L 339.17,276.29 L 337.09,273.43 L 334.90,270.63 L 334.07,267.15 L 330.82,265.64 L 330.90,269.24 L 327.90,271.27 L 324.48,272.50 L 328.03,271.64 L 329.74,274.89 L 331.39,271.59 L 335.05,272.11 L 332.55,269.36 L 335.14,272.05 L 335.70,268.34 L 339.34,269.33 L 342.96,270.43 L 343.29,274.22 L 341.66,270.76 L 338.55,268.53 L 339.61,264.83 L 335.80,265.52 L 339.60,264.70 L 340.90,261.02 L 341.28,264.92 L 339.82,261.27 L 343.35,259.50 L 341.32,256.10 L 339.50,259.64 L 340.88,255.89 L 337.49,258.04 L 337.48,254.01 L 333.88,255.87 L 331.55,252.55 L 334.60,249.84 L 331.00,247.89 L 329.85,243.95 L 333.53,242.08 L 336.19,238.91 L 340.10,237.50 L 336.06,238.54 L 335.17,242.63 L 333.88,246.63 L 338.09,246.92 L 335.31,243.73 L 335.24,239.48 L 338.35,242.40 L 338.68,238.13 L 339.96,234.03 L 339.53,238.32 L 335.34,237.25 L 337.93,240.73 L 341.25,243.56 L 336.88,243.43 L 332.50,243.83 L 330.80,247.90 L 335.23,248.05 L 330.80,247.65 L 332.49,251.78 L 334.58,247.83 L 336.46,251.91 L 332.62,254.26 L 336.85,255.86 L 340.77,253.58 L 341.84,249.15 L 337.93,251.52 L 336.23,255.78 L 340.83,255.84 L 342.82,260.01 L 343.98,255.52 L 346.91,251.91 L 351.50,251.09 L 351.05,246.43 L 354.02,242.79 L 351.64,238.71 L 356.36,238.24 L 360.62,236.13 L 356.90,233.14 L 357.51,237.89 L 358.72,233.24 L 360.16,237.84 L 364.84,239.08 L 361.02,242.08 L 360.92,246.96 L 363.78,250.93 L 359.39,248.72 L 361.49,253.18 L 357.03,255.33 L 359.40,250.96 L 364.39,250.95 L 361.53,246.83 L 366.55,247.16 L 365.73,242.19 L 369.71,239.06 L 369.16,234.01 L 371.78,229.64 L 376.17,227.01 L 380.45,229.85 L 384.31,233.27 L 389.00,235.44 L 385.55,239.31 L 390.75,239.60 L 395.97,239.94 L 397.16,234.83 L 400.18,230.51 L 405.46,230.89 L 401.57,234.51 L 404.61,238.88 L 399.40,240.05 L 396.59,244.62 L 393.28,248.87 L 394.94,254.01 L 395.17,248.59 L 391.59,244.49 L 386.22,243.48 L 385.22,248.86 L 390.17,251.27 L 394.20,255.04 L 388.78,256.21 L 386.13,251.33 L 391.25,249.13 L 385.85,247.66 L 391.13,245.74 L 391.32,240.11 L 393.37,245.38 L 388.47,248.22 L 389.14,242.57 L 390.68,237.07 L 384.96,237.27 L 379.22,237.57 L 373.52,238.43 L 369.71,242.78 L 375.46,243.57 L 369.89,241.85 L 368.13,247.42 L 373.84,246.10 L 368.68,243.28 L 362.96,241.82 L 361.71,247.60 L 363.51,241.94 L 362.86,236.02 L 368.83,236.27 L 371.22,230.77 L 365.23,231.26 L 359.80,233.90 L 361.20,228.01 L 361.47,234.08 L 358.25,239.24 L 354.68,244.20 L 358.21,239.19 L 353.40,243.01 L 353.86,249.16 L 349.08,245.24 L 343.16,243.38 L 337.38,241.09 L 343.35,239.25 L 345.24,233.29 L 343.77,227.19 L 346.79,232.71 L 340.49,233.14 L 335.47,229.28 L 333.44,223.26 L 332.52,216.96 L 335.64,222.54 L 330.98,218.13 L 327.83,212.53 L 332.68,216.78 L 331.31,223.09 L 333.19,229.29 L 338.52,225.58 L 332.53,228.15 L 333.58,221.70 L 340.10,222.34 L 337.28,228.27 L 342.00,223.67 L 335.45,224.58 L 342.07,224.98 L 342.42,218.34 L 346.95,223.22 L 344.40,229.40 L 338.46,232.49 L 338.41,239.21 L 333.40,234.71 L 326.64,234.65 L 324.28,241.00 L 327.36,247.05 L 323.83,252.87 L 323.77,246.05 L 320.86,252.24 L 315.57,256.62 L 321.58,253.26 L 326.78,248.72 L 319.87,249.15 L 323.84,254.84 L 317.34,252.36 L 313.91,258.43 L 320.73,260.01 L 325.90,264.74 L 332.12,261.47 L 337.67,257.12 L 343.89,253.76 L 337.53,250.64 L 341.94,245.07 L 345.64,251.16 L 342.04,244.99 L 343.55,237.99 L 338.27,242.86 L 340.32,235.96 L 333.54,238.42 L 336.05,231.64 L 343.05,229.75 L 338.11,224.42 L 335.44,217.64 L 342.62,218.99 L 349.86,220.13 L 342.57,219.24 L 339.66,212.47 L 345.78,208.35 L 339.62,212.44 L 335.75,206.11 L 332.95,213.00 L 335.59,219.97 L 330.19,214.80 L 329.03,207.40 L 322.96,202.98 L 315.44,202.64 L 322.99,202.59 L 325.50,195.46 L 318.24,193.26 L 317.52,185.70 L 319.95,178.48 L 313.53,182.61 L 317.11,189.37 L 311.89,183.75 L 305.27,187.67 L 299.23,182.89 L 291.62,181.54 L 285.81,176.42 L 280.53,170.74 L 288.29,170.22 L 280.84,167.93 L 287.18,172.50 L 285.21,164.92 L 291.23,169.96 L 293.93,162.57 L 293.30,170.43 L 286.65,174.71 L 280.49,169.73 L 287.91,172.56 L 293.14,166.56 L 289.23,173.51 L 285.67,180.67 L 291.37,175.04 L 288.06,167.72 L 287.61,159.69 L 287.84,151.62 L 280.14,149.15 L 279.52,157.23 L 278.65,149.15 L 275.03,156.44 L 282.86,154.18 L 278.08,160.81 L 285.75,157.94 L 277.63,159.13 L 272.78,152.49 L 281.02,152.78 L 288.56,149.39 L 284.16,142.37 L 275.87,142.58 L 268.75,138.27 L 260.57,136.66 L 257.01,129.10 L 257.78,137.44 L 252.78,144.17 L 257.52,137.23 L 260.25,129.26 L 268.58,127.87 L 260.43,130.15 L 254.86,136.54 L 250.68,143.94 L 248.85,152.26 L 246.67,144.01 L 239.93,138.74 L 244.24,146.15 L 249.49,139.35 L 257.82,137.21 L 253.64,144.75 L 250.23,136.81 L 255.83,143.41 L 259.53,135.56 L 265.45,129.18 L 273.04,133.47 L 281.17,130.27 L 274.29,135.70 L 282.91,134.00 L 279.96,125.71 L 271.24,124.40 L 263.36,120.41 L 260.79,128.89 L 251.94,129.55 L 255.60,137.65 L 257.71,146.31 L 263.13,139.22 L 254.49,136.87 L 245.53,136.53 L 241.00,128.76 L 232.96,124.70 L 241.97,125.29 L 240.75,116.32 L 245.41,124.10 L 253.66,120.28 L 254.88,111.25 L 263.93,112.43 L 256.68,106.85 L 248.57,111.12 L 248.31,101.94 L 239.19,103.26 L 236.71,112.14 L 237.96,102.98 L 244.11,109.91 L 247.91,101.44 L 257.21,101.14 L 253.96,92.40 L 252.28,83.21 L 244.10,87.76 L 247.00,78.83 L 255.16,83.49 L 247.91,89.51 L 241.52,96.46 L 241.79,87.00 L 232.36,87.97 L 238.46,95.25 L 245.36,88.70 L 254.17,85.05 L 253.13,75.55 L 249.58,66.66 L 254.71,74.77 L 250.86,83.58 L 251.42,93.20 L 259.85,88.50 L 268.00,93.71 L 275.14,100.26 L 273.83,90.64 L 277.89,81.79 L 271.83,89.43 L 263.13,93.90 L 262.02,84.17 L 262.11,93.98 L 265.95,84.93 L 268.25,94.51 L 271.92,85.35 L 263.05,80.97 L 265.39,90.60 L 259.00,83.00 L 266.03,75.96 L 257.89,70.20 L 267.88,70.49 L 260.55,63.68 L 257.59,73.26 L 267.49,71.52 L 276.87,67.87 L 277.21,77.95 L 272.95,87.11 L 282.72,89.78 L 291.59,84.85 L 283.41,90.88 L 273.24,91.45 L 263.65,87.95 L 270.65,95.41 L 269.29,105.56 L 269.44,95.30 L 259.20,96.19 L 269.27,98.36 L 259.02,97.08 L 249.18,100.24 L 259.23,97.72 L 253.36,89.16 L 262.76,93.62 L 252.90,97.00 L 246.42,105.18 L 245.29,115.58 L 238.85,107.31 L 233.09,98.54 L 223.02,101.60 L 232.88,105.31 L 242.55,109.56 L 232.01,110.46 L 226.25,119.36 L 218.64,126.75 L 217.91,116.14 L 207.57,113.58 L 213.60,122.39 L 203.99,127.09 L 195.18,133.19 L 192.55,143.59 L 198.96,152.23 L 205.83,160.53 L 214.92,166.35 L 225.72,166.61 L 231.05,157.17 L 227.15,167.30 L 216.35,168.55 L 205.60,170.29 L 197.12,177.15 L 201.72,167.24 L 192.33,161.61 L 181.36,161.88 L 190.31,155.49 L 180.95,161.30 L 178.62,150.52 L 173.26,140.86 L 175.68,151.66 L 186.34,154.73 L 176.39,149.78 L 187.43,151.16 L 176.63,148.43 L 169.66,157.16 L 169.07,168.33 L 164.07,158.30 L 153.89,153.58 L 149.86,164.07 L 156.50,173.17 L 152.94,162.47 L 148.71,172.95 L 153.17,183.35 L 147.54,193.20 L 147.35,181.84 L 158.61,183.47 L 170.01,183.60 L 160.95,176.65 L 152.07,183.85 L 144.64,192.58 L 148.35,203.44 L 142.52,193.53 L 132.80,187.35 L 144.34,187.40 L 152.73,195.35 L 157.77,205.77 L 146.88,209.74 L 135.53,212.22 L 145.18,205.73 L 155.37,211.38 L 160.75,201.02 L 169.10,192.83 L 180.42,195.84 L 182.97,207.29 L 174.12,215.03 L 172.84,226.73 L 184.58,225.66 L 182.22,214.08 L 193.25,218.36 L 194.93,206.63 L 188.01,196.98 L 182.18,186.62 L 176.94,197.32 L 188.18,201.29 L 180.29,210.27 L 187.70,219.67 L 192.04,208.49 L 195.58,219.97 L 185.19,213.90 L 193.87,205.55 L 195.22,193.56 L 202.85,202.93 L 196.38,213.16 L 200.22,201.66 L 191.24,193.49 L 179.12,192.40 L 170.66,183.64 L 165.95,194.89 L 153.83,193.30 L 165.88,191.16 L 155.05,185.40 L 166.88,188.73 L 154.67,190.30 L 142.82,186.92 L 154.67,183.46 L 164.30,175.70 L 156.30,185.16 L 146.30,177.83 L 140.42,166.89 L 132.02,176.06 L 144.45,176.98 L 132.49,180.55 L 140.14,170.67 L 152.58,169.27 L 147.48,157.82 L 135.86,162.57 L 143.71,172.40 L 137.70,161.32 L 139.97,148.91 L 152.46,150.84 L 164.15,155.69 L 163.84,168.36 L 159.21,156.54 L 154.59,168.39 L 166.63,172.55 L 158.70,182.55 L 153.37,194.15 L 164.85,199.80 L 154.33,192.48 L 166.67,188.97 L 154.21,185.85 L 162.77,195.46 L 171.97,204.50 L 183.28,198.27 L 172.21,204.95 L 177.09,192.96 L 188.20,199.66 L 176.77,205.83 L 189.17,201.90 L 179.02,193.73 L 174.61,206.01 L 164.87,214.73 L 170.12,226.72 L 181.11,233.86 L 182.71,220.83 L 173.93,211.04 L 161.06,213.85 L 173.65,217.79 L 170.74,204.90 L 183.54,201.57 L 194.93,194.81 L 184.20,187.02 L 185.68,173.81 L 191.52,161.86 L 194.39,148.84 L 181.19,146.88 L 170.67,138.64 L 184.03,137.92 L 188.79,150.45 L 195.72,161.94 L 209.15,161.22 L 219.05,170.35 L 219.19,183.83 L 222.08,170.64 L 232.75,162.33 L 228.79,175.28 L 222.87,163.08 L 231.97,153.00 L 225.69,165.07 L 214.18,172.35 L 215.43,185.93 L 227.88,180.32 L 231.45,193.52 L 229.78,207.12 L 216.13,205.80 L 229.15,201.42 L 219.11,210.82 L 206.34,216.01 L 197.10,226.26 L 199.45,239.88 L 185.61,240.11 L 176.29,250.36 L 178.86,236.73 L 178.00,222.86 L 176.61,209.01 L 187.45,217.77 L 178.87,206.76 L 170.87,218.22 L 157.58,213.80 L 144.01,217.31 L 133.18,226.24 L 142.98,236.31 L 128.94,237.33 L 120.58,248.67 L 131.83,257.19 L 117.87,259.37 L 131.96,260.71 L 142.88,269.74 L 132.45,260.11 L 142.46,270.20 L 152.90,279.88 L 141.63,271.15 L 135.15,258.44 L 146.33,249.54 L 146.49,235.23 L 132.19,236.17 L 119.72,243.27 L 105.43,241.83 L 100.47,255.34 L 106.37,242.19 L 118.64,249.78 L 104.23,250.77 L 114.95,260.49 L 100.99,264.37 L 114.37,258.76 L 128.31,254.67 L 127.29,269.19 L 116.93,258.94 L 103.96,252.27 L 105.60,237.76 L 105.74,252.39 L 91.24,250.28 L 105.89,249.49 L 102.60,235.17 L 88.24,231.98 L 102.92,230.74 L 98.13,216.79 L 84.38,222.16 L 70.93,216.01 L 85.72,215.44 L 73.18,207.54 L 85.94,199.96 L 86.40,185.11 L 95.04,197.22 L 84.12,187.08 L 98.48,191.13 L 102.75,176.81 L 93.08,188.22 L 107.91,186.10 L 121.53,179.81 L 127.78,193.47 L 129.40,208.42 L 143.75,212.98 L 132.30,203.17 L 138.72,189.50 L 151.98,182.23 L 156.92,167.92 L 157.93,183.05 L 143.56,187.94 L 154.67,177.57 L 149.77,191.98 L 151.78,176.87 L 164.02,167.76 L 177.58,160.72 L 162.28,160.89 L 173.82,170.96 L 165.71,183.98 L 173.55,170.78 L 160.54,162.57 L 146.26,156.82 L 133.38,165.29 L 147.76,159.69 L 139.68,172.86 L 151.51,162.88 L 165.75,156.76 L 180.95,159.82 L 177.15,144.76 L 192.08,140.41 L 204.88,131.55 L 220.05,135.15 L 232.10,125.22 L 246.69,130.84 L 261.38,136.25 L 247.83,144.13 L 259.35,154.78 L 271.17,144.44 L 286.65,147.25 L 273.38,138.75 L 287.88,144.96 L 299.08,156.09 L 314.41,159.97 L 326.65,149.95 L 342.45,148.68 L 348.33,163.42 L 345.17,147.85 L 340.45,132.66 L 332.36,118.94 L 321.96,106.86 L 316.41,121.83 L 326.97,109.83 L 342.81,107.56 L 354.68,96.79 L 344.92,84.06 L 347.94,99.84 L 359.73,110.78 L 343.84,113.38 L 337.52,128.21 L 330.05,113.90 L 331.05,130.03 L 347.22,129.39 L 349.56,113.36 L 365.78,113.70 L 377.88,102.87 L 389.13,114.61 L 400.32,102.78 L 400.26,119.08 L 415.06,125.96 L 409.21,141.22 L 425.15,144.87 L 410.62,152.42 L 398.59,163.56 L 406.99,149.46 L 422.39,155.20 L 419.31,139.03 L 402.83,139.11 L 410.24,153.85 L 395.23,146.95 L 411.38,150.48 L 425.29,141.50 L 429.43,157.55 L 432.35,173.89 L 437.49,158.08 L 420.91,156.75 L 428.67,171.49 L 414.13,179.66 L 404.91,165.75 L 394.64,178.93 L 411.37,178.71 L 427.51,174.25 L 416.09,161.96 L 409.06,146.72 L 425.27,142.28 L 420.38,158.39 L 411.36,144.16 L 427.07,150.31 L 423.82,133.73 L 439.62,139.76 L 433.95,123.81 L 420.68,134.35 L 407.50,123.66 L 418.67,110.86 L 434.05,103.60 L 450.30,108.66 L 446.38,92.08 L 446.94,75.02 L 455.31,89.91 L 468.23,101.13 L 466.74,118.19 L 480.99,108.66 L 469.38,121.30 L 459.95,106.93 L 466.72,91.11 L 450.47,85.40 L 440.67,71.21 L 432.57,86.45 L 415.38,88.20 L 409.29,72.01 L 399.39,86.22 L 416.49,83.38 L 401.42,74.77 L 387.30,84.91 L 402.51,76.45 L 396.77,60.00 L 409.15,72.28 L 391.71,72.94 L 384.98,89.07 L 368.11,93.73 L 357.95,108.00 L 372.49,117.80 L 372.23,135.35 L 370.36,152.83 L 362.12,168.37 L 349.94,155.64 L 336.14,144.66 L 353.78,145.38 L 336.41,142.14 L 318.89,144.65 L 336.57,145.81 L 326.13,160.14 L 343.85,161.18 L 335.54,145.47 L 331.64,162.83 L 329.91,145.11 L 329.94,162.94 L 312.96,168.45 L 313.97,186.29 L 297.28,192.73 L 309.18,179.35 L 300.14,194.83 L 283.16,200.67 L 265.29,198.82 L 261.19,181.31 L 246.58,191.84 L 230.77,200.52 L 246.35,209.64 L 230.47,218.27 L 248.32,215.36 L 234.26,203.94 L 243.94,219.28 L 244.93,237.40 L 228.65,229.33 L 224.03,211.74 L 241.37,217.29 L 223.16,217.89 L 238.09,228.38 L 219.90,226.72 L 211.64,210.41 L 196.70,199.84 L 187.71,215.81 L 188.92,234.11 L 200.17,219.60 L 218.56,219.74 L 202.56,210.63 L 210.39,227.31 L 227.50,234.21 L 220.96,216.94 L 216.06,234.76 L 231.10,245.53 L 249.26,249.19 L 246.90,230.80 L 247.78,212.26 L 266.17,214.92 L 256.22,199.20 L 274.03,193.76 L 275.63,212.34 L 273.68,230.90 L 283.38,246.85 L 267.28,256.36 L 264.06,274.80 L 263.54,256.07 L 265.67,237.43 L 272.11,255.07 L 273.76,273.80 L 292.21,270.11 L 296.87,251.86 L 292.89,233.42 L 290.87,252.19 L 284.04,269.81 L 265.88,264.50 L 251.50,276.82 L 268.19,267.84 L 258.54,284.18 L 275.49,275.61 L 266.09,259.08 L 282.62,249.65 L 301.67,250.06 L 282.60,249.69 L 264.01,245.33 L 276.84,259.50 L 286.83,243.19 L 279.52,225.48 L 265.45,238.51 L 246.99,233.28 L 243.21,252.12 L 251.27,269.58 L 243.96,287.40 L 261.85,294.58 L 277.34,306.07 L 296.41,309.11 L 306.15,325.82 L 301.38,344.57 L 286.40,332.29 L 267.73,327.05 L 261.36,345.39 L 272.61,329.55 L 286.60,343.06 L 271.79,330.42 L 275.80,349.49 L 293.52,341.34 L 278.55,353.89 L 293.87,366.04 L 285.43,383.70 L 268.43,373.97 L 287.29,368.60 L 284.09,387.97 L 299.39,375.64 L 317.32,367.56 L 298.43,362.02 L 280.77,353.26 L 286.49,334.37 L 282.33,353.68 L 263.36,359.24 L 260.83,378.86 L 245.23,391.07 L 257.14,375.22 L 268.18,391.71 L 273.52,372.58 L 270.30,352.95 L 280.53,335.87 L 282.22,355.73 L 277.58,375.13 L 277.15,355.17 L 292.90,367.48 L 285.70,348.81 L 299.73,334.51 L 298.95,314.48 L 311.36,298.71 L 292.29,304.99 L 297.48,285.57 L 292.90,265.97 L 294.71,245.91 L 291.13,226.06 L 278.53,241.83 L 297.93,236.19 L 317.67,240.59 L 297.46,241.82 L 316.68,235.40 L 326.55,253.12 L 308.43,262.28 L 289.13,268.65 L 280.13,250.40 L 262.43,240.33 L 274.62,256.66 L 294.84,259.45 L 303.84,241.11 L 310.08,260.58 L 322.94,276.50 L 326.74,296.63 L 346.59,291.47 L 336.43,273.64 L 320.27,260.96 L 323.22,281.31 L 323.82,301.88 L 338.38,316.46 L 319.74,307.63 L 333.61,322.92 L 336.78,343.34 L 324.16,359.73 L 322.60,380.37 L 337.50,365.97 L 325.03,349.40 L 307.91,361.15 L 324.47,373.70 L 309.53,359.23 L 292.95,371.83 L 274.33,362.46 L 287.85,346.57 L 307.99,341.06 L 328.58,344.67 L 345.32,357.21 L 365.86,353.12 L 381.63,366.93 L 400.12,376.84 L 420.92,373.92 L 441.37,369.05 L 436.20,348.66 L 430.08,328.50 L 434.93,349.02 L 440.83,328.76 L 438.24,307.80 L 438.78,328.93 L 435.20,308.07 L 449.82,323.40 L 460.64,341.63 L 440.00,336.70 L 422.30,324.96 L 405.90,311.44 L 386.64,302.39 L 407.15,308.11 L 387.66,316.74 L 394.35,337.00 L 408.60,321.09 L 387.30,319.29 L 408.69,318.82 L 412.53,339.89 L 394.17,328.83 L 382.20,311.02 L 368.14,294.78 L 354.00,278.59 L 342.83,296.98 L 347.55,275.97 L 356.54,295.56 L 336.69,287.11 L 356.14,277.72 L 374.01,265.56 L 388.66,281.48 L 405.57,267.95 L 386.77,257.16 L 394.20,277.54 L 393.27,255.84 L 401.62,275.92 L 411.18,295.46 L 404.72,274.66 L 395.26,255.02 L 402.93,234.60 L 414.65,253.02 L 434.71,261.70 L 432.75,239.92 L 415.48,253.38 L 419.37,231.81 L 398.00,226.86 L 379.03,237.92 L 373.75,216.59 L 353.37,224.88 L 348.71,246.40 L 340.88,225.80 L 336.99,204.09 L 352.03,187.92 L 331.18,195.26 L 333.08,173.23 L 350.49,186.90 L 330.89,176.56 L 314.61,161.50 L 310.25,183.26 L 289.92,192.22 L 268.02,196.10 L 258.69,216.31 L 261.38,238.43 L 255.86,260.03 L 252.76,282.14 L 274.89,285.20 L 297.20,283.67 L 318.17,291.50 L 295.77,291.33 L 318.19,291.59 L 301.22,276.90 L 290.39,296.58 L 280.31,316.68 L 258.61,310.70 L 271.43,329.23 L 258.33,310.88 L 235.86,308.93 L 257.75,314.47 L 273.77,330.41 L 254.31,318.87 L 274.22,329.65 L 253.40,320.72 L 234.15,332.72 L 231.33,310.19 L 238.00,288.47 L 244.01,310.41 L 248.72,288.14 L 251.64,265.54 L 244.83,243.78 L 266.62,250.58 L 274.29,272.10 L 288.41,254.12 L 305.61,239.02 L 294.78,259.20 L 304.80,279.82 L 311.56,257.89 L 296.48,275.22 L 274.02,280.08 L 286.65,260.85 L 265.17,252.55 L 285.17,264.00 L 263.10,270.70 L 243.17,282.35 L 220.08,283.20 L 197.01,284.84 L 182.04,302.48 L 182.00,325.65 L 165.44,341.88 L 148.52,326.00 L 170.45,318.34 L 193.50,315.39 L 184.03,294.14 L 178.93,271.42 L 175.02,248.45 L 185.99,227.87 L 207.54,236.84 L 184.37,233.85 L 166.54,218.72 L 154.80,238.97 L 175.25,227.54 L 158.09,243.52 L 139.40,257.71 L 145.98,280.25 L 145.46,256.75 L 142.12,280.04 L 122.39,292.90 L 142.01,305.95 L 143.31,329.50 L 139.25,306.25 L 117.25,314.89 L 132.85,297.12 L 142.02,275.30 L 120.74,264.91 L 143.99,260.32 L 133.63,281.66 L 151.70,297.06 L 161.44,318.75 L 157.80,342.25 L 180.27,334.38 L 171.79,312.11 L 195.63,311.34 L 219.48,310.45 L 197.64,320.13 L 203.12,343.40 L 180.32,336.12 L 157.36,342.93 L 178.41,331.46 L 160.30,315.73 L 168.22,338.39 L 183.09,357.27 L 193.45,335.57 L 189.11,359.24 L 210.88,348.93 L 219.90,371.29 L 243.29,377.18 L 220.06,383.76 L 195.89,383.49 L 175.26,396.11 L 189.92,415.38 L 208.96,400.40 L 192.80,418.48 L 207.34,437.91 L 221.32,457.77 L 222.24,433.48 L 243.88,444.61 L 219.82,440.84 L 204.09,422.23 L 193.66,444.27 L 173.88,429.97 L 166.41,453.23 L 184.25,436.52 L 198.22,456.61 L 210.77,477.64 L 201.69,500.41 L 225.75,495.65 L 224.45,520.17 L 238.95,540.00 L 253.32,520.05 L 243.21,497.61 L 262.18,481.90 L 279.79,464.65 L 301.31,476.72 L 303.87,452.17 L 282.46,439.83 L 303.24,426.42 L 296.13,450.13 L 273.54,460.28 L 292.80,444.67 L 275.81,462.75 L 296.60,476.34 L 318.21,488.60 L 293.39,490.27 L 268.88,494.60 L 254.38,474.34 L 243.58,451.88 L 258.22,431.68 L 235.70,442.45 L 249.19,421.42 L 245.62,396.66 L 234.95,419.30 L 210.92,412.21 L 222.59,434.40 L 200.64,422.24 L 184.39,441.39 L 196.50,419.36 L 205.67,395.94 L 226.73,409.72 L 205.02,396.96 L 212.81,420.93 L 219.40,396.58 L 202.55,415.39 L 205.70,390.31 L 202.04,415.34 L 227.09,411.70 L 251.54,405.07 L 273.36,392.16 L 293.02,376.12 L 292.74,350.73 L 291.21,325.37 L 297.79,300.80 L 316.61,317.93 L 336.56,333.78 L 343.24,309.18 L 325.69,327.70 L 302.94,339.29 L 302.71,364.84 L 281.18,378.64 L 277.61,353.29 L 262.09,373.67 L 279.06,354.46 L 287.18,378.79 L 273.36,357.15 L 254.88,339.30 L 238.45,319.52 L 214.66,329.33 L 217.95,354.88 L 209.01,379.05 L 186.66,391.93 L 202.12,371.25 L 205.03,345.58 L 227.25,332.37 L 220.36,357.31 L 221.33,383.19 L 247.16,385.33 L 247.90,359.41 L 240.16,334.63 L 263.93,324.14 L 242.17,338.36 L 258.20,317.88 L 283.81,322.58 L 289.23,297.09 L 295.45,271.77 L 289.40,297.15 L 288.94,271.04 L 263.50,265.06 L 243.04,248.75 L 247.77,274.50 L 232.18,253.44 L 229.72,279.55 L 220.89,304.25 L 247.08,306.24 L 240.62,331.71 L 214.94,337.38 L 240.93,341.57 L 214.68,339.40 L 222.93,314.37 L 200.22,300.94 L 195.61,326.94 L 183.78,350.56 L 172.27,326.75 L 148.99,339.33 L 153.12,313.17 L 127.11,318.26 L 153.05,312.75 L 126.69,309.71 L 101.43,301.49 L 92.88,326.65 L 119.29,323.50 L 125.21,297.55 L 141.77,318.42 L 139.79,345.01 L 121.04,363.98 L 136.29,342.07 L 146.45,317.35 L 123.80,303.14 L 126.47,329.76 L 109.90,350.80 L 87.08,364.85 L 113.80,367.19 L 103.90,392.14 L 92.07,416.25 L 79.98,440.25 L 69.45,415.50 L 61.76,389.70 L 60.49,362.79 L 86.74,368.94 L 60.00,365.37 L 87.00,365.88 L 99.77,389.69 L 113.41,366.33 L 125.65,342.20 L 141.00,319.89 L 116.38,331.23 L 106.02,356.29 L 121.44,333.96" fill="none" stroke="red" stroke-width="2"/>
<circle cx="339.00" cy="277.01" r="6" fill="blue"/>
<text x="349.00" y="277.01" font-size="12" font-family="sans-serif">Start</text>
<circle cx="339.00" cy="277.01" r="6" fill="green"/>
<text x="349.00" y="277.01" font-size="12" font-family="sans-serif">Goal</text>
<text x="400" y="580" text-anchor="middle" font-size="12" font-family="sans-serif">x [m]</text>
<text x="20" y="300" text-anchor="middle" font-size="12" font-family="sans-serif" transform="rotate(-90, 20, 300)">y [m]</text>
</svg>
