<svg viewBox="0 0 600 400" xmlns="http://www.w3.org/2000/svg">
<g transform="translate(72, 364)">
<g>
<g>
<path d="M68.57143,-145.71428 L68.57143,-145.71428 L70.82991,-144.98547 L73.08866,-144.25647 L75.34796,-143.52707 L77.60809,-142.7971 L79.869316,-142.06636 L82.13192,-141.33466 L84.396164,-140.60179 L86.66234,-139.86758 L88.9307,-139.13182 L91.201546,-138.39433 L93.47513,-137.65492 L95.75174,-136.91338 L98.03165,-136.16953 L100.315125,-135.42317 L102.60244,-134.6741 L104.89388,-133.92216 L107.18972,-133.16713 L109.49023,-132.40881 L111.795685,-131.64703 L114.10635,-130.88159 L116.422516,-130.11229 L118.74445,-129.33893 L121.072426,-128.56134 L123.40672,-127.77931 L125.74761,-126.99266 L128.09537,-126.20118 L130.45026,-125.40469 L132.81258,-124.603004 L135.18257,-123.79591 L137.56055,-122.98323 L139.94676,-122.164764 L142.34149,-121.34032 L144.74501,-120.509705 L147.1576,-119.67273 L149.57951,-118.8292 L152.01105,-117.97892 L154.45247,-117.121704 L156.90405,-116.25735 L159.36609,-115.385666 L161.83882,-114.50647 L164.32256,-113.61956 L166.81755,-112.72474 L169.32407,-111.82183 L171.8424,-110.91062 L174.37283,-109.99094 L176.91562,-109.06258 L179.47104,-108.12534 L182.03938,-107.17905 L184.6209,-106.223495 L187.21588,-105.2585 L189.82458,-104.28387 L192.44731,-103.2994 L195.08432,-102.3049 L197.73589,-101.30019 L200.40228,-100.285065 L203.08379,-99.25934 L205.78069,-98.22281 L208.49323,-97.1753 L211.22171,-96.1166 L213.9664,-95.046524 L216.72757,-93.96489 L219.5055,-92.87148 L222.30045,-91.76613 L225.1127,-90.64863 L227.94255,-89.51878 L230.79025,-88.37641 L233.65607,-87.22131 L236.53992,-86.05372 L239.4408,-84.87481 L242.35757,-83.68593 L245.28912,-82.48841 L248.23433,-81.28359 L251.19206,-80.072815 L254.16118,-78.85741 L257.14056,-77.6387 L260.1291,-76.41805 L263.12564,-75.19678 L266.12906,-73.97623 L269.13824,-72.75772 L272.1521,-71.54261 L275.16943,-70.33222 L278.18915,-69.1279 L281.21014,-67.93098 L284.23123,-66.74279 L287.25134,-65.56467 L290.26935,-64.39796 L293.2841,-63.243984 L296.29443,-62.104095 L299.2993,-60.97962 L302.29752,-59.8719 L305.288,-58.782265 L308.2696,-57.712055 L311.24118,-56.662605 L314.20163,-55.635254 L317.1498,-54.631336 L320.0846,-53.652184 L323.00488,-52.69914 L325.90952,-51.773537 L328.7974,-50.87671 L331.66736,-50.01 L334.5183,-49.174736 L337.34912,-48.372257 L340.15863,-47.603905 L342.94577,-46.87101 L345.70938,-46.17491 L348.44833,-45.51694 L351.1615,-44.89844 L353.84775,-44.320744 L356.50598,-43.785187 L359.13504,-43.293106 L361.73383,-42.845833 L364.30118,-42.444714 L366.836,-42.091076 L369.33716,-41.78626 L371.80353,-41.5316 L374.23398,-41.328434 L376.62738,-41.1781 L378.9826,-41.08193 L381.29855,-41.04126 L383.57404,-41.057426 L385.808,-41.13177 L387.99927,-41.265625 L390.14673,-41.460323 L392.24927,-41.71721 L394.30576,-42.03761 L396.31503,-42.422867 L398.27603,-42.874313 L400.18756,-43.39329 L402.04855,-43.98113 L403.85785,-44.63917 L405.61432,-45.368748 L407.31683,-46.171196 L408.9643,-47.04785 L410.55557,-48.000053 L412.0895,-49.0291 L413.5658,-50.134987 L414.98495,-51.316208 L416.3475,-52.57115 L417.654,-53.898212 L418.90503,-55.295784 L420.10114,-56.762264 L421.2429,-58.29604 L422.33084,-59.89551 L423.36557,-61.559067 L424.3476,-63.285107 L425.27753,-65.07202 L426.15588,-66.918205 L426.98328,-68.822044 L427.7602,-70.78195 L428.48724,-72.7963 L429.16498,-74.863495 L429.79395,-76.98193 L430.3747,-79.15 L430.90784,-81.36609 L431.3939,-83.6286 L431.8334,-85.93593 L432.22696,-88.28646 L432.57513,-90.678604 L432.87845,-93.11073 L433.1375,-95.58125 L433.3528,-98.088554 L433.525,-100.63104 L433.65454,-103.20709 L433.74207,-105.81511 L433.7881,-108.45348 L433.79318,-111.12061 L433.75793,-113.814896 L433.68286,-116.53471 L433.56857,-119.278465 L433.4156,-122.04454 L433.22446,-124.831345 L432.9958,-127.63726 L432.7301,-130.4607 L432.42798,-133.30003 L432.08997,-136.15366 L431.71664,-139.01997 L431.30853,-141.89738 L430.8662,-144.78427 L430.39026,-147.67905 L429.88123,-150.58006 L429.33966,-153.48576 L428.7661,-156.3945 L428.16116,-159.3047 L427.5254,-162.21474 L426.8593,-165.12302 L426.16348,-168.02792 L425.4385,-170.92786 L424.68494,-173.8212 L423.90332,-176.70636 L423.09418,-179.58174 L422.25812,-182.44571 L421.39572,-185.29668 L420.50748,-188.13303 L419.594,-190.95316 L418.65582,-193.75546 L417.69354,-196.53835 L416.70767,-199.30019 L415.69876,-202.03938 L414.66745,-204.75435 L413.61423,-207.44344 L412.53964,-210.10507 L411.44434,-212.73766 L410.3288,-215.33955 L409.1936,-217.90916 L408.0393,-220.4449 L406.8665,-222.94514 L405.6757,-225.4083 L404.4675,-227.83273 L403.24243,-230.21687 L402.00107,-232.55908 L400.744,-234.85779 L399.4717,-237.11136 L398.18484,-239.31819 L396.8839,-241.47668 L395.5695,-243.58524 L394.24213,-245.64223 L392.90237,-247.64607 L391.5508,-249.59514 L390.18802,-251.48784 L388.8145,-253.32257 L387.43085,-255.09772 L386.03763,-256.81168 L384.6354,-258.46283 L383.2247,-260.0496 L381.80612,-261.57034 L380.3802,-263.0235 L378.94748,-264.4074 L377.50854,-265.72052 L376.06396,-266.96118 L374.61426,-268.1278 L373.16003,-269.21878 L371.70184,-270.2325 L370.2402,-271.1674 L368.77573,-272.02182 L367.30896,-272.79416 L365.84042,-273.48285 L364.37073,-274.08624 L362.9004,-274.60272 L361.43002,-275.03076 L359.9601,-275.36868 L358.4913,-275.61487 L357.02408,-275.7678 L355.55905,-275.82578 L354.09674,-275.78723 L352.63776,-275.65057 L351.18262,-275.41415 L349.73187,-275.07642 L348.28613,-274.63574 L346.84592,-274.09048 L345.4118,-273.4391 L343.98434,-272.6799 L342.56412,-271.81137 L341.15115,-270.83392 L339.74448,-269.75247 L338.34296,-268.57254 L336.9455,-267.2996 L335.5509,-265.93915 L334.15808,-264.49673 L332.7659,-262.97784 L331.3732,-261.38797 L329.97885,-259.7326 L328.58176,-258.01727 L327.18076,-256.2475 L325.77472,-254.42876 L324.36252,-252.56656 L322.94302,-250.6664 L321.5151,-248.7338 L320.0776,-246.77425 L318.62943,-244.79327 L317.1694,-242.79636 L315.6964,-240.789 L314.20935,-238.77673 L312.70706,-236.76503 L311.1884,-234.75941 L309.65225,-232.7654 L308.09747,-230.78845 L306.52292,-228.83412 L304.9275,-226.90788 L303.31006,-225.01524 L301.66946,-223.16171 L300.00458,-221.3528 L298.31424,-219.59401 L296.59738,-217.89082 L294.85284,-216.24878 L293.07947,-214.67336 L291.27615,-213.17006 L289.44174,-211.74442 L287.57513,-210.40192 L285.67517,-209.14806 L283.74072,-207.98834 L281.77066,-206.9283 L279.76385,-205.9734 L277.71918,-205.12918 L275.63547,-204.40112 L273.51166,-203.79466 L271.34763,-203.31143 L269.14484,-202.94765 L266.9048,-202.69911 L264.62906,-202.5616 L262.31915,-202.53088 L259.9766,-202.60278 L257.60294,-202.77307 L255.19972,-203.03755 L252.76846,-203.392 L250.31071,-203.8322 L247.828,-204.35394 L245.32187,-204.95303 L242.79382,-205.62524 L240.24544,-206.36636 L237.67822,-207.1722 L235.09372,-208.03853 L232.49345,-208.96114 L229.87898,-209.9358 L227.25182,-210.95834 L224.61351,-212.02454 L221.96558,-213.13017 L219.30957,-214.27103 L216.64702,-215.44289 L213.97945,-216.64157 L211.30841,-217.86284 L208.63544,-219.1025 L205.96205,-220.35632 L203.2898,-221.62012 L200.6202,-222.88965 L197.9548,-224.16074 L195.29514,-225.42914 L192.64275,-226.69067 L189.99915,-227.9411 L187.36589,-229.17624 L184.74452,-230.39185 L182.13654,-231.58374 L179.5435,-232.74768 L176.96695,-233.87949 L174.4084,-234.97493 L171.8694,-236.02982 L169.35149,-237.0399 L166.85619,-238.001 L164.38503,-238.9089 L161.93956,-239.7594 L159.52132,-240.54826 L157.13182,-241.27129 L154.77263,-241.92427 L152.44525,-242.50299 L150.15121,-243.00327 L147.89137,-243.42278 L145.66537,-243.76222 L143.47282,-244.02264 L141.31326,-244.20503 L139.18628,-244.31041 L137.09143,-244.3398 L135.0283,-244.2942 L132.99646,-244.17464 L130.99548,-243.9821 L129.02493,-243.71764 L127.08437,-243.38223 L125.17339,-242.97691 L123.29156,-242.5027 L121.43844,-241.96059 L119.6136,-241.3516 L117.81663,-240.67674 L116.04708,-239.93704 L114.304535,-239.1335 L112.58856,-238.26714 L110.898735,-237.33896 L109.23462,-236.34998 L107.59579,-235.30122 L105.98182,-234.1937 L104.39228,-233.0284 L102.82674,-231.80637 L101.284775,-230.52861 L99.765945,-229.19612 L98.26984,-227.80994 L96.79601,-226.37106 L95.344055,-224.88051 L93.91351,-223.3393 L92.50398,-221.74841 L91.11502,-220.1089 L89.7462,-218.42177 L88.397095,-216.68803 L87.067276,-214.90869 L85.75632,-213.08476 L84.46379,-211.21725 L83.189255,-209.3072 L81.9323,-207.35559 L80.69248,-205.36346 L79.46938,-203.3318 L78.26257,-201.26164 L77.07162,-199.15399 L75.89609,-197.00987 L74.735565,-194.83028 L73.58961,-192.61623 L72.457794,-190.36874 L71.3397,-188.08884 L70.234886,-185.77751 L69.14294,-183.43579 L68.063416,-181.06468 L66.99589,-178.6652 L65.93994,-176.23836 L64.89513,-173.78519 L63.861034,-171.30667 L62.837227,-168.80383 L61.823277,-166.2777 L60.818756,-163.72925 L59.823235,-161.15955 L58.83629,-158.56956 L57.85748,-155.96033 L56.88639,-153.33287 L55.922585,-150.68817 L54.965633,-148.02725 L54.015114,-145.35115 L53.070595,-142.66086 L52.13165,-139.95738 L51.197845,-137.24176 L50.268753,-134.51498 L49.34395,-131.77809 L48.423004,-129.03206 L47.505486,-126.27792 L46.590965,-123.5167 L45.67902,-120.7494 L44.769215,-117.97703 L43.861126,-115.2006 L42.954323,-112.421135 L42.048374,-109.63965" fill="none" stroke="#000000" stroke-linejoin="round" stroke-width="2"/>
</g>
</g>
<g>
<g>
<path d="M68.57143,-145.71428 L68.57143,-145.71428 L68.57143,-145.71428 L69.333336,-145.71428 L70.78009,-145.6789 L72.83743,-145.55501 L75.43377,-145.30516 L78.498764,-144.89171 L81.969444,-144.29947 L85.789505,-143.52133 L89.90939,-142.55632 L94.288635,-141.41293 L98.89204,-140.10019 L103.69454,-138.63664 L108.67275,-137.0358 L113.80807,-135.31262 L119.08463,-133.4811 L124.49093,-131.55698 L130.01405,-129.55042 L135.64168,-127.469315 L141.36694,-125.326324 L147.17892,-123.126305 L153.06845,-120.87446 L159.03043,-118.57961 L165.05228,-116.23923 L171.13416,-113.86586 L177.26036,-111.450455 L183.43619,-109.00968 L189.64157,-106.52706 L195.88916,-104.02648 L202.15799,-101.48884 L208.45648,-98.93105 L214.77368,-96.34535 L221.10114,-93.72659 L227.45198,-91.09538 L233.80865,-88.43462 L240.16296,-85.73845 L246.53632,-83.035576 L252.92212,-80.32114 L259.32187,-77.59955 L265.73328,-74.87044 L272.1695,-72.151535 L278.6429,-69.45971 L285.15457,-66.7986 L291.70526,-64.17139 L298.28937,-61.57316 L304.9067,-59.005493 L311.59073,-56.514736 L318.33997,-54.103336 L325.16556,-51.79245 L332.0724,-49.596718 L339.05954,-47.52351 L346.12576,-45.58089 L353.30792,-43.856083 L360.56894,-42.297146 L367.9495,-41.041515 L375.43796,-40.151024 L383.00998,-39.724937 L390.60544,-39.86851 L398.1129,-40.70721 L405.34702,-42.36243 L412.04587,-44.91082 L417.69855,-48.51489 L422.36703,-52.768875 L425.9572,-57.520077 L428.6101,-62.57164 L430.79062,-67.736084 L432.3752,-73.00905 L433.57825,-78.332954 L434.49756,-83.68568 L435.1026,-89.06127 L435.5301,-94.44583 L435.74973,-99.83703 L435.75317,-105.23081 L435.63034,-110.6242 L435.36142,-116.01519 L434.9677,-121.40259 L434.4492,-126.7849 L433.81076,-132.16093 L433.0513,-137.52927 L432.16895,-142.8883 L431.2147,-148.24132 L430.16388,-153.58537 L429.03363,-158.92142 L427.81314,-164.24759 L426.4866,-169.56111 L425.04114,-174.85913 L423.50726,-180.14474 L421.89523,-185.41875 L420.2035,-190.68028 L418.4245,-195.9274 L416.53485,-201.15514 L414.52603,-206.36058 L412.39212,-211.54103 L410.12946,-216.69403 L407.7352,-221.81714 L405.2553,-226.91982 L402.58545,-231.97418 L399.7972,-236.9964 L396.856,-241.97467 L393.76932,-246.90858 L390.47556,-251.77489 L386.87476,-256.5308 L383.07257,-261.20743 L378.83206,-265.691 L374.11996,-269.93176 L368.80478,-273.79828 L362.7633,-277.08643 L355.68832,-279.089 L348.07034,-279.00278 L341.32968,-276.48724 L336.2383,-272.4724 L332.37445,-267.8211 L329.31476,-262.8786 L326.40973,-257.88953 L323.60556,-252.87155 L320.74704,-247.86899 L317.8093,-242.88951 L314.80054,-237.93135 L311.55927,-233.04726 L308.16074,-228.2171 L304.47885,-223.4923 L300.5718,-218.85909 L296.34192,-214.37038 L291.65393,-210.1161 L286.52686,-206.12407 L280.68552,-202.6591 L274.0509,-200.0058 L266.6898,-198.6135 L259.08163,-198.32515 L251.5892,-199.3049 L244.38298,-201.05724 L237.51141,-203.38843 L230.9033,-206.07475 L224.46072,-208.95575 L218.19193,-212.02309 L211.9923,-215.16017 L205.87355,-218.37592 L199.76303,-221.59953 L193.66838,-224.83818 L187.52345,-228.02881 L181.3393,-231.18117 L175.05255,-234.23001 L168.65237,-237.15807 L162.07646,-239.88374 L155.32106,-242.3795 L148.27155,-244.42683 L140.92212,-245.84984 L133.34251,-246.39824 L125.745125,-245.99164 L118.48575,-244.35306 L111.712326,-241.88193 L105.771736,-238.50272 L100.42367,-234.65887 L95.72785,-230.40892 L91.531715,-225.90433 L87.77391,-221.20958 L84.36329,-216.38367 L81.24261,-211.46031 L78.366035,-206.4629 L75.64854,-201.42104 L73.122215,-196.32953 L70.703476,-191.21187 L68.44917,-186.05667 L66.25395,-180.88872 L64.15139,-175.70145 L62.12201,-170.49959 L60.168163,-165.28323 L58.280643,-160.05464 L56.45321,-154.81535 L54.69243,-149.56462 L52.968643,-144.30774 L51.26862,-139.04697 L49.59745,-133.78157 L47.94079,-128.51387 L46.292995,-123.24477 L44.645103,-117.975685 L42.990223,-112.7077 L41.323433,-107.4416" fill="none" stroke="#35C788" stroke-linejoin="round" stroke-width="2"/>
</g>
</g>
<g>
<g>
<line stroke="black" stroke-width="1" x1="68.57142857142857" x2="68.57142857142857" y1="0" y2="10"/>
<line stroke="black" stroke-width="1" x1="205.71428571428572" x2="205.71428571428572" y1="0" y2="10"/>
<line stroke="black" stroke-width="1" x1="342.85714285714283" x2="342.85714285714283" y1="0" y2="10"/>
<line stroke="black" stroke-width="1" x1="480" x2="480" y1="0" y2="10"/>
</g>
<line stroke="black" stroke-width="1" x1="0" x2="480" y1="0" y2="0"/>
<g>
<text font-size="12" text-anchor="middle" x="68.57142857142857" y="20">
0
</text>
<text font-size="12" text-anchor="middle" x="205.71428571428572" y="20">
5
</text>
<text font-size="12" text-anchor="middle" x="342.85714285714283" y="20">
10
</text>
<text font-size="12" text-anchor="middle" x="480" y="20">
15
</text>
</g>
<text font-size="12" text-anchor="middle" x="240" y="30">
x [m]
</text>
</g>
<g>
<g>
<line stroke="black" stroke-width="1" x1="0" x2="-10" y1="-48.57142857142857" y2="-48.57142857142857"/>
<line stroke="black" stroke-width="1" x1="0" x2="-10" y1="-145.71428571428572" y2="-145.71428571428572"/>
<line stroke="black" stroke-width="1" x1="0" x2="-10" y1="-242.85714285714286" y2="-242.85714285714286"/>
<line stroke="black" stroke-width="1" x1="0" x2="-10" y1="-340" y2="-340"/>
</g>
<line stroke="black" stroke-width="1" x1="0" x2="0" y1="0" y2="-340"/>
<g>
<text dominant-baseline="middle" font-size="12" text-anchor="end" x="-15" y="-48.57142857142857">
-5
</text>
<text dominant-baseline="middle" font-size="12" text-anchor="end" x="-15" y="-145.71428571428572">
0
</text>
<text dominant-baseline="middle" font-size="12" text-anchor="end" x="-15" y="-242.85714285714286">
5
</text>
<text dominant-baseline="middle" font-size="12" text-anchor="end" x="-15" y="-340">
10
</text>
</g>
<text font-size="12" text-anchor="middle" transform="rotate(-90 -24 -170)" x="-24" y="-182">
y [m]
</text>
</g>
</g>
</svg>