<svg viewBox="0 0 600 400" xmlns="http://www.w3.org/2000/svg">
<g transform="translate(72, 364)">
<g>
<g>
<path d="M0,-0 L0,-0 L39.112137,-8.048882 L71.48871,-21.533485 L96.6589,-38.085335 L115.24342,-55.903534 L128.36584,-73.79726 L137.25903,-91.08467 L143.05283,-107.44842 L146.68991,-122.802086 L148.9158,-137.18839 L150.30322,-150.71022 L151.28696,-163.4883 L152.19711,-175.63718 L153.28625,-187.25322 L154.7494,-198.40952 L156.73807,-209.15492 L159.36928,-219.51521 L162.73141,-229.49542 L166.88751,-239.08272 L171.8773,-248.24962 L177.71829,-256.9572 L184.4066,-265.15848 L191.91774,-272.80142 L200.20752,-279.8322 L209.21332,-286.19794 L218.85567,-291.84933 L229.0402,-296.74307 L239.66003,-300.84375 L250.59824,-304.12546 L261.73083,-306.57318 L272.92966,-308.1835 L284.06546,-308.96497 L295.0108,-308.93826 L305.64316,-308.1358 L315.84732,-306.6009 L325.51797,-304.3869 L334.56168,-301.55582 L342.89853,-298.17685 L350.46344,-294.32474 L357.20688,-290.07806 L363.09528,-285.51743 L368.1109,-280.72372 L372.25137,-275.77652 L375.52884,-270.7524 L377.96884,-265.7238 L379.60873,-260.75754 L380.49622,-255.9141 L380.68747,-251.24675 L380.2453,-246.80112 L379.23734,-242.6149 L377.73416,-238.71777 L375.80762,-235.1316 L373.5291,-231.87077 L370.96835,-228.94258 L368.19202,-226.34798 L365.26263,-224.08215 L362.23795,-222.13536 L359.17026,-220.4937 L356.10593,-219.13988 L353.0853,-218.05403 L350.14267,-217.21446 L347.30627,-216.59828 L344.5987,-216.18211 L342.03714,-215.9426 L339.63388,-215.85684 L337.39676,-215.90286 L335.32968,-216.0598 L333.4332,-216.30829 L331.70493,-216.63048 L330.14017,-217.01022 L328.7324,-217.43309 L327.47357,-217.88634 L326.3547,-218.35895 L325.3661,-218.84142 L324.49765,-219.3258 L323.73923,-219.8055 L323.08075,-220.27516 L322.51242,-220.73058 L322.02487,-221.16855 L321.60922,-221.58669 L321.25717,-221.98338 L320.96103,-222.35765 L320.71375,-222.70903 L320.50894,-223.0375 L320.3408,-223.34337 L320.2041,-223.6272 L320.0943,-223.88979 L320.0073,-224.13205 L319.9395,-224.35506 L319.8878,-224.55989 L319.84946,-224.74768 L319.82214,-224.91957 L319.80386,-225.07669 L319.79285,-225.22012 L319.7877,-225.35092 L319.78714,-225.47011 L319.79016,-225.57863 L319.79593,-225.67738 L319.80368,-225.7672 L319.8129,-225.84885 L319.82303,-225.92307 L319.83377,-225.99051 L319.84476,-226.05179 L319.85577,-226.10745 L319.86664,-226.15804 L319.8772,-226.204 L319.88736,-226.24574 L319.89703,-226.28369 L319.90616,-226.31818 L319.91476,-226.34952 L319.9228,-226.378 L319.93024,-226.40392 L319.93713,-226.42747 L319.94348,-226.44891 L319.9493,-226.4684 L319.95465,-226.48615 L319.9595,-226.50229 L319.9639,-226.51697 L319.9679,-226.53035 L319.9715,-226.54251 L319.97476,-226.5536 L319.9777,-226.56369 L319.9803,-226.57289 L319.98264,-226.58125 L319.98474,-226.58888 L319.9866,-226.59583 L319.98828,-226.60214 L319.98975,-226.60791 L319.99106,-226.61316 L319.99222,-226.61794 L319.99323,-226.62228 L319.99414,-226.62625 L319.99493,-226.62987 L319.99564,-226.63316 L319.99622,-226.63615 L319.99677,-226.63889 L319.99722,-226.64137 L319.99762,-226.64365 L319.998,-226.6457 L319.9983,-226.64758" fill="none" stroke="#35C788" stroke-linejoin="round" stroke-width="2"/>
</g>
</g>
<g>
<g>
<path d="M0,-0 L0,-0 L32,-0" fill="none" stroke="#DD3355" stroke-linejoin="round" stroke-width="2"/>
</g>
</g>
<g>
<g>
<path d="M320,-226.66667 L320,-226.66667 L320,-249.33333" fill="none" stroke="#DD3355" stroke-linejoin="round" stroke-width="2"/>
</g>
</g>
<g>
<g>
<line stroke="black" stroke-width="1" x1="0" x2="0" y1="0" y2="10"/>
<line stroke="black" stroke-width="1" x1="160" x2="160" y1="0" y2="10"/>
<line stroke="black" stroke-width="1" x1="320" x2="320" y1="0" y2="10"/>
<line stroke="black" stroke-width="1" x1="480" x2="480" y1="0" y2="10"/>
</g>
<line stroke="black" stroke-width="1" x1="0" x2="480" y1="0" y2="0"/>
<g>
<text font-size="12" text-anchor="middle" x="0" y="20">
0
</text>
<text font-size="12" text-anchor="middle" x="160" y="20">
5
</text>
<text font-size="12" text-anchor="middle" x="320" y="20">
10
</text>
<text font-size="12" text-anchor="middle" x="480" y="20">
15
</text>
</g>
<text font-size="12" text-anchor="middle" x="240" y="30">
x [m]
</text>
</g>
<g>
<g>
<line stroke="black" stroke-width="1" x1="0" x2="-10" y1="-0" y2="-0"/>
<line stroke="black" stroke-width="1" x1="0" x2="-10" y1="-113.33333333333333" y2="-113.33333333333333"/>
<line stroke="black" stroke-width="1" x1="0" x2="-10" y1="-226.66666666666666" y2="-226.66666666666666"/>
<line stroke="black" stroke-width="1" x1="0" x2="-10" y1="-340" y2="-340"/>
</g>
<line stroke="black" stroke-width="1" x1="0" x2="0" y1="0" y2="-340"/>
<g>
<text dominant-baseline="middle" font-size="12" text-anchor="end" x="-15" y="-0">
0
</text>
<text dominant-baseline="middle" font-size="12" text-anchor="end" x="-15" y="-113.33333333333333">
5
</text>
<text dominant-baseline="middle" font-size="12" text-anchor="end" x="-15" y="-226.66666666666666">
10
</text>
<text dominant-baseline="middle" font-size="12" text-anchor="end" x="-15" y="-340">
15
</text>
</g>
<text font-size="12" text-anchor="middle" transform="rotate(-90 -24 -170)" x="-24" y="-182">
y [m]
</text>
</g>
</g>
</svg>