<?xml version="1.0" encoding="UTF-8"?>
<svg xmlns="http://www.w3.org/2000/svg" width="900" height="680" viewBox="0 0 900 680">
<rect width="100%" height="100%" fill="white"/>
<text x="450.0" y="38" text-anchor="middle" font-size="22" font-family="sans-serif" font-weight="700">MPC Path Tracking</text>
<line x1="70.0" y1="70.0" x2="70.0" y2="610.0" stroke="#ece7dc" stroke-width="1"/>
<line x1="70.0" y1="70.0" x2="830.0" y2="70.0" stroke="#ece7dc" stroke-width="1"/>
<line x1="146.0" y1="70.0" x2="146.0" y2="610.0" stroke="#ece7dc" stroke-width="1"/>
<line x1="70.0" y1="124.0" x2="830.0" y2="124.0" stroke="#ece7dc" stroke-width="1"/>
<line x1="222.0" y1="70.0" x2="222.0" y2="610.0" stroke="#ece7dc" stroke-width="1"/>
<line x1="70.0" y1="178.0" x2="830.0" y2="178.0" stroke="#ece7dc" stroke-width="1"/>
<line x1="298.0" y1="70.0" x2="298.0" y2="610.0" stroke="#ece7dc" stroke-width="1"/>
<line x1="70.0" y1="232.0" x2="830.0" y2="232.0" stroke="#ece7dc" stroke-width="1"/>
<line x1="374.0" y1="70.0" x2="374.0" y2="610.0" stroke="#ece7dc" stroke-width="1"/>
<line x1="70.0" y1="286.0" x2="830.0" y2="286.0" stroke="#ece7dc" stroke-width="1"/>
<line x1="450.0" y1="70.0" x2="450.0" y2="610.0" stroke="#ece7dc" stroke-width="1"/>
<line x1="70.0" y1="340.0" x2="830.0" y2="340.0" stroke="#ece7dc" stroke-width="1"/>
<line x1="526.0" y1="70.0" x2="526.0" y2="610.0" stroke="#ece7dc" stroke-width="1"/>
<line x1="70.0" y1="394.0" x2="830.0" y2="394.0" stroke="#ece7dc" stroke-width="1"/>
<line x1="602.0" y1="70.0" x2="602.0" y2="610.0" stroke="#ece7dc" stroke-width="1"/>
<line x1="70.0" y1="448.0" x2="830.0" y2="448.0" stroke="#ece7dc" stroke-width="1"/>
<line x1="678.0" y1="70.0" x2="678.0" y2="610.0" stroke="#ece7dc" stroke-width="1"/>
<line x1="70.0" y1="502.0" x2="830.0" y2="502.0" stroke="#ece7dc" stroke-width="1"/>
<line x1="754.0" y1="70.0" x2="754.0" y2="610.0" stroke="#ece7dc" stroke-width="1"/>
<line x1="70.0" y1="556.0" x2="830.0" y2="556.0" stroke="#ece7dc" stroke-width="1"/>
<line x1="830.0" y1="70.0" x2="830.0" y2="610.0" stroke="#ece7dc" stroke-width="1"/>
<line x1="70.0" y1="610.0" x2="830.0" y2="610.0" stroke="#ece7dc" stroke-width="1"/>
<rect x="70.0" y="70.0" width="760.0" height="540.0" fill="none" stroke="#1f2937" stroke-width="2"/>
<path d="M 153.32,481.43 L 155.60,481.80 L 157.89,482.17 L 160.17,482.54 L 162.45,482.91 L 164.73,483.28 L 167.01,483.65 L 169.30,484.01 L 171.58,484.38 L 173.87,484.75 L 176.15,485.11 L 178.44,485.47 L 180.73,485.83 L 183.02,486.19 L 185.31,486.55 L 187.61,486.91 L 189.90,487.26 L 192.20,487.61 L 194.50,487.96 L 196.80,488.30 L 199.10,488.64 L 201.41,488.98 L 203.71,489.32 L 206.02,489.65 L 208.34,489.98 L 210.65,490.30 L 212.97,490.62 L 215.29,490.94 L 217.61,491.25 L 219.94,491.56 L 222.27,491.86 L 224.61,492.16 L 226.95,492.46 L 229.29,492.75 L 231.63,493.03 L 233.98,493.31 L 236.33,493.58 L 238.69,493.85 L 241.05,494.11 L 243.42,494.37 L 245.79,494.62 L 248.16,494.86 L 250.54,495.10 L 252.93,495.33 L 255.31,495.56 L 257.71,495.78 L 260.11,495.99 L 262.51,496.19 L 264.92,496.39 L 267.34,496.58 L 269.76,496.76 L 272.18,496.93 L 274.62,497.10 L 277.05,497.26 L 279.50,497.41 L 281.95,497.55 L 284.41,497.68 L 286.87,497.81 L 289.34,497.92 L 291.81,498.03 L 294.30,498.13 L 296.79,498.21 L 299.28,498.29 L 301.79,498.36 L 304.30,498.42 L 306.82,498.47 L 309.34,498.51 L 311.87,498.54 L 314.42,498.56 L 316.96,498.57 L 319.52,498.56 L 322.08,498.55 L 324.66,498.53 L 327.24,498.49 L 329.83,498.44 L 332.42,498.39 L 335.03,498.32 L 337.64,498.24 L 340.27,498.14 L 342.90,498.04 L 345.54,497.92 L 348.19,497.79 L 350.85,497.65 L 353.52,497.49 L 356.20,497.32 L 358.88,497.14 L 361.58,496.95 L 364.29,496.74 L 367.01,496.52 L 369.73,496.29 L 372.47,496.04 L 375.22,495.78 L 377.97,495.50 L 380.74,495.21 L 383.52,494.90 L 386.31,494.58 L 389.11,494.25 L 391.92,493.90 L 394.75,493.54 L 397.58,493.16 L 400.42,492.76 L 403.28,492.36 L 406.15,491.93 L 409.03,491.49 L 411.92,491.03 L 414.82,490.56 L 417.74,490.07 L 420.66,489.56 L 423.60,489.04 L 426.55,488.50 L 429.52,487.95 L 432.49,487.37 L 435.48,486.78 L 438.48,486.18 L 441.50,485.55 L 444.53,484.91 L 447.57,484.25 L 450.62,483.57 L 453.69,482.87 L 456.77,482.16 L 459.86,481.43 L 462.97,480.67 L 466.09,479.90 L 469.23,479.12 L 472.37,478.31 L 475.53,477.49 L 478.70,476.64 L 481.88,475.78 L 485.07,474.91 L 488.27,474.01 L 491.48,473.10 L 494.69,472.17 L 497.92,471.23 L 501.15,470.27 L 504.39,469.29 L 507.64,468.29 L 510.89,467.28 L 514.15,466.26 L 517.42,465.21 L 520.69,464.16 L 523.96,463.08 L 527.24,461.99 L 530.52,460.89 L 533.81,459.77 L 537.09,458.63 L 540.38,457.48 L 543.67,456.32 L 546.96,455.14 L 550.25,453.95 L 553.55,452.74 L 556.84,451.52 L 560.13,450.28 L 563.41,449.04 L 566.70,447.77 L 569.98,446.50 L 573.27,445.21 L 576.54,443.91 L 579.82,442.59 L 583.08,441.27 L 586.35,439.93 L 589.61,438.57 L 592.86,437.21 L 596.11,435.83 L 599.34,434.45 L 602.58,433.04 L 605.80,431.63 L 609.02,430.21 L 612.22,428.78 L 615.42,427.33 L 618.61,425.87 L 621.78,424.40 L 624.95,422.93 L 628.10,421.44 L 631.25,419.94 L 634.38,418.43 L 637.50,416.91 L 640.60,415.38 L 643.69,413.84 L 646.77,412.29 L 649.83,410.73 L 652.88,409.17 L 655.91,407.59 L 658.92,406.01 L 661.92,404.41 L 664.90,402.81 L 667.86,401.20 L 670.81,399.58 L 673.73,397.95 L 676.64,396.31 L 679.53,394.67 L 682.40,393.02 L 685.24,391.36 L 688.07,389.69 L 690.87,388.02 L 693.65,386.34 L 696.41,384.65 L 699.15,382.96 L 701.86,381.26 L 704.55,379.55 L 707.21,377.84 L 709.85,376.12 L 712.47,374.39 L 715.05,372.66 L 717.61,370.92 L 720.15,369.18 L 722.65,367.43 L 725.13,365.68 L 727.58,363.92 L 730.00,362.16 L 732.39,360.39 L 734.76,358.62 L 737.09,356.85 L 739.39,355.07 L 741.66,353.28 L 743.89,351.49 L 746.10,349.70 L 748.27,347.90 L 750.41,346.11 L 752.51,344.30 L 754.58,342.50 L 756.62,340.69 L 758.61,338.88 L 760.58,337.06 L 762.51,335.25 L 764.40,333.43 L 766.25,331.61 L 768.07,329.78 L 769.84,327.96 L 771.58,326.13 L 773.28,324.30 L 774.94,322.48 L 776.56,320.64 L 778.14,318.81 L 779.68,316.98 L 781.17,315.15 L 782.63,313.31 L 784.04,311.48 L 785.41,309.64 L 786.73,307.81 L 788.01,305.97 L 789.24,304.14 L 790.43,302.30 L 791.58,300.47 L 792.68,298.64 L 793.73,296.81 L 794.73,294.97 L 795.69,293.14 L 796.60,291.31 L 797.46,289.49 L 798.27,287.66 L 799.03,285.84 L 799.75,284.02 L 800.41,282.20 L 801.02,280.38 L 801.58,278.56 L 802.08,276.75 L 802.54,274.94 L 802.94,273.13 L 803.29,271.33 L 803.58,269.53 L 803.82,267.73 L 804.01,265.93 L 804.13,264.14 L 804.21,262.36 L 804.23,260.57 L 804.19,258.80 L 804.09,257.02 L 803.93,255.25 L 803.72,253.49 L 803.45,251.73 L 803.11,249.97 L 802.72,248.22 L 802.27,246.47 L 801.76,244.73 L 801.18,243.00 L 800.55,241.27 L 799.85,239.55 L 799.09,237.83 L 798.27,236.12 L 797.38,234.42 L 796.43,232.72 L 795.41,231.03 L 794.33,229.34 L 793.18,227.67 L 791.96,226.00 L 790.68,224.33 L 789.34,222.68 L 787.93,221.03 L 786.45,219.39 L 784.92,217.76 L 783.32,216.13 L 781.66,214.52 L 779.94,212.91 L 778.16,211.31 L 776.32,209.72 L 774.43,208.14 L 772.48,206.57 L 770.47,205.00 L 768.42,203.45 L 766.31,201.90 L 764.14,200.37 L 761.93,198.84 L 759.67,197.33 L 757.35,195.82 L 754.99,194.33 L 752.58,192.84 L 750.13,191.37 L 747.63,189.91 L 745.09,188.45 L 742.50,187.01 L 739.88,185.58 L 737.21,184.16 L 734.50,182.76 L 731.75,181.36 L 728.96,179.98 L 726.14,178.60 L 723.28,177.24 L 720.39,175.90 L 717.46,174.56 L 714.50,173.24 L 711.50,171.93 L 708.48,170.63 L 705.42,169.35 L 702.34,168.08 L 699.22,166.82 L 696.08,165.58 L 692.92,164.35 L 689.72,163.13 L 686.51,161.93 L 683.27,160.74 L 680.01,159.57 L 676.72,158.41 L 673.42,157.26 L 670.10,156.13 L 666.75,155.02 L 663.40,153.92 L 660.02,152.83 L 656.63,151.76 L 653.22,150.71 L 649.80,149.67 L 646.37,148.65 L 642.93,147.64 L 639.48,146.65 L 636.01,145.68 L 632.54,144.72 L 629.06,143.78 L 625.58,142.86 L 622.09,141.95 L 618.59,141.06 L 615.09,140.19 L 611.59,139.33 L 608.09,138.50 L 604.58,137.68 L 601.08,136.87 L 597.58,136.09 L 594.07,135.32 L 590.58,134.58 L 587.08,133.85 L 583.60,133.14 L 580.12,132.45 L 576.64,131.78 L 573.18,131.12 L 569.72,130.49 L 566.27,129.87 L 562.84,129.28 L 559.41,128.70 L 556.00,128.15 L 552.61,127.61 L 549.23,127.10 L 545.86,126.61 L 542.51,126.13 L 539.18,125.68 L 535.87,125.25 L 532.58,124.84 L 529.31,124.45 L 526.07,124.08 L 522.84,123.73 L 519.64,123.40 L 516.47,123.10 L 513.32,122.82 L 510.19,122.56 L 507.10,122.32 L 504.03,122.11 L 501.00,121.91 L 497.99,121.74 L 495.02,121.60 L 492.08,121.47 L 489.17,121.37 L 486.30,121.29 L 483.46,121.24 L 480.67,121.21 L 477.90,121.20 L 475.18,121.22 L 472.50,121.26 L 469.86,121.33 L 467.26,121.42 L 464.70,121.54 L 462.19,121.68 L 459.72,121.84 L 457.29,122.03 L 454.92,122.25 L 452.59,122.49 L 450.31,122.75 L 448.07,123.04 L 445.89,123.36 L 443.77,123.70 L 441.69,124.07 L 439.67,124.47 L 437.70,124.89 L 435.79,125.34 L 433.93,125.82 L 432.13,126.32 L 430.39,126.85 L 428.71,127.41 L 427.09,127.99 L 425.53,128.60 L 424.03,129.24 L 422.60,129.91 L 421.23,130.61 L 419.93,131.33 L 418.69,132.08 L 417.52,132.87 L 416.42,133.67 L 415.39,134.51 L 414.43,135.38 L 413.54,136.28 L 412.72,137.20 L 411.98,138.16 L 411.30,139.14 L 410.71,140.16 L 410.19,141.20 L 409.75,142.28 L 409.39,143.38 L 409.10,144.51 L 408.90,145.68 L 408.77,146.88 L 408.73,148.10 L 408.77,149.36 L 408.90,150.65 L 409.11,151.97 L 409.40,153.32 L 409.76,154.70 L 410.21,156.11 L 410.73,157.55 L 411.32,159.02 L 411.98,160.51 L 412.72,162.03 L 413.52,163.58 L 414.39,165.16 L 415.32,166.76 L 416.31,168.39 L 417.37,170.05 L 418.48,171.73 L 419.65,173.43 L 420.88,175.16 L 422.16,176.91 L 423.49,178.69 L 424.88,180.49 L 426.31,182.31 L 427.78,184.15 L 429.30,186.01 L 430.87,187.90 L 432.47,189.81 L 434.11,191.73 L 435.80,193.68 L 437.51,195.65 L 439.26,197.63 L 441.04,199.64 L 442.86,201.66 L 444.70,203.70 L 446.57,205.75 L 448.46,207.83 L 450.37,209.92 L 452.31,212.03 L 454.27,214.15 L 456.24,216.28 L 458.23,218.44 L 460.23,220.60 L 462.25,222.78 L 464.28,224.97 L 466.31,227.18 L 468.35,229.40 L 470.40,231.63 L 472.45,233.87 L 474.50,236.12 L 476.55,238.39 L 478.60,240.66 L 480.64,242.95 L 482.68,245.24 L 484.72,247.54 L 486.74,249.86 L 488.75,252.18 L 490.75,254.50 L 492.73,256.84 L 494.70,259.18 L 496.65,261.53 L 498.58,263.88 L 500.48,266.24 L 502.37,268.61 L 504.22,270.98 L 506.05,273.35 L 507.86,275.73 L 509.63,278.11 L 511.36,280.50 L 513.07,282.88 L 514.73,285.27 L 516.36,287.66 L 517.95,290.05 L 519.50,292.45 L 521.00,294.84 L 522.46,297.23 L 523.88,299.63 L 525.24,302.02 L 526.55,304.41 L 527.81,306.80 L 529.02,309.18 L 530.17,311.57 L 531.26,313.95 L 532.29,316.32 L 533.26,318.70 L 534.17,321.07 L 535.01,323.43 L 535.79,325.79 L 536.49,328.14 L 537.13,330.49 L 537.70,332.83 L 538.20,335.16 L 538.63,337.49 L 538.99,339.81 L 539.29,342.13 L 539.52,344.44 L 539.68,346.74 L 539.78,349.03 L 539.82,351.32 L 539.79,353.60 L 539.70,355.88 L 539.55,358.14 L 539.33,360.40 L 539.06,362.65 L 538.72,364.90 L 538.33,367.13 L 537.88,369.36 L 537.37,371.58 L 536.80,373.80 L 536.18,376.00 L 535.50,378.20 L 534.77,380.39 L 533.98,382.57 L 533.14,384.74 L 532.25,386.91 L 531.30,389.06 L 530.31,391.21 L 529.26,393.35 L 528.16,395.48 L 527.01,397.60 L 525.82,399.71 L 524.58,401.81 L 523.29,403.90 L 521.95,405.99 L 520.57,408.06 L 519.14,410.13 L 517.67,412.18 L 516.15,414.23 L 514.59,416.26 L 512.99,418.29 L 511.35,420.31 L 509.67,422.31 L 507.95,424.31 L 506.18,426.30 L 504.38,428.27 L 502.54,430.24 L 500.67,432.19 L 498.75,434.14 L 496.81,436.07 L 494.82,437.99 L 492.80,439.91 L 490.75,441.81 L 488.67,443.70 L 486.55,445.58 L 484.40,447.45 L 482.22,449.30 L 480.01,451.15 L 477.77,452.98 L 475.50,454.80 L 473.21,456.61 L 470.88,458.41 L 468.53,460.20 L 466.15,461.97 L 463.75,463.74 L 461.33,465.49 L 458.88,467.23 L 456.40,468.95 L 453.91,470.67 L 451.39,472.37 L 448.85,474.06 L 446.29,475.73 L 443.71,477.40 L 441.11,479.05 L 438.50,480.68 L 435.86,482.31 L 433.21,483.92 L 430.55,485.52 L 427.87,487.10 L 425.17,488.67 L 422.46,490.23 L 419.73,491.77 L 417.00,493.30 L 414.25,494.82 L 411.49,496.32 L 408.72,497.81 L 405.94,499.28 L 403.15,500.74 L 400.35,502.19 L 397.55,503.62 L 394.74,505.04 L 391.92,506.44 L 389.09,507.83 L 386.26,509.20 L 383.43,510.56 L 380.60,511.90 L 377.76,513.23 L 374.92,514.54 L 372.07,515.84 L 369.23,517.12 L 366.39,518.39 L 363.55,519.64 L 360.70,520.88 L 357.87,522.10 L 355.03,523.30 L 352.20,524.49 L 349.37,525.67 L 346.55,526.82 L 343.73,527.96 L 340.92,529.09 L 338.12,530.20 L 335.32,531.29 L 332.54,532.36 L 329.76,533.42 L 326.99,534.46 L 324.23,535.49 L 321.48,536.50 L 318.74,537.49 L 316.01,538.47 L 313.28,539.44 L 310.57,540.38 L 307.86,541.31 L 305.16,542.23 L 302.47,543.13 L 299.79,544.02 L 297.12,544.89 L 294.45,545.75 L 291.80,546.60 L 289.15,547.43 L 286.51,548.25 L 283.87,549.05 L 281.25,549.84 L 278.63,550.62 L 276.02,551.38 L 273.41,552.13 L 270.81,552.87 L 268.22,553.60 L 265.64,554.31 L 263.06,555.01 L 260.49,555.70 L 257.93,556.38 L 255.37,557.04 L 252.82,557.70 L 250.28,558.34 L 247.74,558.97 L 245.21,559.60 L 242.68,560.21 L 240.17,560.81 L 237.65,561.40 L 235.14,561.98 L 232.64,562.55 L 230.14,563.11 L 227.65,563.66 L 225.17,564.20 L 222.68,564.73 L 220.21,565.25 L 217.74,565.77 L 215.27,566.27 L 212.81,566.77 L 210.35,567.26 L 207.90,567.74 L 205.45,568.21 L 203.01,568.67 L 200.57,569.13 L 198.14,569.58 L 195.71,570.02 L 193.28,570.45 L 190.86,570.88 L 188.44,571.30 L 186.02,571.72 L 183.61,572.13 L 181.20,572.53 L 178.80,572.92 L 176.40,573.31 L 174.00,573.70 L 171.61,574.08 L 169.21,574.45 L 166.82,574.82 L 164.44,575.18 L 162.05,575.54 L 159.67,575.90 L 157.29,576.25 L 154.92,576.59 L 152.54,576.94 L 150.17,577.27 L 147.80,577.61 L 145.43,577.94 L 143.07,578.27 L 140.70,578.59 L 138.34,578.91 L 135.98,579.23 L 133.62,579.55 L 131.26,579.86 L 128.90,580.17 L 126.55,580.48 L 124.19,580.79 L 121.84,581.10 L 119.49,581.40 L 117.13,581.70 L 114.78,582.01 L 112.43,582.31 L 110.08,582.61 L 107.73,582.91 L 105.38,583.21 L 103.03,583.50" fill="none" stroke="#94a3b8" stroke-width="8" stroke-linecap="round" stroke-linejoin="round"/>
<path d="M 153.32,481.43 L 153.32,481.43 L 153.52,481.46 L 153.93,481.52 L 154.53,481.62 L 155.34,481.75 L 156.35,481.92 L 157.56,482.11 L 158.97,482.34 L 160.58,482.61 L 162.40,482.90 L 164.42,483.23 L 166.61,483.58 L 168.95,483.96 L 171.48,484.37 L 174.05,484.78 L 176.61,485.19 L 179.13,485.58 L 181.61,485.97 L 184.06,486.36 L 186.48,486.73 L 188.87,487.10 L 191.47,487.50 L 194.15,487.91 L 196.81,488.30 L 199.42,488.69 L 201.98,489.07 L 204.49,489.43 L 206.97,489.79 L 209.42,490.13 L 211.84,490.47 L 214.25,490.80 L 216.85,491.16 L 219.55,491.51 L 222.23,491.86 L 224.87,492.20 L 227.46,492.53 L 230.00,492.84 L 232.51,493.14 L 234.99,493.44 L 237.45,493.72 L 239.89,493.99 L 242.32,494.26 L 244.95,494.54 L 247.67,494.82 L 250.40,495.10 L 253.08,495.36 L 255.71,495.60 L 258.31,495.84 L 260.87,496.06 L 263.40,496.27 L 265.91,496.48 L 268.40,496.67 L 270.88,496.85 L 273.36,497.03 L 275.82,497.19 L 278.28,497.35 L 280.74,497.50 L 283.41,497.64 L 286.20,497.79 L 288.99,497.92 L 291.75,498.04 L 294.47,498.14 L 297.15,498.23 L 299.80,498.32 L 302.42,498.39 L 305.02,498.45 L 307.61,498.50 L 310.19,498.53 L 312.76,498.56 L 315.33,498.58 L 317.90,498.58 L 320.46,498.58 L 323.03,498.56 L 325.60,498.53 L 328.17,498.49 L 330.75,498.44 L 333.33,498.38 L 335.92,498.31 L 338.52,498.22 L 341.12,498.13 L 343.73,498.02 L 346.34,497.90 L 348.97,497.76 L 351.60,497.62 L 354.24,497.46 L 356.89,497.29 L 359.55,497.11 L 362.22,496.91 L 364.89,496.71 L 367.58,496.49 L 370.27,496.25 L 372.97,496.00 L 375.68,495.74 L 378.40,495.47 L 381.13,495.18 L 383.87,494.88 L 386.62,494.56 L 389.38,494.23 L 392.15,493.88 L 394.92,493.52 L 397.71,493.15 L 400.60,492.75 L 403.61,492.31 L 406.74,491.84 L 409.89,491.35 L 413.02,490.85 L 416.12,490.33 L 419.20,489.81 L 422.25,489.28 L 425.50,488.69 L 428.94,488.04 L 432.51,487.35 L 436.14,486.62 L 439.75,485.89 L 443.28,485.14 L 446.73,484.40 L 450.38,483.59 L 454.11,482.74 L 457.79,481.88 L 461.40,481.01 L 464.94,480.15 L 468.41,479.29 L 472.07,478.35 L 475.83,477.36 L 479.72,476.32 L 483.59,475.26 L 487.39,474.21 L 491.37,473.07 L 495.39,471.91 L 499.42,470.72 L 503.38,469.53 L 507.18,468.37 L 511.16,467.13 L 515.23,465.84 L 519.25,464.55 L 523.18,463.27 L 527.25,461.91 L 531.37,460.53 L 535.52,459.11 L 539.59,457.68 L 543.78,456.19 L 548.01,454.67 L 552.19,453.14 L 556.25,451.65 L 560.40,450.08 L 564.59,448.49 L 568.74,446.89 L 572.75,445.32 L 576.84,443.72 L 580.97,442.06 L 585.05,440.39 L 589.03,438.74 L 593.11,437.02 L 597.22,435.27 L 601.30,433.51 L 605.25,431.78 L 609.26,430.01 L 613.32,428.18 L 617.32,426.38 L 621.22,424.59 L 625.20,422.72 L 629.23,420.81 L 633.16,418.91 L 636.99,417.04 L 640.90,415.10 L 644.84,413.12 L 648.71,411.18 L 652.38,409.31 L 656.12,407.36 L 659.89,405.38 L 663.57,403.42 L 667.16,401.48 L 670.84,399.46 L 674.54,397.39 L 678.16,395.35 L 681.67,393.33 L 685.27,391.24 L 688.87,389.11 L 692.39,386.99 L 695.74,384.96 L 699.21,382.81 L 702.63,380.66 L 705.95,378.55 L 709.16,376.46 L 712.51,374.25 L 715.82,372.04 L 719.02,369.85 L 722.11,367.71 L 725.20,365.53 L 728.21,363.37 L 731.12,361.25 L 733.92,359.17 L 736.54,357.19 L 739.22,355.13 L 741.94,352.99 L 744.60,350.86 L 747.17,348.76 L 749.58,346.75 L 752.08,344.63 L 754.58,342.45 L 757.01,340.29 L 759.35,338.16 L 761.56,336.10 L 763.69,334.08 L 765.87,331.95 L 768.07,329.75 L 770.20,327.55 L 772.26,325.38 L 774.22,323.25 L 776.05,321.22 L 777.85,319.14 L 779.61,317.07 L 781.30,315.01 L 782.92,312.97 L 784.47,310.95 L 785.96,308.94 L 787.39,306.96 L 788.75,304.98 L 790.06,303.02 L 791.43,300.86 L 792.76,298.65 L 794.01,296.46 L 795.18,294.30 L 796.28,292.18 L 797.29,290.10 L 798.31,287.85 L 799.26,285.56 L 800.13,283.31 L 800.91,281.11 L 801.60,278.97 L 802.25,276.73 L 802.82,274.43 L 803.31,272.16 L 803.70,269.95 L 804.03,267.66 L 804.26,265.33 L 804.40,263.04 L 804.45,260.88 L 804.42,258.67 L 804.30,256.49 L 804.11,254.36 L 803.84,252.30 L 803.51,250.35 L 803.07,248.28 L 802.54,246.21 L 801.91,244.14 L 801.22,242.12 L 800.46,240.16 L 799.66,238.30 L 798.73,236.34 L 797.68,234.33 L 796.53,232.31 L 795.27,230.29 L 793.95,228.32 L 792.58,226.42 L 791.03,224.42 L 789.39,222.43 L 787.71,220.51 L 786.01,218.67 L 784.29,216.89 L 782.55,215.17 L 780.79,213.50 L 778.83,211.74 L 776.75,209.94 L 774.62,208.17 L 772.47,206.45 L 770.31,204.78 L 768.14,203.16 L 765.95,201.57 L 763.74,200.02 L 761.51,198.50 L 759.25,196.99 L 756.96,195.51 L 754.63,194.05 L 752.28,192.61 L 749.89,191.18 L 747.46,189.77 L 745.00,188.37 L 742.41,186.93 L 739.67,185.45 L 736.79,183.94 L 733.81,182.41 L 730.72,180.86 L 727.60,179.33 L 724.49,177.84 L 721.39,176.39 L 718.10,174.89 L 714.60,173.34 L 711.03,171.79 L 707.32,170.22 L 703.62,168.68 L 699.96,167.20 L 696.09,165.67 L 692.08,164.13 L 688.09,162.64 L 684.17,161.19 L 680.33,159.80 L 676.32,158.38 L 672.22,156.98 L 668.18,155.62 L 664.20,154.30 L 660.01,152.96 L 655.68,151.60 L 651.36,150.28 L 647.12,149.02 L 642.67,147.72 L 638.25,146.46 L 633.90,145.24 L 629.65,144.08 L 625.19,142.89 L 620.75,141.74 L 616.39,140.64 L 612.13,139.58 L 607.66,138.52 L 603.21,137.48 L 598.84,136.49 L 594.57,135.56 L 590.11,134.60 L 585.67,133.68 L 581.31,132.81 L 577.09,131.99 L 572.76,131.18 L 568.39,130.39 L 564.09,129.63 L 559.91,128.91 L 555.61,128.20 L 551.28,127.54 L 547.03,126.91 L 542.97,126.33 L 538.84,125.76 L 534.69,125.22 L 530.62,124.71 L 526.73,124.26 L 522.68,123.81 L 518.67,123.41 L 514.76,123.04 L 510.96,122.71 L 507.14,122.41 L 503.40,122.15 L 499.76,121.92 L 496.23,121.73 L 492.82,121.57 L 489.30,121.44 L 485.74,121.34 L 482.25,121.29 L 478.96,121.26 L 475.88,121.26 L 472.71,121.30 L 469.56,121.38 L 466.50,121.49 L 463.54,121.63 L 460.75,121.79 L 458.17,121.97 L 455.48,122.19 L 452.79,122.45 L 450.17,122.75 L 447.62,123.08 L 445.15,123.45 L 442.76,123.84 L 440.44,124.26 L 438.20,124.71 L 435.88,125.23 L 433.55,125.83 L 431.29,126.46 L 429.13,127.14 L 427.13,127.83 L 425.17,128.57 L 423.29,129.36 L 421.51,130.18 L 419.82,131.05 L 418.14,132.02 L 416.53,133.09 L 415.02,134.21 L 413.59,135.46 L 412.29,136.78 L 411.10,138.26 L 410.08,139.81 L 409.25,141.38 L 408.59,143.04 L 408.12,144.71 L 407.85,146.48 L 407.77,148.28 L 407.89,150.16 L 408.17,152.00 L 408.63,153.90 L 409.23,155.77 L 409.92,157.57 L 410.76,159.43 L 411.67,161.28 L 412.64,163.06 L 413.65,164.78 L 414.78,166.63 L 416.01,168.52 L 417.32,170.46 L 418.69,172.42 L 420.10,174.37 L 421.52,176.29 L 422.95,178.17 L 424.52,180.19 L 426.18,182.28 L 427.86,184.35 L 429.54,186.40 L 431.23,188.41 L 432.92,190.40 L 434.61,192.38 L 436.32,194.34 L 438.05,196.31 L 439.79,198.27 L 441.55,200.24 L 443.33,202.22 L 445.13,204.21 L 446.95,206.21 L 448.79,208.22 L 450.65,210.24 L 452.52,212.28 L 454.42,214.33 L 456.33,216.40 L 458.33,218.56 L 460.42,220.82 L 462.60,223.17 L 464.83,225.59 L 467.06,228.01 L 469.26,230.41 L 471.44,232.78 L 473.59,235.14 L 475.87,237.66 L 478.28,240.34 L 480.77,243.13 L 483.25,245.93 L 485.65,248.67 L 487.99,251.36 L 490.26,253.99 L 492.61,256.76 L 494.98,259.60 L 497.32,262.43 L 499.58,265.22 L 501.76,267.94 L 504.00,270.79 L 506.25,273.72 L 508.43,276.63 L 510.53,279.48 L 512.53,282.26 L 514.57,285.17 L 516.58,288.15 L 518.53,291.11 L 520.37,294.00 L 522.06,296.74 L 523.75,299.59 L 525.38,302.44 L 526.91,305.25 L 528.35,308.00 L 529.67,310.66 L 530.87,313.19 L 532.02,315.77 L 533.13,318.44 L 534.18,321.18 L 535.15,323.93 L 536.02,326.64 L 536.78,329.23 L 537.43,331.68 L 538.01,334.07 L 538.54,336.69 L 538.99,339.38 L 539.35,342.06 L 539.62,344.69 L 539.80,347.27 L 539.90,349.80 L 539.92,352.29 L 539.87,354.74 L 539.75,357.15 L 539.56,359.53 L 539.27,362.10 L 538.89,364.73 L 538.42,367.33 L 537.90,369.87 L 537.31,372.33 L 536.67,374.75 L 535.98,377.11 L 535.23,379.42 L 534.44,381.70 L 533.51,384.14 L 532.49,386.65 L 531.40,389.11 L 530.27,391.52 L 529.10,393.86 L 527.90,396.15 L 526.67,398.39 L 525.41,400.58 L 524.11,402.74 L 522.78,404.87 L 521.41,406.97 L 520.00,409.05 L 518.56,411.10 L 517.07,413.14 L 515.55,415.16 L 513.99,417.16 L 512.40,419.15 L 510.76,421.13 L 509.09,423.10 L 507.39,425.05 L 505.64,426.99 L 503.86,428.92 L 502.05,430.84 L 500.20,432.75 L 498.32,434.64 L 496.40,436.53 L 494.45,438.41 L 492.47,440.27 L 490.46,442.13 L 488.41,443.97 L 486.34,445.80 L 484.23,447.63 L 482.10,449.44 L 479.93,451.24 L 477.67,453.09 L 475.27,455.00 L 472.77,456.96 L 470.22,458.91 L 467.64,460.86 L 465.04,462.78 L 462.46,464.66 L 459.92,466.47 L 457.20,468.38 L 454.30,470.37 L 451.21,472.44 L 448.10,474.50 L 445.04,476.49 L 442.03,478.41 L 439.08,480.27 L 435.96,482.19 L 432.76,484.14 L 429.56,486.04 L 426.42,487.89 L 423.33,489.68 L 420.04,491.54 L 416.70,493.41 L 413.39,495.23 L 410.15,496.99 L 406.96,498.69 L 403.84,500.34 L 400.53,502.05 L 397.14,503.78 L 393.78,505.46 L 390.49,507.10 L 387.26,508.67 L 383.84,510.32 L 380.37,511.96 L 376.80,513.62 L 373.26,515.25 L 369.79,516.82 L 366.29,518.38 L 362.69,519.96 L 359.12,521.50 L 355.63,522.99 L 352.12,524.47 L 348.65,525.91 L 345.27,527.29 L 341.98,528.62 L 338.77,529.90 L 335.43,531.21 L 332.02,532.53 L 328.65,533.81 L 325.36,535.04 L 322.15,536.23 L 318.82,537.44 L 315.44,538.65 L 312.09,539.82 L 308.83,540.95 L 305.76,542.01 L 302.58,543.08 L 299.33,544.15 L 296.12,545.20 L 292.99,546.20 L 290.02,547.14 L 286.91,548.11 L 283.75,549.07 L 280.63,550.01 L 277.58,550.91 L 274.66,551.77 L 271.81,552.58 L 268.81,553.43 L 265.73,554.28 L 262.67,555.11 L 259.68,555.91 L 256.75,556.68 L 253.89,557.42 L 251.17,558.12 L 248.40,558.81 L 245.56,559.51 L 242.65,560.21 L 239.69,560.92 L 236.75,561.60 L 233.87,562.27 L 231.13,562.89 L 228.27,563.52 L 225.33,564.16 L 222.35,564.80 L 219.40,565.42 L 216.51,566.02 L 213.77,566.58 L 211.22,567.09 L 208.53,567.62 L 205.80,568.15 L 203.09,568.66 L 200.42,569.16 L 197.79,569.65 L 195.20,570.12 L 192.63,570.58 L 190.10,571.02 L 187.58,571.46 L 185.09,571.89 L 182.61,572.30 L 180.15,572.71 L 177.69,573.12 L 175.25,573.51 L 172.81,573.90 L 170.39,574.28 L 167.96,574.66 L 165.34,575.06 L 162.61,575.47 L 159.89,575.87 L 157.21,576.27 L 154.58,576.65 L 152.00,577.02 L 149.45,577.38 L 146.94,577.74 L 144.45,578.08 L 141.99,578.42 L 139.55,578.76 L 137.12,579.08 L 134.71,579.41 L 132.09,579.76 L 129.38,580.12 L 126.67,580.47 L 124.01,580.82 L 121.41,581.16 L 118.84,581.49 L 116.32,581.81 L 113.83,582.13 L 111.37,582.45 L 108.93,582.76 L 106.70,583.04 L 104.67,583.30 L 102.85,583.53 L 101.23,583.74 L 99.81,583.92 L 98.59,584.07 L 97.58,584.20 L 96.76,584.30 L 96.15,584.38 L 95.75,584.43 L 95.55,584.45" fill="none" stroke="#2563eb" stroke-width="10" stroke-linecap="round" stroke-linejoin="round"/>
<path d="M 95.75,584.43 L 95.55,584.45 L 95.55,584.45 L 95.75,584.43 L 96.15,584.38 L 96.53,584.33" fill="none" stroke="#16a34a" stroke-width="6" stroke-linecap="round" stroke-dasharray="16 10"/>
<circle cx="153.32" cy="481.43" r="10" fill="#1d4ed8" stroke="white" stroke-width="3"/>
<circle cx="103.03" cy="583.50" r="10" fill="#d946ef" stroke="white" stroke-width="3"/>
<circle cx="95.55" cy="584.45" r="8" fill="#f97316" stroke="white" stroke-width="2"/>
<rect x="610.0" y="82.0" width="220" height="132" rx="18" fill="#fffaf0" stroke="#d6d3d1"/>
<line x1="630.0" y1="110.0" x2="680.0" y2="110.0" stroke="#94a3b8" stroke-width="8" stroke-linecap="round"/>
<text x="698.0" y="117.0" font-size="20" font-family="sans-serif" fill="#1f2937">Reference</text>
<line x1="630.0" y1="140.0" x2="680.0" y2="140.0" stroke="#2563eb" stroke-width="8" stroke-linecap="round"/>
<text x="698.0" y="147.0" font-size="20" font-family="sans-serif" fill="#1f2937">Trajectory</text>
<line x1="630.0" y1="170.0" x2="680.0" y2="170.0" stroke="#16a34a" stroke-width="6" stroke-linecap="round" stroke-dasharray="16 10"/>
<text x="698.0" y="177.0" font-size="20" font-family="sans-serif" fill="#1f2937">Prediction</text>
<text x="630.0" y="204.0" font-size="18" font-family="monospace" fill="#475569">goal_reached: true</text>
<text x="450.0" y="662.0" text-anchor="middle" font-size="16" font-family="sans-serif" fill="#1f2937">x [m]</text>
<text x="24" y="340.0" text-anchor="middle" font-size="16" font-family="sans-serif" fill="#1f2937" transform="rotate(-90, 24, 340.0)">y [m]</text>
</svg>
