<svg viewBox="0 0 600 400" xmlns="http://www.w3.org/2000/svg">
<g transform="translate(72, 364)">
<g>
<g>
<path d="M0,-170 L0,-170 L0,-170 L4.8,-170.33774 L9.6,-171.32402 L14.4,-172.87967 L19.2,-174.87802 L24,-177.1525 L28.8,-179.5068 L33.6,-181.72685 L38.4,-183.59421 L43.2,-184.89987 L48,-185.45805 L52.8,-185.11888 L57.6,-183.77945 L62.4,-181.39258 L67.2,-177.97272 L72,-173.59856 L76.8,-168.41222 L81.6,-162.61487 L86.4,-156.45888 L91.2,-150.23698 L96,-144.26872 L100.8,-138.88475 L105.6,-134.41008 L110.4,-131.14668 L115.2,-129.35649 L120,-129.24571 L124.8,-130.95131 L129.6,-134.5301 L134.4,-139.9517 L139.2,-147.09511 L144,-155.74982 L148.8,-165.62119 L153.6,-176.34027 L158.4,-187.47748 L163.2,-198.55975 L168,-209.0907 L172.8,-218.57248 L177.6,-226.52873 L182.4,-232.52762 L187.2,-236.20343 L192,-237.27637 L196.8,-235.56892 L201.6,-231.01836 L206.4,-223.68443 L211.2,-213.7518 L216,-201.52707 L220.8,-187.43 L225.6,-171.97955 L230.4,-155.77493 L235.2,-139.47229 L240,-123.75821 L244.8,-109.32086 L249.6,-96.82014 L254.4,-86.85793 L259.2,-79.95005 L264,-76.500916 L268.8,-76.78228 L273.6,-80.91707 L278.4,-88.8691 L283.2,-100.43943 L288,-115.26956 L292.8,-132.85162 L297.6,-152.54532 L302.4,-173.60103 L307.2,-195.18826 L312,-216.42845 L316.8,-236.43065 L321.6,-254.32881 L326.4,-269.3191 L331.2,-280.6955 L336,-287.88226 L340.8,-290.46182 L345.6,-288.1965 L350.4,-281.04358 L355.2,-269.1621 L360,-252.9117 L364.8,-232.84271 L369.6,-209.67819 L374.4,-184.28813 L379.2,-157.6569 L384,-130.84515 L388.8,-104.947495 L393.6,-81.04793 L398.4,-60.174522 L403.2,-43.25543 L408,-31.078062 L412.8,-24.25321 L417.6,-23.185678 L422.4,-28.052862 L427.2,-38.79231 L432,-55.09895 L436.8,-76.432365 L441.6,-102.033936 L446.4,-130.95346 L451.2,-162.0842 L456,-194.20517 L460.8,-226.02899 L465.6,-256.25354 L470.4,-283.61514" fill="none" stroke="#000000" stroke-linejoin="round" stroke-width="2"/>
</g>
</g>
<g>
<g>
<path d="M0,-159.8 L0,-159.8 L0,-159.8 L0.26666668,-159.8 L0.7731792,-159.80443 L1.4940414,-159.8225 L2.4027834,-159.86617 L3.469876,-159.94833 L4.6614814,-160.08147 L5.939279,-160.27632 L7.2613373,-160.54108 L8.583773,-160.8807 L9.862837,-161.29686 L11.057029,-161.78789 L12.1289,-162.34929 L13.04633,-162.97426 L13.783202,-163.65428 L14.3195,-164.37982 L14.696562,-165.13759 L14.906674,-165.92099 L14.94398,-166.72357 L14.80382,-167.53893 L14.482098,-168.36069 L13.974687,-169.18237 L13.276869,-169.99715 L12.645799,-170.82837 L12.087316,-171.67467 L11.720249,-172.54163 L11.55333,-173.42307 L11.644659,-174.312 L11.990302,-175.19861 L12.586111,-176.07347 L13.428234,-176.92729 L14.513392,-177.7504 L15.803252,-178.53975 L17.284702,-179.28969 L18.946257,-179.9945 L20.777937,-180.64798 L22.718544,-181.26431 L24.760279,-181.84161 L26.897047,-182.37735 L29.086226,-182.88899 L31.324924,-183.37598 L33.611317,-183.83716 L35.925755,-184.28307 L38.267365,-184.71329 L40.640064,-185.1239 L43.042595,-185.51434 L45.497707,-185.86356 L48.000263,-186.16989 L50.57301,-186.39442 L53.19474,-186.5345 L55.847374,-186.54839 L58.48382,-186.43954 L61.060715,-186.21236 L63.537262,-185.87183 L65.87401,-185.42345 L68.03158,-184.87332 L69.97973,-184.2322 L71.70042,-183.51373 L73.17983,-182.73047 L74.406654,-181.89403 L75.37057,-181.01527 L76.06104,-180.10461 L76.46639,-179.17253 L76.73566,-178.23416 L76.8737,-177.2921 L76.88321,-176.34866 L76.76431,-175.40607 L76.51414,-174.4666 L76.30029,-173.52592 L76.12107,-172.58427 L75.97547,-171.64183 L75.86326,-170.69876 L75.785095,-169.7552 L75.81901,-168.81126 L75.957245,-167.86848 L76.19387,-166.92812 L76.52474,-165.99129 L76.94762,-165.05907 L77.46229,-164.13264 L78.05021,-163.21167 L78.70503,-162.29636 L79.42177,-161.38686 L80.196655,-160.48335 L81.02712,-159.58603 L81.911804,-158.6952 L82.85067,-157.81137 L83.793915,-156.9281 L84.74119,-156.04535 L85.69222,-155.16312 L86.64681,-154.28134 L87.60485,-153.40002 L88.56628,-152.51917 L89.53114,-151.63878 L90.472275,-150.75516 L91.39135,-149.86864 L92.289635,-148.97943 L93.16799,-148.08774 L94.02688,-147.19365 L94.86627,-146.29724 L95.68561,-145.39851 L96.491325,-144.49825 L97.28423,-143.59653 L98.064865,-142.69348 L98.83352,-141.78914 L99.590195,-140.88353 L100.33454,-139.97665 L101.091484,-139.07106 L101.860435,-138.16675 L102.64106,-137.26369 L103.43331,-136.3619 L104.237465,-135.46143 L105.08679,-134.56618 L105.97996,-133.67628 L106.91668,-132.79204 L107.8979,-131.91386 L108.97337,-131.04964 L110.14239,-130.20078 L111.490555,-129.38593 L113.01338,-128.61063 L114.83956,-127.92241 L117.03542,-127.38654 L119.492546,-127.01957 L122.10381,-126.82807 L124.770004,-126.81028 L127.40382,-126.95806 L129.9316,-127.25887 L132.29326,-127.69747 L134.44113,-128.2572 L136.33818,-128.92096 L137.95598,-129.67174 L139.27281,-130.493 L140.27202,-131.36864 L140.94052,-132.28291 L141.26791,-133.22021 L141.24583,-134.16463 L141.09415,-135.10754 L140.81973,-136.04697 L140.42725,-136.98112 L139.9191,-137.90826 L139.29515,-138.82649 L138.75711,-139.75151 L138.29861,-140.6819 L137.9146,-141.6165 L137.60132,-142.5544 L137.35634,-143.49486 L137.17867,-144.4372 L137.0689,-145.38084 L137.07336,-146.32529 L137.18011,-147.26897 L137.37914,-148.21078 L137.66222,-149.14989 L138.02274,-150.08566 L138.45554,-151.01758 L138.9569,-151.94519 L139.52444,-152.868 L140.15732,-153.78546 L140.85631,-154.69687 L141.54987,-155.60883 L142.2386,-156.52122 L142.92299,-157.43404 L143.60345,-158.34721 L144.28032,-159.26073 L144.95383,-160.17455 L145.62419,-161.08867 L146.29152,-162.00305 L146.95587,-162.91772 L147.61725,-163.83266 L148.2429,-164.75073 L148.83711,-165.67143 L149.4034,-166.59435 L149.94472,-167.51912 L150.46349,-168.44553 L150.96167,-169.37334 L151.44084,-170.30241 L151.90219,-171.23262 L152.34659,-172.16385 L152.77454,-173.09605 L153.18614,-174.02919 L153.58109,-174.96321 L153.97029,-175.89754 L154.35443,-176.83214 L154.7341,-177.76697 L155.10976,-178.70198 L155.48181,-179.63719 L155.85056,-180.57257 L156.21628,-181.50809 L156.57915,-182.44374 L156.9393,-183.37953 L157.29683,-184.31546 L157.65173,-185.2515 L158.00398,-186.18767 L158.36288,-187.12352 L158.72763,-188.05908 L159.09756,-188.9944 L159.47214,-189.92947 L159.8509,-190.86435 L160.23349,-191.79903 L160.6196,-192.73352 L161.00903,-193.66783 L161.40163,-194.60199 L161.7973,-195.53598 L162.19604,-196.4698 L162.59793,-197.40346 L163.00453,-198.33687 L163.4153,-199.27003 L163.82979,-200.203 L164.24763,-201.13577 L164.66852,-202.06839 L165.09221,-203.00084 L165.51852,-203.93314 L165.94731,-204.86528 L166.37852,-205.7973 L166.8121,-206.72917 L167.2481,-207.66092 L167.68999,-208.5923 L168.13713,-209.52338 L168.58897,-210.45416 L169.04509,-211.38469 L169.50514,-212.31497 L169.96886,-213.24503 L170.43602,-214.17487 L170.90652,-215.10449 L171.3803,-216.0339 L171.85739,-216.96312 L172.34633,-217.89156 L172.84592,-218.81927 L173.35524,-219.74634 L173.87354,-220.67276 L174.40024,-221.5986 L174.93494,-222.52386 L175.47739,-223.44856 L176.02756,-224.3727 L176.58557,-225.29623 L177.16736,-226.21793 L177.77115,-227.13783 L178.39566,-228.05602 L179.04001,-228.97247 L179.70374,-229.88719 L180.3869,-230.80013 L181.12064,-231.70811 L181.90239,-232.61107 L182.73059,-233.5088 L183.60477,-234.40106 L184.5257,-235.2874 L185.56956,-236.15648 L186.73647,-237.00569 L188.41515,-237.73953 L190.50856,-238.32457 L192.90549,-238.73848 L195.49075,-238.97006 L198.15398,-239.01802 L200.79572,-238.8892 L203.33096,-238.59637 L205.69026,-238.15619 L207.81917,-237.58743 L209.67659,-236.90976 L211.23268,-236.14279 L212.46664,-235.30554 L213.36462,-234.41626 L213.91794,-233.49237 L214.12178,-232.55069 L213.97429,-231.6077 L213.47606,-230.67987 L212.92233,-229.75601 L212.31717,-228.83621 L211.6637,-227.92056 L210.96396,-227.00922 L210.21909,-226.10236 L209.42905,-225.20032 L208.78523,-224.28381 L208.27324,-223.35693 L207.88057,-222.42279 L207.59654,-221.48372 L207.41228,-220.54153 L207.32057,-219.59764 L207.3158,-218.6532 L207.3939,-217.70917 L207.55246,-216.76639 L207.79077,-215.82573 L208.1102,-214.88808 L208.46844,-213.9522 L208.86046,-213.018 L209.28206,-212.08545 L209.72983,-211.15442 L210.20088,-210.22482 L210.6929,-209.29659 L211.20398,-208.36966 L211.73262,-207.44395 L212.27766,-206.51944 L212.83829,-205.59612 L213.41399,-204.67393 L214.0046,-203.75294 L214.61035,-202.83319 L215.17569,-201.91022 L215.70612,-200.98465 L216.20624,-200.05696 L216.67989,-199.12753 L217.13025,-198.19666 L217.55998,-197.26456 L217.97131,-196.3314 L218.36601,-195.39737 L218.74559,-194.46254 L219.11118,-193.52701 L219.4637,-192.59085 L219.80377,-191.65413 L220.13182,-190.71686 L220.44792,-189.77907 L220.75188,-188.84077 L221.04971,-187.90224 L221.34232,-186.9635 L221.63043,-186.02458 L221.91469,-185.08553 L222.19556,-184.14633 L222.47348,-183.20703 L222.74881,-182.26764 L223.02184,-181.32816 L223.29279,-180.3886 L223.56187,-179.44897 L223.82922,-178.5093 L224.09499,-177.56955 L224.35924,-176.62975 L224.62206,-175.6899 L224.88345,-174.75 L225.14342,-173.81006 L225.40594,-172.87021 L225.67064,-171.93042 L225.93718,-170.9907 L226.20529,-170.05106 L226.47478,-169.11143 L226.74545,-168.17188 L227.01717,-167.23235 L227.28978,-166.29285 L227.5632,-165.35338 L227.83734,-164.41394 L228.11214,-163.47452 L228.38753,-162.53513 L228.66348,-161.59575 L228.93994,-160.6564 L229.21689,-159.71706 L229.49434,-158.77774 L229.77225,-157.83844 L230.05066,-156.89915 L230.32892,-155.95987 L230.60704,-155.02057 L230.88504,-154.08128 L231.16295,-153.14198 L231.44077,-152.20267 L231.71852,-151.26337 L231.9962,-150.32405 L232.27382,-149.38474 L232.55139,-148.44543 L232.82892,-147.50612 L233.10641,-146.56679 L233.38387,-145.62747 L233.66127,-144.68816 L233.93864,-143.74884 L234.21599,-142.80951 L234.4933,-141.8702 L234.77094,-140.93088 L235.05008,-139.99162 L235.33052,-139.05241 L235.61205,-138.11325 L235.89453,-137.17412 L236.17784,-136.23502 L236.46187,-135.29594 L236.74654,-134.3569 L237.03175,-133.41788 L237.31747,-132.47887 L237.60364,-131.53987 L237.89023,-130.60089 L238.17719,-129.66194 L238.46451,-128.72299 L238.75217,-127.78406 L239.04016,-126.84514 L239.32848,-125.90623 L239.61789,-124.96736 L239.91109,-124.02864 L240.20753,-123.09005 L240.50677,-122.15157 L240.80847,-121.213196 L241.1123,-120.2749 L241.41803,-119.336685 L241.72545,-118.39854 L242.03436,-117.46045 L242.34467,-116.52242 L242.65622,-115.58444 L242.96896,-114.646515 L243.28282,-113.70863 L243.59776,-112.770805 L243.91376,-111.833015 L244.23083,-110.89526 L244.55481,-109.95782 L244.88477,-109.02063 L245.21996,-108.08368 L245.55975,-107.146935 L245.90366,-106.21037 L246.2512,-105.27399 L246.60208,-104.33775 L246.95598,-103.401665 L247.3127,-102.465706 L247.67207,-101.52988 L248.03398,-100.59417 L248.39838,-99.658585 L248.76524,-98.72312 L249.13467,-97.78779 L249.51674,-96.85308 L249.91003,-95.91897 L250.31343,-94.98539 L250.72597,-94.052315 L251.14691,-93.11971 L251.57568,-92.18756 L252.01187,-91.25584 L252.45517,-90.32453 L252.9055,-89.393654 L253.3629,-88.4632 L253.84554,-87.534355 L254.35117,-86.60704 L254.87802,-85.68121 L255.42476,-84.756836 L255.99042,-83.833885 L256.57446,-82.91237 L257.1768,-81.99233 L257.79776,-81.07385 L258.48083,-80.16091 L259.2238,-79.25387 L260.02585,-78.35316 L260.88782,-77.45941 L261.93884,-76.591415 L263.52798,-75.832985 L265.5842,-75.23163 L267.98923,-74.823654 L270.56934,-74.58496 L273.22986,-74.52091 L275.8786,-74.6302 L278.42938,-74.90561 L280.80453,-75.334984 L282.93655,-75.90227 L284.7689,-76.58843 L286.2561,-77.37236 L287.36356,-78.231514 L288.06696,-79.14251 L288.35196,-80.08154 L288.2136,-81.02472 L287.65598,-81.94828 L286.69226,-82.828896 L285.7018,-83.70578 L284.68634,-84.57907 L283.64703,-85.44883 L282.58453,-86.31507 L281.49896,-87.17771 L280.38977,-88.03658 L279.4856,-88.92508 L278.7682,-89.8347 L278.22034,-90.759 L277.82648,-91.693085 L277.57303,-92.633255 L277.44836,-93.57667 L277.44287,-94.52111 L277.54883,-95.46481 L277.76047,-96.40627 L278.0739,-97.34417 L278.48734,-98.2772 L279.00122,-99.20394 L279.51602,-100.130615 L280.0316,-101.05724 L280.54782,-101.98382 L281.06464,-102.91036 L281.58194,-103.83686 L282.09967,-104.763336 L282.6178,-105.68978 L283.1363,-106.6162 L283.65506,-107.5426 L284.17416,-108.46898 L284.69348,-109.39534 L285.21307,-110.321686 L285.7329,-111.24801 L286.25296,-112.174324 L286.77325,-113.10062 L287.29376,-114.02689 L287.76886,-114.95623 L288.20538,-115.88793 L288.60904,-116.821495 L288.98462,-117.75652 L289.33603,-118.69273 L289.66656,-119.62989 L289.97897,-120.56783 L290.2755,-121.506424 L290.55807,-122.44555 L290.82822,-123.38513 L291.08722,-124.32511 L291.33615,-125.265434 L291.57587,-126.206055 L291.807,-127.14694 L292.0301,-128.08807 L292.24548,-129.02943 L292.42932,-129.97163 L292.60815,-130.91396 L292.78183,-131.8564 L292.96417,-132.79863 L293.15378,-133.74068 L293.3495,-134.68257 L293.5504,-135.62434 L293.75574,-136.56598 L293.9648,-137.50752 L294.17712,-138.44896 L294.39224,-139.39034 L294.60974,-140.33162 L294.8294,-141.27286 L295.0509,-142.21404 L295.27405,-143.15517 L295.49872,-144.09627 L295.7247,-145.03731 L295.95193,-145.97832 L296.1803,-146.9193 L296.4096,-147.86024 L296.6401,-148.80115 L296.8716,-149.74202 L297.10413,-150.68288 L297.3377,-151.62369 L297.56805,-152.5646 L297.79572,-153.5056 L298.02112,-154.44667 L298.2446,-155.38779 L298.4665,-156.32895 L298.687,-157.27017 L298.90637,-158.21141 L299.12473,-159.15268 L299.34222,-160.09398 L299.55896,-161.0353 L299.7751,-161.97664 L299.9906,-162.91798 L300.20566,-163.85936 L300.42023,-164.80074 L300.6344,-165.74214 L300.8482,-166.68353 L301.06097,-167.62497 L301.27243,-168.56644 L301.48224,-169.50797 L301.69217,-170.44948 L301.90225,-171.39098 L302.11243,-172.33249 L302.3225,-173.274 L302.5325,-174.21552 L302.7424,-175.15703 L302.9522,-176.09854 L303.162,-177.04005 L303.37167,-177.98158 L303.58136,-178.9231 L303.791,-179.86462 L304.0006,-180.80614 L304.21017,-181.74767 L304.41974,-182.6892 L304.62927,-183.6307 L304.83878,-184.57224 L305.04828,-185.51376 L305.25775,-186.45529 L305.46722,-187.39682 L305.67676,-188.33833 L305.88638,-189.27986 L306.09607,-190.22137 L306.3059,-191.1629 L306.51566,-192.10442 L306.72537,-193.04593 L306.93497,-193.98746 L307.14514,-194.92897 L307.35577,-195.87045 L307.5668,-196.81194 L307.77817,-197.75342 L307.98978,-198.69489 L308.20163,-199.63634 L308.4137,-200.57779 L308.62592,-201.51924 L308.8383,-202.4607 L309.05078,-203.40213 L309.2634,-204.34357 L309.47607,-205.285 L309.68887,-206.22644 L309.90173,-207.16786 L310.11465,-208.1093 L310.32764,-209.05072 L310.54086,-209.99214 L310.7544,-210.93355 L310.96835,-211.87495 L311.18222,-212.81636 L311.396,-213.75777 L311.60974,-214.69917 L311.8256,-215.64052 L312.0432,-216.5818 L312.26233,-217.52306 L312.4827,-218.46426 L312.70413,-219.40546 L312.92645,-220.3466 L313.14954,-221.28775 L313.37332,-222.22885 L313.59763,-223.16995 L313.82245,-224.11104 L314.0477,-225.05211 L314.27335,-225.99316 L314.4993,-226.9342 L314.7256,-227.87524 L314.95212,-228.81628 L315.17892,-229.7573 L315.40594,-230.69832 L315.63397,-231.6393 L315.86325,-232.58025 L316.0925,-233.5212 L316.32172,-234.46214 L316.5509,-235.40309 L316.78412,-236.34392 L317.02075,-237.28464 L317.26028,-238.22527 L317.5023,-239.16582 L317.74643,-240.1063 L317.9924,-241.0467 L318.23996,-241.98708 L318.4889,-242.9274 L318.73904,-243.86768 L318.9903,-244.80792 L319.24252,-245.74812 L319.4956,-246.68831 L319.7495,-247.62846 L320.00412,-248.56859 L320.25946,-249.5087 L320.51547,-250.44878 L320.77432,-251.38876 L321.03357,-252.32874 L321.29324,-253.26869 L321.5599,-254.2084 L321.83252,-255.1479 L322.1103,-256.08722 L322.39255,-257.02634 L322.6787,-257.96533 L322.9683,-258.9042 L323.26093,-259.84293 L323.5563,-260.78156 L323.85416,-261.7201 L324.15424,-262.65854 L324.45645,-263.5969 L324.76062,-264.5352 L325.06665,-265.4734 L325.37454,-266.41153 L325.68427,-267.34958 L325.99588,-268.28754 L326.32083,-269.22495 L326.6575,-270.16183 L327.00458,-271.09827 L327.3609,-272.03424 L327.72562,-272.9698 L328.09796,-273.905 L328.47736,-274.8398 L328.86337,-275.77432 L329.25568,-276.7085 L329.6541,-277.64233 L330.0587,-278.57584 L330.46945,-279.50903 L330.9089,-280.44055 L331.3745,-281.37048 L331.86435,-282.29886 L332.3769,-283.2257 L332.91116,-284.151 L333.4666,-285.0747 L334.04315,-285.99683 L334.6414,-286.9172 L335.3244,-287.83014 L336.09094,-288.7347 L336.9419,-289.6298 L338.23346,-290.45605 L340.04996,-291.14752 L342.28232,-291.66412 L344.79507,-291.98032 L347.4448,-292.08664 L350.09695,-291.98828 L352.63782,-291.70163 L354.97995,-291.2501 L357.06244,-290.66016 L358.84772,-289.95862 L360.31677,-289.17038 L361.46414,-288.31784 L362.29358,-287.42023 L362.81433,-286.494 L363.0386,-285.5529 L362.97964,-284.60867 L362.6503,-283.67145 L362.06232,-282.75024 L361.22577,-281.8535 L360.1488,-280.9895 L358.52258,-280.241 L357.08484,-279.44556 L355.82498,-278.6132 L354.73196,-277.7517 L353.79523,-276.86746 L353.0053,-275.9654 L352.35403,-275.04956 L351.83496,-274.12317 L351.44348,-273.18896 L351.17694,-272.24924 L351.0352,-271.30612 L351.02087,-270.3617 L351.09702,-269.41763 L351.25018,-268.47476 L351.4691,-267.5335 L351.74445,-266.59412 L352.0685,-265.65668 L352.43484,-264.72116 L352.83817,-263.7876 L353.27396,-262.85583 L353.73868,-261.92584 L354.22925,-260.99753 L354.7433,-260.0708 L355.27878,-259.1456 L355.83423,-258.22186 L356.4085,-257.2996 L357.00085,-256.37872 L357.61093,-255.45934 L358.40167,-254.55736 L359.09573,-253.64548 L359.70804,-252.72626 L360.25116,-251.8016 L360.73566,-250.87288 L361.17038,-249.94107 L361.56265,-249.00691 L361.91864,-248.0709 L362.24344,-247.1335 L362.5413,-246.19496 L362.81577,-245.25554 L363.06976,-244.31538 L363.30576,-243.37465 L363.52576,-242.43343 L363.73145,-241.49179 L363.92422,-240.54982 L364.10513,-239.60754 L364.27512,-238.66502 L364.3988,-237.7216 L364.46368,-236.77744 L364.5301,-235.83328 L364.59805,-234.88914 L364.6676,-233.94502 L364.7611,-233.00116 L364.8745,-232.05757 L365.00446,-231.11424 L365.14816,-230.17117 L365.30344,-229.22833 L365.4684,-228.28569 L365.64157,-227.34325 L365.82162,-226.40096 L366.00763,-225.45882 L366.19864,-224.5168 L366.39398,-223.57489 L366.59308,-222.63307 L366.79544,-221.69136 L367.00064,-220.74971 L367.20834,-219.80814 L367.4183,-218.86662 L367.6423,-217.92552 L367.88412,-216.98497 L368.14856,-216.04518 L368.44162,-215.10645 L368.7239,-214.16731 L368.99582,-213.2278 L369.25748,-212.2879 L369.50882,-211.34767 L369.74393,-210.4069 L369.9657,-209.46573 L370.17645,-208.52423 L370.37808,-207.58249 L370.57214,-206.64055 L370.7599,-205.69846 L370.94238,-204.75623 L371.12048,-203.81389 L371.29486,-202.87146 L371.46613,-201.92897 L371.63474,-200.98642 L371.80112,-200.04381 L371.96555,-199.10117 L372.12833,-198.15848 L372.28967,-197.21576 L372.44977,-196.27303 L372.60876,-195.33026 L372.75192,-194.38718 L372.87485,-193.44374 L372.97217,-192.49992 L373.03705,-191.55576 L373.06088,-190.61136 L373.10696,-189.66705 L373.1741,-188.7229 L373.26157,-187.77896 L373.369,-186.83528 L373.49664,-185.89192 L373.63693,-184.94879 L373.7876,-184.00586 L373.94684,-183.0631 L374.1131,-182.12048 L374.2852,-181.17801 L374.46213,-180.23566 L374.64304,-179.29338 L374.82733,-178.3512 L375.0144,-177.40907 L375.20383,-176.46703 L375.39523,-175.52501 L375.58832,-174.58304 L375.78284,-173.64111 L375.97858,-172.69922 L376.17535,-171.75735 L376.37302,-170.8155 L376.57147,-169.87367 L376.7931,-168.9325 L377.04413,-167.99225 L377.33237,-167.05334 L377.6677,-166.1164 L378.0623,-165.18234 L378.53143,-164.25262 L378.95276,-163.32005 L379.32892,-162.38506 L379.66168,-161.44798 L379.95184,-160.50916 L380.19925,-159.56877 L380.4024,-158.62708 L380.5893,-157.68495 L380.76276,-156.74251 L380.9252,-155.79982 L381.07852,-154.85693 L381.2243,-153.91391 L381.36383,-152.97075 L381.4981,-152.02751 L381.62805,-151.08418 L381.7543,-150.14081 L381.8775,-149.19737 L381.9981,-148.25389 L382.11652,-147.31038 L382.23303,-146.36684 L382.34793,-145.42326 L382.46146,-144.47968 L382.5738,-143.53607 L382.63922,-142.5919 L382.64508,-141.64746 L382.57544,-140.70334 L382.41046,-139.76071 L382.12564,-138.82167 L381.69122,-137.88985 L381.35477,-136.95294 L381.11035,-136.01247 L380.95377,-135.06966 L380.88226,-134.12555 L380.895,-133.18112 L380.99313,-132.23732 L381.1256,-131.29404 L381.2863,-130.3513 L381.47025,-129.40912 L381.6734,-128.4674 L381.89246,-127.52616 L382.12476,-126.58531 L382.36807,-125.644806 L382.6206,-124.704605 L382.88086,-123.76467 L383.14767,-122.82496 L383.41995,-121.88545 L383.69693,-120.94612 L383.9779,-120.006935 L384.26233,-119.06787 L384.5497,-118.12893 L384.83963,-117.19009 L385.22763,-116.25569 L385.73907,-115.32878 L386.4046,-114.414215 L387.25983,-113.51966 L388.34442,-112.65687 L389.6985,-111.84323 L390.8762,-110.99589 L391.88162,-110.12114 L392.71774,-109.22432 L393.38574,-108.30999 L393.88446,-107.38221 L394.20966,-106.44481 L394.46628,-105.50475 L394.66608,-104.562965 L394.81863,-103.62006 L394.93182,-102.67647 L395.01218,-101.73245 L395.06506,-100.7882 L395.09482,-99.84381 L395.1051,-98.899376 L395.09888,-97.95493 L395.0786,-97.01051 L395.0464,-96.06614 L395.00388,-95.12182 L394.95248,-94.17754 L394.89334,-93.23334 L394.82745,-92.28918 L394.7556,-91.34508 L394.4844,-90.405525 L393.96667,-89.47906 L393.15146,-88.57983 L391.99005,-87.72966 L390.99646,-86.85322 L390.1657,-85.95578 L389.49435,-85.04175 L388.98108,-84.11497 L388.62704,-83.17889 L388.43677,-82.23685 L388.36426,-81.292755 L388.3904,-80.34835 L388.49933,-79.40469 L388.67783,-78.46237 L388.91495,-77.52167 L389.2017,-76.582695 L389.5306,-75.64547 L389.89557,-74.70991 L390.2914,-73.775925 L390.71396,-72.843414 L391.15967,-71.912254 L391.6257,-70.982346 L392.10962,-70.05358 L392.60944,-69.12588 L393.12354,-68.19915 L393.65057,-67.27333 L394.38864,-66.36578 L395.38208,-65.48933 L396.67462,-64.66324 L397.8749,-63.81987 L398.9825,-62.96075 L399.99493,-62.087017 L400.8558,-61.19314 L401.5853,-60.28472 L402.20132,-59.365826 L402.71933,-58.43937 L403.15247,-57.507465 L403.512,-56.571644 L403.80728,-55.633007 L404.04633,-54.692364 L404.23572,-53.750305 L404.381,-52.807266 L404.48676,-51.863564 L404.55676,-50.919445 L404.59402,-49.97509 L404.60095,-49.03065 L404.57938,-48.08624 L404.53052,-47.141953 L404.45508,-46.197884 L404.1841,-45.258327 L403.90146,-44.319206 L403.71533,-43.377064 L403.61392,-42.433304 L403.58716,-41.488907 L403.6267,-40.544563 L403.72562,-39.60077 L403.87814,-38.65787 L404.07965,-37.71613 L404.32648,-36.775738 L404.6158,-35.83687 L404.94568,-34.899677 L405.315,-33.964336 L405.7236,-33.031044 L406.1724,-32.10007 L406.66647,-31.171978 L407.2021,-30.24678 L407.7763,-29.324492 L408.387,-28.405146 L409.0327,-27.488808 L409.71286,-26.5756 L410.4277,-25.665722 L411.26416,-24.76894 L412.22195,-23.887522 L413.67667,-23.09598 L415.6001,-22.441826 L417.90805,-21.968721 L420.47028,-21.706978 L423.12695,-21.62534 L425.77908,-21.72388 L428.3329,-21.995728 L430.7037,-22.428091 L432.8184,-23.003462 L434.61667,-23.700846 L436.05164,-24.496893 L437.08942,-25.366882 L437.7085,-26.285522 L437.89877,-27.22756 L437.6605,-28.168226 L437.00354,-29.08356 L435.9465,-29.95064 L434.5164,-30.74778 L432.74814,-31.454737 L431.10934,-32.19979 L429.59686,-32.97763 L428.2083,-33.78393 L426.94238,-34.615173 L425.79953,-35.468483 L424.78226,-36.341507 L423.89603,-37.232273 L423.2395,-38.147648 L422.78406,-39.078217 L422.50348,-40.017418 L422.37442,-40.960754 L422.37665,-41.905197 L422.49292,-42.848743 L422.7086,-43.790096 L423.0114,-44.72843 L423.39108,-45.663254 L423.8391,-46.594273 L424.3485,-47.521324 L424.91354,-48.444324 L425.52963,-49.363216" fill="none" stroke="#35C788" stroke-linejoin="round" stroke-width="2"/>
</g>
</g>
<g>
<g>
<line stroke="black" stroke-width="1" x1="0" x2="0" y1="0" y2="10"/>
<line stroke="black" stroke-width="1" x1="96" x2="96" y1="0" y2="10"/>
<line stroke="black" stroke-width="1" x1="192" x2="192" y1="0" y2="10"/>
<line stroke="black" stroke-width="1" x1="288" x2="288" y1="0" y2="10"/>
<line stroke="black" stroke-width="1" x1="384" x2="384" y1="0" y2="10"/>
<line stroke="black" stroke-width="1" x1="480" x2="480" y1="0" y2="10"/>
</g>
<line stroke="black" stroke-width="1" x1="0" x2="480" y1="0" y2="0"/>
<g>
<text font-size="12" text-anchor="middle" x="0" y="20">
0
</text>
<text font-size="12" text-anchor="middle" x="96" y="20">
10
</text>
<text font-size="12" text-anchor="middle" x="192" y="20">
20
</text>
<text font-size="12" text-anchor="middle" x="288" y="20">
30
</text>
<text font-size="12" text-anchor="middle" x="384" y="20">
40
</text>
<text font-size="12" text-anchor="middle" x="480" y="20">
50
</text>
</g>
<text font-size="12" text-anchor="middle" x="240" y="30">
x [m]
</text>
</g>
<g>
<g>
<line stroke="black" stroke-width="1" x1="0" x2="-10" y1="-34" y2="-34"/>
<line stroke="black" stroke-width="1" x1="0" x2="-10" y1="-102" y2="-102"/>
<line stroke="black" stroke-width="1" x1="0" x2="-10" y1="-170" y2="-170"/>
<line stroke="black" stroke-width="1" x1="0" x2="-10" y1="-238" y2="-238"/>
<line stroke="black" stroke-width="1" x1="0" x2="-10" y1="-306" y2="-306"/>
</g>
<line stroke="black" stroke-width="1" x1="0" x2="0" y1="0" y2="-340"/>
<g>
<text dominant-baseline="middle" font-size="12" text-anchor="end" x="-15" y="-34">
-40
</text>
<text dominant-baseline="middle" font-size="12" text-anchor="end" x="-15" y="-102">
-20
</text>
<text dominant-baseline="middle" font-size="12" text-anchor="end" x="-15" y="-170">
0
</text>
<text dominant-baseline="middle" font-size="12" text-anchor="end" x="-15" y="-238">
20
</text>
<text dominant-baseline="middle" font-size="12" text-anchor="end" x="-15" y="-306">
40
</text>
</g>
<text font-size="12" text-anchor="middle" transform="rotate(-90 -36 -170)" x="-36" y="-182">
y [m]
</text>
</g>
</g>
</svg>