<?xml version="1.0" encoding="UTF-8"?>
<svg xmlns="http://www.w3.org/2000/svg" width="640" height="480" viewBox="0 0 640 480">
<rect width="100%" height="100%" fill="white"/>
<text x="320" y="30" text-anchor="middle" font-size="16" font-family="sans-serif">Graph-based SLAM</text>
<g stroke="#dddddd" stroke-width="0.5"><line x1="60" y1="60" x2="60" y2="420"/><line x1="60" y1="60" x2="580" y2="60"/><line x1="112" y1="60" x2="112" y2="420"/><line x1="60" y1="96" x2="580" y2="96"/><line x1="164" y1="60" x2="164" y2="420"/><line x1="60" y1="132" x2="580" y2="132"/><line x1="216" y1="60" x2="216" y2="420"/><line x1="60" y1="168" x2="580" y2="168"/><line x1="268" y1="60" x2="268" y2="420"/><line x1="60" y1="204" x2="580" y2="204"/><line x1="320" y1="60" x2="320" y2="420"/><line x1="60" y1="240" x2="580" y2="240"/><line x1="372" y1="60" x2="372" y2="420"/><line x1="60" y1="276" x2="580" y2="276"/><line x1="424" y1="60" x2="424" y2="420"/><line x1="60" y1="312" x2="580" y2="312"/><line x1="476" y1="60" x2="476" y2="420"/><line x1="60" y1="348" x2="580" y2="348"/><line x1="528" y1="60" x2="528" y2="420"/><line x1="60" y1="384" x2="580" y2="384"/><line x1="580" y1="60" x2="580" y2="420"/><line x1="60" y1="420" x2="580" y2="420"/></g>
<polyline fill="none" stroke="#333" stroke-width="1.5" points="369.1,355.5 400.5,346.2 405.8,332.9 401.9,315.1 396.4,299.9 390.6,289.1 386.5,268.2 377.7,257.4 373.7,248.5 370.3,240.1 366.1,228.1 365.0,212.3 358.9,189.9 356.6,176.2 358.5,157.6 357.5,144.3 353.3,124.7 345.0,114.0 332.8,109.2 315.6,114.7 302.3,115.1 293.5,125.0 286.9,131.7 269.7,142.0 263.7,145.3 245.4,152.2 221.0,161.6 216.5,164.5 211.2,178.4 210.9,190.6 217.4,205.2 226.8,215.6 227.8,226.4 231.4,236.6 245.8,244.5 258.3,238.4 280.6,221.7 286.2,211.2 285.2,203.1 280.9,180.0 277.7,168.4 264.9,153.1 256.5,143.1 249.2,144.9 233.2,142.5 219.9,150.9 202.8,160.2 185.4,170.9 179.2,182.9 171.4,194.0 165.8,201.6 156.4,220.2 "/>
<polyline fill="none" stroke="blue" stroke-width="2" points="369.1,355.5 399.4,352.5 413.4,346.6 426.0,337.9 436.7,327.0 444.9,314.1 450.4,299.9 453.0,284.9 452.6,269.6 449.1,254.7 442.8,240.9 433.8,228.5 422.5,218.2 409.4,210.3 395.1,205.2 379.9,203.1 364.7,204.0 349.9,207.9 336.3,214.6 324.2,224.0 314.2,235.5 306.7,248.8 302.0,263.3 300.3,278.5 301.7,293.7 306.0,308.4 313.1,321.9 322.8,333.7 334.7,343.3 348.2,350.4 362.8,354.6 378.1,355.9 393.2,354.1 407.7,349.4 421.0,341.8 432.5,331.8 441.8,319.7 448.5,306.0 452.3,291.2 453.1,275.9 450.9,260.8 445.8,246.5 437.8,233.4 427.5,222.2 415.1,213.3 401.2,207.0 386.3,203.6 371.0,203.2 356.0,205.9 341.8,211.5 329.0,219.8 318.1,230.5 "/>
<polyline fill="none" stroke="red" stroke-width="2" points="369.1,355.5 388.2,356.3 399.8,354.1 414.5,347.1 425.4,339.9 440.4,327.7 447.4,315.8 453.0,302.2 456.2,286.5 456.4,269.5 453.5,258.2 449.4,242.1 441.6,232.0 430.0,219.8 415.6,211.6 404.7,207.8 388.4,200.4 374.9,203.7 358.2,204.9 342.8,214.1 330.8,222.4 318.8,233.8 312.2,247.3 307.8,261.3 305.3,274.8 305.2,291.8 307.8,304.9 315.9,322.4 323.9,330.8 336.1,339.5 347.6,347.2 366.2,356.9 379.2,355.5 394.7,355.0 407.6,346.4 424.0,341.3 435.9,333.2 443.7,325.7 450.0,309.1 456.0,295.3 454.8,276.2 457.1,263.0 450.3,249.2 442.9,233.8 435.3,226.0 420.0,215.5 409.2,207.0 395.8,203.1 377.3,204.0 363.1,204.8 350.3,210.9 336.1,219.1 "/>
<polygon fill="black" points="445.4696254599224,362.8126940102993 447.9696254599224,368.3126940102993 453.4696254599224,368.3126940102993 449.4696254599224,372.8126940102993 450.9696254599224,378.8126940102993 445.4696254599224,375.3126940102993 439.9696254599224,378.8126940102993 441.4696254599224,372.8126940102993 437.4696254599224,368.3126940102993 442.9696254599224,368.3126940102993"/><polygon fill="black" points="483.6363636363636,271.21252238684036 486.1363636363636,276.71252238684036 491.6363636363636,276.71252238684036 487.6363636363636,281.21252238684036 489.1363636363636,287.21252238684036 483.6363636363636,283.71252238684036 478.1363636363636,287.21252238684036 479.6363636363636,281.21252238684036 475.6363636363636,276.71252238684036 481.1363636363636,276.71252238684036"/><polygon fill="black" points="392.0361920129046,233.04578421039912 394.5361920129046,238.54578421039912 400.0361920129046,238.54578421039912 396.0361920129046,243.04578421039912 397.5361920129046,249.04578421039912 392.0361920129046,245.54578421039912 386.5361920129046,249.04578421039912 388.0361920129046,243.04578421039912 384.0361920129046,238.54578421039912 389.5361920129046,238.54578421039912"/><polygon fill="black" points="330.96941093059866,194.8790460339579 333.46941093059866,200.3790460339579 338.96941093059866,200.3790460339579 334.96941093059866,204.8790460339579 336.46941093059866,210.8790460339579 330.96941093059866,207.3790460339579 325.46941093059866,210.8790460339579 326.96941093059866,204.8790460339579 322.96941093059866,200.3790460339579 328.46941093059866,200.3790460339579"/><polygon fill="black" points="330.96941093059866,309.3792605632816 333.46941093059866,314.8792605632816 338.96941093059866,314.8792605632816 334.96941093059866,319.3792605632816 336.46941093059866,325.3792605632816 330.96941093059866,321.8792605632816 325.46941093059866,325.3792605632816 326.96941093059866,319.3792605632816 322.96941093059866,314.8792605632816 328.46941093059866,314.8792605632816"/><rect x="490" y="50" width="140" height="80" fill="white" stroke="#ccc"/><line x1="500" y1="70" x2="530" y2="70" stroke="blue" stroke-width="2"/><text x="540" y="74" font-size="12" font-family="sans-serif">True</text><line x1="500" y1="90" x2="530" y2="90" stroke="#333" stroke-width="1.5"/><text x="540" y="94" font-size="12" font-family="sans-serif">Dead Reckoning</text><line x1="500" y1="110" x2="530" y2="110" stroke="red" stroke-width="2"/><text x="540" y="114" font-size="12" font-family="sans-serif">Graph SLAM</text></svg>
