<svg xmlns="http://www.w3.org/2000/svg" xmlns:xlink="http://www.w3.org/1999/xlink" width="840" height="711.3"><rect width="840" height="711.3" rx="5" ry="5" class="a"/><svg y="0%" x="0%"><circle cx="20" cy="20" r="6" fill="#ff5f58"/><circle cx="40" cy="20" r="6" fill="#ffbd2e"/><circle cx="60" cy="20" r="6" fill="#18c132"/></svg><svg height="651.3" viewBox="0 0 80 65.13" width="800" x="15" xmlns="http://www.w3.org/2000/svg" xmlns:xlink="http://www.w3.org/1999/xlink" y="50"><style>@keyframes i{0%{transform:translateX(0)}.1%{transform:translateX(-160px)}10.7%{transform:translateX(-320px)}31.9%{transform:translateX(-480px)}35.7%{transform:translateX(-560px)}38.6%{transform:translateX(-640px)}41.7%{transform:translateX(-800px)}45.3%{transform:translateX(-880px)}55.9%{transform:translateX(-1040px)}62.6%{transform:translateX(-1200px)}65.3%{transform:translateX(-1360px)}68.1%{transform:translateX(-1520px)}71.2%{transform:translateX(-1680px)}74.2%{transform:translateX(-1840px)}82%{transform:translateX(-1920px)}89.4%{transform:translateX(-2080px)}to{transform:translateX(-2160px)}}.a{fill:#282d35}.f{fill:#b9c0cb;white-space:pre}</style><g font-family="Monaco,Consolas,Menlo,'Bitstream Vera Sans Mono','Powerline Symbols',monospace" font-size="1.67"><defs><symbol id="1"><text y="1.67" class="f">============================================</text></symbol><symbol id="2"><text x="2.004" y="1.67" class="f">rust_robotics</text><text x="16.032" y="1.67" class="f">Wave</text><text x="21.042" y="1.67" class="f">1</text><text x="23.046" y="1.67" class="f">-</text><text x="25.05" y="1.67" class="f">7</text><text x="27.054" y="1.67" class="f">New</text><text x="31.062" y="1.67" class="f">Algorithms</text></symbol><symbol id="3"><text x="2.004" y="1.67" class="f">Implemented</text><text x="14.028" y="1.67" class="f">by</text><text x="17.034" y="1.67" class="f">Cursor</text><text x="24.048" y="1.67" class="f">Agent</text><text x="30.06" y="1.67" class="f">CLI</text></symbol><symbol id="4"><text y="1.67" class="f">&gt;&gt;</text><text x="3.006" y="1.67" class="f">New</text><text x="7.014" y="1.67" class="f">algorithms</text><text x="18.036" y="1.67" class="f">added:</text></symbol><symbol id="5"><text x="3.006" y="1.67" class="f">1.</text><text x="6.012" y="1.67" class="f">PID</text><text x="10.02" y="1.67" class="f">Controller</text><text x="30.06" y="1.67" class="f">(control)</text></symbol><symbol id="6"><text x="3.006" y="1.67" class="f">2.</text><text x="6.012" y="1.67" class="f">DBSCAN</text><text x="13.026" y="1.67" class="f">Clustering</text><text x="30.06" y="1.67" class="f">(mapping)</text></symbol><symbol id="7"><text x="3.006" y="1.67" class="f">3.</text><text x="6.012" y="1.67" class="f">Complementary</text><text x="20.04" y="1.67" class="f">Filter</text><text x="30.06" y="1.67" class="f">(localization)</text></symbol><symbol id="8"><text x="3.006" y="1.67" class="f">4.</text><text x="6.012" y="1.67" class="f">Bidirectional</text><text x="20.04" y="1.67" class="f">RRT</text><text x="30.06" y="1.67" class="f">(planning)</text></symbol><symbol id="9"><text x="3.006" y="1.67" class="f">5.</text><text x="6.012" y="1.67" class="f">Tangent</text><text x="14.028" y="1.67" class="f">Bug</text><text x="30.06" y="1.67" class="f">(planning)</text></symbol><symbol id="10"><text x="3.006" y="1.67" class="f">6.</text><text x="6.012" y="1.67" class="f">Line</text><text x="11.022" y="1.67" class="f">Extraction</text><text x="30.06" y="1.67" class="f">(mapping)</text></symbol><symbol id="11"><text x="3.006" y="1.67" class="f">7.</text><text x="6.012" y="1.67" class="f">Iterated</text><text x="15.03" y="1.67" class="f">EKF</text><text x="30.06" y="1.67" class="f">(localization)</text></symbol><symbol id="12"><text y="1.67" class="f">&gt;&gt;</text><text x="3.006" y="1.67" class="f">Running</text><text x="11.022" y="1.67" class="f">cargo</text><text x="17.034" y="1.67" class="f">clippy</text><text x="24.048" y="1.67" class="f">on</text><text x="27.054" y="1.67" class="f">all</text><text x="31.062" y="1.67" class="f">modified</text><text x="40.08" y="1.67" class="f">crates...</text></symbol><symbol id="13"><text x="3.006" y="1.67" class="f">rust_robotics_control</text><text x="31.062" y="1.67" class="f">✓</text><text x="33.066" y="1.67" class="f">clean</text></symbol><symbol id="14"><text x="3.006" y="1.67" class="f">rust_robotics_mapping</text><text x="31.062" y="1.67" class="f">✓</text><text x="33.066" y="1.67" class="f">clean</text></symbol><symbol id="15"><text x="3.006" y="1.67" class="f">rust_robotics_localization</text><text x="31.062" y="1.67" class="f">✓</text><text x="33.066" y="1.67" class="f">clean</text></symbol><symbol id="16"><text x="3.006" y="1.67" class="f">rust_robotics_planning</text><text x="31.062" y="1.67" class="f">✓</text><text x="33.066" y="1.67" class="f">clean</text></symbol><symbol id="17"><text y="1.67" class="f">&gt;&gt;</text><text x="3.006" y="1.67" class="f">Running</text><text x="11.022" y="1.67" class="f">tests</text><text x="17.034" y="1.67" class="f">for</text><text x="21.042" y="1.67" class="f">all</text><text x="25.05" y="1.67" class="f">new</text><text x="29.058" y="1.67" class="f">modules...</text></symbol><symbol id="18"><text x="3.006" y="1.67" class="f">pid_controller</text><text x="29.058" y="1.67" class="f">✓</text><text x="31.062" y="1.67" class="f">5</text><text x="33.066" y="1.67" class="f">passed</text></symbol><symbol id="19"><text x="3.006" y="1.67" class="f">dbscan_clustering</text><text x="29.058" y="1.67" class="f">✓</text><text x="31.062" y="1.67" class="f">5</text><text x="33.066" y="1.67" class="f">passed</text></symbol><symbol id="20"><text x="3.006" y="1.67" class="f">line_extraction</text><text x="29.058" y="1.67" class="f">✓</text><text x="31.062" y="1.67" class="f">4</text><text x="33.066" y="1.67" class="f">passed</text></symbol><symbol id="21"><text x="3.006" y="1.67" class="f">complementary_filter</text><text x="29.058" y="1.67" class="f">✓</text><text x="31.062" y="1.67" class="f">4</text><text x="33.066" y="1.67" class="f">passed</text></symbol><symbol id="22"><text x="3.006" y="1.67" class="f">iterated_ekf</text><text x="29.058" y="1.67" class="f">✓</text><text x="31.062" y="1.67" class="f">5</text><text x="33.066" y="1.67" class="f">passed</text></symbol><symbol id="23"><text x="3.006" y="1.67" class="f">bidirectional_rrt</text><text x="29.058" y="1.67" class="f">✓</text><text x="31.062" y="1.67" class="f">3</text><text x="33.066" y="1.67" class="f">passed</text></symbol><symbol id="24"><text x="3.006" y="1.67" class="f">tangent_bug</text><text x="29.058" y="1.67" class="f">✓</text><text x="31.062" y="1.67" class="f">3</text><text x="33.066" y="1.67" class="f">passed</text></symbol><symbol id="a"><path fill="transparent" d="M0 0h80v31H0z"/></symbol><symbol id="b"><path fill="#6f7683" d="M0 0h1.102v2.171H0z"/></symbol></defs><path class="a" d="M0 0h80v65.13H0z"/><g style="animation-duration:9.458531s;animation-iteration-count:infinite;animation-name:i;animation-timing-function:steps(1,end)"><svg width="2240"><svg><use xlink:href="#a"/><use xlink:href="#b" x="-.004"/></svg><svg x="80"><use xlink:href="#a"/><use xlink:href="#b" x="-.004" y="4.317"/><use xlink:href="#1"/><use xlink:href="#2" y="2.171"/></svg><svg x="160"><use xlink:href="#a"/><use xlink:href="#b" x="-.004" y="10.83"/><use xlink:href="#1"/><use xlink:href="#2" y="2.171"/><use xlink:href="#3" y="4.342"/><use xlink:href="#1" y="6.513"/></svg><svg x="240"><use xlink:href="#a"/><use xlink:href="#b" x="-.004" y="28.198"/><use xlink:href="#1"/><use xlink:href="#2" y="2.171"/><use xlink:href="#3" y="4.342"/><use xlink:href="#1" y="6.513"/><use xlink:href="#4" y="10.855"/><use xlink:href="#5" y="13.026"/><use xlink:href="#6" y="15.197"/><use xlink:href="#7" y="17.368"/><use xlink:href="#8" y="19.539"/><use xlink:href="#9" y="21.71"/><use xlink:href="#10" y="23.881"/><use xlink:href="#11" y="26.052"/></svg><svg x="320"><use xlink:href="#a"/><use xlink:href="#b" x="-.004" y="30.369"/><use xlink:href="#1"/><use xlink:href="#2" y="2.171"/><use xlink:href="#3" y="4.342"/><use xlink:href="#1" y="6.513"/><use xlink:href="#4" y="10.855"/><use xlink:href="#5" y="13.026"/><use xlink:href="#6" y="15.197"/><use xlink:href="#7" y="17.368"/><use xlink:href="#8" y="19.539"/><use xlink:href="#9" y="21.71"/><use xlink:href="#10" y="23.881"/><use xlink:href="#11" y="26.052"/></svg><svg x="400"><use xlink:href="#a"/><use xlink:href="#b" x="-.004" y="32.54"/><use xlink:href="#1"/><use xlink:href="#2" y="2.171"/><use xlink:href="#3" y="4.342"/><use xlink:href="#1" y="6.513"/><use xlink:href="#4" y="10.855"/><use xlink:href="#5" y="13.026"/><use xlink:href="#6" y="15.197"/><use xlink:href="#7" y="17.368"/><use xlink:href="#8" y="19.539"/><use xlink:href="#9" y="21.71"/><use xlink:href="#10" y="23.881"/><use xlink:href="#11" y="26.052"/><use xlink:href="#12" y="30.394"/></svg><svg x="480"><use xlink:href="#a"/><use xlink:href="#b" x="30.996" y="32.54"/><use xlink:href="#1"/><use xlink:href="#2" y="2.171"/><use xlink:href="#3" y="4.342"/><use xlink:href="#1" y="6.513"/><use xlink:href="#4" y="10.855"/><use xlink:href="#5" y="13.026"/><use xlink:href="#6" y="15.197"/><use xlink:href="#7" y="17.368"/><use xlink:href="#8" y="19.539"/><use xlink:href="#9" y="21.71"/><use xlink:href="#10" y="23.881"/><use xlink:href="#11" y="26.052"/><use xlink:href="#12" y="30.394"/><text x="3.006" y="34.235" class="f">rust_robotics_control</text></svg><svg x="560"><use xlink:href="#a"/><use xlink:href="#b" x="30.996" y="34.711"/><use xlink:href="#1"/><use xlink:href="#2" y="2.171"/><use xlink:href="#3" y="4.342"/><use xlink:href="#1" y="6.513"/><use xlink:href="#4" y="10.855"/><use xlink:href="#5" y="13.026"/><use xlink:href="#6" y="15.197"/><use xlink:href="#7" y="17.368"/><use xlink:href="#8" y="19.539"/><use xlink:href="#9" y="21.71"/><use xlink:href="#10" y="23.881"/><use xlink:href="#11" y="26.052"/><use xlink:href="#12" y="30.394"/><use xlink:href="#13" y="32.565"/><text x="3.006" y="36.406" class="f">rust_robotics_mapping</text></svg><svg x="640"><use xlink:href="#a"/><use xlink:href="#b" x="30.996" y="36.882"/><use xlink:href="#1"/><use xlink:href="#2" y="2.171"/><use xlink:href="#3" y="4.342"/><use xlink:href="#1" y="6.513"/><use xlink:href="#4" y="10.855"/><use xlink:href="#5" y="13.026"/><use xlink:href="#6" y="15.197"/><use xlink:href="#7" y="17.368"/><use xlink:href="#8" y="19.539"/><use xlink:href="#9" y="21.71"/><use xlink:href="#10" y="23.881"/><use xlink:href="#11" y="26.052"/><use xlink:href="#12" y="30.394"/><use xlink:href="#13" y="32.565"/><use xlink:href="#14" y="34.736"/><text x="3.006" y="38.577" class="f">rust_robotics_localization</text></svg><svg x="720"><use xlink:href="#a"/><use xlink:href="#b" x="-.004" y="39.053"/><use xlink:href="#1"/><use xlink:href="#2" y="2.171"/><use xlink:href="#3" y="4.342"/><use xlink:href="#1" y="6.513"/><use xlink:href="#4" y="10.855"/><use xlink:href="#5" y="13.026"/><use xlink:href="#6" y="15.197"/><use xlink:href="#7" y="17.368"/><use xlink:href="#8" y="19.539"/><use xlink:href="#9" y="21.71"/><use xlink:href="#10" y="23.881"/><use xlink:href="#11" y="26.052"/><use xlink:href="#12" y="30.394"/><use xlink:href="#13" y="32.565"/><use xlink:href="#14" y="34.736"/><use xlink:href="#15" y="36.907"/></svg><svg x="800"><use xlink:href="#a"/><use xlink:href="#b" x="30.996" y="39.053"/><use xlink:href="#1"/><use xlink:href="#2" y="2.171"/><use xlink:href="#3" y="4.342"/><use xlink:href="#1" y="6.513"/><use xlink:href="#4" y="10.855"/><use xlink:href="#5" y="13.026"/><use xlink:href="#6" y="15.197"/><use xlink:href="#7" y="17.368"/><use xlink:href="#8" y="19.539"/><use xlink:href="#9" y="21.71"/><use xlink:href="#10" y="23.881"/><use xlink:href="#11" y="26.052"/><use xlink:href="#12" y="30.394"/><use xlink:href="#13" y="32.565"/><use xlink:href="#14" y="34.736"/><use xlink:href="#15" y="36.907"/><text x="3.006" y="40.748" class="f">rust_robotics_planning</text></svg><svg x="880"><use xlink:href="#a"/><use xlink:href="#b" x="-.004" y="43.395"/><use xlink:href="#1"/><use xlink:href="#2" y="2.171"/><use xlink:href="#3" y="4.342"/><use xlink:href="#1" y="6.513"/><use xlink:href="#4" y="10.855"/><use xlink:href="#5" y="13.026"/><use xlink:href="#6" y="15.197"/><use xlink:href="#7" y="17.368"/><use xlink:href="#8" y="19.539"/><use xlink:href="#9" y="21.71"/><use xlink:href="#10" y="23.881"/><use xlink:href="#11" y="26.052"/><use xlink:href="#12" y="30.394"/><use xlink:href="#13" y="32.565"/><use xlink:href="#14" y="34.736"/><use xlink:href="#15" y="36.907"/><use xlink:href="#16" y="39.078"/></svg><svg x="960"><use xlink:href="#a"/><use xlink:href="#b" x="-.004" y="47.737"/><use xlink:href="#1"/><use xlink:href="#2" y="2.171"/><use xlink:href="#3" y="4.342"/><use xlink:href="#1" y="6.513"/><use xlink:href="#4" y="10.855"/><use xlink:href="#5" y="13.026"/><use xlink:href="#6" y="15.197"/><use xlink:href="#7" y="17.368"/><use xlink:href="#8" y="19.539"/><use xlink:href="#9" y="21.71"/><use xlink:href="#10" y="23.881"/><use xlink:href="#11" y="26.052"/><use xlink:href="#12" y="30.394"/><use xlink:href="#13" y="32.565"/><use xlink:href="#14" y="34.736"/><use xlink:href="#15" y="36.907"/><use xlink:href="#16" y="39.078"/><use xlink:href="#17" y="43.42"/></svg><svg x="1040"><use xlink:href="#a"/><use xlink:href="#b" x="28.996" y="47.737"/><use xlink:href="#1"/><use xlink:href="#2" y="2.171"/><use xlink:href="#3" y="4.342"/><use xlink:href="#1" y="6.513"/><use xlink:href="#4" y="10.855"/><use xlink:href="#5" y="13.026"/><use xlink:href="#6" y="15.197"/><use xlink:href="#7" y="17.368"/><use xlink:href="#8" y="19.539"/><use xlink:href="#9" y="21.71"/><use xlink:href="#10" y="23.881"/><use xlink:href="#11" y="26.052"/><use xlink:href="#12" y="30.394"/><use xlink:href="#13" y="32.565"/><use xlink:href="#14" y="34.736"/><use xlink:href="#15" y="36.907"/><use xlink:href="#16" y="39.078"/><use xlink:href="#17" y="43.42"/><text x="3.006" y="49.432" class="f">pid_controller</text></svg><svg x="1120"><use xlink:href="#a"/><use xlink:href="#b" x="-.004" y="49.908"/><use xlink:href="#1"/><use xlink:href="#2" y="2.171"/><use xlink:href="#3" y="4.342"/><use xlink:href="#1" y="6.513"/><use xlink:href="#4" y="10.855"/><use xlink:href="#5" y="13.026"/><use xlink:href="#6" y="15.197"/><use xlink:href="#7" y="17.368"/><use xlink:href="#8" y="19.539"/><use xlink:href="#9" y="21.71"/><use xlink:href="#10" y="23.881"/><use xlink:href="#11" y="26.052"/><use xlink:href="#12" y="30.394"/><use xlink:href="#13" y="32.565"/><use xlink:href="#14" y="34.736"/><use xlink:href="#15" y="36.907"/><use xlink:href="#16" y="39.078"/><use xlink:href="#17" y="43.42"/><use xlink:href="#18" y="47.762"/></svg><svg x="1200"><use xlink:href="#a"/><use xlink:href="#b" x="28.996" y="49.908"/><use xlink:href="#1"/><use xlink:href="#2" y="2.171"/><use xlink:href="#3" y="4.342"/><use xlink:href="#1" y="6.513"/><use xlink:href="#4" y="10.855"/><use xlink:href="#5" y="13.026"/><use xlink:href="#6" y="15.197"/><use xlink:href="#7" y="17.368"/><use xlink:href="#8" y="19.539"/><use xlink:href="#9" y="21.71"/><use xlink:href="#10" y="23.881"/><use xlink:href="#11" y="26.052"/><use xlink:href="#12" y="30.394"/><use xlink:href="#13" y="32.565"/><use xlink:href="#14" y="34.736"/><use xlink:href="#15" y="36.907"/><use xlink:href="#16" y="39.078"/><use xlink:href="#17" y="43.42"/><use xlink:href="#18" y="47.762"/><text x="3.006" y="51.603" class="f">dbscan_clustering</text></svg><svg x="1280"><use xlink:href="#a"/><use xlink:href="#b" x="-.004" y="52.079"/><use xlink:href="#1"/><use xlink:href="#2" y="2.171"/><use xlink:href="#3" y="4.342"/><use xlink:href="#1" y="6.513"/><use xlink:href="#4" y="10.855"/><use xlink:href="#5" y="13.026"/><use xlink:href="#6" y="15.197"/><use xlink:href="#7" y="17.368"/><use xlink:href="#8" y="19.539"/><use xlink:href="#9" y="21.71"/><use xlink:href="#10" y="23.881"/><use xlink:href="#11" y="26.052"/><use xlink:href="#12" y="30.394"/><use xlink:href="#13" y="32.565"/><use xlink:href="#14" y="34.736"/><use xlink:href="#15" y="36.907"/><use xlink:href="#16" y="39.078"/><use xlink:href="#17" y="43.42"/><use xlink:href="#18" y="47.762"/><use xlink:href="#19" y="49.933"/></svg><svg x="1360"><use xlink:href="#a"/><use xlink:href="#b" x="28.996" y="52.079"/><use xlink:href="#1"/><use xlink:href="#2" y="2.171"/><use xlink:href="#3" y="4.342"/><use xlink:href="#1" y="6.513"/><use xlink:href="#4" y="10.855"/><use xlink:href="#5" y="13.026"/><use xlink:href="#6" y="15.197"/><use xlink:href="#7" y="17.368"/><use xlink:href="#8" y="19.539"/><use xlink:href="#9" y="21.71"/><use xlink:href="#10" y="23.881"/><use xlink:href="#11" y="26.052"/><use xlink:href="#12" y="30.394"/><use xlink:href="#13" y="32.565"/><use xlink:href="#14" y="34.736"/><use xlink:href="#15" y="36.907"/><use xlink:href="#16" y="39.078"/><use xlink:href="#17" y="43.42"/><use xlink:href="#18" y="47.762"/><use xlink:href="#19" y="49.933"/><text x="3.006" y="53.774" class="f">line_extraction</text></svg><svg x="1440"><use xlink:href="#a"/><use xlink:href="#b" x="-.004" y="54.25"/><use xlink:href="#1"/><use xlink:href="#2" y="2.171"/><use xlink:href="#3" y="4.342"/><use xlink:href="#1" y="6.513"/><use xlink:href="#4" y="10.855"/><use xlink:href="#5" y="13.026"/><use xlink:href="#6" y="15.197"/><use xlink:href="#7" y="17.368"/><use xlink:href="#8" y="19.539"/><use xlink:href="#9" y="21.71"/><use xlink:href="#10" y="23.881"/><use xlink:href="#11" y="26.052"/><use xlink:href="#12" y="30.394"/><use xlink:href="#13" y="32.565"/><use xlink:href="#14" y="34.736"/><use xlink:href="#15" y="36.907"/><use xlink:href="#16" y="39.078"/><use xlink:href="#17" y="43.42"/><use xlink:href="#18" y="47.762"/><use xlink:href="#19" y="49.933"/><use xlink:href="#20" y="52.104"/></svg><svg x="1520"><use xlink:href="#a"/><use xlink:href="#b" x="28.996" y="54.25"/><use xlink:href="#1"/><use xlink:href="#2" y="2.171"/><use xlink:href="#3" y="4.342"/><use xlink:href="#1" y="6.513"/><use xlink:href="#4" y="10.855"/><use xlink:href="#5" y="13.026"/><use xlink:href="#6" y="15.197"/><use xlink:href="#7" y="17.368"/><use xlink:href="#8" y="19.539"/><use xlink:href="#9" y="21.71"/><use xlink:href="#10" y="23.881"/><use xlink:href="#11" y="26.052"/><use xlink:href="#12" y="30.394"/><use xlink:href="#13" y="32.565"/><use xlink:href="#14" y="34.736"/><use xlink:href="#15" y="36.907"/><use xlink:href="#16" y="39.078"/><use xlink:href="#17" y="43.42"/><use xlink:href="#18" y="47.762"/><use xlink:href="#19" y="49.933"/><use xlink:href="#20" y="52.104"/><text x="3.006" y="55.945" class="f">complementary_filter</text></svg><svg x="1600"><use xlink:href="#a"/><use xlink:href="#b" x="-.004" y="56.421"/><use xlink:href="#1"/><use xlink:href="#2" y="2.171"/><use xlink:href="#3" y="4.342"/><use xlink:href="#1" y="6.513"/><use xlink:href="#4" y="10.855"/><use xlink:href="#5" y="13.026"/><use xlink:href="#6" y="15.197"/><use xlink:href="#7" y="17.368"/><use xlink:href="#8" y="19.539"/><use xlink:href="#9" y="21.71"/><use xlink:href="#10" y="23.881"/><use xlink:href="#11" y="26.052"/><use xlink:href="#12" y="30.394"/><use xlink:href="#13" y="32.565"/><use xlink:href="#14" y="34.736"/><use xlink:href="#15" y="36.907"/><use xlink:href="#16" y="39.078"/><use xlink:href="#17" y="43.42"/><use xlink:href="#18" y="47.762"/><use xlink:href="#19" y="49.933"/><use xlink:href="#20" y="52.104"/><use xlink:href="#21" y="54.275"/></svg><svg x="1680"><use xlink:href="#a"/><use xlink:href="#b" x="28.996" y="56.421"/><use xlink:href="#1"/><use xlink:href="#2" y="2.171"/><use xlink:href="#3" y="4.342"/><use xlink:href="#1" y="6.513"/><use xlink:href="#4" y="10.855"/><use xlink:href="#5" y="13.026"/><use xlink:href="#6" y="15.197"/><use xlink:href="#7" y="17.368"/><use xlink:href="#8" y="19.539"/><use xlink:href="#9" y="21.71"/><use xlink:href="#10" y="23.881"/><use xlink:href="#11" y="26.052"/><use xlink:href="#12" y="30.394"/><use xlink:href="#13" y="32.565"/><use xlink:href="#14" y="34.736"/><use xlink:href="#15" y="36.907"/><use xlink:href="#16" y="39.078"/><use xlink:href="#17" y="43.42"/><use xlink:href="#18" y="47.762"/><use xlink:href="#19" y="49.933"/><use xlink:href="#20" y="52.104"/><use xlink:href="#21" y="54.275"/><text x="3.006" y="58.116" class="f">iterated_ekf</text></svg><svg x="1760"><use xlink:href="#a"/><use xlink:href="#b" x="-.004" y="58.592"/><use xlink:href="#1"/><use xlink:href="#2" y="2.171"/><use xlink:href="#3" y="4.342"/><use xlink:href="#1" y="6.513"/><use xlink:href="#4" y="10.855"/><use xlink:href="#5" y="13.026"/><use xlink:href="#6" y="15.197"/><use xlink:href="#7" y="17.368"/><use xlink:href="#8" y="19.539"/><use xlink:href="#9" y="21.71"/><use xlink:href="#10" y="23.881"/><use xlink:href="#11" y="26.052"/><use xlink:href="#12" y="30.394"/><use xlink:href="#13" y="32.565"/><use xlink:href="#14" y="34.736"/><use xlink:href="#15" y="36.907"/><use xlink:href="#16" y="39.078"/><use xlink:href="#17" y="43.42"/><use xlink:href="#18" y="47.762"/><use xlink:href="#19" y="49.933"/><use xlink:href="#20" y="52.104"/><use xlink:href="#21" y="54.275"/><use xlink:href="#22" y="56.446"/></svg><svg x="1840"><use xlink:href="#a"/><use xlink:href="#b" x="28.996" y="58.592"/><use xlink:href="#1"/><use xlink:href="#2" y="2.171"/><use xlink:href="#3" y="4.342"/><use xlink:href="#1" y="6.513"/><use xlink:href="#4" y="10.855"/><use xlink:href="#5" y="13.026"/><use xlink:href="#6" y="15.197"/><use xlink:href="#7" y="17.368"/><use xlink:href="#8" y="19.539"/><use xlink:href="#9" y="21.71"/><use xlink:href="#10" y="23.881"/><use xlink:href="#11" y="26.052"/><use xlink:href="#12" y="30.394"/><use xlink:href="#13" y="32.565"/><use xlink:href="#14" y="34.736"/><use xlink:href="#15" y="36.907"/><use xlink:href="#16" y="39.078"/><use xlink:href="#17" y="43.42"/><use xlink:href="#18" y="47.762"/><use xlink:href="#19" y="49.933"/><use xlink:href="#20" y="52.104"/><use xlink:href="#21" y="54.275"/><use xlink:href="#22" y="56.446"/><text x="3.006" y="60.287" class="f">bidirectional_rrt</text></svg><svg x="1920"><use xlink:href="#a"/><use xlink:href="#b" x="28.996" y="60.763"/><use xlink:href="#1"/><use xlink:href="#2" y="2.171"/><use xlink:href="#3" y="4.342"/><use xlink:href="#1" y="6.513"/><use xlink:href="#4" y="10.855"/><use xlink:href="#5" y="13.026"/><use xlink:href="#6" y="15.197"/><use xlink:href="#7" y="17.368"/><use xlink:href="#8" y="19.539"/><use xlink:href="#9" y="21.71"/><use xlink:href="#10" y="23.881"/><use xlink:href="#11" y="26.052"/><use xlink:href="#12" y="30.394"/><use xlink:href="#13" y="32.565"/><use xlink:href="#14" y="34.736"/><use xlink:href="#15" y="36.907"/><use xlink:href="#16" y="39.078"/><use xlink:href="#17" y="43.42"/><use xlink:href="#18" y="47.762"/><use xlink:href="#19" y="49.933"/><use xlink:href="#20" y="52.104"/><use xlink:href="#21" y="54.275"/><use xlink:href="#22" y="56.446"/><use xlink:href="#23" y="58.617"/><text x="3.006" y="62.458" class="f">tangent_bug</text></svg><svg x="2000"><use xlink:href="#a"/><use xlink:href="#b" x="-.004" y="62.934"/><use xlink:href="#1"/><use xlink:href="#2" y="2.171"/><use xlink:href="#3" y="4.342"/><use xlink:href="#1" y="6.513"/><use xlink:href="#4" y="10.855"/><use xlink:href="#5" y="13.026"/><use xlink:href="#6" y="15.197"/><use xlink:href="#7" y="17.368"/><use xlink:href="#8" y="19.539"/><use xlink:href="#9" y="21.71"/><use xlink:href="#10" y="23.881"/><use xlink:href="#11" y="26.052"/><use xlink:href="#12" y="30.394"/><use xlink:href="#13" y="32.565"/><use xlink:href="#14" y="34.736"/><use xlink:href="#15" y="36.907"/><use xlink:href="#16" y="39.078"/><use xlink:href="#17" y="43.42"/><use xlink:href="#18" y="47.762"/><use xlink:href="#19" y="49.933"/><use xlink:href="#20" y="52.104"/><use xlink:href="#21" y="54.275"/><use xlink:href="#22" y="56.446"/><use xlink:href="#23" y="58.617"/><use xlink:href="#24" y="60.788"/></svg><svg x="2080"><use xlink:href="#a"/><use xlink:href="#b" x="-.004" y="65.105"/><use xlink:href="#1"/><use xlink:href="#2" y="2.171"/><use xlink:href="#3" y="4.342"/><use xlink:href="#1" y="6.513"/><use xlink:href="#4" y="10.855"/><use xlink:href="#5" y="13.026"/><use xlink:href="#6" y="15.197"/><use xlink:href="#7" y="17.368"/><use xlink:href="#8" y="19.539"/><use xlink:href="#9" y="21.71"/><use xlink:href="#10" y="23.881"/><use xlink:href="#11" y="26.052"/><use xlink:href="#12" y="30.394"/><use xlink:href="#13" y="32.565"/><use xlink:href="#14" y="34.736"/><use xlink:href="#15" y="36.907"/><use xlink:href="#16" y="39.078"/><use xlink:href="#17" y="43.42"/><use xlink:href="#18" y="47.762"/><use xlink:href="#19" y="49.933"/><use xlink:href="#20" y="52.104"/><use xlink:href="#21" y="54.275"/><use xlink:href="#22" y="56.446"/><use xlink:href="#23" y="58.617"/><use xlink:href="#24" y="60.788"/></svg><svg x="2160"><use xlink:href="#a"/><use xlink:href="#b" x="-.004" y="65.105"/><use xlink:href="#5"/><use xlink:href="#6" y="2.171"/><use xlink:href="#7" y="4.342"/><use xlink:href="#8" y="6.513"/><use xlink:href="#9" y="8.684"/><use xlink:href="#10" y="10.855"/><use xlink:href="#11" y="13.026"/><use xlink:href="#12" y="17.368"/><use xlink:href="#13" y="19.539"/><use xlink:href="#14" y="21.71"/><use xlink:href="#15" y="23.881"/><use xlink:href="#16" y="26.052"/><use xlink:href="#17" y="30.394"/><use xlink:href="#18" y="34.736"/><use xlink:href="#19" y="36.907"/><use xlink:href="#20" y="39.078"/><use xlink:href="#21" y="41.249"/><use xlink:href="#22" y="43.42"/><use xlink:href="#23" y="45.591"/><use xlink:href="#24" y="47.762"/><text y="53.774" class="f">&gt;&gt;</text><text x="3.006" y="53.774" class="f">Total:</text><text x="10.02" y="53.774" class="f">7</text><text x="12.024" y="53.774" class="f">algorithms,</text><text x="24.048" y="53.774" class="f">29</text><text x="27.054" y="53.774" class="f">tests,</text><text x="34.068" y="53.774" class="f">0</text><text x="36.072" y="53.774" class="f">failures</text><text y="55.945" class="f">&gt;&gt;</text><text x="3.006" y="55.945" class="f">All</text><text x="7.014" y="55.945" class="f">implemented</text><text x="19.038" y="55.945" class="f">via:</text><text x="24.048" y="55.945" class="f">cursor</text><text x="31.062" y="55.945" class="f">agent</text><text x="37.074" y="55.945" class="f">-p</text><text x="40.08" y="55.945" class="f">-f</text><text x="43.086" y="55.945" class="f">--model</text><text x="51.102" y="55.945" class="f">claude-4.6-sonnet-medium</text><use xlink:href="#1" y="58.617"/><text x="2.004" y="62.458" class="f">Wave</text><text x="7.014" y="62.458" class="f">1</text><text x="9.018" y="62.458" class="f">Complete!</text><use xlink:href="#1" y="62.959"/></svg></svg></g></g></svg></svg>