<svg xmlns="http://www.w3.org/2000/svg" width="900" height="460" viewBox="0 0 900 460">
<rect width="900" height="460" fill="#fbfbfd"/>
<text x="40" y="32" font-family="sans-serif" font-size="18" fill="#1d1d1f">Distributed formation consensus via ADMM</text>
<text x="40" y="52" font-family="sans-serif" font-size="12" fill="#6e6e73">gray = preferred, blue = final formation, x = consensus center; two agents are confined to the shaded corridor</text>
<rect x="40.0" y="70.0" width="225.8" height="360.0" fill="#34c75911" stroke="#34c759" stroke-dasharray="4 3"/>
<polygon points="265.8,251.5 226.4,193.0 147.6,193.0 108.3,251.5 147.6,310.0 226.4,310.0" fill="#0a84ff14" stroke="#0a84ff" stroke-width="1.5"/>
<line x1="386.5" y1="232.0" x2="265.8" y2="251.5" stroke="#c7c7cc" stroke-width="1"/>
<circle cx="386.5" cy="232.0" r="4" fill="#8e8e93"/>
<circle cx="265.8" cy="251.5" r="5" fill="#0a84ff"/>
<line x1="302.5" y1="142.0" x2="226.4" y2="193.0" stroke="#c7c7cc" stroke-width="1"/>
<circle cx="302.5" cy="142.0" r="4" fill="#8e8e93"/>
<circle cx="226.4" cy="193.0" r="5" fill="#0a84ff"/>
<line x1="155.5" y1="169.0" x2="147.6" y2="193.0" stroke="#c7c7cc" stroke-width="1"/>
<circle cx="155.5" cy="169.0" r="4" fill="#8e8e93"/>
<circle cx="147.6" cy="193.0" r="5" fill="#0a84ff"/>
<line x1="113.5" y1="277.0" x2="108.3" y2="251.5" stroke="#c7c7cc" stroke-width="1"/>
<circle cx="113.5" cy="277.0" r="4" fill="#8e8e93"/>
<circle cx="108.3" cy="251.5" r="5" fill="#0a84ff"/>
<line x1="208.0" y1="349.0" x2="147.6" y2="310.0" stroke="#c7c7cc" stroke-width="1"/>
<circle cx="208.0" cy="349.0" r="4" fill="#8e8e93"/>
<circle cx="147.6" cy="310.0" r="5" fill="#0a84ff"/>
<line x1="344.5" y1="340.0" x2="226.4" y2="310.0" stroke="#c7c7cc" stroke-width="1"/>
<circle cx="344.5" cy="340.0" r="4" fill="#8e8e93"/>
<circle cx="226.4" cy="310.0" r="5" fill="#0a84ff"/>
<text x="187.0" y="256.5" font-family="sans-serif" font-size="16" fill="#ff453a" text-anchor="middle">x</text>
<rect x="520" y="90" width="350.0" height="270.0" fill="#ffffff" stroke="#e5e5ea"/>
<text x="520" y="84.0" font-family="sans-serif" font-size="12" fill="#6e6e73">residual convergence (log10)</text>
<polyline points="520.0,90.0 523.9,98.2 527.8,102.8 531.7,104.5 535.6,104.9 539.4,105.5 543.3,109.4 547.2,112.4 551.1,115.2 555.0,117.9 558.9,120.6 562.8,123.4 566.7,126.2 570.6,129.0 574.4,131.8 578.3,134.6 582.2,137.4 586.1,140.3 590.0,143.1 593.9,146.0 597.8,148.8 601.7,151.6 605.6,154.5 609.4,157.3 613.3,160.1 617.2,163.0 621.1,165.8 625.0,168.7 628.9,171.5 632.8,174.3 636.7,177.2 640.6,180.0 644.4,182.8 648.3,185.7 652.2,188.5 656.1,191.4 660.0,194.2 663.9,197.0 667.8,199.9 671.7,202.7 675.6,205.6 679.4,208.4 683.3,211.2 687.2,214.1 691.1,216.9 695.0,219.7 698.9,222.6 702.8,225.4 706.7,228.3 710.6,231.1 714.4,233.9 718.3,236.8 722.2,239.6 726.1,242.5 730.0,245.3 733.9,248.1 737.8,251.0 741.7,253.8 745.6,256.6 749.4,259.5 753.3,262.3 757.2,265.2 761.1,268.0 765.0,270.8 768.9,273.7 772.8,276.5 776.7,279.4 780.6,282.2 784.4,285.0 788.3,287.9 792.2,290.7 796.1,293.5 800.0,296.4 803.9,299.2 807.8,302.1 811.7,304.9 815.6,307.7 819.4,310.6 823.3,313.4 827.2,316.3 831.1,319.1 835.0,321.9 838.9,324.8 842.8,327.6 846.7,330.4 850.6,333.3 854.4,336.1 858.3,339.0 862.2,341.8 866.1,344.6 870.0,347.5" fill="none" stroke="#0a84ff" stroke-width="1.8"/>
<polyline points="520.0,93.3 523.9,104.8 527.8,116.6 531.7,128.8 535.6,141.7 539.4,149.4 543.3,132.9 547.2,130.2 551.1,130.5 555.0,131.9 558.9,134.0 562.8,136.4 566.7,139.0 570.6,141.7 574.4,144.4 578.3,147.2 582.2,150.0 586.1,152.8 590.0,155.7 593.9,158.5 597.8,161.3 601.7,164.2 605.6,167.0 609.4,169.8 613.3,172.7 617.2,175.5 621.1,178.3 625.0,181.2 628.9,184.0 632.8,186.9 636.7,189.7 640.6,192.5 644.4,195.4 648.3,198.2 652.2,201.1 656.1,203.9 660.0,206.7 663.9,209.6 667.8,212.4 671.7,215.2 675.6,218.1 679.4,220.9 683.3,223.8 687.2,226.6 691.1,229.4 695.0,232.3 698.9,235.1 702.8,238.0 706.7,240.8 710.6,243.6 714.4,246.5 718.3,249.3 722.2,252.1 726.1,255.0 730.0,257.8 733.9,260.7 737.8,263.5 741.7,266.3 745.6,269.2 749.4,272.0 753.3,274.9 757.2,277.7 761.1,280.5 765.0,283.4 768.9,286.2 772.8,289.0 776.7,291.9 780.6,294.7 784.4,297.6 788.3,300.4 792.2,303.2 796.1,306.1 800.0,308.9 803.9,311.7 807.8,314.6 811.7,317.4 815.6,320.3 819.4,323.1 823.3,325.9 827.2,328.8 831.1,331.6 835.0,334.5 838.9,337.3 842.8,340.1 846.7,343.0 850.6,345.8 854.4,348.6 858.3,351.5 862.2,354.3 866.1,357.2 870.0,360.0" fill="none" stroke="#ff9f0a" stroke-width="1.8"/>
<text x="530.0" y="108.0" font-family="sans-serif" font-size="11" fill="#0a84ff">primal</text>
<text x="530.0" y="124.0" font-family="sans-serif" font-size="11" fill="#ff9f0a">dual</text>
<text x="695.0" y="380.0" font-family="sans-serif" font-size="11" fill="#6e6e73" text-anchor="middle">iteration (91 to converge)</text>
</svg>
