<svg xmlns="http://www.w3.org/2000/svg" width="920" height="440" viewBox="0 0 920 440">
<rect width="920" height="440" fill="#fbfbfd"/>
<text x="40" y="32" font-family="sans-serif" font-size="18" fill="#1d1d1f">Decentralized formation consensus over a communication graph</text>
<text x="40" y="52" font-family="sans-serif" font-size="12" fill="#6e6e73">left: ring graph and final formation; right: disagreement vs iteration — connectivity sets the rate</text>
<line x1="271.0" y1="222.3" x2="256.3" y2="188.9" stroke="#d0d0d5" stroke-width="1"/>
<line x1="256.3" y1="188.9" x2="221.0" y2="175.1" stroke="#d0d0d5" stroke-width="1"/>
<line x1="221.0" y1="175.1" x2="185.6" y2="188.9" stroke="#d0d0d5" stroke-width="1"/>
<line x1="185.6" y1="188.9" x2="171.0" y2="222.3" stroke="#d0d0d5" stroke-width="1"/>
<line x1="171.0" y1="222.3" x2="185.6" y2="255.7" stroke="#d0d0d5" stroke-width="1"/>
<line x1="185.6" y1="255.7" x2="221.0" y2="269.5" stroke="#d0d0d5" stroke-width="1"/>
<line x1="221.0" y1="269.5" x2="256.3" y2="255.7" stroke="#d0d0d5" stroke-width="1"/>
<line x1="256.3" y1="255.7" x2="271.0" y2="222.3" stroke="#d0d0d5" stroke-width="1"/>
<circle cx="370.0" cy="240.0" r="3" fill="#c7c7cc"/>
<circle cx="271.0" cy="222.3" r="5" fill="#ff9f0a"/>
<circle cx="255.0" cy="115.9" r="3" fill="#c7c7cc"/>
<circle cx="256.3" cy="188.9" r="5" fill="#ff9f0a"/>
<circle cx="86.3" cy="120.4" r="3" fill="#c7c7cc"/>
<circle cx="221.0" cy="175.1" r="5" fill="#ff9f0a"/>
<circle cx="122.6" cy="248.9" r="3" fill="#c7c7cc"/>
<circle cx="185.6" cy="188.9" r="5" fill="#ff9f0a"/>
<circle cx="308.2" cy="368.2" r="3" fill="#c7c7cc"/>
<circle cx="171.0" cy="222.3" r="5" fill="#ff9f0a"/>
<circle cx="358.6" cy="354.6" r="3" fill="#c7c7cc"/>
<circle cx="185.6" cy="255.7" r="5" fill="#ff9f0a"/>
<circle cx="196.5" cy="222.2" r="3" fill="#c7c7cc"/>
<circle cx="221.0" cy="269.5" r="5" fill="#ff9f0a"/>
<circle cx="70.5" cy="108.3" r="3" fill="#c7c7cc"/>
<circle cx="256.3" cy="255.7" r="5" fill="#ff9f0a"/>
<text x="221.0" y="227.3" font-family="sans-serif" font-size="16" fill="#ff453a" text-anchor="middle">x</text>
<rect x="470" y="80" width="420.0" height="300.0" fill="#ffffff" stroke="#e5e5ea"/>
<polyline points="470.0,89.8 475.3,99.8 480.6,114.0 485.9,124.2 491.3,123.3 496.6,124.6 501.9,128.6 507.2,133.0 512.5,136.1 517.8,138.7 523.2,142.1 528.5,146.6 533.8,151.9 539.1,156.8 544.4,160.1 549.7,162.4 555.1,164.7 560.4,167.5 565.7,171.3 571.0,175.9 576.3,181.4 581.6,187.6 587.0,194.3 592.3,200.8 597.6,206.6 602.9,211.3 608.2,215.1 613.5,218.1 618.9,220.1 624.2,220.9 629.5,220.9 634.8,220.7 640.1,220.9 645.4,221.6 650.8,222.8 656.1,224.5 661.4,226.6 666.7,229.1 672.0,231.9 677.3,234.9 682.7,238.2 688.0,241.8 693.3,245.7 698.6,249.9 703.9,254.6 709.2,259.7 714.6,265.5 719.9,272.2 725.2,280.1 730.5,289.7 735.8,300.6 741.1,304.5 746.5,299.7 751.8,295.9 757.1,293.8 762.4,293.0 767.7,293.0 773.0,293.7 778.4,294.9 783.7,296.6 789.0,298.5 794.3,300.9 799.6,303.5 804.9,306.4 810.3,309.6 815.6,313.2 820.9,317.0 826.2,321.2 831.5,325.8 836.8,330.9 842.2,336.5 847.5,343.0 852.8,350.5 858.1,359.7 863.4,370.6 868.7,377.3 874.1,373.2 879.4,368.8" fill="none" stroke="#ff453a" stroke-width="1.8"/>
<text x="482.0" y="98.0" font-family="sans-serif" font-size="12" fill="#ff453a">line (78 iters)</text>
<polyline points="470.0,89.6 475.3,102.1 480.6,111.3 485.9,115.0 491.3,122.0 496.6,134.9 501.9,139.5 507.2,133.1 512.5,131.0 517.8,132.0 523.2,135.1 528.5,140.0 533.8,147.1 539.1,157.8 544.4,178.1 549.7,186.4 555.1,169.4 560.4,164.7 565.7,163.9 571.0,165.6 576.3,169.1 581.6,174.7 587.0,182.9 592.3,195.9 597.6,229.9 602.9,209.8 608.2,199.5 613.5,196.6 618.9,196.8 624.2,199.1 629.5,203.4 634.8,209.8 640.1,219.3 645.4,235.6 650.8,268.9 656.1,237.1 661.4,230.5 666.7,228.8 672.0,229.9 677.3,233.0 682.7,237.9 688.0,245.3 693.3,256.5 698.6,279.0 703.9,281.3 709.2,266.3 714.6,262.0 719.9,261.5 725.2,263.3 730.5,267.0 735.8,272.8 741.1,281.2 746.5,294.8 751.8,336.6 757.1,305.8 762.4,296.6 767.7,294.0 773.0,294.4 778.4,296.9 783.7,301.3 789.0,307.9 794.3,317.8 799.6,335.1 804.9,359.1 810.3,333.7 815.6,327.7 820.9,326.3 826.2,327.6 831.5,330.8 836.8,335.9 842.2,343.5 847.5,355.2 852.8,380.0 858.1,376.5 863.4,363.2 868.7,359.3 874.1,359.0 879.4,361.0 884.7,364.9 890.0,370.8" fill="none" stroke="#ff9f0a" stroke-width="1.8"/>
<text x="482.0" y="114.0" font-family="sans-serif" font-size="12" fill="#ff9f0a">ring (80 iters)</text>
<polyline points="470.0,80.0 475.3,162.3 480.6,96.6 485.9,98.9 491.3,114.6 496.6,153.9 501.9,127.1 507.2,131.5 512.5,149.9 517.8,173.3 523.2,158.1 528.5,164.4 533.8,186.1 539.1,198.5 544.4,189.4 549.7,197.6 555.1,223.7 560.4,226.0 565.7,221.0 571.0,231.1 576.3,263.8 581.6,254.7 587.0,252.9 592.3,265.0 597.6,310.9 602.9,284.3 608.2,285.1 613.5,299.3 618.9,363.9 624.2,314.5 629.5,317.6 634.8,334.1 640.1,367.1 645.4,345.2 650.8,350.3 656.1,369.7" fill="none" stroke="#0a84ff" stroke-width="1.8"/>
<text x="482.0" y="130.0" font-family="sans-serif" font-size="12" fill="#0a84ff">complete (36 iters)</text>
<text x="680.0" y="402.0" font-family="sans-serif" font-size="11" fill="#6e6e73" text-anchor="middle">iteration -> (disagreement, log10)</text>
</svg>
