<svg xmlns="http://www.w3.org/2000/svg" width="760" height="380" viewBox="0 0 760 380">
<rect width="760" height="380" fill="#fbfbfd"/>
<text x="70" y="34" font-family="sans-serif" font-size="20" fill="#1d1d1f">BranchOut closed loop: route completion by scenario</text>
<text x="70" y="56" font-family="sans-serif" font-size="13" fill="#6e6e73">receding-horizon rollout; labels show no-collision rate and min time-to-collision</text>
<line x1="70" y1="300.0" x2="690.0" y2="300.0" stroke="#e5e5ea" stroke-width="1"/>
<text x="62.0" y="304.0" font-family="sans-serif" font-size="11" fill="#6e6e73" text-anchor="end">0.0</text>
<line x1="70" y1="198.0" x2="690.0" y2="198.0" stroke="#e5e5ea" stroke-width="1"/>
<text x="62.0" y="202.0" font-family="sans-serif" font-size="11" fill="#6e6e73" text-anchor="end">0.5</text>
<line x1="70" y1="96.0" x2="690.0" y2="96.0" stroke="#e5e5ea" stroke-width="1"/>
<text x="62.0" y="100.0" font-family="sans-serif" font-size="11" fill="#6e6e73" text-anchor="end">1.0</text>
<rect x="115.0" y="96.0" width="65.1" height="204.0" fill="#0a84ff" rx="3"/>
<text x="147.5" y="88.0" font-family="sans-serif" font-size="12" fill="#1d1d1f" text-anchor="middle">100%</text>
<text x="147.5" y="322.0" font-family="sans-serif" font-size="13" fill="#1d1d1f" text-anchor="middle">wide-overtake</text>
<text x="147.5" y="338.0" font-family="sans-serif" font-size="11" fill="#6e6e73" text-anchor="middle">no-coll 100% · ttc inf</text>
<rect x="269.9" y="235.4" width="65.1" height="64.6" fill="#ff9f0a" rx="3"/>
<text x="302.5" y="227.4" font-family="sans-serif" font-size="12" fill="#1d1d1f" text-anchor="middle">32%</text>
<text x="302.5" y="322.0" font-family="sans-serif" font-size="13" fill="#1d1d1f" text-anchor="middle">forced-yield</text>
<text x="302.5" y="338.0" font-family="sans-serif" font-size="11" fill="#6e6e73" text-anchor="middle">no-coll 100% · ttc 1.07</text>
<rect x="424.9" y="191.4" width="65.1" height="108.6" fill="#ff9f0a" rx="3"/>
<text x="457.5" y="183.4" font-family="sans-serif" font-size="12" fill="#1d1d1f" text-anchor="middle">53%</text>
<text x="457.5" y="322.0" font-family="sans-serif" font-size="13" fill="#1d1d1f" text-anchor="middle">moving-lead</text>
<text x="457.5" y="338.0" font-family="sans-serif" font-size="11" fill="#6e6e73" text-anchor="middle">no-coll 100% · ttc 1.75</text>
<rect x="580.0" y="96.0" width="65.1" height="204.0" fill="#0a84ff" rx="3"/>
<text x="612.5" y="88.0" font-family="sans-serif" font-size="12" fill="#1d1d1f" text-anchor="middle">100%</text>
<text x="612.5" y="322.0" font-family="sans-serif" font-size="13" fill="#1d1d1f" text-anchor="middle">oncoming</text>
<text x="612.5" y="338.0" font-family="sans-serif" font-size="11" fill="#6e6e73" text-anchor="middle">no-coll 100% · ttc inf</text>
<rect x="520" y="70" width="14" height="14" fill="#0a84ff" rx="3"/>
<text x="540" y="82" font-family="sans-serif" font-size="12" fill="#1d1d1f">reached goal</text>
<rect x="520" y="90" width="14" height="14" fill="#ff9f0a" rx="3"/>
<text x="540" y="102" font-family="sans-serif" font-size="12" fill="#1d1d1f">yielded / incomplete</text>
</svg>
