<svg xmlns="http://www.w3.org/2000/svg" width="832" height="636" viewBox="0 0 832 636">
<rect width="832" height="636" fill="#fbfbfd"/>
<text x="24" y="38" font-family="sans-serif" font-size="20" fill="#1d1d1f">CBF safety filter over convex polytope obstacles</text>
<text x="24" y="60" font-family="sans-serif" font-size="13" fill="#6e6e73">orange = raw go-to-goal (drives into obstacles); blue = CBF-filtered (minimal correction, stays clear)</text>
<rect x="24.0" y="84.0" width="380" height="240" fill="#ffffff" stroke="#e5e5ea"/>
<polygon points="171.8,294.0 256.2,294.0 256.2,206.7 171.8,206.7" fill="#ff3b30" fill-opacity="0.18" stroke="#ff3b30" stroke-width="1.5"/>
<polyline points="55.7,204.0 59.4,204.0 63.1,204.0 66.8,204.0 70.4,204.0 74.1,204.0 77.8,204.0 81.5,204.0 85.2,204.0 88.9,204.0 92.6,204.0 96.3,204.0 100.0,204.0 103.7,204.0 107.4,204.0 111.1,204.0 114.8,204.0 118.5,204.0 122.2,204.0 125.9,204.0 129.6,204.0 133.2,204.0 136.9,204.0 140.6,204.0 144.3,204.0 148.0,204.0 151.7,204.0 155.4,204.0 159.1,204.0 162.8,204.0 166.5,204.0 170.2,204.0 173.9,204.0 177.6,204.0 181.3,204.0 185.0,204.0 188.7,204.0 192.4,204.0 196.1,204.0 199.7,204.0 203.4,204.0 207.1,204.0 210.8,204.0 214.5,204.0 218.2,204.0 221.9,204.0 225.6,204.0 229.3,204.0 233.0,204.0 236.7,204.0 240.4,204.0 244.1,204.0 247.8,204.0 251.5,204.0 255.2,204.0 258.9,204.0 262.6,204.0 266.2,204.0 269.9,204.0 273.6,204.0 277.3,204.0 281.0,204.0 284.7,204.0 288.4,204.0 292.1,204.0 295.8,204.0 299.5,204.0 303.2,204.0 306.9,204.0 310.6,204.0 314.3,204.0 318.0,204.0 321.7,204.0 325.4,204.0 328.9,204.0 332.1,204.0 335.2,204.0 337.9,204.0 340.5,204.0 342.9,204.0 345.1,204.0 347.2,204.0 349.0,204.0 350.8,204.0 352.4,204.0 353.9,204.0 355.3,204.0 356.6,204.0 357.7,204.0 358.8,204.0 359.9,204.0 360.8,204.0 361.7,204.0 362.5,204.0 363.2,204.0 363.9,204.0 364.5,204.0" fill="none" stroke="#ff9f0a" stroke-width="2.5" stroke-dasharray="5 4"/>
<polyline points="55.7,204.0 59.4,204.0 63.1,204.0 66.8,204.0 70.4,204.0 74.1,204.0 77.8,204.0 81.5,204.0 85.2,204.0 88.9,204.0 92.6,204.0 96.3,204.0 100.0,204.0 103.7,204.0 107.4,204.0 111.1,204.0 114.8,204.0 118.5,204.0 122.2,204.0 125.7,204.0 128.8,204.0 131.6,203.9 134.2,203.8 136.5,203.7 138.6,203.6 140.5,203.4 142.2,203.2 143.7,203.0 145.1,202.7 146.4,202.3 147.6,201.9 148.7,201.5 149.7,200.9 150.7,200.2 151.7,199.5 152.7,198.6 153.7,197.5 154.9,196.3 156.2,195.0 157.8,193.6 159.7,192.1 161.9,190.6 164.7,189.2 167.9,188.3 171.4,187.8 175.1,188.1 178.8,188.4 182.5,188.7 186.1,189.0 189.8,189.2 193.5,189.5 197.2,189.7 200.9,189.8 204.6,190.0 208.2,190.1 211.9,190.3 215.6,190.4 219.3,190.5 223.0,190.6 226.6,190.7 230.3,190.8 234.0,190.8 237.7,190.9 241.4,190.9 245.0,191.0 248.7,191.0 252.4,191.1 256.1,191.1 259.7,191.2 263.4,191.6 267.1,192.0 270.8,192.4 274.4,192.8 278.1,193.2 281.8,193.7 285.4,194.1 289.1,194.5 292.8,194.9 296.5,195.3 300.1,195.8 303.8,196.2 307.5,196.6 311.1,197.0 314.8,197.4 318.5,197.9 322.2,198.3 325.8,198.7 329.3,199.1 332.5,199.5 335.5,199.8 338.3,200.1 340.8,200.4 343.2,200.7 345.4,200.9 347.4,201.2 349.3,201.4 351.0,201.6 352.6,201.7 354.1,201.9 355.5,202.1 356.7,202.2 357.9,202.4 359.0,202.5 360.0,202.6 360.9,202.7 361.8,202.8 362.6,202.9 363.3,203.0 364.0,203.0 364.6,203.1" fill="none" stroke="#0a84ff" stroke-width="2.5" />
<circle cx="55.7" cy="204.0" r="5" fill="#1d1d1f"/>
<circle cx="372.3" cy="204.0" r="5" fill="#34c759"/>
<text x="34.0" y="104.0" font-family="sans-serif" font-size="14" fill="#1d1d1f">graze-box</text>
<text x="34.0" y="312.0" font-family="sans-serif" font-size="11" fill="#6e6e73">nominal clearance -0.15 (hit) · filtered 0.09 (48 interventions)</text>
<rect x="428.0" y="84.0" width="380" height="240" fill="#ffffff" stroke="#e5e5ea"/>
<polygon points="546.8,294.0 604.8,294.0 604.8,206.7 546.8,206.7" fill="#ff3b30" fill-opacity="0.18" stroke="#ff3b30" stroke-width="1.5"/>
<polygon points="652.3,201.3 710.4,201.3 710.4,114.0 652.3,114.0" fill="#ff3b30" fill-opacity="0.18" stroke="#ff3b30" stroke-width="1.5"/>
<polyline points="459.7,204.0 463.4,204.0 467.1,204.0 470.8,204.0 474.4,204.0 478.1,204.0 481.8,204.0 485.5,204.0 489.2,204.0 492.9,204.0 496.6,204.0 500.3,204.0 504.0,204.0 507.7,204.0 511.4,204.0 515.1,204.0 518.8,204.0 522.5,204.0 526.2,204.0 529.9,204.0 533.6,204.0 537.2,204.0 540.9,204.0 544.6,204.0 548.3,204.0 552.0,204.0 555.7,204.0 559.4,204.0 563.1,204.0 566.8,204.0 570.5,204.0 574.2,204.0 577.9,204.0 581.6,204.0 585.3,204.0 589.0,204.0 592.7,204.0 596.4,204.0 600.1,204.0 603.8,204.0 607.4,204.0 611.1,204.0 614.8,204.0 618.5,204.0 622.2,204.0 625.9,204.0 629.6,204.0 633.3,204.0 637.0,204.0 640.7,204.0 644.4,204.0 648.1,204.0 651.8,204.0 655.5,204.0 659.2,204.0 662.9,204.0 666.6,204.0 670.2,204.0 673.9,204.0 677.6,204.0 681.3,204.0 685.0,204.0 688.7,204.0 692.4,204.0 696.1,204.0 699.8,204.0 703.5,204.0 707.2,204.0 710.9,204.0 714.6,204.0 718.3,204.0 722.0,204.0 725.7,204.0 729.4,204.0 732.9,204.0 736.1,204.0 739.2,204.0 741.9,204.0 744.5,204.0 746.9,204.0 749.1,204.0 751.2,204.0 753.0,204.0 754.8,204.0 756.4,204.0 757.9,204.0 759.3,204.0 760.6,204.0 761.7,204.0 762.8,204.0 763.9,204.0 764.8,204.0 765.7,204.0 766.5,204.0 767.2,204.0 767.9,204.0 768.5,204.0" fill="none" stroke="#ff9f0a" stroke-width="2.5" stroke-dasharray="5 4"/>
<polyline points="459.7,204.0 463.4,204.0 467.1,204.0 470.8,204.0 474.4,204.0 478.1,204.0 481.8,204.0 485.5,204.0 489.2,204.0 492.9,204.0 496.6,204.0 500.2,204.0 503.4,204.0 506.2,203.9 508.8,203.8 511.2,203.7 513.3,203.6 515.2,203.4 516.9,203.2 518.5,203.0 519.9,202.7 521.2,202.4 522.4,202.0 523.5,201.5 524.5,201.0 525.5,200.3 526.5,199.5 527.5,198.6 528.6,197.6 529.7,196.4 531.0,195.1 532.6,193.7 534.5,192.1 536.7,190.6 539.5,189.3 542.6,188.3 546.2,187.8 549.8,188.1 553.5,188.3 557.2,188.6 560.9,188.8 564.6,189.1 568.3,189.3 572.0,189.5 575.6,189.7 579.3,189.9 583.0,190.1 586.7,190.2 590.4,190.3 594.1,190.4 597.8,190.5 601.4,190.6 605.0,190.7 608.3,190.8 611.2,191.1 613.8,191.4 616.2,191.7 618.3,192.0 620.3,192.3 622.0,192.5 623.5,192.8 624.9,193.1 626.2,193.4 627.3,193.6 628.4,193.9 629.3,194.1 630.1,194.4 630.8,194.6 631.5,194.8 632.1,195.1 632.7,195.3 633.1,195.5 633.6,195.8 634.0,196.0 634.3,196.2 634.6,196.4 634.9,196.6 635.2,196.8 635.4,197.0 635.6,197.1 635.8,197.3 636.0,197.5 636.2,197.7 636.3,197.8 636.4,198.0 636.5,198.2 636.6,198.3 636.7,198.5 636.8,198.6 636.9,198.7 636.9,198.9 637.0,199.0 637.0,199.2 637.1,199.3 637.1,199.4 637.2,199.5 637.2,199.6 637.2,199.8 637.3,199.9 637.3,200.0 637.3,200.1 637.3,200.2 637.4,200.3 637.4,200.4 637.4,200.5 637.4,200.6 637.4,200.7 637.4,200.8 637.4,200.9 637.4,200.9 637.5,201.0 637.5,201.1 637.5,201.2 637.5,201.2 637.5,201.3 637.5,201.4 637.5,201.5 637.5,201.6 637.5,201.8 637.5,202.0 637.5,202.2 637.5,202.5 637.6,202.8 637.6,203.2 637.7,203.7 637.8,204.3 637.9,205.1 638.2,206.0 638.5,207.0 639.0,208.3 639.7,209.7 640.8,211.4 642.3,213.1 644.2,214.8 646.8,216.4 650.0,217.5 653.5,218.0 657.2,217.8 660.9,217.7 664.5,217.6 668.2,217.5 671.9,217.4 675.5,217.3 679.2,217.2 682.9,217.2 686.5,217.1 690.2,217.0 693.8,217.0 697.5,216.9 701.1,216.9 704.8,216.9 708.4,216.8 712.1,216.8 715.7,216.3 719.3,215.6 723.0,214.9 726.6,214.1 730.2,213.4 733.7,212.7 736.9,212.0 739.8,211.4 742.6,210.9 745.1,210.4 747.4,209.9 749.6,209.4 751.6,209.0 753.5,208.7 755.2,208.3 756.8,208.0 758.2,207.7 759.6,207.4 760.8,207.2 762.0,206.9 763.1,206.7 764.1,206.5 765.0,206.3 765.8,206.1 766.6,206.0 767.4,205.8 768.0,205.7 768.7,205.6" fill="none" stroke="#0a84ff" stroke-width="2.5" />
<circle cx="459.7" cy="204.0" r="5" fill="#1d1d1f"/>
<circle cx="776.3" cy="204.0" r="5" fill="#34c759"/>
<text x="438.0" y="104.0" font-family="sans-serif" font-size="14" fill="#1d1d1f">slalom</text>
<text x="438.0" y="312.0" font-family="sans-serif" font-size="11" fill="#6e6e73">nominal clearance -0.15 (hit) · filtered 0.08 (139 interventions)</text>
<rect x="24.0" y="348.0" width="380" height="240" fill="#ffffff" stroke="#e5e5ea"/>
<polygon points="139.1,552.5 183.4,552.5 183.4,470.7 139.1,470.7" fill="#ff3b30" fill-opacity="0.18" stroke="#ff3b30" stroke-width="1.5"/>
<polygon points="202.4,552.5 246.7,552.5 246.7,470.7 202.4,470.7" fill="#ff3b30" fill-opacity="0.18" stroke="#ff3b30" stroke-width="1.5"/>
<polygon points="265.7,552.5 310.1,552.5 310.1,470.7 265.7,470.7" fill="#ff3b30" fill-opacity="0.18" stroke="#ff3b30" stroke-width="1.5"/>
<polyline points="55.7,468.0 59.4,468.0 63.1,468.0 66.8,468.0 70.4,468.0 74.1,468.0 77.8,468.0 81.5,468.0 85.2,468.0 88.9,468.0 92.6,468.0 96.3,468.0 100.0,468.0 103.7,468.0 107.4,468.0 111.1,468.0 114.8,468.0 118.5,468.0 122.2,468.0 125.9,468.0 129.6,468.0 133.2,468.0 136.9,468.0 140.6,468.0 144.3,468.0 148.0,468.0 151.7,468.0 155.4,468.0 159.1,468.0 162.8,468.0 166.5,468.0 170.2,468.0 173.9,468.0 177.6,468.0 181.3,468.0 185.0,468.0 188.7,468.0 192.4,468.0 196.1,468.0 199.7,468.0 203.4,468.0 207.1,468.0 210.8,468.0 214.5,468.0 218.2,468.0 221.9,468.0 225.6,468.0 229.3,468.0 233.0,468.0 236.7,468.0 240.4,468.0 244.1,468.0 247.8,468.0 251.5,468.0 255.2,468.0 258.9,468.0 262.6,468.0 266.2,468.0 269.9,468.0 273.6,468.0 277.3,468.0 281.0,468.0 284.7,468.0 288.4,468.0 292.1,468.0 295.8,468.0 299.5,468.0 303.2,468.0 306.9,468.0 310.6,468.0 314.3,468.0 318.0,468.0 321.7,468.0 325.4,468.0 328.9,468.0 332.1,468.0 335.2,468.0 337.9,468.0 340.5,468.0 342.9,468.0 345.1,468.0 347.2,468.0 349.0,468.0 350.8,468.0 352.4,468.0 353.9,468.0 355.3,468.0 356.6,468.0 357.7,468.0 358.8,468.0 359.9,468.0 360.8,468.0 361.7,468.0 362.5,468.0 363.2,468.0 363.9,468.0 364.5,468.0" fill="none" stroke="#ff9f0a" stroke-width="2.5" stroke-dasharray="5 4"/>
<polyline points="55.7,468.0 59.4,468.0 63.1,468.0 66.8,468.0 70.4,468.0 74.1,468.0 77.8,468.0 81.5,468.0 85.2,468.0 88.9,468.0 92.5,468.0 95.7,468.0 98.5,467.9 101.1,467.8 103.5,467.7 105.6,467.6 107.5,467.4 109.2,467.2 110.8,467.0 112.2,466.7 113.5,466.4 114.7,466.0 115.8,465.5 116.8,464.9 117.8,464.3 118.8,463.5 119.8,462.6 120.9,461.6 122.0,460.4 123.3,459.1 124.9,457.7 126.8,456.1 129.1,454.6 131.8,453.3 135.0,452.3 138.5,451.8 142.2,452.1 145.9,452.3 149.6,452.6 153.2,452.8 156.9,453.1 160.5,453.3 163.7,453.4 166.7,453.3 169.5,453.1 172.2,452.9 174.7,452.5 177.2,451.9 179.6,451.3 182.1,450.6 184.6,449.8 187.4,449.0 190.3,448.3 193.4,447.7 196.7,447.3 200.3,447.3 204.0,447.8 207.6,448.2 211.3,448.6 215.0,449.1 218.7,449.5 222.3,450.0 225.8,450.3 229.0,450.5 232.0,450.6 234.8,450.5 237.5,450.4 240.1,450.1 242.7,449.7 245.2,449.2 247.8,448.6 250.6,448.0 253.4,447.5 256.5,447.0 259.8,446.8 263.3,446.8 266.9,447.3 270.5,448.0 274.1,448.7 277.8,449.4 281.4,450.0 285.0,450.6 288.6,451.0 292.3,451.5 295.9,451.9 299.5,452.2 303.1,452.6 306.7,452.9 310.3,453.1 314.0,453.4 317.5,454.3 321.1,455.2 324.7,456.1 328.3,457.0 331.6,457.8 334.7,458.6 337.5,459.3 340.1,459.9 342.5,460.5 344.7,461.1 346.8,461.6 348.7,462.1 350.5,462.5 352.1,463.0 353.7,463.3 355.1,463.7 356.4,464.0 357.5,464.3 358.7,464.6 359.7,464.8 360.6,465.1 361.5,465.3 362.3,465.5 363.1,465.7 363.8,465.9 364.4,466.0 365.0,466.2" fill="none" stroke="#0a84ff" stroke-width="2.5" />
<circle cx="55.7" cy="468.0" r="5" fill="#1d1d1f"/>
<circle cx="372.3" cy="468.0" r="5" fill="#34c759"/>
<text x="34.0" y="368.0" font-family="sans-serif" font-size="14" fill="#1d1d1f">ridge</text>
<text x="34.0" y="576.0" font-family="sans-serif" font-size="11" fill="#6e6e73">nominal clearance -0.15 (hit) · filtered 0.12 (68 interventions)</text>
<rect x="428.0" y="348.0" width="380" height="240" fill="#ffffff" stroke="#e5e5ea"/>
<polygon points="549.4,579.8 686.6,579.8 686.6,470.7 549.4,470.7" fill="#ff3b30" fill-opacity="0.18" stroke="#ff3b30" stroke-width="1.5"/>
<polyline points="459.7,468.0 463.4,468.0 467.1,468.0 470.8,468.0 474.4,468.0 478.1,468.0 481.8,468.0 485.5,468.0 489.2,468.0 492.9,468.0 496.6,468.0 500.3,468.0 504.0,468.0 507.7,468.0 511.4,468.0 515.1,468.0 518.8,468.0 522.5,468.0 526.2,468.0 529.9,468.0 533.6,468.0 537.2,468.0 540.9,468.0 544.6,468.0 548.3,468.0 552.0,468.0 555.7,468.0 559.4,468.0 563.1,468.0 566.8,468.0 570.5,468.0 574.2,468.0 577.9,468.0 581.6,468.0 585.3,468.0 589.0,468.0 592.7,468.0 596.4,468.0 600.1,468.0 603.8,468.0 607.4,468.0 611.1,468.0 614.8,468.0 618.5,468.0 622.2,468.0 625.9,468.0 629.6,468.0 633.3,468.0 637.0,468.0 640.7,468.0 644.4,468.0 648.1,468.0 651.8,468.0 655.5,468.0 659.2,468.0 662.9,468.0 666.6,468.0 670.2,468.0 673.9,468.0 677.6,468.0 681.3,468.0 685.0,468.0 688.7,468.0 692.4,468.0 696.1,468.0 699.8,468.0 703.5,468.0 707.2,468.0 710.9,468.0 714.6,468.0 718.3,468.0 722.0,468.0 725.7,468.0 729.4,468.0 732.9,468.0 736.1,468.0 739.2,468.0 741.9,468.0 744.5,468.0 746.9,468.0 749.1,468.0 751.2,468.0 753.0,468.0 754.8,468.0 756.4,468.0 757.9,468.0 759.3,468.0 760.6,468.0 761.7,468.0 762.8,468.0 763.9,468.0 764.8,468.0 765.7,468.0 766.5,468.0 767.2,468.0 767.9,468.0 768.5,468.0" fill="none" stroke="#ff9f0a" stroke-width="2.5" stroke-dasharray="5 4"/>
<polyline points="459.7,468.0 463.4,468.0 467.1,468.0 470.8,468.0 474.4,468.0 478.1,468.0 481.8,468.0 485.5,468.0 489.2,468.0 492.9,468.0 496.6,468.0 500.3,468.0 503.7,468.0 506.9,468.0 509.6,467.9 512.2,467.8 514.4,467.7 516.5,467.6 518.3,467.4 520.0,467.2 521.5,466.9 522.9,466.6 524.2,466.3 525.3,465.9 526.4,465.4 527.4,464.8 528.4,464.1 529.4,463.3 530.4,462.4 531.5,461.3 532.7,460.1 534.1,458.7 535.7,457.2 537.7,455.7 540.1,454.2 542.9,453.0 546.2,452.1 549.8,451.8 553.5,452.1 557.2,452.3 560.9,452.6 564.6,452.9 568.2,453.1 571.9,453.4 575.6,453.6 579.3,453.8 583.0,453.9 586.7,454.1 590.4,454.2 594.0,454.3 597.7,454.5 601.4,454.6 605.1,454.6 608.8,454.7 612.5,454.8 616.1,454.9 619.8,454.9 623.5,455.0 627.2,455.0 630.9,455.1 634.6,455.1 638.2,455.1 641.9,455.2 645.6,455.2 649.3,455.2 653.0,455.2 656.6,455.3 660.3,455.3 664.0,455.3 667.6,455.3 671.3,455.3 675.0,455.3 678.7,455.4 682.3,455.4 686.0,455.4 689.6,455.4 693.3,455.9 697.0,456.4 700.6,457.0 704.3,457.5 707.9,458.0 711.6,458.6 715.3,459.1 718.9,459.6 722.6,460.2 726.2,460.7 729.9,461.2 733.4,461.7 736.6,462.2 739.6,462.6 742.3,463.1 744.9,463.4 747.2,463.8 749.4,464.1 751.4,464.4 753.3,464.6 755.0,464.9 756.6,465.1 758.1,465.3 759.5,465.5 760.7,465.7 761.9,465.9 763.0,466.1 764.0,466.2 764.9,466.3 765.8,466.5 766.6,466.6 767.3,466.7 768.0,466.8 768.6,466.9" fill="none" stroke="#0a84ff" stroke-width="2.5" />
<circle cx="459.7" cy="468.0" r="5" fill="#1d1d1f"/>
<circle cx="776.3" cy="468.0" r="5" fill="#34c759"/>
<text x="438.0" y="368.0" font-family="sans-serif" font-size="14" fill="#1d1d1f">wide-box</text>
<text x="438.0" y="576.0" font-family="sans-serif" font-size="11" fill="#6e6e73">nominal clearance -0.15 (hit) · filtered 0.08 (60 interventions)</text>
</svg>
