<svg xmlns="http://www.w3.org/2000/svg" width="760" height="470" viewBox="0 0 760 470" role="img" aria-labelledby="title desc">
<title id="title">Hierarchical MAPF density sweep</title>
<desc id="desc">Hierarchical planning time over the whole randomized scene against a bounded flat-CBS baseline run only on a 4-agent subset.</desc>
<rect width="760" height="470" fill="#f8fafc"/>
<text x="54" y="44" fill="#111827" font-family="Inter, Segoe UI, Arial, sans-serif" font-size="26" font-weight="700">Hierarchical MAPF density sweep</text>
<text x="54" y="70" fill="#475569" font-family="Inter, Segoe UI, Arial, sans-serif" font-size="14">Local repair stays cheap as more swap clusters are added.</text>
<line x1="84" y1="342" x2="616" y2="342" stroke="#475569" stroke-width="1.5"/>
<line x1="84" y1="128" x2="84" y2="342" stroke="#475569" stroke-width="1.5"/>
<text x="350" y="392" text-anchor="middle" fill="#334155" font-family="Inter, Segoe UI, Arial, sans-serif" font-size="13" font-weight="700">agent count</text>
<text x="26" y="236" text-anchor="middle" fill="#334155" font-family="Inter, Segoe UI, Arial, sans-serif" font-size="13" font-weight="700" transform="rotate(-90 26 236)">planning time ms</text>
<rect x="113.2" y="302.5" width="22" height="39.5" rx="3" fill="#2563eb" opacity="0.88"/>
<rect x="139.2" y="293.8" width="22" height="48.2" rx="3" fill="#10b981" opacity="0.88"/>
<text x="137.2" y="365" text-anchor="middle" fill="#334155" font-family="Inter, Segoe UI, Arial, sans-serif" font-size="12" font-weight="700">4</text>
<text x="137.2" y="294.5" text-anchor="middle" fill="#0f172a" font-family="Consolas, Menlo, monospace" font-size="11">g2</text>
<rect x="219.6" y="282.2" width="22" height="59.8" rx="3" fill="#2563eb" opacity="0.88"/>
<rect x="245.6" y="293.2" width="22" height="48.8" rx="3" fill="#10b981" opacity="0.88"/>
<text x="243.6" y="365" text-anchor="middle" fill="#334155" font-family="Inter, Segoe UI, Arial, sans-serif" font-size="12" font-weight="700">8</text>
<text x="243.6" y="274.2" text-anchor="middle" fill="#0f172a" font-family="Consolas, Menlo, monospace" font-size="11">g2</text>
<rect x="326.0" y="234.4" width="22" height="107.6" rx="3" fill="#2563eb" opacity="0.88"/>
<rect x="352.0" y="293.6" width="22" height="48.4" rx="3" fill="#10b981" opacity="0.88"/>
<text x="350.0" y="365" text-anchor="middle" fill="#334155" font-family="Inter, Segoe UI, Arial, sans-serif" font-size="12" font-weight="700">12</text>
<text x="350.0" y="226.4" text-anchor="middle" fill="#0f172a" font-family="Consolas, Menlo, monospace" font-size="11">g2</text>
<rect x="432.4" y="175.4" width="22" height="166.6" rx="3" fill="#2563eb" opacity="0.88"/>
<rect x="458.4" y="294.4" width="22" height="47.6" rx="3" fill="#10b981" opacity="0.88"/>
<text x="456.4" y="365" text-anchor="middle" fill="#334155" font-family="Inter, Segoe UI, Arial, sans-serif" font-size="12" font-weight="700">16</text>
<text x="456.4" y="167.4" text-anchor="middle" fill="#0f172a" font-family="Consolas, Menlo, monospace" font-size="11">g2</text>
<rect x="538.8" y="128.0" width="22" height="214.0" rx="3" fill="#2563eb" opacity="0.88"/>
<rect x="564.8" y="293.9" width="22" height="48.1" rx="3" fill="#10b981" opacity="0.88"/>
<text x="562.8" y="365" text-anchor="middle" fill="#334155" font-family="Inter, Segoe UI, Arial, sans-serif" font-size="12" font-weight="700">18</text>
<text x="562.8" y="120.0" text-anchor="middle" fill="#0f172a" font-family="Consolas, Menlo, monospace" font-size="11">g2</text>
<rect x="634" y="126" width="12" height="12" rx="2" fill="#2563eb"/>
<text x="654" y="136" fill="#334155" font-family="Inter, Segoe UI, Arial, sans-serif" font-size="12">hierarchical</text>
<rect x="634" y="150" width="12" height="12" rx="2" fill="#10b981"/>
<text x="654" y="160" fill="#334155" font-family="Inter, Segoe UI, Arial, sans-serif" font-size="12">flat CBS (4)</text>
<text x="54" y="430" fill="#64748b" font-family="Inter, Segoe UI, Arial, sans-serif" font-size="12">gN = max repair-group size; flat CBS is bounded to a 4-agent subset baseline.</text>
</svg>
