<svg xmlns="http://www.w3.org/2000/svg" width="920" height="470" viewBox="0 0 920 470" role="img" aria-labelledby="title desc">
<title id="title">Kinodynamic STL-CBS</title>
<desc id="desc">Heading-aware multi-robot CBS with time-consuming forward and turn primitives.</desc>
<rect width="920" height="470" fill="#f8fafc"/>
<text x="58" y="42" fill="#111827" font-family="Inter, Segoe UI, Arial, sans-serif" font-size="26" font-weight="700">Kinodynamic STL-CBS</text>
<text x="58" y="68" fill="#475569" font-family="Inter, Segoe UI, Arial, sans-serif" font-size="14">Dashed paths are independent oriented plans; solid paths are CBS repairs with heading and velocity limits.</text>
<rect x="58.0" y="328.0" width="58.0" height="58.0" fill="#ffffff" stroke="#dbe3ee" stroke-width="1"/>
<rect x="58.0" y="270.0" width="58.0" height="58.0" fill="#ffffff" stroke="#dbe3ee" stroke-width="1"/>
<rect x="58.0" y="212.0" width="58.0" height="58.0" fill="#ffffff" stroke="#dbe3ee" stroke-width="1"/>
<rect x="58.0" y="154.0" width="58.0" height="58.0" fill="#ffffff" stroke="#dbe3ee" stroke-width="1"/>
<rect x="58.0" y="96.0" width="58.0" height="58.0" fill="#ffffff" stroke="#dbe3ee" stroke-width="1"/>
<rect x="116.0" y="328.0" width="58.0" height="58.0" fill="#ffffff" stroke="#dbe3ee" stroke-width="1"/>
<rect x="116.0" y="270.0" width="58.0" height="58.0" fill="#ffffff" stroke="#dbe3ee" stroke-width="1"/>
<rect x="116.0" y="212.0" width="58.0" height="58.0" fill="#ffffff" stroke="#dbe3ee" stroke-width="1"/>
<rect x="116.0" y="154.0" width="58.0" height="58.0" fill="#ffffff" stroke="#dbe3ee" stroke-width="1"/>
<rect x="116.0" y="96.0" width="58.0" height="58.0" fill="#ffffff" stroke="#dbe3ee" stroke-width="1"/>
<rect x="174.0" y="328.0" width="58.0" height="58.0" fill="#ffffff" stroke="#dbe3ee" stroke-width="1"/>
<rect x="174.0" y="270.0" width="58.0" height="58.0" fill="#ffffff" stroke="#dbe3ee" stroke-width="1"/>
<rect x="174.0" y="212.0" width="58.0" height="58.0" fill="#ffffff" stroke="#dbe3ee" stroke-width="1"/>
<rect x="174.0" y="154.0" width="58.0" height="58.0" fill="#ffffff" stroke="#dbe3ee" stroke-width="1"/>
<rect x="174.0" y="96.0" width="58.0" height="58.0" fill="#ffffff" stroke="#dbe3ee" stroke-width="1"/>
<rect x="232.0" y="328.0" width="58.0" height="58.0" fill="#ffffff" stroke="#dbe3ee" stroke-width="1"/>
<rect x="232.0" y="270.0" width="58.0" height="58.0" fill="#ffffff" stroke="#dbe3ee" stroke-width="1"/>
<rect x="232.0" y="212.0" width="58.0" height="58.0" fill="#ffffff" stroke="#dbe3ee" stroke-width="1"/>
<rect x="232.0" y="154.0" width="58.0" height="58.0" fill="#ffffff" stroke="#dbe3ee" stroke-width="1"/>
<rect x="232.0" y="96.0" width="58.0" height="58.0" fill="#ffffff" stroke="#dbe3ee" stroke-width="1"/>
<rect x="290.0" y="328.0" width="58.0" height="58.0" fill="#ffffff" stroke="#dbe3ee" stroke-width="1"/>
<rect x="290.0" y="270.0" width="58.0" height="58.0" fill="#ffffff" stroke="#dbe3ee" stroke-width="1"/>
<rect x="290.0" y="212.0" width="58.0" height="58.0" fill="#ffffff" stroke="#dbe3ee" stroke-width="1"/>
<rect x="290.0" y="154.0" width="58.0" height="58.0" fill="#ffffff" stroke="#dbe3ee" stroke-width="1"/>
<rect x="290.0" y="96.0" width="58.0" height="58.0" fill="#ffffff" stroke="#dbe3ee" stroke-width="1"/>
<rect x="348.0" y="328.0" width="58.0" height="58.0" fill="#ffffff" stroke="#dbe3ee" stroke-width="1"/>
<rect x="348.0" y="270.0" width="58.0" height="58.0" fill="#ffffff" stroke="#dbe3ee" stroke-width="1"/>
<rect x="348.0" y="212.0" width="58.0" height="58.0" fill="#ffffff" stroke="#dbe3ee" stroke-width="1"/>
<rect x="348.0" y="154.0" width="58.0" height="58.0" fill="#ffffff" stroke="#dbe3ee" stroke-width="1"/>
<rect x="348.0" y="96.0" width="58.0" height="58.0" fill="#ffffff" stroke="#dbe3ee" stroke-width="1"/>
<rect x="406.0" y="328.0" width="58.0" height="58.0" fill="#ffffff" stroke="#dbe3ee" stroke-width="1"/>
<rect x="406.0" y="270.0" width="58.0" height="58.0" fill="#ffffff" stroke="#dbe3ee" stroke-width="1"/>
<rect x="406.0" y="212.0" width="58.0" height="58.0" fill="#ffffff" stroke="#dbe3ee" stroke-width="1"/>
<rect x="406.0" y="154.0" width="58.0" height="58.0" fill="#ffffff" stroke="#dbe3ee" stroke-width="1"/>
<rect x="406.0" y="96.0" width="58.0" height="58.0" fill="#ffffff" stroke="#dbe3ee" stroke-width="1"/>
<polyline points="87.0,241.0 87.0,241.0 145.0,241.0 145.0,241.0 203.0,241.0 203.0,241.0 261.0,241.0 261.0,241.0 319.0,241.0 319.0,241.0 377.0,241.0 377.0,241.0 435.0,241.0" fill="none" stroke="#ffffff" stroke-width="8.4" stroke-linecap="round" stroke-linejoin="round" opacity="0.28"/>
<polyline points="87.0,241.0 87.0,241.0 145.0,241.0 145.0,241.0 203.0,241.0 203.0,241.0 261.0,241.0 261.0,241.0 319.0,241.0 319.0,241.0 377.0,241.0 377.0,241.0 435.0,241.0" fill="none" stroke="#2563eb" stroke-width="3.4" stroke-linecap="round" stroke-linejoin="round" stroke-dasharray="9 8" opacity="0.28"/>
<circle cx="87.0" cy="241.0" r="3.4" fill="#2563eb" stroke="#ffffff" stroke-width="1.4" opacity="0.28"/>
<line x1="87.0" y1="241.0" x2="102.0" y2="241.0" stroke="#2563eb" stroke-width="2.5" stroke-linecap="round" opacity="0.28"/>
<circle cx="102.0" cy="241.0" r="3.2" fill="#2563eb" opacity="0.28"/>
<circle cx="145.0" cy="241.0" r="3.4" fill="#2563eb" stroke="#ffffff" stroke-width="1.4" opacity="0.28"/>
<line x1="145.0" y1="241.0" x2="160.0" y2="241.0" stroke="#2563eb" stroke-width="2.5" stroke-linecap="round" opacity="0.28"/>
<circle cx="160.0" cy="241.0" r="3.2" fill="#2563eb" opacity="0.28"/>
<circle cx="261.0" cy="241.0" r="3.4" fill="#2563eb" stroke="#ffffff" stroke-width="1.4" opacity="0.28"/>
<line x1="261.0" y1="241.0" x2="276.0" y2="241.0" stroke="#2563eb" stroke-width="2.5" stroke-linecap="round" opacity="0.28"/>
<circle cx="276.0" cy="241.0" r="3.2" fill="#2563eb" opacity="0.28"/>
<circle cx="319.0" cy="241.0" r="3.4" fill="#2563eb" stroke="#ffffff" stroke-width="1.4" opacity="0.28"/>
<line x1="319.0" y1="241.0" x2="334.0" y2="241.0" stroke="#2563eb" stroke-width="2.5" stroke-linecap="round" opacity="0.28"/>
<circle cx="334.0" cy="241.0" r="3.2" fill="#2563eb" opacity="0.28"/>
<circle cx="435.0" cy="241.0" r="3.4" fill="#2563eb" stroke="#ffffff" stroke-width="1.4" opacity="0.28"/>
<line x1="435.0" y1="241.0" x2="450.0" y2="241.0" stroke="#2563eb" stroke-width="2.5" stroke-linecap="round" opacity="0.28"/>
<circle cx="450.0" cy="241.0" r="3.2" fill="#2563eb" opacity="0.28"/>
<polyline points="435.0,241.0 435.0,241.0 377.0,241.0 377.0,241.0 319.0,241.0 319.0,241.0 261.0,241.0 261.0,241.0 203.0,241.0 203.0,241.0 145.0,241.0 145.0,241.0 87.0,241.0" fill="none" stroke="#ffffff" stroke-width="8.4" stroke-linecap="round" stroke-linejoin="round" opacity="0.28"/>
<polyline points="435.0,241.0 435.0,241.0 377.0,241.0 377.0,241.0 319.0,241.0 319.0,241.0 261.0,241.0 261.0,241.0 203.0,241.0 203.0,241.0 145.0,241.0 145.0,241.0 87.0,241.0" fill="none" stroke="#dc2626" stroke-width="3.4" stroke-linecap="round" stroke-linejoin="round" stroke-dasharray="9 8" opacity="0.28"/>
<circle cx="435.0" cy="241.0" r="3.4" fill="#dc2626" stroke="#ffffff" stroke-width="1.4" opacity="0.28"/>
<line x1="435.0" y1="241.0" x2="420.0" y2="241.0" stroke="#dc2626" stroke-width="2.5" stroke-linecap="round" opacity="0.28"/>
<circle cx="420.0" cy="241.0" r="3.2" fill="#dc2626" opacity="0.28"/>
<circle cx="377.0" cy="241.0" r="3.4" fill="#dc2626" stroke="#ffffff" stroke-width="1.4" opacity="0.28"/>
<line x1="377.0" y1="241.0" x2="362.0" y2="241.0" stroke="#dc2626" stroke-width="2.5" stroke-linecap="round" opacity="0.28"/>
<circle cx="362.0" cy="241.0" r="3.2" fill="#dc2626" opacity="0.28"/>
<circle cx="261.0" cy="241.0" r="3.4" fill="#dc2626" stroke="#ffffff" stroke-width="1.4" opacity="0.28"/>
<line x1="261.0" y1="241.0" x2="246.0" y2="241.0" stroke="#dc2626" stroke-width="2.5" stroke-linecap="round" opacity="0.28"/>
<circle cx="246.0" cy="241.0" r="3.2" fill="#dc2626" opacity="0.28"/>
<circle cx="203.0" cy="241.0" r="3.4" fill="#dc2626" stroke="#ffffff" stroke-width="1.4" opacity="0.28"/>
<line x1="203.0" y1="241.0" x2="188.0" y2="241.0" stroke="#dc2626" stroke-width="2.5" stroke-linecap="round" opacity="0.28"/>
<circle cx="188.0" cy="241.0" r="3.2" fill="#dc2626" opacity="0.28"/>
<circle cx="87.0" cy="241.0" r="3.4" fill="#dc2626" stroke="#ffffff" stroke-width="1.4" opacity="0.28"/>
<line x1="87.0" y1="241.0" x2="72.0" y2="241.0" stroke="#dc2626" stroke-width="2.5" stroke-linecap="round" opacity="0.28"/>
<circle cx="72.0" cy="241.0" r="3.2" fill="#dc2626" opacity="0.28"/>
<circle cx="261.0" cy="241.0" r="20" fill="none" stroke="#f97316" stroke-width="4" stroke-dasharray="5 4"/>
<text x="261.0" y="241.0" text-anchor="middle" dominant-baseline="central" fill="#f97316" font-family="Inter, Segoe UI, Arial, sans-serif" font-size="10" font-weight="800">t6</text>
<polyline points="87.0,241.0 87.0,241.0 145.0,241.0 145.0,241.0 203.0,241.0 203.0,241.0 261.0,241.0 261.0,241.0 319.0,241.0 319.0,241.0 377.0,241.0 377.0,241.0 435.0,241.0" fill="none" stroke="#ffffff" stroke-width="10.2" stroke-linecap="round" stroke-linejoin="round" opacity="0.96"/>
<polyline points="87.0,241.0 87.0,241.0 145.0,241.0 145.0,241.0 203.0,241.0 203.0,241.0 261.0,241.0 261.0,241.0 319.0,241.0 319.0,241.0 377.0,241.0 377.0,241.0 435.0,241.0" fill="none" stroke="#2563eb" stroke-width="5.2" stroke-linecap="round" stroke-linejoin="round" stroke-dasharray="none" opacity="0.96"/>
<circle cx="87.0" cy="241.0" r="5.0" fill="#2563eb" stroke="#ffffff" stroke-width="1.4" opacity="0.96"/>
<line x1="87.0" y1="241.0" x2="102.0" y2="241.0" stroke="#2563eb" stroke-width="2.5" stroke-linecap="round" opacity="0.96"/>
<circle cx="102.0" cy="241.0" r="3.2" fill="#2563eb" opacity="0.96"/>
<circle cx="145.0" cy="241.0" r="5.0" fill="#2563eb" stroke="#ffffff" stroke-width="1.4" opacity="0.96"/>
<line x1="145.0" y1="241.0" x2="160.0" y2="241.0" stroke="#2563eb" stroke-width="2.5" stroke-linecap="round" opacity="0.96"/>
<circle cx="160.0" cy="241.0" r="3.2" fill="#2563eb" opacity="0.96"/>
<circle cx="261.0" cy="241.0" r="5.0" fill="#2563eb" stroke="#ffffff" stroke-width="1.4" opacity="0.96"/>
<line x1="261.0" y1="241.0" x2="276.0" y2="241.0" stroke="#2563eb" stroke-width="2.5" stroke-linecap="round" opacity="0.96"/>
<circle cx="276.0" cy="241.0" r="3.2" fill="#2563eb" opacity="0.96"/>
<circle cx="319.0" cy="241.0" r="5.0" fill="#2563eb" stroke="#ffffff" stroke-width="1.4" opacity="0.96"/>
<line x1="319.0" y1="241.0" x2="334.0" y2="241.0" stroke="#2563eb" stroke-width="2.5" stroke-linecap="round" opacity="0.96"/>
<circle cx="334.0" cy="241.0" r="3.2" fill="#2563eb" opacity="0.96"/>
<circle cx="435.0" cy="241.0" r="5.0" fill="#2563eb" stroke="#ffffff" stroke-width="1.4" opacity="0.96"/>
<line x1="435.0" y1="241.0" x2="450.0" y2="241.0" stroke="#2563eb" stroke-width="2.5" stroke-linecap="round" opacity="0.96"/>
<circle cx="450.0" cy="241.0" r="3.2" fill="#2563eb" opacity="0.96"/>
<polyline points="435.0,241.0 435.0,241.0 377.0,241.0 377.0,241.0 319.0,241.0 319.0,241.0 319.0,241.0 319.0,299.0 319.0,299.0 319.0,299.0 261.0,299.0 261.0,299.0 203.0,299.0 203.0,299.0 145.0,299.0 145.0,299.0 87.0,299.0 87.0,299.0 87.0,299.0 87.0,241.0" fill="none" stroke="#ffffff" stroke-width="10.2" stroke-linecap="round" stroke-linejoin="round" opacity="0.96"/>
<polyline points="435.0,241.0 435.0,241.0 377.0,241.0 377.0,241.0 319.0,241.0 319.0,241.0 319.0,241.0 319.0,299.0 319.0,299.0 319.0,299.0 261.0,299.0 261.0,299.0 203.0,299.0 203.0,299.0 145.0,299.0 145.0,299.0 87.0,299.0 87.0,299.0 87.0,299.0 87.0,241.0" fill="none" stroke="#dc2626" stroke-width="5.2" stroke-linecap="round" stroke-linejoin="round" stroke-dasharray="none" opacity="0.96"/>
<circle cx="435.0" cy="241.0" r="5.0" fill="#dc2626" stroke="#ffffff" stroke-width="1.4" opacity="0.96"/>
<line x1="435.0" y1="241.0" x2="420.0" y2="241.0" stroke="#dc2626" stroke-width="2.5" stroke-linecap="round" opacity="0.96"/>
<circle cx="420.0" cy="241.0" r="3.2" fill="#dc2626" opacity="0.96"/>
<circle cx="377.0" cy="241.0" r="5.0" fill="#dc2626" stroke="#ffffff" stroke-width="1.4" opacity="0.96"/>
<line x1="377.0" y1="241.0" x2="362.0" y2="241.0" stroke="#dc2626" stroke-width="2.5" stroke-linecap="round" opacity="0.96"/>
<circle cx="362.0" cy="241.0" r="3.2" fill="#dc2626" opacity="0.96"/>
<circle cx="319.0" cy="241.0" r="5.0" fill="#dc2626" stroke="#ffffff" stroke-width="1.4" opacity="0.96"/>
<line x1="319.0" y1="241.0" x2="319.0" y2="256.0" stroke="#dc2626" stroke-width="2.5" stroke-linecap="round" opacity="0.96"/>
<circle cx="319.0" cy="256.0" r="3.2" fill="#dc2626" opacity="0.96"/>
<circle cx="319.0" cy="299.0" r="5.0" fill="#dc2626" stroke="#ffffff" stroke-width="1.4" opacity="0.96"/>
<line x1="319.0" y1="299.0" x2="304.0" y2="299.0" stroke="#dc2626" stroke-width="2.5" stroke-linecap="round" opacity="0.96"/>
<circle cx="304.0" cy="299.0" r="3.2" fill="#dc2626" opacity="0.96"/>
<circle cx="203.0" cy="299.0" r="5.0" fill="#dc2626" stroke="#ffffff" stroke-width="1.4" opacity="0.96"/>
<line x1="203.0" y1="299.0" x2="188.0" y2="299.0" stroke="#dc2626" stroke-width="2.5" stroke-linecap="round" opacity="0.96"/>
<circle cx="188.0" cy="299.0" r="3.2" fill="#dc2626" opacity="0.96"/>
<circle cx="145.0" cy="299.0" r="5.0" fill="#dc2626" stroke="#ffffff" stroke-width="1.4" opacity="0.96"/>
<line x1="145.0" y1="299.0" x2="130.0" y2="299.0" stroke="#dc2626" stroke-width="2.5" stroke-linecap="round" opacity="0.96"/>
<circle cx="130.0" cy="299.0" r="3.2" fill="#dc2626" opacity="0.96"/>
<circle cx="87.0" cy="299.0" r="5.0" fill="#dc2626" stroke="#ffffff" stroke-width="1.4" opacity="0.96"/>
<line x1="87.0" y1="299.0" x2="87.0" y2="284.0" stroke="#dc2626" stroke-width="2.5" stroke-linecap="round" opacity="0.96"/>
<circle cx="87.0" cy="284.0" r="3.2" fill="#dc2626" opacity="0.96"/>
<circle cx="87.0" cy="241.0" r="5.0" fill="#dc2626" stroke="#ffffff" stroke-width="1.4" opacity="0.96"/>
<line x1="87.0" y1="241.0" x2="87.0" y2="226.0" stroke="#dc2626" stroke-width="2.5" stroke-linecap="round" opacity="0.96"/>
<circle cx="87.0" cy="226.0" r="3.2" fill="#dc2626" opacity="0.96"/>
<rect x="78.0" y="232.0" width="18" height="18" rx="4" fill="#2563eb" stroke="#ffffff" stroke-width="2"/>
<circle cx="435.0" cy="241.0" r="11" fill="none" stroke="#2563eb" stroke-width="3"/>
<rect x="426.0" y="232.0" width="18" height="18" rx="4" fill="#dc2626" stroke="#ffffff" stroke-width="2"/>
<circle cx="87.0" cy="241.0" r="11" fill="none" stroke="#dc2626" stroke-width="3"/>
<text x="540.0" y="122.0" fill="#111827" font-family="Inter, Segoe UI, Arial, sans-serif" font-size="16" font-weight="700">Kinodynamic STL-CBS</text>
<text x="540.0" y="154.0" fill="#334155" font-family="Consolas, Menlo, monospace" font-size="13">move duration       2 ticks</text>
<text x="540.0" y="177.0" fill="#334155" font-family="Consolas, Menlo, monospace" font-size="13">turn duration       1 tick</text>
<text x="540.0" y="200.0" fill="#334155" font-family="Consolas, Menlo, monospace" font-size="13">resolved conflicts  6</text>
<text x="540.0" y="223.0" fill="#334155" font-family="Consolas, Menlo, monospace" font-size="13">expanded nodes      83</text>
<text x="540.0" y="246.0" fill="#334155" font-family="Consolas, Menlo, monospace" font-size="13">total time cost     31</text>
<text x="540.0" y="269.0" fill="#334155" font-family="Consolas, Menlo, monospace" font-size="13">integer robust      0.00</text>
<text x="540.0" y="292.0" fill="#334155" font-family="Consolas, Menlo, monospace" font-size="13">continuous robust   0.00</text>
<text x="540.0" y="315.0" fill="#334155" font-family="Consolas, Menlo, monospace" font-size="13">continuous conflict false</text>
<text x="58" y="426" fill="#64748b" font-family="Inter, Segoe UI, Arial, sans-serif" font-size="12">Squares are starts, rings are goals, and small direction ticks show robot heading at sampled times.</text>
</svg>
