<svg xmlns="http://www.w3.org/2000/svg" width="900" height="340" viewBox="0 0 900 340">
<rect width="900" height="340" fill="#fbfbfd"/>
<text x="12" y="24" font-family="sans-serif" font-size="16" fill="#1d1d1f">Two-contact pushing: a second pusher straightens the path or spins the slider in place</text>
<polyline points="77.8,182.7 80.2,183.4 82.5,184.3 84.9,185.2 87.1,186.3 89.3,187.6 91.4,188.9 93.5,190.4 95.4,192.0 97.3,193.7 99.0,195.5 100.7,197.3 102.3,199.3 103.7,201.4 105.0,203.5 106.2,205.7 107.3,208.0 108.3,210.3 109.1,212.7 109.8,215.1 110.4,217.5 110.8,220.0 111.1,222.5 111.2,225.0 111.2,227.5 111.1,230.1 110.8,232.6 110.4,235.0 109.8,237.5 109.2,239.9 108.3,242.3 107.4,244.6 106.3,246.9 105.1,249.1 103.8,251.2 102.3,253.3 100.8,255.3 99.1,257.1 97.4,258.9 95.5,260.6 93.6,262.2" fill="none" stroke="#c7c7cc" stroke-width="1.5"/>
<polygon points="41.7,218.8 113.9,218.8 113.9,146.6 41.7,146.6" fill="none" stroke="rgb(200,200,235)" stroke-width="1.2"/>
<polygon points="45.5,211.2 113.7,234.9 137.4,166.6 69.1,143.0" fill="none" stroke="rgb(175,175,229)" stroke-width="1.2"/>
<polygon points="52.7,204.6 106.9,252.3 154.7,198.2 100.5,150.4" fill="none" stroke="rgb(150,150,222)" stroke-width="1.2"/>
<polygon points="62.0,201.2 94.0,265.9 158.7,233.9 126.7,169.2" fill="none" stroke="rgb(125,125,215)" stroke-width="1.2"/>
<polygon points="70.4,201.3 79.5,272.9 151.2,263.8 142.1,192.2" fill="none" stroke="rgb(100,100,209)" stroke-width="1.2"/>
<polygon points="79.6,204.8 60.9,274.6 130.6,293.3 149.4,223.6" fill="none" stroke="rgb(75,75,202)" stroke-width="1.2"/>
<polygon points="86.8,211.6 43.0,269.0 100.4,312.8 144.2,255.4" fill="#0a84ff22" stroke="rgb(50,50,195)" stroke-width="1.2"/>
<text x="150.0" y="338.0" font-family="sans-serif" font-size="12" fill="#1d1d1f" text-anchor="middle">single (curves)</text>
<polyline points="377.8,182.7 381.4,182.7 385.0,182.7 388.6,182.7 392.2,182.7 395.8,182.7 399.4,182.7 403.1,182.7 406.7,182.7 410.3,182.7 413.9,182.7 417.5,182.7 421.1,182.7 424.7,182.7 428.3,182.7 431.9,182.7 435.6,182.7 439.2,182.7 442.8,182.7 446.4,182.7 450.0,182.7 453.6,182.7 457.2,182.7 460.8,182.7 464.4,182.7 468.1,182.7 471.7,182.7 475.3,182.7 478.9,182.7 482.5,182.7 486.1,182.7 489.7,182.7 493.3,182.7 496.9,182.7 500.6,182.7 504.2,182.7 507.8,182.7 511.4,182.7 515.0,182.7 518.6,182.7 522.2,182.7" fill="none" stroke="#c7c7cc" stroke-width="1.5"/>
<polygon points="341.7,218.8 413.9,218.8 413.9,146.6 341.7,146.6" fill="none" stroke="rgb(200,200,235)" stroke-width="1.2"/>
<polygon points="363.3,218.8 435.6,218.8 435.6,146.6 363.3,146.6" fill="none" stroke="rgb(175,175,229)" stroke-width="1.2"/>
<polygon points="388.6,218.8 460.8,218.8 460.8,146.6 388.6,146.6" fill="none" stroke="rgb(150,150,222)" stroke-width="1.2"/>
<polygon points="413.9,218.8 486.1,218.8 486.1,146.6 413.9,146.6" fill="none" stroke="rgb(125,125,215)" stroke-width="1.2"/>
<polygon points="435.6,218.8 507.8,218.8 507.8,146.6 435.6,146.6" fill="none" stroke="rgb(100,100,209)" stroke-width="1.2"/>
<polygon points="460.8,218.8 533.1,218.8 533.1,146.6 460.8,146.6" fill="none" stroke="rgb(75,75,202)" stroke-width="1.2"/>
<polygon points="486.1,218.8 558.3,218.8 558.3,146.6 486.1,146.6" fill="#0a84ff22" stroke="rgb(50,50,195)" stroke-width="1.2"/>
<text x="450.0" y="338.0" font-family="sans-serif" font-size="12" fill="#1d1d1f" text-anchor="middle">two-point (straight)</text>
<polyline points="677.8,182.7 677.8,182.7 677.8,182.7 677.8,182.7 677.8,182.7 677.8,182.7 677.8,182.7 677.8,182.7 677.8,182.7 677.8,182.7 677.8,182.7 677.8,182.7 677.8,182.7 677.8,182.7 677.8,182.7 677.8,182.7 677.8,182.7 677.8,182.7 677.8,182.7 677.8,182.7 677.8,182.7 677.8,182.7 677.8,182.7 677.8,182.7 677.8,182.7 677.8,182.7 677.8,182.7 677.8,182.7 677.8,182.7 677.8,182.7 677.8,182.7 677.8,182.7 677.8,182.7 677.8,182.7 677.8,182.7" fill="none" stroke="#c7c7cc" stroke-width="1.5"/>
<polygon points="641.7,218.8 713.9,218.8 713.9,146.6 641.7,146.6" fill="none" stroke="rgb(200,200,235)" stroke-width="1.2"/>
<polygon points="626.8,186.3 681.4,233.6 728.7,179.0 674.1,131.7" fill="none" stroke="rgb(175,175,229)" stroke-width="1.2"/>
<polygon points="641.7,146.5 641.6,218.8 713.9,218.8 713.9,146.6" fill="none" stroke="rgb(150,150,222)" stroke-width="1.2"/>
<polygon points="681.5,131.7 626.8,179.0 674.1,233.6 728.7,186.4" fill="none" stroke="rgb(125,125,215)" stroke-width="1.2"/>
<polygon points="713.9,146.6 641.7,146.5 641.6,218.7 713.8,218.8" fill="none" stroke="rgb(100,100,209)" stroke-width="1.2"/>
<polygon points="728.7,186.4 681.5,131.7 626.8,178.9 674.1,233.6" fill="none" stroke="rgb(75,75,202)" stroke-width="1.2"/>
<polygon points="708.3,223.6 718.7,152.2 647.3,141.7 636.8,213.2" fill="#0a84ff22" stroke="rgb(50,50,195)" stroke-width="1.2"/>
<text x="750.0" y="338.0" font-family="sans-serif" font-size="12" fill="#1d1d1f" text-anchor="middle">couple (spins in place)</text>
</svg>
