<svg xmlns="http://www.w3.org/2000/svg" width="880" height="420" viewBox="0 0 880 420">
<rect width="880" height="420" fill="#fbfbfd"/>
<text x="40" y="32" font-family="sans-serif" font-size="18" fill="#1d1d1f">Multi-object pushing: sliders arranged into a row, routed around each other</text>
<text x="40" y="52" font-family="sans-serif" font-size="12" fill="#6e6e73">gray = start, dashed = goal, solid = final; each object avoids the others while it is pushed</text>
<polyline points="188.7,220.7 199.2,219.6 213.7,220.8 220.6,221.5 221.6,221.6 240.0,218.7 248.7,217.8 260.2,215.9 275.4,213.9 285.1,212.6 300.1,209.5 313.2,208.9 329.3,205.7 338.7,203.4 354.1,199.6 360.0,198.3 376.0,193.4 395.8,193.9 407.7,190.3 424.6,191.6 443.5,192.6 451.6,192.4 466.8,192.7 476.8,193.0 492.5,190.0 507.9,191.4 524.0,191.3 536.8,192.9 549.0,195.4 563.3,198.1 579.3,200.3 592.0,202.0 603.6,203.1 615.5,205.4 626.0,207.4 635.0,208.4 641.4,208.9 648.0,209.4 654.0,210.1 661.0,211.2 669.0,212.6 670.3,214.7 676.2,215.6 680.6,216.4 681.8,218.6 682.5,220.3 683.2,221.9 683.2,221.9 683.2,221.9 684.3,224.1 683.8,222.9 683.8,222.9 687.7,223.5 688.4,224.9 688.4,224.9 688.4,224.9 687.6,223.2 691.3,223.8" fill="none" stroke="#0a84ff" stroke-width="1.5" opacity="0.5"/>
<polygon points="114.4,251.9 263.1,251.9 263.1,189.5 114.4,189.5" fill="#e5e5ea" stroke="#8e8e93" stroke-width="1.5"/>
<polygon points="619.9,251.9 768.7,251.9 768.7,189.5 619.9,189.5" fill="none" stroke="#0a84ff" stroke-width="1.5" stroke-dasharray="4 3"/>
<polygon points="614.2,253.8 762.8,256.1 768.4,193.8 619.8,191.4" fill="#0a84ff22" stroke="#0a84ff" stroke-width="1.5"/>
<polyline points="426.6,220.7 427.2,219.3 428.4,212.9 432.4,205.9 430.0,200.8 431.0,195.6 427.9,189.0 428.3,183.2 434.2,176.7 431.6,171.7 430.1,166.1 429.7,161.2 429.1,156.9 432.5,151.4 428.6,146.0 428.6,143.5 428.8,140.6 430.6,138.2 431.7,135.4 431.3,134.8 432.1,132.4" fill="none" stroke="#ff9f0a" stroke-width="1.5" opacity="0.5"/>
<polygon points="352.3,251.9 501.0,251.9 501.0,189.5 352.3,189.5" fill="#e5e5ea" stroke="#8e8e93" stroke-width="1.5"/>
<polygon points="352.3,158.3 501.0,158.3 501.0,95.9 352.3,95.9" fill="none" stroke="#ff9f0a" stroke-width="1.5" stroke-dasharray="4 3"/>
<polygon points="358.9,164.1 507.6,163.1 505.3,100.7 356.6,101.7" fill="#0a84ff22" stroke="#ff9f0a" stroke-width="1.5"/>
<polyline points="188.7,308.1 198.6,306.8 213.2,307.8 219.7,308.4 219.8,308.4 235.5,306.7 252.9,308.0 268.9,306.4 286.9,305.2 292.7,304.9 301.8,305.3 313.2,307.6 332.3,306.4 340.4,308.2 346.4,309.6 351.5,309.2 363.4,308.8 380.8,311.8 398.2,314.7 409.5,314.2 424.9,316.7 436.4,317.6 448.7,316.2 464.7,313.5 481.7,313.5 494.7,311.5 511.1,309.4 521.4,309.9 534.3,307.7 547.9,308.5 561.4,309.2 577.5,309.2 591.9,308.4 604.3,308.0 616.9,307.7 626.2,307.8 635.8,306.9 648.7,306.7 657.8,307.4 665.8,308.0 670.5,307.4 674.4,306.9 680.6,307.2" fill="none" stroke="#34c759" stroke-width="1.5" opacity="0.5"/>
<polygon points="114.4,339.3 263.1,339.3 263.1,276.9 114.4,276.9" fill="#e5e5ea" stroke="#8e8e93" stroke-width="1.5"/>
<polygon points="619.9,339.3 768.7,339.3 768.7,276.9 619.9,276.9" fill="none" stroke="#34c759" stroke-width="1.5" stroke-dasharray="4 3"/>
<polygon points="604.1,337.4 752.7,339.3 757.2,276.9 608.6,275.0" fill="#0a84ff22" stroke="#34c759" stroke-width="1.5"/>
<text x="40" y="406.0" font-family="sans-serif" font-size="11" fill="#6e6e73">max position error 9.3 mm · max heading error 2.2 deg</text>
</svg>
