<svg xmlns="http://www.w3.org/2000/svg" width="880" height="460" viewBox="0 0 880 460">
<rect width="880" height="460" fill="#fbfbfd"/>
<text x="16" y="26" font-family="sans-serif" font-size="18" fill="#1d1d1f">Quasi-static planar pushing: slider driven to goal poses by an MPPI pusher</text>
<polyline points="106.2,143.4 113.4,144.3 122.9,146.6 129.2,146.6 132.2,147.4 134.8,148.5 141.1,147.7 145.2,146.8 153.9,147.3 159.0,148.1 168.5,149.3 177.2,146.9 182.3,146.1 188.2,147.2 198.1,146.8 206.3,148.2 215.3,147.5 218.2,147.3 227.3,146.8 235.6,146.2 239.0,145.6 246.8,146.5 254.3,146.8 263.6,147.2 271.9,147.2 280.5,147.2 285.2,147.2 292.7,147.8 298.6,146.3 305.0,146.2 310.0,146.5 315.4,145.2 319.3,144.5 323.2,144.4 328.3,144.7 331.8,144.6 334.7,144.1 338.1,143.9 338.1,143.9 340.2,143.6" fill="none" stroke="#c7c7cc" stroke-width="1.5"/>
<polygon points="66.3,168.4 146.1,168.4 146.1,118.3 66.3,118.3" fill="#e5e5ea" stroke="#8e8e93" stroke-width="1.5"/>
<polygon points="305.6,168.4 385.3,168.4 385.3,118.3 305.6,118.3" fill="none" stroke="#34c759" stroke-width="1.5"/>
<polygon points="299.2,167.9 379.0,169.4 381.3,119.3 301.5,117.8" fill="#0a84ff33" stroke="#0a84ff" stroke-width="1.5"/>
<text x="20.0" y="56.0" font-family="sans-serif" font-size="13" fill="#1d1d1f">forward</text>
<text x="20.0" y="70.0" font-family="sans-serif" font-size="10" fill="#6e6e73">err 6.5 mm · 2 deg · stick 41%</text>
<polyline points="546.2,143.4 553.6,143.5 563.1,144.3 566.0,143.8 574.7,142.4 581.3,142.8 590.1,140.9 598.9,140.3 608.3,139.6 615.5,139.6 623.4,136.4 632.3,134.6 639.9,131.6 648.2,131.6 657.3,131.7 665.6,129.1 671.8,128.0 679.4,126.0 687.3,123.7 694.8,121.7 701.3,121.0 709.1,118.6 715.6,117.0 720.8,117.1 725.1,116.6 728.1,116.0 734.8,114.9 737.1,115.5 739.1,115.3 742.2,114.7 742.8,113.1 744.9,112.7 745.4,111.2 747.1,110.7 749.4,110.1" fill="none" stroke="#c7c7cc" stroke-width="1.5"/>
<polygon points="506.3,168.4 586.1,168.4 586.1,118.3 506.3,118.3" fill="#e5e5ea" stroke="#8e8e93" stroke-width="1.5"/>
<polygon points="713.7,133.4 793.4,133.4 793.4,83.2 713.7,83.2" fill="none" stroke="#34c759" stroke-width="1.5"/>
<polygon points="711.2,136.2 790.9,134.1 787.6,84.0 707.9,86.1" fill="#0a84ff33" stroke="#0a84ff" stroke-width="1.5"/>
<text x="460.0" y="56.0" font-family="sans-serif" font-size="13" fill="#1d1d1f">veer</text>
<text x="460.0" y="70.0" font-family="sans-serif" font-size="10" fill="#6e6e73">err 6.3 mm · 2 deg · stick 53%</text>
<polyline points="106.2,353.4 102.0,353.1 101.2,354.5 100.9,356.2 99.8,354.0 101.0,353.7 102.7,353.6 104.0,353.6 105.7,353.5 105.7,353.5 104.1,354.2 105.9,354.1 105.8,353.5 106.9,354.2 106.3,353.7 105.3,353.1 103.5,353.3 104.9,352.6" fill="none" stroke="#c7c7cc" stroke-width="1.5"/>
<polygon points="66.3,378.4 146.1,378.4 146.1,328.3 66.3,328.3" fill="#e5e5ea" stroke="#8e8e93" stroke-width="1.5"/>
<polygon points="95.8,388.2 161.6,359.9 116.6,318.6 50.8,346.9" fill="none" stroke="#34c759" stroke-width="1.5"/>
<polygon points="92.6,387.1 159.9,360.3 117.2,318.0 49.9,344.8" fill="#0a84ff33" stroke="#0a84ff" stroke-width="1.5"/>
<text x="20.0" y="266.0" font-family="sans-serif" font-size="13" fill="#1d1d1f">spin</text>
<text x="20.0" y="280.0" font-family="sans-serif" font-size="10" fill="#6e6e73">err 2.3 mm · 2 deg · stick 41%</text>
<polyline points="546.2,353.4 555.5,352.7 563.3,354.8 570.4,357.0 579.4,358.9 589.2,357.2 598.4,355.6 607.0,354.2 612.3,354.2 620.8,355.2 627.3,358.3 636.7,358.7 644.3,361.4 651.2,365.5 659.8,366.1 665.2,368.5 672.4,369.2 678.7,371.5 685.9,372.3 690.0,372.1 694.6,374.5 699.0,376.5 702.3,377.7 705.0,377.8 708.8,378.8 712.3,379.9 716.6,379.7" fill="none" stroke="#c7c7cc" stroke-width="1.5"/>
<polygon points="506.3,378.4 586.1,378.4 586.1,328.3 506.3,328.3" fill="#e5e5ea" stroke="#8e8e93" stroke-width="1.5"/>
<polygon points="671.8,400.0 748.0,414.8 771.5,366.9 695.3,352.1" fill="none" stroke="#34c759" stroke-width="1.5"/>
<polygon points="668.0,397.7 745.1,410.3 765.3,361.8 688.1,349.2" fill="#0a84ff33" stroke="#0a84ff" stroke-width="1.5"/>
<text x="460.0" y="266.0" font-family="sans-serif" font-size="13" fill="#1d1d1f">park</text>
<text x="460.0" y="280.0" font-family="sans-serif" font-size="10" fill="#6e6e73">err 9.7 mm · 3 deg · stick 54%</text>
</svg>
