<svg xmlns="http://www.w3.org/2000/svg" width="880" height="460" viewBox="0 0 880 460">
<rect width="880" height="460" fill="#fbfbfd"/>
<text x="16" y="26" font-family="sans-serif" font-size="18" fill="#1d1d1f">Quasi-static planar pushing: slider driven to goal poses by an MPPI pusher</text>
<polyline points="100.4,144.9 107.8,144.4 109.1,144.6 117.1,144.7 120.4,144.4 124.1,144.2 133.6,144.1 140.8,143.3 149.4,142.8 159.0,141.9 167.1,141.1 176.4,143.2 184.5,141.7 192.2,143.4 200.6,142.5 211.0,141.1 218.9,140.7 227.1,143.0 236.1,143.9 245.5,145.4 254.3,144.1 262.8,142.7 270.0,141.8 277.8,141.2 284.1,140.6 290.5,140.4 297.7,141.0 303.7,140.3 308.9,140.7 312.9,140.1 316.8,139.6 320.5,139.8 323.1,139.5 325.5,139.7 328.5,139.9 331.0,140.3 332.9,140.5 335.4,140.9 337.4,140.9 339.6,140.4" fill="none" stroke="#c7c7cc" stroke-width="1.5"/>
<polygon points="60.2,169.2 140.6,169.2 140.6,120.7 60.2,120.7" fill="#e5e5ea" stroke="#8e8e93" stroke-width="1.5"/>
<polygon points="301.4,169.2 381.7,169.2 381.7,120.7 301.4,120.7" fill="none" stroke="#34c759" stroke-width="1.5"/>
<polygon points="301.0,165.5 381.3,163.7 378.2,115.2 297.9,117.1" fill="#0a84ff33" stroke="#0a84ff" stroke-width="1.5"/>
<text x="20.0" y="56.0" font-family="sans-serif" font-size="13" fill="#1d1d1f">forward</text>
<text x="20.0" y="70.0" font-family="sans-serif" font-size="10" fill="#6e6e73">err 9.7 mm · 2 deg · stick 49%</text>
<polyline points="540.4,144.9 547.2,143.7 547.4,143.6 555.5,143.0 561.9,142.8 567.8,142.2 577.5,141.5 583.9,140.8 591.1,139.7 599.5,138.0 607.9,139.2 616.6,139.9 625.0,138.4 631.3,138.1 639.5,134.2 647.6,131.6 656.4,130.4 664.6,128.7 672.7,129.9 680.9,129.8 687.4,127.4 694.9,124.6 702.0,122.7 708.1,121.4 715.8,120.7 722.2,121.6 727.3,120.2 731.8,119.1 736.9,118.0 741.1,117.1 744.2,116.5 747.0,116.0 749.3,115.6" fill="none" stroke="#c7c7cc" stroke-width="1.5"/>
<polygon points="500.2,169.2 580.6,169.2 580.6,120.7 500.2,120.7" fill="#e5e5ea" stroke="#8e8e93" stroke-width="1.5"/>
<polygon points="709.2,135.2 789.6,135.2 789.6,86.7 709.2,86.7" fill="none" stroke="#34c759" stroke-width="1.5"/>
<polygon points="709.2,139.9 789.6,139.7 789.4,91.3 709.0,91.4" fill="#0a84ff33" stroke="#0a84ff" stroke-width="1.5"/>
<text x="460.0" y="56.0" font-family="sans-serif" font-size="13" fill="#1d1d1f">veer</text>
<text x="460.0" y="70.0" font-family="sans-serif" font-size="10" fill="#6e6e73">err 9.5 mm · 0 deg · stick 31%</text>
<polyline points="100.4,354.9 110.0,354.9 119.5,355.7 127.8,354.9 136.8,355.1 145.9,354.1 154.1,351.8 161.7,350.8 169.4,349.2 174.7,346.9 183.8,347.6 192.2,344.2 200.1,342.9 209.2,342.6 215.4,338.9 223.4,338.0 229.7,335.1 237.1,334.0 244.3,332.2 249.3,329.6 255.9,328.3 261.8,328.2 266.1,326.4 269.7,326.4 274.8,326.0 276.6,325.1 280.3,324.9 282.2,323.8 284.5,323.2 286.0,322.5 288.0,321.7 289.8,320.9 291.5,320.4 293.2,319.8 294.9,319.3 296.7,318.9 298.1,318.6 299.6,318.5" fill="none" stroke="#c7c7cc" stroke-width="1.5"/>
<polygon points="60.2,379.2 140.6,379.2 140.6,330.7 60.2,330.7" fill="#e5e5ea" stroke="#8e8e93" stroke-width="1.5"/>
<polygon points="272.0,352.7 346.0,333.9 314.7,289.2 240.6,308.1" fill="none" stroke="#34c759" stroke-width="1.5"/>
<polygon points="275.9,349.6 351.2,332.8 323.3,287.3 247.9,304.2" fill="#0a84ff33" stroke="#0a84ff" stroke-width="1.5"/>
<text x="20.0" y="266.0" font-family="sans-serif" font-size="13" fill="#1d1d1f">reorient</text>
<text x="20.0" y="280.0" font-family="sans-serif" font-size="10" fill="#6e6e73">err 9.3 mm · 3 deg · stick 68%</text>
<polyline points="540.4,354.9 545.1,355.8 554.6,356.2 562.9,358.2 572.4,357.7 580.9,359.5 589.9,361.3 597.4,363.2 605.7,365.7 614.5,366.5 623.1,366.5 631.8,366.5 639.7,367.1 647.3,367.4 654.9,368.9 661.8,370.6 669.2,371.4 674.9,372.2 680.8,374.1 686.2,374.6 690.4,376.6 694.6,377.5 698.3,378.0 700.9,378.8 703.9,379.5 706.2,380.4 708.7,381.3 710.7,381.5" fill="none" stroke="#c7c7cc" stroke-width="1.5"/>
<polygon points="500.2,379.2 580.6,379.2 580.6,330.7 500.2,330.7" fill="#e5e5ea" stroke="#8e8e93" stroke-width="1.5"/>
<polygon points="667.0,400.0 743.8,414.3 767.5,368.0 690.7,353.7" fill="none" stroke="#34c759" stroke-width="1.5"/>
<polygon points="660.4,397.6 737.3,411.8 760.9,365.5 684.0,351.2" fill="#0a84ff33" stroke="#0a84ff" stroke-width="1.5"/>
<text x="460.0" y="266.0" font-family="sans-serif" font-size="13" fill="#1d1d1f">park</text>
<text x="460.0" y="280.0" font-family="sans-serif" font-size="10" fill="#6e6e73">err 9.7 mm · 0 deg · stick 78%</text>
</svg>
