<svg xmlns="http://www.w3.org/2000/svg" width="920" height="420" viewBox="0 0 920 420">
<rect width="920" height="420" fill="#fbfbfd"/>
<text x="40" y="34" font-family="sans-serif" font-size="20" fill="#1d1d1f">Powertrain-aware vs unaware MPPI: same lagging, sagging powertrain</text>
<text x="40" y="56" font-family="sans-serif" font-size="13" fill="#6e6e73">left: lap progress with ceiling-saturation labels; right: battery state of charge (blue = aware, orange = unaware)</text>
<line x1="60" y1="320.0" x2="420.0" y2="320.0" stroke="#e5e5ea" stroke-width="1"/>
<text x="52.0" y="324.0" font-family="sans-serif" font-size="11" fill="#6e6e73" text-anchor="end">0.0</text>
<line x1="60" y1="215.0" x2="420.0" y2="215.0" stroke="#e5e5ea" stroke-width="1"/>
<text x="52.0" y="219.0" font-family="sans-serif" font-size="11" fill="#6e6e73" text-anchor="end">0.5</text>
<line x1="60" y1="110.0" x2="420.0" y2="110.0" stroke="#e5e5ea" stroke-width="1"/>
<text x="52.0" y="114.0" font-family="sans-serif" font-size="11" fill="#6e6e73" text-anchor="end">1.0</text>
<rect x="82.5" y="110.0" width="45.0" height="210.0" fill="#ff9f0a" rx="3"/>
<text x="105.0" y="102.0" font-family="sans-serif" font-size="11" fill="#1d1d1f" text-anchor="middle">4/4</text>
<text x="105.0" y="342.0" font-family="sans-serif" font-size="11" fill="#1d1d1f" text-anchor="middle">fresh · unaware</text>
<text x="105.0" y="358.0" font-family="sans-serif" font-size="10" fill="#6e6e73" text-anchor="middle">ceil 74%</text>
<rect x="172.5" y="110.0" width="45.0" height="210.0" fill="#0a84ff" rx="3"/>
<text x="195.0" y="102.0" font-family="sans-serif" font-size="11" fill="#1d1d1f" text-anchor="middle">4/4</text>
<text x="195.0" y="342.0" font-family="sans-serif" font-size="11" fill="#1d1d1f" text-anchor="middle">fresh · aware</text>
<text x="195.0" y="358.0" font-family="sans-serif" font-size="10" fill="#6e6e73" text-anchor="middle">ceil 72%</text>
<rect x="262.5" y="267.5" width="45.0" height="52.5" fill="#ff9f0a" rx="3"/>
<text x="285.0" y="259.5" font-family="sans-serif" font-size="11" fill="#1d1d1f" text-anchor="middle">1/4</text>
<text x="285.0" y="342.0" font-family="sans-serif" font-size="11" fill="#1d1d1f" text-anchor="middle">drained · unaware</text>
<text x="285.0" y="358.0" font-family="sans-serif" font-size="10" fill="#6e6e73" text-anchor="middle">ceil 98%</text>
<rect x="352.5" y="110.0" width="45.0" height="210.0" fill="#0a84ff" rx="3"/>
<text x="375.0" y="102.0" font-family="sans-serif" font-size="11" fill="#1d1d1f" text-anchor="middle">4/4</text>
<text x="375.0" y="342.0" font-family="sans-serif" font-size="11" fill="#1d1d1f" text-anchor="middle">drained · aware</text>
<text x="375.0" y="358.0" font-family="sans-serif" font-size="10" fill="#6e6e73" text-anchor="middle">ceil 98%</text>
<rect x="520" y="90" width="360" height="230" fill="#ffffff" stroke="#e5e5ea"/>
<line x1="520" y1="320.0" x2="880.0" y2="320.0" stroke="#f0f0f2" stroke-width="1"/>
<text x="514.0" y="323.0" font-family="sans-serif" font-size="10" fill="#6e6e73" text-anchor="end">0%</text>
<line x1="520" y1="262.5" x2="880.0" y2="262.5" stroke="#f0f0f2" stroke-width="1"/>
<text x="514.0" y="265.5" font-family="sans-serif" font-size="10" fill="#6e6e73" text-anchor="end">25%</text>
<line x1="520" y1="205.0" x2="880.0" y2="205.0" stroke="#f0f0f2" stroke-width="1"/>
<text x="514.0" y="208.0" font-family="sans-serif" font-size="10" fill="#6e6e73" text-anchor="end">50%</text>
<line x1="520" y1="147.5" x2="880.0" y2="147.5" stroke="#f0f0f2" stroke-width="1"/>
<text x="514.0" y="150.5" font-family="sans-serif" font-size="10" fill="#6e6e73" text-anchor="end">75%</text>
<line x1="520" y1="90.0" x2="880.0" y2="90.0" stroke="#f0f0f2" stroke-width="1"/>
<text x="514.0" y="93.0" font-family="sans-serif" font-size="10" fill="#6e6e73" text-anchor="end">100%</text>
<polyline points="520.0,90.3 522.0,90.6 524.0,90.9 526.0,91.3 528.0,91.6 530.1,91.9 532.1,92.2 534.1,92.5 536.1,93.0 538.1,93.4 540.1,93.8 542.1,94.2 544.1,94.5 546.1,94.9 548.2,95.4 550.2,95.7 552.2,96.1 554.2,96.4 556.2,96.7 558.2,97.1 560.2,97.4 562.2,97.8 564.2,98.3 566.3,98.6 568.3,98.9 570.3,99.2 572.3,99.6 574.3,100.0 576.3,100.4 578.3,100.8 580.3,101.3 582.3,101.7 584.4,102.1 586.4,102.5 588.4,103.0 590.4,103.4 592.4,103.8 594.4,104.2 596.4,104.5 598.4,104.8 600.4,105.0 602.5,105.4 604.5,105.7 606.5,106.0 608.5,106.3 610.5,106.7 612.5,107.0 614.5,107.3 616.5,107.7 618.5,108.1 620.6,108.5 622.6,108.8 624.6,109.1 626.6,109.4 628.6,109.7 630.6,110.1 632.6,110.5" fill="none" stroke="#ff9f0a" stroke-width="2" stroke-dasharray="5 3"/>
<polyline points="520.0,90.4 522.0,90.8 524.0,91.1 526.0,91.4 528.0,91.8 530.1,92.1 532.1,92.5 534.1,92.9 536.1,93.4 538.1,93.7 540.1,94.0 542.1,94.5 544.1,94.9 546.1,95.2 548.2,95.5 550.2,95.9 552.2,96.2 554.2,96.7 556.2,96.9 558.2,97.3 560.2,97.6 562.2,97.9 564.2,98.3 566.3,98.7 568.3,99.0 570.3,99.4 572.3,99.7 574.3,100.1 576.3,100.5 578.3,100.9 580.3,101.2 582.3,101.6 584.4,102.0 586.4,102.3 588.4,102.6 590.4,102.9 592.4,103.2 594.4,103.5 596.4,103.8 598.4,104.0 600.4,104.3 602.5,104.8 604.5,105.2" fill="none" stroke="#0a84ff" stroke-width="2" stroke-dasharray="5 3"/>
<polyline points="520.0,262.8 522.0,263.1 524.0,263.3 526.0,263.6 528.0,263.9 530.1,264.1 532.1,264.4 534.1,264.7 536.1,265.0 538.1,265.3 540.1,265.6 542.1,265.9 544.1,266.2 546.1,266.4 548.2,266.7 550.2,267.0 552.2,267.2 554.2,267.4 556.2,267.7 558.2,268.0 560.2,268.3 562.2,268.5 564.2,268.7 566.3,269.0 568.3,269.2 570.3,269.5 572.3,269.8 574.3,270.1 576.3,270.3 578.3,270.6 580.3,270.9 582.3,271.2 584.4,271.5 586.4,271.8 588.4,272.1 590.4,272.4 592.4,272.7 594.4,273.0 596.4,273.3 598.4,273.6 600.4,273.9 602.5,274.2 604.5,274.5 606.5,274.8 608.5,275.1 610.5,275.5 612.5,275.7 614.5,276.1 616.5,276.4 618.5,276.6 620.6,276.8 622.6,277.1 624.6,277.4 626.6,277.7 628.6,277.9 630.6,278.3 632.6,278.6 634.6,278.9 636.6,279.2 638.7,279.4 640.7,279.8 642.7,280.1 644.7,280.3 646.7,280.6 648.7,280.8 650.7,281.0 652.7,281.3 654.7,281.6 656.8,281.9 658.8,282.3 660.8,282.5 662.8,282.8 664.8,283.1 666.8,283.3 668.8,283.6 670.8,283.9 672.8,284.2 674.9,284.4 676.9,284.7 678.9,285.0 680.9,285.3 682.9,285.6 684.9,285.8 686.9,286.1 688.9,286.4 690.9,286.7 693.0,287.0 695.0,287.3 697.0,287.6 699.0,287.9 701.0,288.1 703.0,288.4 705.0,288.7 707.0,289.1 709.1,289.4 711.1,289.8 713.1,290.1 715.1,290.4 717.1,290.7 719.1,290.9 721.1,291.2 723.1,291.4 725.1,291.7 727.2,292.0 729.2,292.3 731.2,292.7 733.2,293.0 735.2,293.3 737.2,293.6 739.2,293.9 741.2,294.2 743.2,294.4 745.3,294.7 747.3,294.9 749.3,295.2 751.3,295.5 753.3,295.9 755.3,296.2 757.3,296.4 759.3,296.7 761.3,297.0 763.4,297.2 765.4,297.5 767.4,297.7 769.4,298.1 771.4,298.3 773.4,298.6 775.4,298.8 777.4,299.1 779.4,299.3 781.5,299.5 783.5,299.8 785.5,300.1 787.5,300.4 789.5,300.7 791.5,301.0 793.5,301.3 795.5,301.6 797.5,301.9 799.6,302.2 801.6,302.5 803.6,302.8 805.6,303.2 807.6,303.5 809.6,303.8 811.6,304.2 813.6,304.5 815.6,304.7 817.7,305.0 819.7,305.3 821.7,305.6 823.7,305.9 825.7,306.1 827.7,306.4 829.7,306.7 831.7,307.0 833.7,307.3 835.8,307.6 837.8,307.9 839.8,308.2 841.8,308.4 843.8,308.7 845.8,309.0 847.8,309.3 849.8,309.7 851.8,310.0 853.9,310.3 855.9,310.6 857.9,310.9 859.9,311.2 861.9,311.5 863.9,311.8 865.9,312.1 867.9,312.4 869.9,312.7 872.0,313.0 874.0,313.3 876.0,313.7 878.0,314.0 880.0,314.3" fill="none" stroke="#ff9f0a" stroke-width="2"/>
<polyline points="520.0,262.8 522.0,263.1 524.0,263.4 526.0,263.7 528.0,264.0 530.1,264.4 532.1,264.6 534.1,264.9 536.1,265.2 538.1,265.5 540.1,265.8 542.1,266.2 544.1,266.6 546.1,266.9 548.2,267.2 550.2,267.5 552.2,267.8 554.2,268.1 556.2,268.4 558.2,268.8 560.2,269.1 562.2,269.4 564.2,269.7 566.3,270.0 568.3,270.2 570.3,270.5 572.3,270.7 574.3,271.0 576.3,271.4 578.3,271.7 580.3,272.0 582.3,272.3 584.4,272.6 586.4,272.9 588.4,273.2 590.4,273.5 592.4,273.8 594.4,274.1 596.4,274.5 598.4,274.8 600.4,275.0 602.5,275.3 604.5,275.6 606.5,275.9 608.5,276.2 610.5,276.5 612.5,276.8 614.5,277.1 616.5,277.4 618.5,277.7 620.6,278.0 622.6,278.3 624.6,278.7 626.6,279.0 628.6,279.3 630.6,279.6" fill="none" stroke="#0a84ff" stroke-width="2"/>
<text x="700.0" y="342.0" font-family="sans-serif" font-size="11" fill="#6e6e73" text-anchor="middle">battery state of charge vs step (dashed = fresh, solid = drained)</text>
</svg>
