<svg xmlns="http://www.w3.org/2000/svg" width="820" height="400" viewBox="0 0 820 400">
<rect width="820" height="400" fill="#fbfbfd"/>
<text x="70" y="34" font-family="sans-serif" font-size="20" fill="#1d1d1f">Motor-level racing MPPI: lap progress and rotor saturation</text>
<text x="70" y="56" font-family="sans-serif" font-size="13" fill="#6e6e73">four-rotor control; bar = laps + lap fraction; labels show mean speed and rotor saturation fraction</text>
<line x1="70" y1="300.0" x2="750.0" y2="300.0" stroke="#e5e5ea" stroke-width="1"/>
<text x="62.0" y="304.0" font-family="sans-serif" font-size="11" fill="#6e6e73" text-anchor="end">0.0</text>
<line x1="70" y1="200.0" x2="750.0" y2="200.0" stroke="#e5e5ea" stroke-width="1"/>
<text x="62.0" y="204.0" font-family="sans-serif" font-size="11" fill="#6e6e73" text-anchor="end">0.5</text>
<line x1="70" y1="100.0" x2="750.0" y2="100.0" stroke="#e5e5ea" stroke-width="1"/>
<text x="62.0" y="104.0" font-family="sans-serif" font-size="11" fill="#6e6e73" text-anchor="end">1.0</text>
<rect x="119.3" y="100.0" width="71.4" height="200.0" fill="#0a84ff" rx="3"/>
<text x="155.0" y="92.0" font-family="sans-serif" font-size="12" fill="#1d1d1f" text-anchor="middle">1.00</text>
<text x="155.0" y="322.0" font-family="sans-serif" font-size="13" fill="#1d1d1f" text-anchor="middle">agile-slalom</text>
<text x="155.0" y="338.0" font-family="sans-serif" font-size="11" fill="#6e6e73" text-anchor="middle">4/4 gates · 2.3 m/s</text>
<text x="155.0" y="354.0" font-family="sans-serif" font-size="11" fill="#6e6e73" text-anchor="middle">3.5s · sat 44%</text>
<rect x="289.3" y="150.0" width="71.4" height="150.0" fill="#ff9f0a" rx="3"/>
<text x="325.0" y="142.0" font-family="sans-serif" font-size="12" fill="#1d1d1f" text-anchor="middle">0.75</text>
<text x="325.0" y="322.0" font-family="sans-serif" font-size="13" fill="#1d1d1f" text-anchor="middle">limited-slalom</text>
<text x="325.0" y="338.0" font-family="sans-serif" font-size="11" fill="#6e6e73" text-anchor="middle">3/4 gates · 1.5 m/s</text>
<text x="325.0" y="354.0" font-family="sans-serif" font-size="11" fill="#6e6e73" text-anchor="middle">- · sat 57%</text>
<rect x="459.3" y="100.0" width="71.4" height="200.0" fill="#0a84ff" rx="3"/>
<text x="495.0" y="92.0" font-family="sans-serif" font-size="12" fill="#1d1d1f" text-anchor="middle">1.00</text>
<text x="495.0" y="322.0" font-family="sans-serif" font-size="13" fill="#1d1d1f" text-anchor="middle">agile-climb</text>
<text x="495.0" y="338.0" font-family="sans-serif" font-size="11" fill="#6e6e73" text-anchor="middle">3/3 gates · 2.8 m/s</text>
<text x="495.0" y="354.0" font-family="sans-serif" font-size="11" fill="#6e6e73" text-anchor="middle">2.0s · sat 41%</text>
<rect x="629.3" y="100.0" width="71.4" height="200.0" fill="#0a84ff" rx="3"/>
<text x="665.0" y="92.0" font-family="sans-serif" font-size="12" fill="#1d1d1f" text-anchor="middle">1.00</text>
<text x="665.0" y="322.0" font-family="sans-serif" font-size="13" fill="#1d1d1f" text-anchor="middle">agile-square</text>
<text x="665.0" y="338.0" font-family="sans-serif" font-size="11" fill="#6e6e73" text-anchor="middle">4/4 gates · 3.6 m/s</text>
<text x="665.0" y="354.0" font-family="sans-serif" font-size="11" fill="#6e6e73" text-anchor="middle">3.3s · sat 20%</text>
<rect x="570" y="70" width="14" height="14" fill="#0a84ff" rx="3"/>
<text x="590" y="82" font-family="sans-serif" font-size="12" fill="#1d1d1f">finished the course / lap</text>
<rect x="570" y="90" width="14" height="14" fill="#ff9f0a" rx="3"/>
<text x="590" y="102" font-family="sans-serif" font-size="12" fill="#1d1d1f">partial progress</text>
</svg>
