<svg xmlns="http://www.w3.org/2000/svg" width="920" height="440" viewBox="0 0 920 440">
<rect width="920" height="440" fill="#fbfbfd"/>
<text x="60" y="34" font-family="sans-serif" font-size="20" fill="#1d1d1f">Battery recovery: terminal voltage relaxes back on ease-off as charge keeps falling</text>
<text x="60" y="56" font-family="sans-serif" font-size="13" fill="#6e6e73">scripted hard/rest load profile; shaded = hard (full throttle) phases</text>
<rect x="60.0" y="80.0" width="175.7" height="280.0" fill="#f0f0f2"/>
<rect x="411.5" y="80.0" width="175.7" height="280.0" fill="#f0f0f2"/>
<line x1="60" y1="360.0" x2="760" y2="360.0" stroke="#e5e5ea" stroke-width="1"/>
<text x="54.0" y="363.0" font-family="sans-serif" font-size="10" fill="#6e6e73" text-anchor="end">0%</text>
<line x1="60" y1="290.0" x2="760" y2="290.0" stroke="#e5e5ea" stroke-width="1"/>
<text x="54.0" y="293.0" font-family="sans-serif" font-size="10" fill="#6e6e73" text-anchor="end">25%</text>
<line x1="60" y1="220.0" x2="760" y2="220.0" stroke="#e5e5ea" stroke-width="1"/>
<text x="54.0" y="223.0" font-family="sans-serif" font-size="10" fill="#6e6e73" text-anchor="end">50%</text>
<line x1="60" y1="150.0" x2="760" y2="150.0" stroke="#e5e5ea" stroke-width="1"/>
<text x="54.0" y="153.0" font-family="sans-serif" font-size="10" fill="#6e6e73" text-anchor="end">75%</text>
<line x1="60" y1="80.0" x2="760" y2="80.0" stroke="#e5e5ea" stroke-width="1"/>
<text x="54.0" y="83.0" font-family="sans-serif" font-size="10" fill="#6e6e73" text-anchor="end">100%</text>
<polyline points="60.0,122.5 62.9,123.1 65.9,123.7 68.8,124.4 71.7,125.0 74.6,125.6 77.6,126.3 80.5,126.9 83.4,127.5 86.4,128.1 89.3,128.7 92.2,129.3 95.1,129.9 98.1,130.5 101.0,131.1 103.9,131.7 106.9,132.3 109.8,132.9 112.7,133.4 115.6,134.0 118.6,134.6 121.5,135.2 124.4,135.7 127.4,136.3 130.3,136.8 133.2,137.4 136.2,137.9 139.1,138.5 142.0,139.0 144.9,139.6 147.9,140.1 150.8,140.7 153.7,141.2 156.7,141.7 159.6,142.3 162.5,142.8 165.4,143.3 168.4,143.8 171.3,144.4 174.2,144.9 177.2,145.4 180.1,145.9 183.0,146.4 185.9,147.0 188.9,147.5 191.8,148.0 194.7,148.5 197.7,149.0 200.6,149.5 203.5,150.0 206.4,150.5 209.4,151.0 212.3,151.5 215.2,152.0 218.2,152.5 221.1,153.0 224.0,153.5 226.9,154.0 229.9,154.5 232.8,155.0 235.7,155.4 238.7,155.8 241.6,156.2 244.5,156.5 247.4,156.9 250.4,157.2 253.3,157.6 256.2,157.9 259.2,158.3 262.1,158.6 265.0,159.0 267.9,159.3 270.9,159.6 273.8,160.0 276.7,160.3 279.7,160.7 282.6,161.0 285.5,161.4 288.5,161.7 291.4,162.1 294.3,162.4 297.2,162.7 300.2,163.1 303.1,163.4 306.0,163.8 309.0,164.1 311.9,164.5 314.8,164.8 317.7,165.1 320.7,165.5 323.6,165.8 326.5,166.2 329.5,166.5 332.4,166.9 335.3,167.2 338.2,167.5 341.2,167.9 344.1,168.2 347.0,168.6 350.0,168.9 352.9,169.3 355.8,169.6 358.7,170.0 361.7,170.3 364.6,170.6 367.5,171.0 370.5,171.3 373.4,171.7 376.3,172.0 379.2,172.4 382.2,172.7 385.1,173.0 388.0,173.4 391.0,173.7 393.9,174.1 396.8,174.4 399.7,174.8 402.7,175.1 405.6,175.4 408.5,175.8 411.5,176.2 414.4,176.7 417.3,177.1 420.3,177.6 423.2,178.1 426.1,178.6 429.0,179.1 432.0,179.5 434.9,180.0 437.8,180.5 440.8,181.0 443.7,181.5 446.6,181.9 449.5,182.4 452.5,182.9 455.4,183.3 458.3,183.8 461.3,184.3 464.2,184.7 467.1,185.2 470.0,185.7 473.0,186.1 475.9,186.6 478.8,187.1 481.8,187.5 484.7,188.0 487.6,188.4 490.5,188.9 493.5,189.4 496.4,189.8 499.3,190.3 502.3,190.7 505.2,191.2 508.1,191.6 511.0,192.1 514.0,192.5 516.9,193.0 519.8,193.4 522.8,193.9 525.7,194.3 528.6,194.8 531.5,195.2 534.5,195.7 537.4,196.1 540.3,196.5 543.3,197.0 546.2,197.4 549.1,197.9 552.1,198.3 555.0,198.8 557.9,199.2 560.8,199.6 563.8,200.1 566.7,200.5 569.6,200.9 572.6,201.4 575.5,201.8 578.4,202.3 581.3,202.7 584.3,203.1 587.2,203.5 590.1,203.9 593.1,204.2 596.0,204.6 598.9,204.9 601.8,205.3 604.8,205.6 607.7,206.0 610.6,206.3 613.6,206.7 616.5,207.0 619.4,207.3 622.3,207.7 625.3,208.0 628.2,208.4 631.1,208.7 634.1,209.1 637.0,209.4 639.9,209.8 642.8,210.1 645.8,210.4 648.7,210.8 651.6,211.1 654.6,211.5 657.5,211.8 660.4,212.2 663.3,212.5 666.3,212.8 669.2,213.2 672.1,213.5 675.1,213.9 678.0,214.2 680.9,214.6 683.8,214.9 686.8,215.2 689.7,215.6 692.6,215.9 695.6,216.3 698.5,216.6 701.4,217.0 704.4,217.3 707.3,217.6 710.2,218.0 713.1,218.3 716.1,218.7 719.0,219.0 721.9,219.4 724.9,219.7 727.8,220.1 730.7,220.4 733.6,220.7 736.6,221.1 739.5,221.4 742.4,221.8 745.4,222.1 748.3,222.5 751.2,222.8 754.1,223.1 757.1,223.5 760.0,223.8" fill="none" stroke="#8e8e93" stroke-width="2"/>
<polyline points="60.0,132.2 62.9,137.2 65.9,139.6 68.8,140.8 71.7,141.5 74.6,142.0 77.6,142.4 80.5,142.7 83.4,143.0 86.4,143.3 89.3,143.5 92.2,143.8 95.1,144.1 98.1,144.4 101.0,144.6 103.9,144.9 106.9,145.2 109.8,145.5 112.7,145.7 115.6,146.0 118.6,146.3 121.5,146.6 124.4,146.8 127.4,147.1 130.3,147.4 133.2,147.6 136.2,147.9 139.1,148.2 142.0,148.4 144.9,148.7 147.9,149.0 150.8,149.3 153.7,149.5 156.7,149.8 159.6,150.1 162.5,150.3 165.4,150.6 168.4,150.9 171.3,151.1 174.2,151.4 177.2,151.7 180.1,151.9 183.0,152.2 185.9,152.4 188.9,152.7 191.8,153.0 194.7,153.2 197.7,153.5 200.6,153.8 203.5,154.0 206.4,154.3 209.4,154.6 212.3,154.8 215.2,155.1 218.2,155.3 221.1,155.6 224.0,155.9 226.9,156.1 229.9,156.4 232.8,156.6 235.7,149.4 238.7,145.6 241.6,143.6 244.5,142.7 247.4,142.2 250.4,142.1 253.3,142.1 256.2,142.2 259.2,142.3 262.1,142.4 265.0,142.6 267.9,142.8 270.9,142.9 273.8,143.1 276.7,143.3 279.7,143.4 282.6,143.6 285.5,143.8 288.5,143.9 291.4,144.1 294.3,144.3 297.2,144.5 300.2,144.6 303.1,144.8 306.0,145.0 309.0,145.1 311.9,145.3 314.8,145.5 317.7,145.7 320.7,145.8 323.6,146.0 326.5,146.2 329.5,146.4 332.4,146.5 335.3,146.7 338.2,146.9 341.2,147.0 344.1,147.2 347.0,147.4 350.0,147.6 352.9,147.7 355.8,147.9 358.7,148.1 361.7,148.2 364.6,148.4 367.5,148.6 370.5,148.8 373.4,148.9 376.3,149.1 379.2,149.3 382.2,149.4 385.1,149.6 388.0,149.8 391.0,150.0 393.9,150.1 396.8,150.3 399.7,150.5 402.7,150.6 405.6,150.8 408.5,151.0 411.5,159.1 414.4,163.0 417.3,164.8 420.3,165.8 423.2,166.4 426.1,166.8 429.0,167.1 432.0,167.4 434.9,167.6 437.8,167.9 440.8,168.1 443.7,168.4 446.6,168.6 449.5,168.8 452.5,169.1 455.4,169.3 458.3,169.6 461.3,169.8 464.2,170.1 467.1,170.3 470.0,170.5 473.0,170.8 475.9,171.0 478.8,171.3 481.8,171.5 484.7,171.7 487.6,172.0 490.5,172.2 493.5,172.5 496.4,172.7 499.3,172.9 502.3,173.2 505.2,173.4 508.1,173.7 511.0,173.9 514.0,174.1 516.9,174.4 519.8,174.6 522.8,174.8 525.7,175.1 528.6,175.3 531.5,175.5 534.5,175.8 537.4,176.0 540.3,176.2 543.3,176.5 546.2,176.7 549.1,176.9 552.1,177.2 555.0,177.4 557.9,177.6 560.8,177.9 563.8,178.1 566.7,178.3 569.6,178.6 572.6,178.8 575.5,179.0 578.4,179.3 581.3,179.5 584.3,179.7 587.2,174.4 590.1,171.6 593.1,170.2 596.0,169.6 598.9,169.3 601.8,169.2 604.8,169.2 607.7,169.3 610.6,169.5 613.6,169.6 616.5,169.8 619.4,170.0 622.3,170.1 625.3,170.3 628.2,170.5 631.1,170.6 634.1,170.8 637.0,171.0 639.9,171.2 642.8,171.3 645.8,171.5 648.7,171.7 651.6,171.8 654.6,172.0 657.5,172.2 660.4,172.4 663.3,172.5 666.3,172.7 669.2,172.9 672.1,173.0 675.1,173.2 678.0,173.4 680.9,173.6 683.8,173.7 686.8,173.9 689.7,174.1 692.6,174.2 695.6,174.4 698.5,174.6 701.4,174.8 704.4,174.9 707.3,175.1 710.2,175.3 713.1,175.5 716.1,175.6 719.0,175.8 721.9,176.0 724.9,176.1 727.8,176.3 730.7,176.5 733.6,176.7 736.6,176.8 739.5,177.0 742.4,177.2 745.4,177.3 748.3,177.5 751.2,177.7 754.1,177.9 757.1,178.0 760.0,178.2" fill="none" stroke="#ff9f0a" stroke-width="2"/>
<polyline points="60.0,133.9 62.9,140.6 65.9,144.8 68.8,147.6 71.7,149.9 74.6,151.9 77.6,153.7 80.5,155.5 83.4,157.1 86.4,158.6 89.3,160.1 92.2,161.6 95.1,163.0 98.1,164.3 101.0,165.6 103.9,166.9 106.9,168.1 109.8,169.2 112.7,170.4 115.6,171.5 118.6,172.5 121.5,173.6 124.4,174.5 127.4,175.5 130.3,176.4 133.2,177.3 136.2,178.2 139.1,179.0 142.0,179.8 144.9,180.6 147.9,181.4 150.8,182.1 153.7,182.8 156.7,183.5 159.6,184.2 162.5,184.9 165.4,185.5 168.4,186.1 171.3,186.7 174.2,187.3 177.2,187.8 180.1,188.4 183.0,188.9 185.9,189.4 188.9,189.9 191.8,190.4 194.7,190.9 197.7,191.4 200.6,191.8 203.5,192.3 206.4,192.7 209.4,193.1 212.3,193.5 215.2,193.9 218.2,194.3 221.1,194.7 224.0,195.1 226.9,195.4 229.9,195.8 232.8,196.1 235.7,192.1 238.7,189.8 241.6,188.6 244.5,187.8 247.4,187.3 250.4,187.0 253.3,186.8 256.2,186.7 259.2,186.5 262.1,186.4 265.0,186.3 267.9,186.2 270.9,186.2 273.8,186.1 276.7,186.0 279.7,186.0 282.6,185.9 285.5,185.9 288.5,185.9 291.4,185.8 294.3,185.8 297.2,185.8 300.2,185.8 303.1,185.8 306.0,185.8 309.0,185.8 311.9,185.8 314.8,185.8 317.7,185.8 320.7,185.9 323.6,185.9 326.5,185.9 329.5,186.0 332.4,186.0 335.3,186.0 338.2,186.1 341.2,186.1 344.1,186.2 347.0,186.3 350.0,186.3 352.9,186.4 355.8,186.5 358.7,186.5 361.7,186.6 364.6,186.7 367.5,186.8 370.5,186.9 373.4,186.9 376.3,187.0 379.2,187.1 382.2,187.2 385.1,187.3 388.0,187.4 391.0,187.5 393.9,187.6 396.8,187.7 399.7,187.8 402.7,187.9 405.6,188.1 408.5,188.2 411.5,193.4 414.4,196.1 417.3,197.6 420.3,198.6 423.2,199.3 426.1,199.9 429.0,200.4 432.0,200.9 434.9,201.4 437.8,201.8 440.8,202.3 443.7,202.7 446.6,203.1 449.5,203.5 452.5,203.9 455.4,204.3 458.3,204.7 461.3,205.0 464.2,205.4 467.1,205.7 470.0,206.1 473.0,206.4 475.9,206.7 478.8,207.1 481.8,207.4 484.7,207.7 487.6,208.0 490.5,208.3 493.5,208.6 496.4,208.8 499.3,209.1 502.3,209.4 505.2,209.7 508.1,209.9 511.0,210.2 514.0,210.4 516.9,210.7 519.8,210.9 522.8,211.2 525.7,211.4 528.6,211.6 531.5,211.9 534.5,212.1 537.4,212.3 540.3,212.5 543.3,212.7 546.2,212.9 549.1,213.2 552.1,213.4 555.0,213.6 557.9,213.8 560.8,214.0 563.8,214.2 566.7,214.4 569.6,214.6 572.6,214.7 575.5,214.9 578.4,215.1 581.3,215.3 584.3,215.5 587.2,213.0 590.1,211.6 593.1,210.8 596.0,210.3 598.9,210.0 601.8,209.8 604.8,209.7 607.7,209.6 610.6,209.5 613.6,209.4 616.5,209.3 619.4,209.3 622.3,209.2 625.3,209.2 628.2,209.2 631.1,209.1 634.1,209.1 637.0,209.1 639.9,209.1 642.8,209.1 645.8,209.1 648.7,209.1 651.6,209.1 654.6,209.1 657.5,209.2 660.4,209.2 663.3,209.2 666.3,209.2 669.2,209.3 672.1,209.3 675.1,209.4 678.0,209.4 680.9,209.5 683.8,209.5 686.8,209.6 689.7,209.7 692.6,209.7 695.6,209.8 698.5,209.9 701.4,209.9 704.4,210.0 707.3,210.1 710.2,210.2 713.1,210.3 716.1,210.4 719.0,210.5 721.9,210.5 724.9,210.6 727.8,210.7 730.7,210.8 733.6,210.9 736.6,211.1 739.5,211.2 742.4,211.3 745.4,211.4 748.3,211.5 751.2,211.6 754.1,211.7 757.1,211.8 760.0,212.0" fill="none" stroke="#0a84ff" stroke-width="2"/>
<polyline points="60.0,352.3 62.9,343.6 65.9,334.8 68.8,326.0 71.7,317.5 74.6,309.3 77.6,301.4 80.5,293.8 83.4,286.5 86.4,279.5 89.3,272.8 92.2,266.3 95.1,260.1 98.1,254.2 101.0,248.5 103.9,243.0 106.9,237.7 109.8,232.7 112.7,227.9 115.6,223.2 118.6,218.8 121.5,214.5 124.4,210.5 127.4,206.5 130.3,202.8 133.2,199.2 136.2,195.8 139.1,192.5 142.0,189.3 144.9,186.3 147.9,183.4 150.8,180.6 153.7,177.9 156.7,175.4 159.6,172.9 162.5,170.6 165.4,168.4 168.4,166.2 171.3,164.2 174.2,162.2 177.2,160.4 180.1,158.6 183.0,156.9 185.9,155.2 188.9,153.7 191.8,152.2 194.7,150.8 197.7,149.4 200.6,148.1 203.5,146.9 206.4,145.7 209.4,144.6 212.3,143.5 215.2,142.5 218.2,141.5 221.1,140.6 224.0,139.7 226.9,138.9 229.9,138.1 232.8,137.3 235.7,137.7 238.7,138.5 241.6,139.7 244.5,141.0 247.4,142.3 250.4,143.6 253.3,144.9 256.2,146.2 259.2,147.5 262.1,148.7 265.0,149.9 267.9,151.0 270.9,152.1 273.8,153.2 276.7,154.3 279.7,155.3 282.6,156.3 285.5,157.2 288.5,158.2 291.4,159.1 294.3,160.0 297.2,160.8 300.2,161.6 303.1,162.4 306.0,163.2 309.0,164.0 311.9,164.7 314.8,165.4 317.7,166.1 320.7,166.8 323.6,167.4 326.5,168.0 329.5,168.6 332.4,169.2 335.3,169.8 338.2,170.4 341.2,170.9 344.1,171.4 347.0,171.9 350.0,172.4 352.9,172.9 355.8,173.4 358.7,173.8 361.7,174.2 364.6,174.7 367.5,175.1 370.5,175.5 373.4,175.9 376.3,176.2 379.2,176.6 382.2,177.0 385.1,177.3 388.0,177.6 391.0,177.9 393.9,178.3 396.8,178.6 399.7,178.9 402.7,179.1 405.6,179.4 408.5,179.7 411.5,178.7 414.4,177.3 417.3,175.7 420.3,174.0 423.2,172.3 426.1,170.7 429.0,169.2 432.0,167.7 434.9,166.3 437.8,164.9 440.8,163.7 443.7,162.4 446.6,161.2 449.5,160.1 452.5,159.1 455.4,158.0 458.3,157.1 461.3,156.2 464.2,155.3 467.1,154.4 470.0,153.6 473.0,152.9 475.9,152.2 478.8,151.5 481.8,150.9 484.7,150.2 487.6,149.7 490.5,149.1 493.5,148.6 496.4,148.1 499.3,147.7 502.3,147.2 505.2,146.8 508.1,146.4 511.0,146.1 514.0,145.7 516.9,145.4 519.8,145.1 522.8,144.8 525.7,144.6 528.6,144.3 531.5,144.1 534.5,143.9 537.4,143.7 540.3,143.6 543.3,143.4 546.2,143.3 549.1,143.1 552.1,143.0 555.0,142.9 557.9,142.8 560.8,142.8 563.8,142.7 566.7,142.6 569.6,142.6 572.6,142.6 575.5,142.5 578.4,142.5 581.3,142.5 584.3,142.5 587.2,143.2 590.1,144.1 593.1,145.2 596.0,146.4 598.9,147.6 601.8,148.8 604.8,150.0 607.7,151.1 610.6,152.2 613.6,153.3 616.5,154.4 619.4,155.4 622.3,156.4 625.3,157.3 628.2,158.3 631.1,159.2 634.1,160.0 637.0,160.9 639.9,161.7 642.8,162.5 645.8,163.3 648.7,164.0 651.6,164.8 654.6,165.5 657.5,166.2 660.4,166.8 663.3,167.5 666.3,168.1 669.2,168.7 672.1,169.3 675.1,169.9 678.0,170.4 680.9,170.9 683.8,171.5 686.8,172.0 689.7,172.5 692.6,172.9 695.6,173.4 698.5,173.8 701.4,174.3 704.4,174.7 707.3,175.1 710.2,175.5 713.1,175.9 716.1,176.3 719.0,176.6 721.9,177.0 724.9,177.3 727.8,177.7 730.7,178.0 733.6,178.3 736.6,178.6 739.5,178.9 742.4,179.2 745.4,179.4 748.3,179.7 751.2,180.0 754.1,180.2 757.1,180.5 760.0,180.7" fill="none" stroke="#34c759" stroke-width="2" stroke-dasharray="4 3"/>
<rect x="772.0" y="76.0" width="12" height="12" fill="#8e8e93" rx="2"/>
<text x="788.0" y="86.0" font-family="sans-serif" font-size="11" fill="#1d1d1f">state of charge</text>
<rect x="772.0" y="94.0" width="12" height="12" fill="#ff9f0a" rx="2"/>
<text x="788.0" y="104.0" font-family="sans-serif" font-size="11" fill="#1d1d1f">terminal voltage (no recovery)</text>
<rect x="772.0" y="112.0" width="12" height="12" fill="#0a84ff" rx="2"/>
<text x="788.0" y="122.0" font-family="sans-serif" font-size="11" fill="#1d1d1f">terminal voltage (recovery)</text>
<rect x="772.0" y="130.0" width="12" height="12" fill="#34c759" rx="2"/>
<text x="788.0" y="140.0" font-family="sans-serif" font-size="11" fill="#1d1d1f">relaxation overpotential</text>
<text x="410.0" y="390.0" font-family="sans-serif" font-size="11" fill="#6e6e73" text-anchor="middle">time [s]</text>
</svg>
