<svg xmlns="http://www.w3.org/2000/svg" width="920" height="420" viewBox="0 0 920 420">
<rect width="920" height="420" fill="#fbfbfd"/>
<text x="40" y="34" font-family="sans-serif" font-size="20" fill="#1d1d1f">Charge-budget sweep: pacing a draining pack over a multi-lap race</text>
<text x="40" y="56" font-family="sans-serif" font-size="13" fill="#6e6e73">left: lap progress (bar) with final-charge labels; right: battery state of charge over the run (darker = heavier budget)</text>
<line x1="60" y1="320.0" x2="420.0" y2="320.0" stroke="#e5e5ea" stroke-width="1"/>
<text x="52.0" y="324.0" font-family="sans-serif" font-size="11" fill="#6e6e73" text-anchor="end">0.0</text>
<line x1="60" y1="215.0" x2="420.0" y2="215.0" stroke="#e5e5ea" stroke-width="1"/>
<text x="52.0" y="219.0" font-family="sans-serif" font-size="11" fill="#6e6e73" text-anchor="end">1.8</text>
<line x1="60" y1="110.0" x2="420.0" y2="110.0" stroke="#e5e5ea" stroke-width="1"/>
<text x="52.0" y="114.0" font-family="sans-serif" font-size="11" fill="#6e6e73" text-anchor="end">3.5</text>
<rect x="82.5" y="110.0" width="45.0" height="210.0" fill="#ff453a" rx="3"/>
<text x="105.0" y="102.0" font-family="sans-serif" font-size="11" fill="#1d1d1f" text-anchor="middle">3.50</text>
<text x="105.0" y="342.0" font-family="sans-serif" font-size="12" fill="#1d1d1f" text-anchor="middle">w=0</text>
<text x="105.0" y="358.0" font-family="sans-serif" font-size="10" fill="#6e6e73" text-anchor="middle">end soc 1%</text>
<rect x="172.5" y="125.0" width="45.0" height="195.0" fill="#ff9f0a" rx="3"/>
<text x="195.0" y="117.0" font-family="sans-serif" font-size="11" fill="#1d1d1f" text-anchor="middle">3.25</text>
<text x="195.0" y="342.0" font-family="sans-serif" font-size="12" fill="#1d1d1f" text-anchor="middle">w=50</text>
<text x="195.0" y="358.0" font-family="sans-serif" font-size="10" fill="#6e6e73" text-anchor="middle">end soc 3%</text>
<rect x="262.5" y="185.0" width="45.0" height="135.0" fill="#30b0c7" rx="3"/>
<text x="285.0" y="177.0" font-family="sans-serif" font-size="11" fill="#1d1d1f" text-anchor="middle">2.25</text>
<text x="285.0" y="342.0" font-family="sans-serif" font-size="12" fill="#1d1d1f" text-anchor="middle">w=150</text>
<text x="285.0" y="358.0" font-family="sans-serif" font-size="10" fill="#6e6e73" text-anchor="middle">end soc 5%</text>
<rect x="352.5" y="215.0" width="45.0" height="105.0" fill="#0a84ff" rx="3"/>
<text x="375.0" y="207.0" font-family="sans-serif" font-size="11" fill="#1d1d1f" text-anchor="middle">1.75</text>
<text x="375.0" y="342.0" font-family="sans-serif" font-size="12" fill="#1d1d1f" text-anchor="middle">w=400</text>
<text x="375.0" y="358.0" font-family="sans-serif" font-size="10" fill="#6e6e73" text-anchor="middle">end soc 7%</text>
<rect x="520" y="90" width="360" height="230" fill="#ffffff" stroke="#e5e5ea"/>
<line x1="520" y1="228.0" x2="880.0" y2="228.0" stroke="#c7c7cc" stroke-width="1" stroke-dasharray="4 3"/>
<text x="524.0" y="224.0" font-family="sans-serif" font-size="10" fill="#8e8e93">reserve</text>
<text x="514.0" y="323.0" font-family="sans-serif" font-size="10" fill="#6e6e73" text-anchor="end">0%</text>
<text x="514.0" y="265.5" font-family="sans-serif" font-size="10" fill="#6e6e73" text-anchor="end">25%</text>
<text x="514.0" y="208.0" font-family="sans-serif" font-size="10" fill="#6e6e73" text-anchor="end">50%</text>
<text x="514.0" y="150.5" font-family="sans-serif" font-size="10" fill="#6e6e73" text-anchor="end">75%</text>
<text x="514.0" y="93.0" font-family="sans-serif" font-size="10" fill="#6e6e73" text-anchor="end">100%</text>
<polyline points="520.0,159.7 521.5,160.3 523.0,161.0 524.5,161.8 526.0,162.6 527.5,163.3 529.0,164.1 530.5,164.7 532.1,165.5 533.6,166.3 535.1,166.9 536.6,167.6 538.1,168.1 539.6,168.8 541.1,169.5 542.6,170.1 544.1,170.9 545.6,171.5 547.1,172.2 548.6,172.8 550.1,173.3 551.6,173.9 553.1,174.4 554.6,175.1 556.2,175.8 557.7,176.5 559.2,177.2 560.7,178.1 562.2,179.0 563.7,179.7 565.2,180.5 566.7,181.3 568.2,182.1 569.7,182.9 571.2,183.6 572.7,184.4 574.2,185.0 575.7,185.7 577.2,186.3 578.7,187.1 580.3,187.8 581.8,188.4 583.3,189.1 584.8,189.9 586.3,190.6 587.8,191.3 589.3,192.2 590.8,193.0 592.3,193.7 593.8,194.4 595.3,195.1 596.8,195.8 598.3,196.5 599.8,197.2 601.3,197.9 602.8,198.5 604.4,199.0 605.9,199.7 607.4,200.5 608.9,201.0 610.4,201.7 611.9,202.2 613.4,202.7 614.9,203.2 616.4,204.0 617.9,204.6 619.4,205.3 620.9,206.0 622.4,206.8 623.9,207.6 625.4,208.3 626.9,209.0 628.5,209.7 630.0,210.4 631.5,211.2 633.0,211.8 634.5,212.6 636.0,213.3 637.5,213.9 639.0,214.5 640.5,215.0 642.0,215.4 643.5,215.9 645.0,216.6 646.5,217.2 648.0,217.8 649.5,218.5 651.0,219.2 652.6,219.8 654.1,220.5 655.6,221.2 657.1,221.9 658.6,222.7 660.1,223.4 661.6,224.0 663.1,224.6 664.6,225.2 666.1,225.9 667.6,226.7 669.1,227.3 670.6,228.0 672.1,228.6 673.6,229.2 675.1,230.0 676.7,230.7 678.2,231.4 679.7,232.1 681.2,232.9 682.7,233.7 684.2,234.3 685.7,234.9 687.2,235.5 688.7,236.1 690.2,236.8 691.7,237.4 693.2,238.0 694.7,238.6 696.2,239.3 697.7,239.9 699.2,240.6 700.8,241.2 702.3,241.9 703.8,242.6 705.3,243.2 706.8,243.7 708.3,244.4 709.8,245.1 711.3,245.8 712.8,246.5 714.3,247.2 715.8,247.8 717.3,248.6 718.8,249.3 720.3,249.9 721.8,250.5 723.3,251.1 724.9,251.8 726.4,252.5 727.9,253.2 729.4,253.9 730.9,254.6 732.4,255.4 733.9,256.0 735.4,256.7 736.9,257.4 738.4,258.0 739.9,258.6 741.4,259.1 742.9,259.7 744.4,260.4 745.9,261.1 747.4,261.7 749.0,262.2 750.5,262.8 752.0,263.4 753.5,264.0 755.0,264.7 756.5,265.4 758.0,266.1 759.5,266.8 761.0,267.4 762.5,268.1 764.0,268.8 765.5,269.4 767.0,270.1 768.5,270.8 770.0,271.6 771.5,272.2 773.1,272.9 774.6,273.6 776.1,274.3 777.6,275.0 779.1,275.6 780.6,276.3 782.1,276.9 783.6,277.6 785.1,278.3 786.6,279.0 788.1,279.6 789.6,280.1 791.1,280.7 792.6,281.3 794.1,282.0 795.6,282.7 797.2,283.4 798.7,284.1 800.2,284.7 801.7,285.3 803.2,285.9 804.7,286.5 806.2,287.1 807.7,287.8 809.2,288.5 810.7,289.1 812.2,289.8 813.7,290.4 815.2,291.1 816.7,291.7 818.2,292.3 819.7,292.8 821.3,293.5 822.8,294.1 824.3,294.7 825.8,295.3 827.3,295.9 828.8,296.6 830.3,297.2 831.8,297.8 833.3,298.4 834.8,299.1 836.3,299.8 837.8,300.5 839.3,301.1 840.8,301.8 842.3,302.4 843.8,303.0 845.4,303.6 846.9,304.2 848.4,304.8 849.9,305.4 851.4,306.0 852.9,306.7 854.4,307.4 855.9,308.0 857.4,308.6 858.9,309.3 860.4,309.9 861.9,310.5 863.4,311.1 864.9,311.7 866.4,312.3 867.9,312.9 869.5,313.6 871.0,314.1 872.5,314.8 874.0,315.3 875.5,315.9 877.0,316.5 878.5,317.1 880.0,317.7" fill="none" stroke="#ff453a" stroke-width="2"/>
<polyline points="520.0,159.7 521.5,160.3 523.0,161.0 524.5,161.8 526.0,162.6 527.5,163.3 529.0,164.1 530.5,164.7 532.1,165.5 533.6,166.3 535.1,166.9 536.6,167.6 538.1,168.1 539.6,168.8 541.1,169.5 542.6,170.1 544.1,170.9 545.6,171.5 547.1,172.2 548.6,172.8 550.1,173.3 551.6,173.9 553.1,174.4 554.6,175.1 556.2,175.8 557.7,176.5 559.2,177.2 560.7,178.1 562.2,179.0 563.7,179.7 565.2,180.5 566.7,181.3 568.2,182.1 569.7,182.9 571.2,183.6 572.7,184.4 574.2,185.0 575.7,185.7 577.2,186.3 578.7,187.1 580.3,187.8 581.8,188.4 583.3,189.1 584.8,189.9 586.3,190.6 587.8,191.3 589.3,192.2 590.8,193.0 592.3,193.7 593.8,194.4 595.3,195.1 596.8,195.8 598.3,196.5 599.8,197.2 601.3,197.9 602.8,198.5 604.4,199.0 605.9,199.7 607.4,200.5 608.9,201.0 610.4,201.7 611.9,202.2 613.4,202.7 614.9,203.2 616.4,204.0 617.9,204.6 619.4,205.3 620.9,206.0 622.4,206.8 623.9,207.6 625.4,208.3 626.9,209.0 628.5,209.7 630.0,210.4 631.5,211.2 633.0,211.8 634.5,212.6 636.0,213.3 637.5,213.9 639.0,214.5 640.5,215.0 642.0,215.4 643.5,215.9 645.0,216.5 646.5,217.2 648.0,217.9 649.5,218.5 651.0,219.1 652.6,219.7 654.1,220.4 655.6,221.1 657.1,221.8 658.6,222.4 660.1,223.1 661.6,223.7 663.1,224.4 664.6,225.0 666.1,225.8 667.6,226.4 669.1,227.0 670.6,227.6 672.1,228.3 673.6,229.0 675.1,229.8 676.7,230.7 678.2,231.4 679.7,232.1 681.2,232.9 682.7,233.6 684.2,234.3 685.7,235.0 687.2,235.8 688.7,236.5 690.2,237.2 691.7,237.8 693.2,238.4 694.7,239.0 696.2,239.5 697.7,239.9 699.2,240.5 700.8,241.1 702.3,241.8 703.8,242.5 705.3,243.1 706.8,243.8 708.3,244.4 709.8,245.0 711.3,245.8 712.8,246.5 714.3,247.2 715.8,247.9 717.3,248.6 718.8,249.3 720.3,250.0 721.8,250.7 723.3,251.4 724.9,252.1 726.4,252.7 727.9,253.2 729.4,253.8 730.9,254.5 732.4,255.2 733.9,255.9 735.4,256.5 736.9,257.2 738.4,257.7 739.9,258.2 741.4,258.8 742.9,259.5 744.4,260.1 745.9,260.8 747.4,261.4 749.0,262.1 750.5,262.8 752.0,263.4 753.5,263.8 755.0,264.4 756.5,265.0 758.0,265.7 759.5,266.3 761.0,267.0 762.5,267.5 764.0,268.2 765.5,268.9 767.0,269.5 768.5,270.1 770.0,270.7 771.5,271.4 773.1,272.0 774.6,272.7 776.1,273.4 777.6,273.9 779.1,274.6 780.6,275.3 782.1,275.9 783.6,276.7 785.1,277.3 786.6,277.9 788.1,278.5 789.6,279.1 791.1,279.7 792.6,280.3 794.1,280.9 795.6,281.5 797.2,282.1 798.7,282.8 800.2,283.4 801.7,284.0 803.2,284.6 804.7,285.2 806.2,285.7 807.7,286.2 809.2,286.6 810.7,287.1 812.2,287.5 813.7,288.0 815.2,288.5 816.7,289.1 818.2,289.6 819.7,290.1 821.3,290.6 822.8,291.2 824.3,291.8 825.8,292.4 827.3,292.9 828.8,293.4 830.3,294.0 831.8,294.7 833.3,295.4 834.8,296.0 836.3,296.7 837.8,297.3 839.3,298.0 840.8,298.6 842.3,299.2 843.8,299.9 845.4,300.4 846.9,301.0 848.4,301.5 849.9,302.1 851.4,302.6 852.9,303.2 854.4,303.8 855.9,304.5 857.4,305.2 858.9,305.8 860.4,306.5 861.9,307.1 863.4,307.8 864.9,308.4 866.4,309.1 867.9,309.7 869.5,310.3 871.0,310.9 872.5,311.4 874.0,311.9 875.5,312.5 877.0,313.0 878.5,313.4 880.0,314.0" fill="none" stroke="#ff9f0a" stroke-width="2"/>
<polyline points="520.0,159.7 521.5,160.3 523.0,161.0 524.5,161.8 526.0,162.6 527.5,163.3 529.0,164.1 530.5,164.7 532.1,165.5 533.6,166.3 535.1,166.9 536.6,167.6 538.1,168.1 539.6,168.8 541.1,169.5 542.6,170.1 544.1,170.9 545.6,171.5 547.1,172.2 548.6,172.8 550.1,173.3 551.6,173.9 553.1,174.4 554.6,175.1 556.2,175.8 557.7,176.5 559.2,177.2 560.7,178.1 562.2,179.0 563.7,179.7 565.2,180.5 566.7,181.3 568.2,182.1 569.7,182.9 571.2,183.6 572.7,184.4 574.2,185.0 575.7,185.7 577.2,186.3 578.7,187.1 580.3,187.8 581.8,188.4 583.3,189.1 584.8,189.9 586.3,190.6 587.8,191.3 589.3,192.2 590.8,193.0 592.3,193.7 593.8,194.4 595.3,195.1 596.8,195.8 598.3,196.5 599.8,197.2 601.3,197.9 602.8,198.5 604.4,199.0 605.9,199.7 607.4,200.5 608.9,201.0 610.4,201.7 611.9,202.2 613.4,202.7 614.9,203.2 616.4,204.0 617.9,204.6 619.4,205.3 620.9,206.0 622.4,206.8 623.9,207.6 625.4,208.3 626.9,209.0 628.5,209.7 630.0,210.4 631.5,211.2 633.0,211.8 634.5,212.6 636.0,213.3 637.5,213.9 639.0,214.5 640.5,215.0 642.0,215.4 643.5,216.0 645.0,216.6 646.5,217.3 648.0,218.0 649.5,218.8 651.0,219.6 652.6,220.4 654.1,221.2 655.6,222.0 657.1,222.6 658.6,223.1 660.1,223.8 661.6,224.4 663.1,225.0 664.6,225.6 666.1,226.3 667.6,226.9 669.1,227.5 670.6,228.0 672.1,228.6 673.6,229.3 675.1,229.9 676.7,230.6 678.2,231.2 679.7,231.8 681.2,232.4 682.7,233.0 684.2,233.6 685.7,234.2 687.2,234.8 688.7,235.4 690.2,236.1 691.7,236.8 693.2,237.4 694.7,237.9 696.2,238.3 697.7,238.7 699.2,239.2 700.8,239.8 702.3,240.4 703.8,241.0 705.3,241.5 706.8,242.1 708.3,242.7 709.8,243.3 711.3,243.9 712.8,244.7 714.3,245.5 715.8,246.2 717.3,246.7 718.8,247.4 720.3,248.1 721.8,248.8 723.3,249.3 724.9,249.8 726.4,250.5 727.9,251.2 729.4,251.9 730.9,252.6 732.4,253.2 733.9,253.7 735.4,254.4 736.9,255.1 738.4,255.7 739.9,256.4 741.4,256.8 742.9,257.4 744.4,258.1 745.9,258.8 747.4,259.5 749.0,260.2 750.5,260.8 752.0,261.5 753.5,262.0 755.0,262.5 756.5,263.1 758.0,263.7 759.5,264.1 761.0,264.7 762.5,265.1 764.0,265.7 765.5,266.1 767.0,266.7 768.5,267.3 770.0,268.0 771.5,268.4 773.1,268.9 774.6,269.5 776.1,270.1 777.6,270.7 779.1,271.2 780.6,271.6 782.1,272.1 783.6,272.7 785.1,273.2 786.6,273.8 788.1,274.4 789.6,274.9 791.1,275.5 792.6,276.0 794.1,276.5 795.6,277.0 797.2,277.4 798.7,278.0 800.2,278.5 801.7,279.2 803.2,279.6 804.7,280.3 806.2,280.9 807.7,281.5 809.2,282.2 810.7,282.8 812.2,283.4 813.7,284.0 815.2,284.6 816.7,285.2 818.2,285.8 819.7,286.4 821.3,286.9 822.8,287.5 824.3,288.0 825.8,288.5 827.3,289.1 828.8,289.7 830.3,290.1 831.8,290.6 833.3,291.1 834.8,291.6 836.3,292.3 837.8,292.8 839.3,293.4 840.8,293.9 842.3,294.5 843.8,295.2 845.4,295.8 846.9,296.4 848.4,297.0 849.9,297.6 851.4,298.1 852.9,298.6 854.4,299.2 855.9,299.8 857.4,300.3 858.9,301.0 860.4,301.6 861.9,302.2 863.4,302.8 864.9,303.3 866.4,303.7 867.9,304.1 869.5,304.7 871.0,305.1 872.5,305.7 874.0,306.3 875.5,306.8 877.0,307.4 878.5,307.9 880.0,308.5" fill="none" stroke="#30b0c7" stroke-width="2"/>
<polyline points="520.0,159.7 521.5,160.3 523.0,161.0 524.5,161.8 526.0,162.6 527.5,163.3 529.0,164.1 530.5,164.7 532.1,165.5 533.6,166.3 535.1,166.9 536.6,167.6 538.1,168.1 539.6,168.8 541.1,169.5 542.6,170.1 544.1,170.9 545.6,171.5 547.1,172.2 548.6,172.8 550.1,173.3 551.6,173.9 553.1,174.4 554.6,175.1 556.2,175.8 557.7,176.5 559.2,177.2 560.7,178.1 562.2,179.0 563.7,179.7 565.2,180.5 566.7,181.3 568.2,182.1 569.7,182.9 571.2,183.6 572.7,184.4 574.2,185.0 575.7,185.7 577.2,186.3 578.7,187.1 580.3,187.8 581.8,188.4 583.3,189.1 584.8,189.9 586.3,190.6 587.8,191.3 589.3,192.2 590.8,193.0 592.3,193.7 593.8,194.4 595.3,195.1 596.8,195.8 598.3,196.5 599.8,197.2 601.3,197.9 602.8,198.5 604.4,199.0 605.9,199.7 607.4,200.5 608.9,201.0 610.4,201.7 611.9,202.2 613.4,202.7 614.9,203.2 616.4,204.0 617.9,204.6 619.4,205.3 620.9,206.0 622.4,206.8 623.9,207.6 625.4,208.3 626.9,209.0 628.5,209.7 630.0,210.4 631.5,211.2 633.0,211.8 634.5,212.6 636.0,213.3 637.5,213.9 639.0,214.5 640.5,215.0 642.0,215.5 643.5,216.0 645.0,216.7 646.5,217.4 648.0,218.1 649.5,218.8 651.0,219.4 652.6,220.1 654.1,220.8 655.6,221.5 657.1,222.1 658.6,222.8 660.1,223.5 661.6,224.1 663.1,224.7 664.6,225.3 666.1,225.9 667.6,226.5 669.1,227.0 670.6,227.5 672.1,228.1 673.6,228.7 675.1,229.3 676.7,229.8 678.2,230.2 679.7,230.8 681.2,231.5 682.7,232.2 684.2,232.9 685.7,233.4 687.2,233.9 688.7,234.6 690.2,235.2 691.7,235.9 693.2,236.5 694.7,237.0 696.2,237.5 697.7,238.0 699.2,238.5 700.8,239.0 702.3,239.6 703.8,240.1 705.3,240.7 706.8,241.1 708.3,241.7 709.8,242.3 711.3,242.8 712.8,243.4 714.3,244.0 715.8,244.5 717.3,245.0 718.8,245.5 720.3,245.9 721.8,246.3 723.3,246.8 724.9,247.3 726.4,247.9 727.9,248.5 729.4,249.1 730.9,249.7 732.4,250.2 733.9,250.8 735.4,251.3 736.9,251.9 738.4,252.3 739.9,252.9 741.4,253.5 742.9,254.1 744.4,254.7 745.9,255.2 747.4,255.6 749.0,256.1 750.5,256.7 752.0,257.4 753.5,258.0 755.0,258.6 756.5,259.0 758.0,259.5 759.5,260.0 761.0,260.4 762.5,260.8 764.0,261.2 765.5,261.7 767.0,262.3 768.5,262.7 770.0,263.2 771.5,263.6 773.1,264.1 774.6,264.6 776.1,265.0 777.6,265.6 779.1,266.2 780.6,266.8 782.1,267.4 783.6,268.1 785.1,268.7 786.6,269.4 788.1,270.1 789.6,270.7 791.1,271.4 792.6,271.9 794.1,272.5 795.6,273.1 797.2,273.7 798.7,274.3 800.2,275.0 801.7,275.7 803.2,276.3 804.7,277.0 806.2,277.6 807.7,278.1 809.2,278.5 810.7,279.1 812.2,279.6 813.7,280.1 815.2,280.8 816.7,281.3 818.2,281.9 819.7,282.5 821.3,282.9 822.8,283.5 824.3,283.9 825.8,284.3 827.3,284.6 828.8,285.1 830.3,285.5 831.8,286.0 833.3,286.5 834.8,287.1 836.3,287.5 837.8,288.0 839.3,288.4 840.8,288.9 842.3,289.5 843.8,290.1 845.4,290.8 846.9,291.4 848.4,292.0 849.9,292.5 851.4,293.1 852.9,293.6 854.4,294.1 855.9,294.7 857.4,295.3 858.9,295.8 860.4,296.3 861.9,296.9 863.4,297.5 864.9,298.0 866.4,298.5 867.9,299.0 869.5,299.6 871.0,300.2 872.5,300.8 874.0,301.4 875.5,302.0 877.0,302.5 878.5,303.0 880.0,303.6" fill="none" stroke="#0a84ff" stroke-width="2"/>
<rect x="784.0" y="94.0" width="12" height="12" fill="#ff453a" rx="2"/>
<text x="800.0" y="104.0" font-family="sans-serif" font-size="10" fill="#1d1d1f">w=0</text>
<rect x="784.0" y="110.0" width="12" height="12" fill="#ff9f0a" rx="2"/>
<text x="800.0" y="120.0" font-family="sans-serif" font-size="10" fill="#1d1d1f">w=50</text>
<rect x="784.0" y="126.0" width="12" height="12" fill="#30b0c7" rx="2"/>
<text x="800.0" y="136.0" font-family="sans-serif" font-size="10" fill="#1d1d1f">w=150</text>
<rect x="784.0" y="142.0" width="12" height="12" fill="#0a84ff" rx="2"/>
<text x="800.0" y="152.0" font-family="sans-serif" font-size="10" fill="#1d1d1f">w=400</text>
<text x="700.0" y="342.0" font-family="sans-serif" font-size="11" fill="#6e6e73" text-anchor="middle">battery state of charge vs step</text>
</svg>
