<svg xmlns="http://www.w3.org/2000/svg" width="760" height="470" viewBox="0 0 760 470" role="img" aria-labelledby="title desc">
<title id="title">Traversal-risk graph planner demo</title>
<desc id="desc">Terrain risk heatmap comparing a shortest path through hazardous cells with a longer safer detour.</desc>
<rect width="760" height="470" fill="#f8fafc"/>
<text x="54" y="44" fill="#111827" font-family="Inter, Segoe UI, Arial, sans-serif" font-size="26" font-weight="700">Traversal-risk graph</text>
<text x="54" y="70" fill="#475569" font-family="Inter, Segoe UI, Arial, sans-serif" font-size="14">Distance-only A* crosses the risk band; weighted terrain risk selects the safer detour.</text>
<rect x="54.0" y="94.0" width="58.0" height="58.0" rx="6" fill="#ecfdf5" stroke="#ffffff" stroke-width="3"/>
<rect x="54.0" y="152.0" width="58.0" height="58.0" rx="6" fill="#ecfdf5" stroke="#ffffff" stroke-width="3"/>
<rect x="54.0" y="210.0" width="58.0" height="58.0" rx="6" fill="#ecfdf5" stroke="#ffffff" stroke-width="3"/>
<rect x="54.0" y="268.0" width="58.0" height="58.0" rx="6" fill="#ecfdf5" stroke="#ffffff" stroke-width="3"/>
<rect x="54.0" y="326.0" width="58.0" height="58.0" rx="6" fill="#ecfdf5" stroke="#ffffff" stroke-width="3"/>
<rect x="112.0" y="94.0" width="58.0" height="58.0" rx="6" fill="#ecfdf5" stroke="#ffffff" stroke-width="3"/>
<rect x="112.0" y="152.0" width="58.0" height="58.0" rx="6" fill="#ecfdf5" stroke="#ffffff" stroke-width="3"/>
<rect x="112.0" y="210.0" width="58.0" height="58.0" rx="6" fill="#ecfdf5" stroke="#ffffff" stroke-width="3"/>
<rect x="112.0" y="268.0" width="58.0" height="58.0" rx="6" fill="#ecfdf5" stroke="#ffffff" stroke-width="3"/>
<rect x="112.0" y="326.0" width="58.0" height="58.0" rx="6" fill="#ecfdf5" stroke="#ffffff" stroke-width="3"/>
<rect x="170.0" y="94.0" width="58.0" height="58.0" rx="6" fill="#202124" stroke="#ffffff" stroke-width="3"/>
<text x="199.0" y="123.0" text-anchor="middle" dominant-baseline="central" fill="#ffffff" font-family="Inter, Segoe UI, Arial, sans-serif" font-size="16" font-weight="800">X</text>
<rect x="170.0" y="152.0" width="58.0" height="58.0" rx="6" fill="#ecfdf5" stroke="#ffffff" stroke-width="3"/>
<rect x="170.0" y="210.0" width="58.0" height="58.0" rx="6" fill="#ecfdf5" stroke="#ffffff" stroke-width="3"/>
<rect x="170.0" y="268.0" width="58.0" height="58.0" rx="6" fill="#ecfdf5" stroke="#ffffff" stroke-width="3"/>
<rect x="170.0" y="326.0" width="58.0" height="58.0" rx="6" fill="#ecfdf5" stroke="#ffffff" stroke-width="3"/>
<rect x="228.0" y="94.0" width="58.0" height="58.0" rx="6" fill="#ecfdf5" stroke="#ffffff" stroke-width="3"/>
<rect x="228.0" y="152.0" width="58.0" height="58.0" rx="6" fill="#ecfdf5" stroke="#ffffff" stroke-width="3"/>
<rect x="228.0" y="210.0" width="58.0" height="58.0" rx="6" fill="#c2410c" stroke="#ffffff" stroke-width="3"/>
<text x="257.0" y="239.0" text-anchor="middle" dominant-baseline="central" fill="#ffffff" font-family="Inter, Segoe UI, Arial, sans-serif" font-size="13" font-weight="700">5.5</text>
<rect x="228.0" y="268.0" width="58.0" height="58.0" rx="6" fill="#ecfdf5" stroke="#ffffff" stroke-width="3"/>
<rect x="228.0" y="326.0" width="58.0" height="58.0" rx="6" fill="#ecfdf5" stroke="#ffffff" stroke-width="3"/>
<rect x="286.0" y="94.0" width="58.0" height="58.0" rx="6" fill="#ecfdf5" stroke="#ffffff" stroke-width="3"/>
<rect x="286.0" y="152.0" width="58.0" height="58.0" rx="6" fill="#c2410c" stroke="#ffffff" stroke-width="3"/>
<text x="315.0" y="181.0" text-anchor="middle" dominant-baseline="central" fill="#ffffff" font-family="Inter, Segoe UI, Arial, sans-serif" font-size="13" font-weight="700">6.0</text>
<rect x="286.0" y="210.0" width="58.0" height="58.0" rx="6" fill="#c2410c" stroke="#ffffff" stroke-width="3"/>
<text x="315.0" y="239.0" text-anchor="middle" dominant-baseline="central" fill="#ffffff" font-family="Inter, Segoe UI, Arial, sans-serif" font-size="13" font-weight="700">5.5</text>
<rect x="286.0" y="268.0" width="58.0" height="58.0" rx="6" fill="#c2410c" stroke="#ffffff" stroke-width="3"/>
<text x="315.0" y="297.0" text-anchor="middle" dominant-baseline="central" fill="#ffffff" font-family="Inter, Segoe UI, Arial, sans-serif" font-size="13" font-weight="700">6.0</text>
<rect x="286.0" y="326.0" width="58.0" height="58.0" rx="6" fill="#ecfdf5" stroke="#ffffff" stroke-width="3"/>
<rect x="344.0" y="94.0" width="58.0" height="58.0" rx="6" fill="#ecfdf5" stroke="#ffffff" stroke-width="3"/>
<rect x="344.0" y="152.0" width="58.0" height="58.0" rx="6" fill="#ecfdf5" stroke="#ffffff" stroke-width="3"/>
<rect x="344.0" y="210.0" width="58.0" height="58.0" rx="6" fill="#c2410c" stroke="#ffffff" stroke-width="3"/>
<text x="373.0" y="239.0" text-anchor="middle" dominant-baseline="central" fill="#ffffff" font-family="Inter, Segoe UI, Arial, sans-serif" font-size="13" font-weight="700">5.5</text>
<rect x="344.0" y="268.0" width="58.0" height="58.0" rx="6" fill="#ecfdf5" stroke="#ffffff" stroke-width="3"/>
<rect x="344.0" y="326.0" width="58.0" height="58.0" rx="6" fill="#ecfdf5" stroke="#ffffff" stroke-width="3"/>
<rect x="402.0" y="94.0" width="58.0" height="58.0" rx="6" fill="#ecfdf5" stroke="#ffffff" stroke-width="3"/>
<rect x="402.0" y="152.0" width="58.0" height="58.0" rx="6" fill="#ecfdf5" stroke="#ffffff" stroke-width="3"/>
<rect x="402.0" y="210.0" width="58.0" height="58.0" rx="6" fill="#ecfdf5" stroke="#ffffff" stroke-width="3"/>
<rect x="402.0" y="268.0" width="58.0" height="58.0" rx="6" fill="#ecfdf5" stroke="#ffffff" stroke-width="3"/>
<rect x="402.0" y="326.0" width="58.0" height="58.0" rx="6" fill="#202124" stroke="#ffffff" stroke-width="3"/>
<text x="431.0" y="355.0" text-anchor="middle" dominant-baseline="central" fill="#ffffff" font-family="Inter, Segoe UI, Arial, sans-serif" font-size="16" font-weight="800">X</text>
<rect x="460.0" y="94.0" width="58.0" height="58.0" rx="6" fill="#ecfdf5" stroke="#ffffff" stroke-width="3"/>
<rect x="460.0" y="152.0" width="58.0" height="58.0" rx="6" fill="#ecfdf5" stroke="#ffffff" stroke-width="3"/>
<rect x="460.0" y="210.0" width="58.0" height="58.0" rx="6" fill="#ecfdf5" stroke="#ffffff" stroke-width="3"/>
<rect x="460.0" y="268.0" width="58.0" height="58.0" rx="6" fill="#ecfdf5" stroke="#ffffff" stroke-width="3"/>
<rect x="460.0" y="326.0" width="58.0" height="58.0" rx="6" fill="#ecfdf5" stroke="#ffffff" stroke-width="3"/>
<rect x="518.0" y="94.0" width="58.0" height="58.0" rx="6" fill="#ecfdf5" stroke="#ffffff" stroke-width="3"/>
<rect x="518.0" y="152.0" width="58.0" height="58.0" rx="6" fill="#ecfdf5" stroke="#ffffff" stroke-width="3"/>
<rect x="518.0" y="210.0" width="58.0" height="58.0" rx="6" fill="#ecfdf5" stroke="#ffffff" stroke-width="3"/>
<rect x="518.0" y="268.0" width="58.0" height="58.0" rx="6" fill="#ecfdf5" stroke="#ffffff" stroke-width="3"/>
<rect x="518.0" y="326.0" width="58.0" height="58.0" rx="6" fill="#ecfdf5" stroke="#ffffff" stroke-width="3"/>
<polyline points="83.0,239.0 141.0,239.0 199.0,239.0 257.0,239.0 315.0,239.0 373.0,239.0 431.0,239.0 489.0,239.0 547.0,239.0" fill="none" stroke="#ffffff" stroke-width="12.0" stroke-linecap="round" stroke-linejoin="round" opacity="0.86"/>
<polyline points="83.0,239.0 141.0,239.0 199.0,239.0 257.0,239.0 315.0,239.0 373.0,239.0 431.0,239.0 489.0,239.0 547.0,239.0" fill="none" stroke="#2563eb" stroke-width="7.0" stroke-linecap="round" stroke-linejoin="round"/>
<circle cx="83.0" cy="239.0" r="6.2" fill="#2563eb" stroke="#ffffff" stroke-width="2"/>
<circle cx="141.0" cy="239.0" r="6.2" fill="#2563eb" stroke="#ffffff" stroke-width="2"/>
<circle cx="199.0" cy="239.0" r="6.2" fill="#2563eb" stroke="#ffffff" stroke-width="2"/>
<circle cx="257.0" cy="239.0" r="6.2" fill="#2563eb" stroke="#ffffff" stroke-width="2"/>
<circle cx="315.0" cy="239.0" r="6.2" fill="#2563eb" stroke="#ffffff" stroke-width="2"/>
<circle cx="373.0" cy="239.0" r="6.2" fill="#2563eb" stroke="#ffffff" stroke-width="2"/>
<circle cx="431.0" cy="239.0" r="6.2" fill="#2563eb" stroke="#ffffff" stroke-width="2"/>
<circle cx="489.0" cy="239.0" r="6.2" fill="#2563eb" stroke="#ffffff" stroke-width="2"/>
<circle cx="547.0" cy="239.0" r="6.2" fill="#2563eb" stroke="#ffffff" stroke-width="2"/>
<polyline points="83.0,239.0 141.0,239.0 199.0,239.0 199.0,297.0 257.0,297.0 257.0,355.0 315.0,355.0 373.0,355.0 373.0,297.0 431.0,297.0 489.0,297.0 547.0,297.0 547.0,239.0" fill="none" stroke="#ffffff" stroke-width="12.0" stroke-linecap="round" stroke-linejoin="round" opacity="0.86"/>
<polyline points="83.0,239.0 141.0,239.0 199.0,239.0 199.0,297.0 257.0,297.0 257.0,355.0 315.0,355.0 373.0,355.0 373.0,297.0 431.0,297.0 489.0,297.0 547.0,297.0 547.0,239.0" fill="none" stroke="#059669" stroke-width="7.0" stroke-linecap="round" stroke-linejoin="round"/>
<circle cx="83.0" cy="239.0" r="6.2" fill="#059669" stroke="#ffffff" stroke-width="2"/>
<circle cx="141.0" cy="239.0" r="6.2" fill="#059669" stroke="#ffffff" stroke-width="2"/>
<circle cx="199.0" cy="239.0" r="6.2" fill="#059669" stroke="#ffffff" stroke-width="2"/>
<circle cx="199.0" cy="297.0" r="6.2" fill="#059669" stroke="#ffffff" stroke-width="2"/>
<circle cx="257.0" cy="297.0" r="6.2" fill="#059669" stroke="#ffffff" stroke-width="2"/>
<circle cx="257.0" cy="355.0" r="6.2" fill="#059669" stroke="#ffffff" stroke-width="2"/>
<circle cx="315.0" cy="355.0" r="6.2" fill="#059669" stroke="#ffffff" stroke-width="2"/>
<circle cx="373.0" cy="355.0" r="6.2" fill="#059669" stroke="#ffffff" stroke-width="2"/>
<circle cx="373.0" cy="297.0" r="6.2" fill="#059669" stroke="#ffffff" stroke-width="2"/>
<circle cx="431.0" cy="297.0" r="6.2" fill="#059669" stroke="#ffffff" stroke-width="2"/>
<circle cx="489.0" cy="297.0" r="6.2" fill="#059669" stroke="#ffffff" stroke-width="2"/>
<circle cx="547.0" cy="297.0" r="6.2" fill="#059669" stroke="#ffffff" stroke-width="2"/>
<circle cx="547.0" cy="239.0" r="6.2" fill="#059669" stroke="#ffffff" stroke-width="2"/>
<circle cx="83.0" cy="239.0" r="13" fill="#111827" stroke="#ffffff" stroke-width="3"/>
<circle cx="547.0" cy="239.0" r="13" fill="#111827" stroke="#ffffff" stroke-width="3"/>
<text x="83.0" y="239.0" text-anchor="middle" dominant-baseline="central" fill="#ffffff" font-family="Inter, Segoe UI, Arial, sans-serif" font-size="11" font-weight="800">S</text>
<text x="547.0" y="239.0" text-anchor="middle" dominant-baseline="central" fill="#ffffff" font-family="Inter, Segoe UI, Arial, sans-serif" font-size="11" font-weight="800">G</text>
<text x="580.0" y="108.0" fill="#111827" font-family="Inter, Segoe UI, Arial, sans-serif" font-size="15" font-weight="700">Routes</text>
<line x1="580.0" y1="132.0" x2="626.0" y2="132.0" stroke="#2563eb" stroke-width="7" stroke-linecap="round"/>
<text x="638.0" y="137.0" fill="#334155" font-family="Inter, Segoe UI, Arial, sans-serif" font-size="13">distance-only</text>
<line x1="580.0" y1="163.0" x2="626.0" y2="163.0" stroke="#059669" stroke-width="7" stroke-linecap="round"/>
<text x="638.0" y="168.0" fill="#334155" font-family="Inter, Segoe UI, Arial, sans-serif" font-size="13">risk-aware</text>
<text x="580.0" y="218" fill="#111827" font-family="Inter, Segoe UI, Arial, sans-serif" font-size="15" font-weight="700">Cost split</text>
<text x="580.0" y="244" fill="#2563eb" font-family="Inter, Segoe UI, Arial, sans-serif" font-size="13" font-weight="700">distance-only</text>
<text x="580.0" y="265" fill="#475569" font-family="Inter, Segoe UI, Arial, sans-serif" font-size="13">distance 8.0 / risk 0.0</text>
<text x="580.0" y="299" fill="#059669" font-family="Inter, Segoe UI, Arial, sans-serif" font-size="13" font-weight="700">risk-aware</text>
<text x="580.0" y="320" fill="#475569" font-family="Inter, Segoe UI, Arial, sans-serif" font-size="13">distance 12.0 / risk 0.0</text>
<text x="54" y="420" fill="#64748b" font-family="Inter, Segoe UI, Arial, sans-serif" font-size="12">Cell labels show weighted terrain risk. Dark cells are blocked.</text>
</svg>
