<svg viewBox="0 0 600 400" xmlns="http://www.w3.org/2000/svg">
<g transform="translate(72, 364)">
<g>
<g>
<circle cx="360" cy="-283.3333333333333" fill="#000000" r="5"/>
<circle cx="273.8373630858479" cy="-283.3333333333333" fill="#000000" r="5"/>
<circle cx="59.07381515308873" cy="-200.52015866631825" fill="#000000" r="5"/>
<circle cx="120" cy="-56.666666666666664" fill="#000000" r="5"/>
</g>
</g>
<g>
<g>
<path d="M360,-283.33334 L360,-283.33334 L357.35007,-283.308 L354.6239,-283.23212 L351.824,-283.1058 L348.95288,-282.9292 L346.01306,-282.70242 L343.007,-282.42563 L339.93716,-282.09897 L336.80615,-281.72253 L333.6164,-281.29648 L330.37042,-280.82092 L327.0707,-280.29605 L323.71976,-279.72195 L320.3201,-279.09875 L316.8742,-278.42664 L313.3846,-277.7057 L309.85376,-276.93607 L306.28418,-276.1179 L302.67838,-275.2513 L299.03885,-274.3365 L295.3681,-273.3735 L291.6686,-272.36252 L287.9429,-271.30365 L284.19348,-270.19705 L280.42282,-269.04288 L276.63342,-267.84122 L272.82782,-266.59222 L269.00845,-265.29602 L265.1779,-263.9528 L261.3386,-262.56262 L257.49307,-261.12564 L253.64381,-259.64203 L249.79333,-258.11188 L245.94412,-256.53534 L242.09868,-254.91255 L238.25952,-253.24365 L234.42912,-251.52876 L230.61002,-249.76802 L226.80467,-247.96156 L223.0156,-246.10951 L219.24529,-244.21204 L215.49626,-242.26924 L211.77101,-240.28127 L208.07202,-238.24825 L204.40181,-236.17033 L200.76288,-234.04764 L197.15771,-231.88031 L193.58882,-229.66847 L190.0587,-227.41226 L186.56985,-225.11183 L183.12479,-222.76729 L179.72598,-220.37878 L176.37595,-217.94644 L173.0772,-215.47041 L169.83221,-212.95082 L166.6435,-210.38782 L163.51357,-207.78151 L160.4449,-205.13203 L157.44,-202.43954 L154.50137,-199.70418 L151.63153,-196.92604 L148.83296,-194.10529 L146.10815,-191.24207 L143.45963,-188.33647 L140.88986,-185.38869 L138.40138,-182.3988 L135.99666,-179.36699 L133.67822,-176.29335 L131.44856,-173.17804 L129.31017,-170.0212 L127.26554,-166.82294 L125.317184,-163.5834 L123.467606,-160.30273 L121.71931,-156.98106 L120.07477,-153.61853 L118.53651,-150.21526 L117.107025,-146.7714 L115.7888,-143.28705 L114.584366,-139.76239 L113.49619,-136.19753 L112.526794,-132.5926 L111.67867,-128.94775 L110.954315,-125.263115 L110.35624,-121.538826 L109.886925,-117.77501 L109.54889,-113.9718 L109.34463,-110.12935 L109.27664,-106.24777 L109.34742,-102.32721 L109.55947,-98.367805 L109.9153,-94.36968 L110.4174,-90.332985 L111.06827,-86.257835 L111.870415,-82.14438 L112.82633,-77.992744 L113.93852,-73.80308 L115.20948,-69.57549 L116.641716,-65.31014 L118.237724,-61.007156" fill="none" stroke="#35C788" stroke-linejoin="round" stroke-width="2"/>
</g>
</g>
<g>
<g>
<path d="M360,-283.33334 L360,-283.33334 L336,-283.33334" fill="none" stroke="#DD3355" stroke-linejoin="round" stroke-width="2"/>
</g>
</g>
<g>
<g>
<path d="M120,-56.666668 L120,-56.666668 L136.97057,-16.597282" fill="none" stroke="#DD3355" stroke-linejoin="round" stroke-width="2"/>
</g>
</g>
<g>
<g>
<line stroke="black" stroke-width="1" x1="0" x2="0" y1="0" y2="10"/>
<line stroke="black" stroke-width="1" x1="120" x2="120" y1="0" y2="10"/>
<line stroke="black" stroke-width="1" x1="240" x2="240" y1="0" y2="10"/>
<line stroke="black" stroke-width="1" x1="360" x2="360" y1="0" y2="10"/>
<line stroke="black" stroke-width="1" x1="480" x2="480" y1="0" y2="10"/>
</g>
<line stroke="black" stroke-width="1" x1="0" x2="480" y1="0" y2="0"/>
<g>
<text font-size="12" text-anchor="middle" x="0" y="20">
-5
</text>
<text font-size="12" text-anchor="middle" x="120" y="20">
0
</text>
<text font-size="12" text-anchor="middle" x="240" y="20">
5
</text>
<text font-size="12" text-anchor="middle" x="360" y="20">
10
</text>
<text font-size="12" text-anchor="middle" x="480" y="20">
15
</text>
</g>
<text font-size="12" text-anchor="middle" x="240" y="30">
x [m]
</text>
</g>
<g>
<g>
<line stroke="black" stroke-width="1" x1="0" x2="-10" y1="0" y2="0"/>
<line stroke="black" stroke-width="1" x1="0" x2="-10" y1="-113.33333333333333" y2="-113.33333333333333"/>
<line stroke="black" stroke-width="1" x1="0" x2="-10" y1="-226.66666666666666" y2="-226.66666666666666"/>
<line stroke="black" stroke-width="1" x1="0" x2="-10" y1="-340" y2="-340"/>
</g>
<line stroke="black" stroke-width="1" x1="0" x2="0" y1="0" y2="-340"/>
<g>
<text dominant-baseline="middle" font-size="12" text-anchor="end" x="-15" y="0">
-4
</text>
<text dominant-baseline="middle" font-size="12" text-anchor="end" x="-15" y="-113.33333333333333">
-2
</text>
<text dominant-baseline="middle" font-size="12" text-anchor="end" x="-15" y="-226.66666666666666">
0
</text>
<text dominant-baseline="middle" font-size="12" text-anchor="end" x="-15" y="-340">
2
</text>
</g>
<text font-size="12" text-anchor="middle" transform="rotate(-90 -24 -170)" x="-24" y="-182">
y [m]
</text>
</g>
</g>
</svg>