<svg viewBox="0 0 600 400" xmlns="http://www.w3.org/2000/svg">
<g transform="translate(72, 364)">
<g>
<g>
<circle cx="0" cy="-68" fill="#000000" r="5"/>
<circle cx="192" cy="-68" fill="#000000" r="5"/>
<circle cx="240" cy="-136" fill="#000000" r="5"/>
<circle cx="240" cy="-170" fill="#000000" r="5"/>
<circle cx="240" cy="-204" fill="#000000" r="5"/>
<circle cx="240" cy="-306" fill="#000000" r="5"/>
<circle cx="384" cy="-306" fill="#000000" r="5"/>
<circle cx="336" cy="-306" fill="#000000" r="5"/>
</g>
</g>
<g>
<g>
<path d="M0,-0 L0,-0 L0.088440314,-0.026449496 L0.26434168,-0.08096221 L0.4829922,-0.15105483 L0.7874124,-0.25178856 L1.176645,-0.38453636 L1.6497446,-0.550596 L2.16301,-0.7357607 L2.7585387,-0.9562896 L3.3931367,-1.197212 L4.066398,-1.4589531 L4.777937,-1.7419041 L5.5273867,-2.046423 L6.314321,-2.3729317 L7.138407,-2.7217324 L7.999244,-3.0932012 L8.896537,-3.487586 L9.830014,-3.9051034 L10.799327,-4.3460593 L11.8041315,-4.810743 L12.844219,-5.2992983 L13.919284,-5.811973 L15.03022,-6.3477635 L16.178915,-6.904679 L17.36523,-7.4828534 L18.588432,-8.083025 L19.847418,-8.706298 L21.141298,-9.353536 L22.468775,-10.025977 L23.829473,-10.723928 L25.223188,-11.447519 L26.64973,-12.196865 L28.108929,-12.972067 L29.600626,-13.773212 L31.12468,-14.600374 L32.680965,-15.453612 L34.26916,-16.33317 L35.889164,-17.239086 L37.540886,-18.17139 L39.224255,-19.130095 L40.939224,-20.1152 L42.685505,-21.12691 L44.463074,-22.165209 L46.27191,-23.230068 L48.111767,-24.32167 L49.98264,-25.439968 L51.88457,-26.584904 L53.81731,-27.756643 L55.78092,-28.95511 L57.775166,-30.180462 L59.798584,-31.433857 L61.844875,-32.720295 L63.90891,-34.04365 L65.985825,-35.40738 L68.071785,-36.813946 L70.16305,-38.265564 L72.25635,-39.76393 L74.34824,-41.31072 L76.4347,-42.90783 L78.51063,-44.557644 L80.57312,-46.260937 L82.62178,-48.016926 L84.662125,-49.821533 L86.69436,-51.673985 L88.72534,-53.569977 L90.755844,-55.508728 L92.79405,-57.485683 L94.84126,-59.500008 L96.90695,-61.54679 L98.99953,-63.621754 L101.12259,-65.72307 L103.28721,-67.84509 L105.486824,-69.99115 L107.709274,-72.16747 L109.94681,-74.378 L112.19407,-76.62537 L114.44716,-78.91139 L116.70373,-81.237076 L118.95839,-83.604805 L121.20257,-86.01835 L123.42965,-88.48031 L125.63455,-90.992386 L127.81323,-93.55568 L129.96277,-96.170715 L132.08086,-98.83768 L134.16441,-101.55699 L136.20895,-104.329544 L138.20915,-107.156364 L140.1573,-110.0391 L142.04323,-112.97991 L143.85333,-115.98154 L145.57639,-119.045395 L147.23145,-122.164345 L148.81848,-125.337074 L150.32553,-128.52933 L151.7521,-131.74007 L153.09778,-134.96828 L154.36209,-138.21295 L155.54468,-141.47307 L156.64594,-144.74742 L157.66556,-148.03503 L158.6032,-151.33485 L159.47244,-154.64406 L160.27963,-157.96115 L161.0484,-161.2828 L161.8016,-164.60626 L162.54416,-167.93091 L163.29573,-171.25455 L164.07922,-174.57448 L164.91747,-177.8877 L165.84209,-181.18936 L166.86818,-184.47595 L168.00491,-187.74423 L169.25963,-190.99077 L170.64423,-194.21072 L172.15442,-197.40222 L173.78593,-200.56361 L175.5368,-203.69281 L177.40576,-206.78755 L179.39146,-209.84558 L181.49248,-212.86472 L183.70654,-215.84305 L186.03282,-218.77814 L188.46889,-221.6682 L191.01305,-224.51114 L193.66345,-227.30496 L196.41821,-230.04767 L199.27672,-232.73659 L202.2388,-235.36864 L205.30602,-237.93958 L208.48203,-240.44336 L211.77168,-242.8724 L215.15233,-245.23795 L218.62602,-247.53484 L222.2004,-249.75287 L225.87663,-251.88574 L229.65321,-253.92876 L233.52621,-255.8791 L237.49112,-257.73447 L241.5433,-259.4927 L245.67801,-261.15173 L249.8904,-262.70963 L254.17555,-264.16455 L258.52844,-265.51483 L262.944,-266.75885 L267.41702,-267.89517 L271.94305,-268.92078 L276.518,-269.83105 L281.13812,-270.61853 L285.79944,-271.27292 L290.49753,-271.77856 L295.2261,-272.1123 L299.97107,-272.2955 L304.72284,-272.32782 L309.47293,-272.23206 L314.21646,-272.03128 L318.95096,-271.74258 L323.67667,-271.38898 L328.39572,-270.99335 L333.11148,-270.5785 L337.82785,-270.1671 L342.54865,-269.78198 L347.27692,-269.44592 L352.01425,-269.18182 L356.76025,-269.0127 L361.51172,-268.96158 L366.26218,-269.04675 L371.00403,-269.2669 L375.72974,-269.6205 L380.43195,-270.1064 L385.1036,-270.7227 L389.73752,-271.46844 L394.2349,-272.32202 L398.60025,-273.25558 L402.97772,-274.27505 L407.3699,-275.36945 L411.778,-276.5325 L416.2024,-277.76068 L420.59775,-279.0401 L424.96286,-280.37042 L429.29623,-281.75183 L433.59528,-283.18607 L437.85648,-284.67587 L442.07538,-286.2249 L446.24594,-287.83826 L450.3609,-289.52176 L454.4109,-291.2825 L458.38403,-293.12903 L462.2647,-295.0717 L466.03168,-297.1236 L469.65802,-299.2989 L473.11356,-301.6095 L476.36472,-304.0644 L479.37454,-306.66916" fill="none" stroke="#35C788" stroke-linejoin="round" stroke-width="2"/>
</g>
</g>
<g>
<g>
<path d="M476.36472,-304.0644 L476.36472,-304.0644 L479.37454,-306.66916 L482.1293,-309.41183 L484.61646,-312.28 L486.82468,-315.2605 L488.74384,-318.33978 L490.3652,-321.50378 L491.68143,-324.7381 L492.68643,-328.02795 L493.3757,-331.35837 L493.74606,-334.7141 L493.79584,-338.07993 L493.52478,-341.44046 L492.9341,-344.78036 L492.02658,-348.0844 L490.80627,-351.33752 L489.2788,-354.5249 L487.4511,-357.63196 L485.3315,-360.64456 L482.92972,-363.54898 L480.25662,-366.33194 L477.32446,-368.98077 L474.1466,-371.48337 L470.73755,-373.82834 L467.1128,-376.005 L463.28894,-378.0034 L459.28336,-379.81442 L455.11438,-381.4298 L450.80096,-382.84222 L446.36282,-384.0452 L441.82016,-385.03326" fill="none" stroke="#FFFF00" stroke-linejoin="round" stroke-width="2"/>
</g>
</g>
<g>
<g>
<line stroke="black" stroke-width="1" x1="0" x2="0" y1="0" y2="10"/>
<line stroke="black" stroke-width="1" x1="96" x2="96" y1="0" y2="10"/>
<line stroke="black" stroke-width="1" x1="192" x2="192" y1="0" y2="10"/>
<line stroke="black" stroke-width="1" x1="288" x2="288" y1="0" y2="10"/>
<line stroke="black" stroke-width="1" x1="384" x2="384" y1="0" y2="10"/>
<line stroke="black" stroke-width="1" x1="480" x2="480" y1="0" y2="10"/>
</g>
<line stroke="black" stroke-width="1" x1="0" x2="480" y1="0" y2="0"/>
<g>
<text font-size="12" text-anchor="middle" x="0" y="20">
0
</text>
<text font-size="12" text-anchor="middle" x="96" y="20">
2
</text>
<text font-size="12" text-anchor="middle" x="192" y="20">
4
</text>
<text font-size="12" text-anchor="middle" x="288" y="20">
6
</text>
<text font-size="12" text-anchor="middle" x="384" y="20">
8
</text>
<text font-size="12" text-anchor="middle" x="480" y="20">
10
</text>
</g>
<text font-size="12" text-anchor="middle" x="240" y="30">
x [m]
</text>
</g>
<g>
<g>
<line stroke="black" stroke-width="1" x1="0" x2="-10" y1="-0" y2="-0"/>
<line stroke="black" stroke-width="1" x1="0" x2="-10" y1="-68" y2="-68"/>
<line stroke="black" stroke-width="1" x1="0" x2="-10" y1="-136" y2="-136"/>
<line stroke="black" stroke-width="1" x1="0" x2="-10" y1="-204" y2="-204"/>
<line stroke="black" stroke-width="1" x1="0" x2="-10" y1="-272" y2="-272"/>
<line stroke="black" stroke-width="1" x1="0" x2="-10" y1="-340" y2="-340"/>
</g>
<line stroke="black" stroke-width="1" x1="0" x2="0" y1="0" y2="-340"/>
<g>
<text dominant-baseline="middle" font-size="12" text-anchor="end" x="-15" y="-0">
0
</text>
<text dominant-baseline="middle" font-size="12" text-anchor="end" x="-15" y="-68">
2
</text>
<text dominant-baseline="middle" font-size="12" text-anchor="end" x="-15" y="-136">
4
</text>
<text dominant-baseline="middle" font-size="12" text-anchor="end" x="-15" y="-204">
6
</text>
<text dominant-baseline="middle" font-size="12" text-anchor="end" x="-15" y="-272">
8
</text>
<text dominant-baseline="middle" font-size="12" text-anchor="end" x="-15" y="-340">
10
</text>
</g>
<text font-size="12" text-anchor="middle" transform="rotate(-90 -24 -170)" x="-24" y="-182">
y [m]
</text>
</g>
</g>
</svg>