<svg viewBox="0 0 600 400" xmlns="http://www.w3.org/2000/svg">
<g transform="translate(72, 364)">
<g>
<g>
<path d="M120,-170 L120,-170 L120,-170 L122.4,-170.33774 L124.8,-171.32402 L127.2,-172.87967 L129.6,-174.87802 L132,-177.1525 L134.4,-179.5068 L136.8,-181.72685 L139.2,-183.59421 L141.6,-184.89987 L144,-185.45805 L146.4,-185.11888 L148.8,-183.77945 L151.2,-181.39258 L153.6,-177.97272 L156,-173.59856 L158.4,-168.41222 L160.8,-162.61487 L163.2,-156.45888 L165.6,-150.23698 L168,-144.26872 L170.4,-138.88475 L172.8,-134.41008 L175.2,-131.14668 L177.6,-129.35649 L180,-129.24571 L182.4,-130.95131 L184.8,-134.5301 L187.2,-139.9517 L189.6,-147.09511 L192,-155.74982 L194.4,-165.62119 L196.8,-176.34027 L199.2,-187.47748 L201.6,-198.55975 L204,-209.0907 L206.4,-218.57248 L208.8,-226.52873 L211.2,-232.52762 L213.6,-236.20343 L216,-237.27637 L218.4,-235.56892 L220.8,-231.01836 L223.2,-223.68443 L225.6,-213.7518 L228,-201.52707 L230.4,-187.43 L232.8,-171.97955 L235.2,-155.77493 L237.6,-139.47229 L240,-123.75821 L242.4,-109.32086 L244.8,-96.82014 L247.2,-86.85793 L249.6,-79.95005 L252,-76.500916 L254.4,-76.78228 L256.8,-80.91707 L259.2,-88.8691 L261.6,-100.43943 L264,-115.26956 L266.4,-132.85162 L268.8,-152.54532 L271.2,-173.60103 L273.6,-195.18826 L276,-216.42845 L278.4,-236.43065 L280.8,-254.32881 L283.2,-269.3191 L285.6,-280.6955 L288,-287.88226 L290.4,-290.46182 L292.8,-288.1965 L295.2,-281.04358 L297.6,-269.1621 L300,-252.9117 L302.4,-232.84271 L304.8,-209.67819 L307.2,-184.28813 L309.6,-157.6569 L312,-130.84515 L314.4,-104.947495 L316.8,-81.04793 L319.2,-60.174522 L321.6,-43.25543 L324,-31.078062 L326.4,-24.25321 L328.8,-23.185678 L331.2,-28.052862 L333.6,-38.79231 L336,-55.09895 L338.4,-76.432365 L340.8,-102.033936 L343.2,-130.95346 L345.6,-162.0842 L348,-194.20517 L350.4,-226.02899 L352.8,-256.25354 L355.2,-283.61514" fill="none" stroke="#000000" stroke-linejoin="round" stroke-width="2"/>
</g>
</g>
<g>
<g>
<path d="M120,-159.8 L120,-159.8 L120,-159.8 L120.13333,-159.8 L120.38659,-159.80443 L120.74702,-159.8225 L121.20139,-159.86617 L121.73494,-159.94833 L122.33074,-160.08147 L122.96964,-160.27632 L123.63067,-160.54108 L124.291885,-160.8807 L124.93142,-161.29686 L125.52851,-161.78789 L126.06445,-162.34929 L126.52316,-162.97426 L126.8916,-163.65428 L127.15975,-164.37982 L127.34828,-165.13759 L127.45334,-165.92099 L127.47199,-166.72357 L127.40191,-167.53893 L127.24105,-168.36069 L126.98734,-169.18237 L126.638435,-169.99715 L126.3229,-170.82837 L126.043655,-171.67467 L125.86012,-172.54163 L125.776665,-173.42307 L125.82233,-174.312 L125.99515,-175.19861 L126.29305,-176.07347 L126.71412,-176.92729 L127.2567,-177.7504 L127.90163,-178.53975 L128.64235,-179.28969 L129.47313,-179.9945 L130.38896,-180.64798 L131.35927,-181.26431 L132.38014,-181.84161 L133.44852,-182.37735 L134.5431,-182.88899 L135.66246,-183.37598 L136.80566,-183.83716 L137.96288,-184.28307 L139.13368,-184.71329 L140.32004,-185.1239 L141.5213,-185.51434 L142.74886,-185.86356 L144.00014,-186.16989 L145.2865,-186.39442 L146.59737,-186.5345 L147.92369,-186.54839 L149.24191,-186.43954 L150.53035,-186.21236 L151.76863,-185.87183 L152.937,-185.42345 L154.0158,-184.87332 L154.98987,-184.2322 L155.8502,-183.51373 L156.58992,-182.73047 L157.20332,-181.89403 L157.68529,-181.01527 L158.03052,-180.10461 L158.2332,-179.17253 L158.36783,-178.23416 L158.43686,-177.2921 L158.4416,-176.34866 L158.38216,-175.40607 L158.25706,-174.4666 L158.15015,-173.52592 L158.06053,-172.58427 L157.98773,-171.64183 L157.93163,-170.69876 L157.89255,-169.7552 L157.9095,-168.81126 L157.97862,-167.86848 L158.09694,-166.92812 L158.26237,-165.99129 L158.4738,-165.05907 L158.73114,-164.13264 L159.0251,-163.21167 L159.35252,-162.29636 L159.71089,-161.38686 L160.09833,-160.48335 L160.51357,-159.58603 L160.9559,-158.6952 L161.42534,-157.81137 L161.89696,-156.9281 L162.37059,-156.04535 L162.84612,-155.16312 L163.32341,-154.28134 L163.80243,-153.40002 L164.28314,-152.51917 L164.76558,-151.63878 L165.23613,-150.75516 L165.69568,-149.86864 L166.14482,-148.97943 L166.584,-148.08774 L167.01344,-147.19365 L167.43314,-146.29724 L167.8428,-145.39851 L168.24567,-144.49825 L168.64212,-143.59653 L169.03244,-142.69348 L169.41676,-141.78914 L169.7951,-140.88353 L170.16727,-139.97665 L170.54575,-139.07106 L170.93022,-138.16675 L171.32053,-137.26369 L171.71666,-136.3619 L172.11873,-135.46143 L172.5434,-134.56618 L172.98997,-133.67628 L173.45834,-132.79204 L173.94896,-131.91386 L174.48668,-131.04964 L175.0712,-130.20078 L175.74527,-129.38593 L176.5067,-128.61063 L177.41978,-127.92241 L178.51772,-127.38654 L179.74628,-127.01957 L181.05191,-126.82807 L182.385,-126.81028 L183.7019,-126.95806 L184.96579,-127.25887 L186.14662,-127.69747 L187.22057,-128.2572 L188.1691,-128.92096 L188.97798,-129.67174 L189.63641,-130.493 L190.136,-131.36864 L190.47026,-132.28291 L190.63396,-133.22021 L190.62291,-134.16463 L190.54707,-135.10754 L190.40987,-136.04697 L190.21362,-136.98112 L189.95955,-137.90826 L189.64757,-138.82649 L189.37856,-139.75151 L189.1493,-140.6819 L188.9573,-141.6165 L188.80066,-142.5544 L188.67818,-143.49486 L188.58932,-144.4372 L188.53444,-145.38084 L188.53668,-146.32529 L188.59006,-147.26897 L188.68956,-148.21078 L188.8311,-149.14989 L189.01137,-150.08566 L189.22777,-151.01758 L189.47845,-151.94519 L189.76222,-152.868 L190.07866,-153.78546 L190.42815,-154.69687 L190.77493,-155.60883 L191.1193,-156.52122 L191.4615,-157.43404 L191.80173,-158.34721 L192.14015,-159.26073 L192.47691,-160.17455 L192.8121,-161.08867 L193.14577,-162.00305 L193.47794,-162.91772 L193.80862,-163.83266 L194.12146,-164.75073 L194.41855,-165.67143 L194.7017,-166.59435 L194.97237,-167.51912 L195.23174,-168.44553 L195.48083,-169.37334 L195.72041,-170.30241 L195.9511,-171.23262 L196.1733,-172.16385 L196.38727,-173.09605 L196.59306,-174.02919 L196.79054,-174.96321 L196.98515,-175.89754 L197.17722,-176.83214 L197.36705,-177.76697 L197.55487,-178.70198 L197.7409,-179.63719 L197.92528,-180.57257 L198.10814,-181.50809 L198.28958,-182.44374 L198.46965,-183.37953 L198.64842,-184.31546 L198.82587,-185.2515 L199.00198,-186.18767 L199.18144,-187.12352 L199.36382,-188.05908 L199.54878,-188.9944 L199.73607,-189.92947 L199.92545,-190.86435 L200.11674,-191.79903 L200.3098,-192.73352 L200.50452,-193.66783 L200.7008,-194.60199 L200.89865,-195.53598 L201.09802,-196.4698 L201.29897,-197.40346 L201.50226,-198.33687 L201.70766,-199.27003 L201.9149,-200.203 L202.12381,-201.13577 L202.33426,-202.06839 L202.5461,-203.00084 L202.75926,-203.93314 L202.97366,-204.86528 L203.18925,-205.7973 L203.40605,-206.72917 L203.62405,-207.66092 L203.845,-208.5923 L204.06856,-209.52338 L204.29448,-210.45416 L204.52255,-211.38469 L204.75258,-212.31497 L204.98442,-213.24503 L205.218,-214.17487 L205.45326,-215.10449 L205.69016,-216.0339 L205.9287,-216.96312 L206.17316,-217.89156 L206.42296,-218.81927 L206.67763,-219.74634 L206.93677,-220.67276 L207.20012,-221.5986 L207.46747,-222.52386 L207.7387,-223.44856 L208.01378,-224.3727 L208.29279,-225.29623 L208.58368,-226.21793 L208.88557,-227.13783 L209.19783,-228.05602 L209.52,-228.97247 L209.85187,-229.88719 L210.19345,-230.80013 L210.56032,-231.70811 L210.95119,-232.61107 L211.3653,-233.5088 L211.80238,-234.40106 L212.26285,-235.2874 L212.78477,-236.15648 L213.36824,-237.00569 L214.20757,-237.73953 L215.25429,-238.32457 L216.45274,-238.73848 L217.74538,-238.97006 L219.07698,-239.01802 L220.39786,-238.8892 L221.66548,-238.59637 L222.84514,-238.15619 L223.90958,-237.58743 L224.83829,-236.90976 L225.61635,-236.14279 L226.23332,-235.30554 L226.68231,-234.41626 L226.95897,-233.49237 L227.06088,-232.55069 L226.98714,-231.6077 L226.73804,-230.67987 L226.46117,-229.75601 L226.15858,-228.83621 L225.83185,-227.92056 L225.48198,-227.00922 L225.10954,-226.10236 L224.71452,-225.20032 L224.39261,-224.28381 L224.13661,-223.35693 L223.94028,-222.42279 L223.79826,-221.48372 L223.70615,-220.54153 L223.66028,-219.59764 L223.6579,-218.6532 L223.69695,-217.70917 L223.77623,-216.76639 L223.89539,-215.82573 L224.0551,-214.88808 L224.23422,-213.9522 L224.43022,-213.018 L224.64104,-212.08545 L224.86491,-211.15442 L225.10043,-210.22482 L225.34645,-209.29659 L225.60199,-208.36966 L225.86632,-207.44395 L226.13884,-206.51944 L226.41914,-205.59612 L226.70699,-204.67393 L227.00229,-203.75294 L227.30518,-202.83319 L227.58784,-201.91022 L227.85306,-200.98465 L228.10312,-200.05696 L228.33994,-199.12753 L228.56512,-198.19666 L228.78,-197.26456 L228.98566,-196.3314 L229.18301,-195.39737 L229.37279,-194.46254 L229.55559,-193.52701 L229.73184,-192.59085 L229.90189,-191.65413 L230.0659,-190.71686 L230.22395,-189.77907 L230.37593,-188.84077 L230.52486,-187.90224 L230.67116,-186.9635 L230.81522,-186.02458 L230.95734,-185.08553 L231.09778,-184.14633 L231.23674,-183.20703 L231.3744,-182.26764 L231.51093,-181.32816 L231.6464,-180.3886 L231.78093,-179.44897 L231.91461,-178.5093 L232.0475,-177.56955 L232.17963,-176.62975 L232.31102,-175.6899 L232.44173,-174.75 L232.57172,-173.81006 L232.70297,-172.87021 L232.83531,-171.93042 L232.96858,-170.9907 L233.10265,-170.05106 L233.2374,-169.11143 L233.37273,-168.17188 L233.50858,-167.23235 L233.64488,-166.29285 L233.7816,-165.35338 L233.91867,-164.41394 L234.05608,-163.47452 L234.19377,-162.53513 L234.33174,-161.59575 L234.46997,-160.6564 L234.60844,-159.71706 L234.74716,-158.77774 L234.88612,-157.83844 L235.02533,-156.89915 L235.16446,-155.95987 L235.30351,-155.02057 L235.44252,-154.08128 L235.58147,-153.14198 L235.72038,-152.20267 L235.85925,-151.26337 L235.9981,-150.32405 L236.13692,-149.38474 L236.2757,-148.44543 L236.41446,-147.50612 L236.5532,-146.56679 L236.69193,-145.62747 L236.83063,-144.68816 L236.96933,-143.74884 L237.10799,-142.80951 L237.24664,-141.8702 L237.38547,-140.93088 L237.52504,-139.99162 L237.66525,-139.05241 L237.80603,-138.11325 L237.94727,-137.17412 L238.08893,-136.23502 L238.23094,-135.29594 L238.37326,-134.3569 L238.51587,-133.41788 L238.65874,-132.47887 L238.80182,-131.53987 L238.94511,-130.60089 L239.0886,-129.66194 L239.23225,-128.72299 L239.37608,-127.78406 L239.52008,-126.84514 L239.66425,-125.90623 L239.80894,-124.96736 L239.95555,-124.02864 L240.10376,-123.09005 L240.25339,-122.15157 L240.40424,-121.213196 L240.55615,-120.2749 L240.70901,-119.336685 L240.86272,-118.39854 L241.01718,-117.46045 L241.17233,-116.52242 L241.32811,-115.58444 L241.48448,-114.646515 L241.64142,-113.70863 L241.79889,-112.770805 L241.95688,-111.833015 L242.11542,-110.89526 L242.2774,-109.95782 L242.44238,-109.02063 L242.60999,-108.08368 L242.77988,-107.146935 L242.95183,-106.21037 L243.12561,-105.27399 L243.30104,-104.33775 L243.478,-103.401665 L243.65636,-102.465706 L243.83604,-101.52988 L244.017,-100.59417 L244.19919,-99.658585 L244.38263,-98.72312 L244.56734,-97.78779 L244.75838,-96.85308 L244.95502,-95.91897 L245.15671,-94.98539 L245.36298,-94.052315 L245.57346,-93.11971 L245.78784,-92.18756 L246.00594,-91.25584 L246.22758,-90.32453 L246.45274,-89.393654 L246.68146,-88.4632 L246.92278,-87.534355 L247.17558,-86.60704 L247.43901,-85.68121 L247.71237,-84.756836 L247.99521,-83.833885 L248.28723,-82.91237 L248.5884,-81.99233 L248.89888,-81.07385 L249.24042,-80.16091 L249.6119,-79.25387 L250.01292,-78.35316 L250.44391,-77.45941 L250.96942,-76.591415 L251.76399,-75.832985 L252.7921,-75.23163 L253.99461,-74.823654 L255.28467,-74.58496 L256.61493,-74.52091 L257.9393,-74.6302 L259.2147,-74.90561 L260.40225,-75.334984 L261.46826,-75.90227 L262.38446,-76.58843 L263.12805,-77.37236 L263.68176,-78.231514 L264.03348,-79.14251 L264.17596,-80.08154 L264.10678,-81.02472 L263.82797,-81.94828 L263.34613,-82.828896 L262.8509,-83.70578 L262.34317,-84.57907 L261.82352,-85.44883 L261.29227,-86.31507 L260.74948,-87.17771 L260.1949,-88.03658 L259.7428,-88.92508 L259.3841,-89.8347 L259.11017,-90.759 L258.91324,-91.693085 L258.7865,-92.633255 L258.72418,-93.57667 L258.72144,-94.52111 L258.7744,-95.46481 L258.88025,-96.40627 L259.03696,-97.34417 L259.24365,-98.2772 L259.5006,-99.20394 L259.75803,-100.130615 L260.0158,-101.05724 L260.27393,-101.98382 L260.53232,-102.91036 L260.79095,-103.83686 L261.04984,-104.763336 L261.3089,-105.68978 L261.56815,-106.6162 L261.82755,-107.5426 L262.08707,-108.46898 L262.34674,-109.39534 L262.60654,-110.321686 L262.86646,-111.24801 L263.1265,-112.174324 L263.38663,-113.10062 L263.64688,-114.02689 L263.88443,-114.95623 L264.1027,-115.88793 L264.30453,-116.821495 L264.4923,-117.75652 L264.66803,-118.69273 L264.83328,-119.62989 L264.9895,-120.56783 L265.13776,-121.506424 L265.27905,-122.44555 L265.4141,-123.38513 L265.5436,-124.32511 L265.6681,-125.265434 L265.78793,-126.206055 L265.9035,-127.14694 L266.01505,-128.08807 L266.12274,-129.02943 L266.21466,-129.97163 L266.30408,-130.91396 L266.39093,-131.8564 L266.4821,-132.79863 L266.57687,-133.74068 L266.67474,-134.68257 L266.7752,-135.62434 L266.87787,-136.56598 L266.98242,-137.50752 L267.08856,-138.44896 L267.1961,-139.39034 L267.30487,-140.33162 L267.4147,-141.27286 L267.52545,-142.21404 L267.63702,-143.15517 L267.74936,-144.09627 L267.86234,-145.03731 L267.97595,-145.97832 L268.09015,-146.9193 L268.2048,-147.86024 L268.32004,-148.80115 L268.4358,-149.74202 L268.55206,-150.68288 L268.66885,-151.62369 L268.78403,-152.5646 L268.89786,-153.5056 L269.01056,-154.44667 L269.1223,-155.38779 L269.23325,-156.32895 L269.3435,-157.27017 L269.4532,-158.21141 L269.56235,-159.15268 L269.6711,-160.09398 L269.77948,-161.0353 L269.88754,-161.97664 L269.9953,-162.91798 L270.1028,-163.85936 L270.2101,-164.80074 L270.3172,-165.74214 L270.4241,-166.68353 L270.5305,-167.62497 L270.6362,-168.56644 L270.74112,-169.50797 L270.8461,-170.44948 L270.9511,-171.39098 L271.0562,-172.33249 L271.16125,-173.274 L271.26624,-174.21552 L271.3712,-175.15703 L271.4761,-176.09854 L271.581,-177.04005 L271.68585,-177.98158 L271.79068,-178.9231 L271.8955,-179.86462 L272.0003,-180.80614 L272.1051,-181.74767 L272.20987,-182.6892 L272.31464,-183.6307 L272.4194,-184.57224 L272.52414,-185.51376 L272.62888,-186.45529 L272.7336,-187.39682 L272.83838,-188.33833 L272.94318,-189.27986 L273.04803,-190.22137 L273.15295,-191.1629 L273.25784,-192.10442 L273.36267,-193.04593 L273.4675,-193.98746 L273.57257,-194.92897 L273.6779,-195.87045 L273.78342,-196.81194 L273.88907,-197.75342 L273.9949,-198.69489 L274.10083,-199.63634 L274.20685,-200.57779 L274.31296,-201.51924 L274.41913,-202.4607 L274.5254,-203.40213 L274.63168,-204.34357 L274.73804,-205.285 L274.84442,-206.22644 L274.95087,-207.16786 L275.0573,-208.1093 L275.16382,-209.05072 L275.27045,-209.99214 L275.3772,-210.93355 L275.48416,-211.87495 L275.5911,-212.81636 L275.698,-213.75777 L275.80487,-214.69917 L275.91278,-215.64052 L276.0216,-216.5818 L276.13116,-217.52306 L276.24133,-218.46426 L276.35205,-219.40546 L276.46323,-220.3466 L276.57477,-221.28775 L276.68665,-222.22885 L276.79883,-223.16995 L276.91122,-224.11104 L277.02386,-225.05211 L277.13666,-225.99316 L277.24966,-226.9342 L277.3628,-227.87524 L277.47607,-228.81628 L277.58945,-229.7573 L277.70297,-230.69832 L277.817,-231.6393 L277.93164,-232.58025 L278.04626,-233.5212 L278.16086,-234.46214 L278.27545,-235.40309 L278.39206,-236.34392 L278.51038,-237.28464 L278.63016,-238.22527 L278.75116,-239.16582 L278.87323,-240.1063 L278.9962,-241.0467 L279.11996,-241.98708 L279.24445,-242.9274 L279.36954,-243.86768 L279.49515,-244.80792 L279.62125,-245.74812 L279.7478,-246.68831 L279.87476,-247.62846 L280.00208,-248.56859 L280.12973,-249.5087 L280.25775,-250.44878 L280.38715,-251.38876 L280.51678,-252.32874 L280.64664,-253.26869 L280.77994,-254.2084 L280.91626,-255.1479 L281.05515,-256.08722 L281.19626,-257.02634 L281.33936,-257.96533 L281.48416,-258.9042 L281.63046,-259.84293 L281.77817,-260.78156 L281.92706,-261.7201 L282.07712,-262.65854 L282.2282,-263.5969 L282.3803,-264.5352 L282.53333,-265.4734 L282.68726,-266.41153 L282.84213,-267.34958 L282.99792,-268.28754 L283.16043,-269.22495 L283.32877,-270.16183 L283.5023,-271.09827 L283.68045,-272.03424 L283.8628,-272.9698 L284.04898,-273.905 L284.23868,-274.8398 L284.43167,-275.77432 L284.62784,-276.7085 L284.82706,-277.64233 L285.02933,-278.57584 L285.23474,-279.50903 L285.45444,-280.44055 L285.68726,-281.37048 L285.93216,-282.29886 L286.18845,-283.2257 L286.4556,-284.151 L286.7333,-285.0747 L287.02158,-285.99683 L287.3207,-286.9172 L287.6622,-287.83014 L288.04547,-288.7347 L288.47095,-289.6298 L289.11673,-290.45605 L290.02496,-291.14752 L291.14114,-291.66412 L292.39755,-291.98032 L293.72238,-292.08664 L295.0485,-291.98828 L296.3189,-291.70163 L297.49,-291.2501 L298.53122,-290.66016 L299.42386,-289.95862 L300.1584,-289.17038 L300.7321,-288.31784 L301.1468,-287.42023 L301.40717,-286.494 L301.51932,-285.5529 L301.4898,-284.60867 L301.32513,-283.67145 L301.03116,-282.75024 L300.61288,-281.8535 L300.0744,-280.9895 L299.2613,-280.241 L298.54242,-279.44556 L297.91248,-278.6132 L297.36597,-277.7517 L296.8976,-276.86746 L296.50266,-275.9654 L296.17703,-275.04956 L295.91748,-274.12317 L295.72174,-273.18896 L295.58847,-272.24924 L295.51758,-271.30612 L295.51044,-270.3617 L295.54852,-269.41763 L295.6251,-268.47476 L295.73453,-267.5335 L295.87222,-266.59412 L296.03427,-265.65668 L296.21744,-264.72116 L296.41907,-263.7876 L296.637,-262.85583 L296.86932,-261.92584 L297.11462,-260.99753 L297.37164,-260.0708 L297.6394,-259.1456 L297.9171,-258.22186 L298.20425,-257.2996 L298.50043,-256.37872 L298.80545,-255.45934 L299.20084,-254.55736 L299.54788,-253.64548 L299.854,-252.72626 L300.12558,-251.8016 L300.36783,-250.87288 L300.58517,-249.94107 L300.78134,-249.00691 L300.95932,-248.0709 L301.12173,-247.1335 L301.27066,-246.19496 L301.40787,-245.25554 L301.53488,-244.31538 L301.65286,-243.37465 L301.76288,-242.43343 L301.86572,-241.49179 L301.9621,-240.54982 L302.05258,-239.60754 L302.13754,-238.66502 L302.1994,-237.7216 L302.23184,-236.77744 L302.26505,-235.83328 L302.299,-234.88914 L302.3338,-233.94502 L302.38055,-233.00116 L302.43726,-232.05757 L302.50223,-231.11424 L302.5741,-230.17117 L302.6517,-229.22833 L302.7342,-228.28569 L302.82077,-227.34325 L302.91083,-226.40096 L303.0038,-225.45882 L303.0993,-224.5168 L303.197,-223.57489 L303.29654,-222.63307 L303.3977,-221.69136 L303.5003,-220.74971 L303.6042,-219.80814 L303.70917,-218.86662 L303.82114,-217.92552 L303.94205,-216.98497 L304.07428,-216.04518 L304.22083,-215.10645 L304.36197,-214.16731 L304.4979,-213.2278 L304.62875,-212.2879 L304.7544,-211.34767 L304.87198,-210.4069 L304.98285,-209.46573 L305.08823,-208.52423 L305.18903,-207.58249 L305.28607,-206.64055 L305.37994,-205.69846 L305.4712,-204.75623 L305.56024,-203.81389 L305.64743,-202.87146 L305.73306,-201.92897 L305.81738,-200.98642 L305.90054,-200.04381 L305.98276,-199.10117 L306.06415,-198.15848 L306.14484,-197.21576 L306.22488,-196.27303 L306.30438,-195.33026 L306.37595,-194.38718 L306.43744,-193.44374 L306.48608,-192.49992 L306.51852,-191.55576 L306.53046,-190.61136 L306.5535,-189.66705 L306.58707,-188.7229 L306.63077,-187.77896 L306.6845,-186.83528 L306.74832,-185.89192 L306.81845,-184.94879 L306.8938,-184.00586 L306.97342,-183.0631 L307.05655,-182.12048 L307.1426,-181.17801 L307.23105,-180.23566 L307.32153,-179.29338 L307.41367,-178.3512 L307.5072,-177.40907 L307.60193,-176.46703 L307.69763,-175.52501 L307.79416,-174.58304 L307.89142,-173.64111 L307.9893,-172.69922 L308.08768,-171.75735 L308.18652,-170.8155 L308.28574,-169.87367 L308.39655,-168.9325 L308.52206,-167.99225 L308.6662,-167.05334 L308.83383,-166.1164 L309.03116,-165.18234 L309.26572,-164.25262 L309.47638,-163.32005 L309.66446,-162.38506 L309.83084,-161.44798 L309.97592,-160.50916 L310.0996,-159.56877 L310.2012,-158.62708 L310.29465,-157.68495 L310.38138,-156.74251 L310.46262,-155.79982 L310.53928,-154.85693 L310.61215,-153.91391 L310.68192,-152.97075 L310.74905,-152.02751 L310.81403,-151.08418 L310.87717,-150.14081 L310.93875,-149.19737 L310.99905,-148.25389 L311.05826,-147.31038 L311.11652,-146.36684 L311.17395,-145.42326 L311.2307,-144.47968 L311.2869,-143.53607 L311.3196,-142.5919 L311.32254,-141.64746 L311.28772,-140.70334 L311.20523,-139.76071 L311.06284,-138.82167 L310.8456,-137.88985 L310.67737,-136.95294 L310.55518,-136.01247 L310.47687,-135.06966 L310.44113,-134.12555 L310.4475,-133.18112 L310.49658,-132.23732 L310.5628,-131.29404 L310.64316,-130.3513 L310.7351,-129.40912 L310.8367,-128.4674 L310.94623,-127.52616 L311.06238,-126.58531 L311.18402,-125.644806 L311.3103,-124.704605 L311.44043,-123.76467 L311.57382,-122.82496 L311.71,-121.88545 L311.84848,-120.94612 L311.98895,-120.006935 L312.13116,-119.06787 L312.27484,-118.12893 L312.41983,-117.19009 L312.6138,-116.25569 L312.86954,-115.32878 L313.2023,-114.414215 L313.6299,-113.51966 L314.1722,-112.65687 L314.84924,-111.84323 L315.43808,-110.99589 L315.9408,-110.12114 L316.35886,-109.22432 L316.69287,-108.30999 L316.94223,-107.38221 L317.10483,-106.44481 L317.23315,-105.50475 L317.33304,-104.562965 L317.4093,-103.62006 L317.4659,-102.67647 L317.5061,-101.73245 L317.53253,-100.7882 L317.5474,-99.84381 L317.55255,-98.899376 L317.54944,-97.95493 L317.5393,-97.01051 L317.5232,-96.06614 L317.50195,-95.12182 L317.47623,-94.17754 L317.4467,-93.23334 L317.41373,-92.28918 L317.3778,-91.34508 L317.24222,-90.405525 L316.98334,-89.47906 L316.5757,-88.57983 L315.99503,-87.72966 L315.49823,-86.85322 L315.08286,-85.95578 L314.7472,-85.04175 L314.49054,-84.11497 L314.3135,-83.17889 L314.21838,-82.23685 L314.18213,-81.292755 L314.19522,-80.34835 L314.24966,-79.40469 L314.3389,-78.46237 L314.45746,-77.52167 L314.60086,-76.582695 L314.76532,-75.64547 L314.94778,-74.70991 L315.1457,-73.775925 L315.35696,-72.843414 L315.57983,-71.912254 L315.81287,-70.982346 L316.0548,-70.05358 L316.30472,-69.12588 L316.56177,-68.19915 L316.8253,-67.27333 L317.19434,-66.36578 L317.69104,-65.48933 L318.3373,-64.66324 L318.93744,-63.81987 L319.49127,-62.96075 L319.99747,-62.087017 L320.4279,-61.19314 L320.79266,-60.28472 L321.10068,-59.365826 L321.35968,-58.43937 L321.57623,-57.507465 L321.75598,-56.571644 L321.90366,-55.633007 L322.02316,-54.692364 L322.11786,-53.750305 L322.1905,-52.807266 L322.24338,-51.863564 L322.27838,-50.919445 L322.297,-49.97509 L322.30048,-49.03065 L322.28967,-48.08624 L322.26526,-47.141953 L322.22754,-46.197884 L322.09207,-45.258327 L321.9507,-44.319206 L321.85767,-43.377064 L321.80695,-42.433304 L321.79358,-41.488907 L321.81335,-40.544563 L321.8628,-39.60077 L321.93906,-38.65787 L322.03983,-37.71613 L322.16324,-36.775738 L322.3079,-35.83687 L322.47284,-34.899677 L322.6575,-33.964336 L322.86182,-33.031044 L323.0862,-32.10007 L323.33325,-31.171978 L323.60104,-30.24678 L323.88815,-29.324492 L324.19348,-28.405146 L324.51636,-27.488808 L324.85645,-26.5756 L325.21387,-25.665722 L325.63208,-24.76894 L326.111,-23.887522 L326.83835,-23.09598 L327.80005,-22.441826 L328.95404,-21.968721 L330.23514,-21.706978 L331.56348,-21.62534 L332.88953,-21.72388 L334.16644,-21.995728 L335.35187,-22.428091 L336.40918,-23.003462 L337.30832,-23.700846 L338.02582,-24.496893 L338.5447,-25.366882 L338.85425,-26.285522 L338.94937,-27.22756 L338.83026,-28.168226 L338.50177,-29.08356 L337.97324,-29.95064 L337.25818,-30.74778 L336.37408,-31.454737 L335.5547,-32.19979 L334.79843,-32.97763 L334.10416,-33.78393 L333.4712,-34.615173 L332.89975,-35.468483 L332.3911,-36.341507 L331.94803,-37.232273 L331.61975,-38.147648 L331.39203,-39.078217 L331.25174,-40.017418 L331.1872,-40.960754 L331.18832,-41.905197 L331.24646,-42.848743 L331.3543,-43.790096 L331.5057,-44.72843 L331.69553,-45.663254 L331.91956,-46.594273 L332.17426,-47.521324 L332.4568,-48.444324 L332.76483,-49.363216" fill="none" stroke="#35C788" stroke-linejoin="round" stroke-width="2"/>
</g>
</g>
<g>
<g>
<line stroke="black" stroke-width="1" x1="24" x2="24" y1="0" y2="10"/>
<line stroke="black" stroke-width="1" x1="120" x2="120" y1="0" y2="10"/>
<line stroke="black" stroke-width="1" x1="216" x2="216" y1="0" y2="10"/>
<line stroke="black" stroke-width="1" x1="312" x2="312" y1="0" y2="10"/>
<line stroke="black" stroke-width="1" x1="408" x2="408" y1="0" y2="10"/>
</g>
<line stroke="black" stroke-width="1" x1="0" x2="480" y1="0" y2="0"/>
<g>
<text font-size="12" text-anchor="middle" x="24" y="20">
-20
</text>
<text font-size="12" text-anchor="middle" x="120" y="20">
0
</text>
<text font-size="12" text-anchor="middle" x="216" y="20">
20
</text>
<text font-size="12" text-anchor="middle" x="312" y="20">
40
</text>
<text font-size="12" text-anchor="middle" x="408" y="20">
60
</text>
</g>
<text font-size="12" text-anchor="middle" x="240" y="30">
x [m]
</text>
</g>
<g>
<g>
<line stroke="black" stroke-width="1" x1="0" x2="-10" y1="-34" y2="-34"/>
<line stroke="black" stroke-width="1" x1="0" x2="-10" y1="-102" y2="-102"/>
<line stroke="black" stroke-width="1" x1="0" x2="-10" y1="-170" y2="-170"/>
<line stroke="black" stroke-width="1" x1="0" x2="-10" y1="-238" y2="-238"/>
<line stroke="black" stroke-width="1" x1="0" x2="-10" y1="-306" y2="-306"/>
</g>
<line stroke="black" stroke-width="1" x1="0" x2="0" y1="0" y2="-340"/>
<g>
<text dominant-baseline="middle" font-size="12" text-anchor="end" x="-15" y="-34">
-40
</text>
<text dominant-baseline="middle" font-size="12" text-anchor="end" x="-15" y="-102">
-20
</text>
<text dominant-baseline="middle" font-size="12" text-anchor="end" x="-15" y="-170">
0
</text>
<text dominant-baseline="middle" font-size="12" text-anchor="end" x="-15" y="-238">
20
</text>
<text dominant-baseline="middle" font-size="12" text-anchor="end" x="-15" y="-306">
40
</text>
</g>
<text font-size="12" text-anchor="middle" transform="rotate(-90 -36 -170)" x="-36" y="-182">
y [m]
</text>
</g>
</g>
</svg>