<svg viewBox="0 0 600 400" xmlns="http://www.w3.org/2000/svg">
<g transform="translate(72, 364)">
<g>
<g>
<path d="M0,-170 L0,-170 L0.61151326,-170.20084 L1.2230257,-170.40167 L1.8345366,-170.60251 L2.4460452,-170.80333 L3.0575504,-171.00415 L3.669052,-171.20497 L4.2805486,-171.40578 L4.89204,-171.60658 L5.503525,-171.80737 L6.1150026,-172.00816 L6.7264724,-172.20892 L7.3379335,-172.40968 L7.949385,-172.61043 L8.560827,-172.81114 L9.172257,-173.01186 L9.783676,-173.21255 L10.395082,-173.41322 L11.0064745,-173.61388 L11.617853,-173.8145 L12.229217,-174.0151 L12.840565,-174.21568 L13.451896,-174.41624 L14.06321,-174.61678 L14.674505,-174.81728 L15.285782,-175.01775 L15.897039,-175.2182 L16.508276,-175.41861 L17.119492,-175.61899 L17.730684,-175.81934 L18.341854,-176.01964 L18.953001,-176.21991 L19.564123,-176.42015 L20.17522,-176.62035 L20.786293,-176.82051 L21.397337,-177.02063 L22.008352,-177.2207 L22.61934,-177.42073 L23.2303,-177.62073 L23.84123,-177.82066 L24.45213,-178.02055 L25.062996,-178.2204 L25.67383,-178.4202 L26.284632,-178.61995 L26.8954,-178.81964 L27.506132,-179.01929 L28.11683,-179.21887 L28.727491,-179.4184 L29.338116,-179.61787 L29.948702,-179.81729 L30.55925,-180.01665 L31.169758,-180.21594 L31.780226,-180.41518 L32.390656,-180.61435 L33.001038,-180.81346 L33.61138,-181.0125 L34.22168,-181.21147 L34.831936,-181.41039 L35.442146,-181.60922 L36.05231,-181.808 L36.66243,-182.0067 L37.272503,-182.20532 L37.882526,-182.40388 L38.4925,-182.60236 L39.102425,-182.80077 L39.712296,-182.99908 L40.32212,-183.19733 L40.93189,-183.39551 L41.541607,-183.59358 L42.15127,-183.7916 L42.760883,-183.98952 L43.370438,-184.18735 L43.979935,-184.3851 L44.58938,-184.58276 L45.198765,-184.78033 L45.80809,-184.97783 L46.417355,-185.17522 L47.02656,-185.37253 L47.63571,-185.56973 L48.244797,-185.76686 L48.853817,-185.96388 L49.462776,-186.1608 L50.071674,-186.35764 L50.680504,-186.55437 L51.289272,-186.75099 L51.897972,-186.94751 L52.506603,-187.14394 L53.11517,-187.34026 L53.723663,-187.53648 L54.332092,-187.73259 L54.94045,-187.92859 L55.548733,-188.12448 L56.156948,-188.32027 L56.76509,-188.51595 L57.373158,-188.7115 L57.98115,-188.90695 L58.589073,-189.10228 L59.196915,-189.2975 L59.804684,-189.4926 L60.412373,-189.68758 L61.019985,-189.88245 L61.627518,-190.07718 L62.234974,-190.2718 L62.842346,-190.4663 L63.44964,-190.66068 L64.05685,-190.85492 L64.66398,-191.04903 L65.27102,-191.24303 L65.877975,-191.43689 L66.484856,-191.63062 L67.091644,-191.82422 L67.69834,-192.01768 L68.304955,-192.21103 L68.91148,-192.40422 L69.51792,-192.59729 L70.12427,-192.7902 L70.73052,-192.983 L71.33669,-193.17564 L71.942764,-193.36815 L72.548744,-193.56052 L73.15463,-193.75273 L73.76042,-193.94481 L74.36612,-194.13673 L74.97172,-194.3285 L75.57722,-194.52014 L76.182625,-194.71162 L76.78793,-194.90295 L77.39314,-195.09413 L77.998245,-195.28517 L78.60326,-195.47604 L79.20816,-195.66675 L79.81296,-195.85732 L80.41766,-196.04771 L81.022255,-196.23796 L81.62675,-196.42804 L82.23113,-196.61797 L82.83541,-196.80771 L83.43958,-196.99731 L84.04364,-197.18674 L84.6476,-197.37599 L85.25144,-197.5651 L85.85518,-197.75401 L86.4588,-197.94276 L87.06231,-198.13135 L87.66571,-198.31976 L88.269,-198.508 L88.87217,-198.69606 L89.47523,-198.88394 L90.07816,-199.07166 L90.680984,-199.25919 L91.28369,-199.44653 L91.886284,-199.6337 L92.488754,-199.8207 L93.0911,-200.00749 L93.69333,-200.1941 L94.29543,-200.38054 L94.89742,-200.56679 L95.49928,-200.75284 L96.10102,-200.9387 L96.70264,-201.12439 L97.30412,-201.30988 L97.90549,-201.49516 L98.50672,-201.68027 L99.10783,-201.86516 L99.70881,-202.04987 L100.30966,-202.23438 L100.91038,-202.41869 L101.51097,-202.6028 L102.11143,-202.7867 L102.711754,-202.9704 L103.31194,-203.1539 L103.912,-203.3372 L104.511925,-203.52028 L105.11171,-203.70317 L105.711365,-203.88583 L106.310875,-204.0683 L106.910255,-204.25055 L107.50949,-204.43259 L108.10859,-204.61441 L108.70755,-204.79602 L109.306366,-204.97742 L109.90504,-205.1586 L110.50357,-205.33955 L111.10196,-205.5203 L111.7002,-205.7008 L112.2983,-205.8811 L112.896255,-206.06117 L113.494064,-206.24103 L114.09173,-206.42065 L114.68924,-206.60004 L115.2866,-206.7792 L115.88381,-206.95815 L116.48087,-207.13686 L117.07779,-207.31534 L117.674545,-207.49358 L118.27115,-207.67159 L118.86761,-207.84937 L119.4639,-208.0269 L120.06004,-208.2042 L120.65603,-208.38126 L121.25186,-208.55807 L121.847534,-208.73465 L122.44305,-208.911 L123.0384,-209.08708 L123.6336,-209.26292 L124.22863,-209.43854 L124.8235,-209.61389 L125.41821,-209.78899 L126.01276,-209.96385 L126.60714,-210.13844 L127.20136,-210.3128 L127.79541,-210.48691 L128.3893,-210.66075 L128.98302,-210.83434 L129.57657,-211.00766 L130.16995,-211.18074 L130.76317,-211.35355 L131.3562,-211.52611 L131.94908,-211.6984 L132.54178,-211.87042 L133.13431,-212.04219 L133.72667,-212.21368 L134.31885,-212.38492 L134.91084,-212.55588 L135.50267,-212.72658 L136.09433,-212.897 L136.6858,-213.06715 L137.2771,-213.23703 L137.86823,-213.40663 L138.45917,-213.57597 L139.04991,-213.74503 L139.6405,-213.9138 L140.2309,-214.08229 L140.8211,-214.25052 L141.41113,-214.41846 L142.00098,-214.5861 L142.59064,-214.75348 L143.18011,-214.92056 L143.7694,-215.08736 L144.35849,-215.25388 L144.9474,-215.4201 L145.53612,-215.58603 L146.12465,-215.75168 L146.713,-215.91702 L147.30115,-216.08209 L147.8891,-216.24686 L148.47687,-216.41132 L149.06444,-216.57549 L149.65181,-216.73936 L150.23898,-216.90294 L150.82597,-217.06621 L151.41277,-217.22919 L151.99934,-217.39186 L152.58574,-217.55421 L153.17192,-217.71628 L153.75792,-217.87804 L154.3437,-218.03947 L154.92929,-218.2006 L155.51468,-218.36143 L156.09985,-218.52196 L156.68484,-218.68216 L157.2696,-218.84204 L157.85417,-219.00162 L158.43854,-219.16087 L159.02269,-219.31982 L159.60664,-219.47844 L160.19037,-219.63675 L160.7739,-219.79472 L161.35721,-219.95238 L161.94032,-220.10971 L162.52321,-220.26672 L163.1059,-220.42342 L163.68835,-220.57977 L164.27061,-220.7358 L164.85265,-220.8915 L165.43446,-221.04686 L166.01608,-221.2019 L166.59746,-221.35661 L167.17863,-221.51097 L167.75958,-221.66501 L168.34032,-221.81871 L168.92082,-221.97208 L169.50111,-222.12509 L170.08118,-222.27777 L170.66101,-222.43011 L171.24063,-222.5821 L171.82002,-222.73376 L172.3992,-222.88507 L172.97813,-223.03603 L173.55685,-223.18665 L174.13535,-223.3369 L174.7136,-223.48682 L175.29163,-223.63638 L175.86943,-223.7856 L176.44699,-223.93445 L177.02434,-224.08295 L177.60144,-224.2311 L178.17831,-224.37889 L178.75494,-224.52632 L179.33134,-224.67339 L179.90752,-224.8201 L180.48344,-224.96645 L181.05914,-225.11243 L181.6346,-225.25806 L182.20981,-225.4033 L182.78479,-225.5482 L183.35951,-225.69272 L183.93402,-225.83687 L184.50827,-225.98065 L185.08228,-226.12405 L185.65605,-226.26709 L186.22957,-226.40976 L186.80284,-226.55205 L187.37587,-226.69395 L187.94865,-226.83548 L188.5212,-226.97664 L189.09349,-227.1174 L189.66553,-227.2578 L190.23732,-227.39781 L190.80885,-227.53743 L191.38014,-227.67667 L191.95119,-227.81552 L192.52196,-227.954 L193.0925,-228.09207 L193.66277,-228.22977 L194.23279,-228.36707 L194.80255,-228.50397 L195.37206,-228.64047 L195.9413,-228.7766 L196.5103,-228.91231 L197.07903,-229.04764 L197.64749,-229.18256 L198.2157,-229.3171 L198.78365,-229.45122 L199.35133,-229.58495 L199.91876,-229.71826 L200.48592,-229.85118 L201.05281,-229.98369 L201.61945,-230.1158 L202.1858,-230.24748 L202.75189,-230.37877 L203.31772,-230.50966 L203.88329,-230.64012 L204.44856,-230.77017 L205.01358,-230.89981 L205.57834,-231.02904 L206.1428,-231.15784 L206.70702,-231.28622 L207.27094,-231.4142 L207.8346,-231.54175 L208.39798,-231.66888 L208.96107,-231.7956 L209.5239,-231.92188 L210.08646,-232.04773 L210.64873,-232.17317 L211.21071,-232.29817 L211.77243,-232.42274 L212.33386,-232.5469 L212.895,-232.67061 L213.45589,-232.7939 L214.01646,-232.91675 L214.57677,-233.03917 L215.13678,-233.16115 L215.69652,-233.2827 L216.25597,-233.40381 L216.81512,-233.52448 L217.374,-233.6447 L217.93257,-233.76448 L218.49088,-233.88382 L219.04887,-234.00273 L219.60658,-234.12117 L220.164,-234.23918 L220.72113,-234.35674 L221.27797,-234.47385 L221.83452,-234.59052 L222.39076,-234.70673 L222.94672,-234.82248 L223.50237,-234.93777 L224.05772,-235.05263 L224.61278,-235.16702 L225.16754,-235.28094 L225.72202,-235.39442 L226.27617,-235.50745 L226.83003,-235.62 L227.38359,-235.73209 L227.93684,-235.84372 L228.48979,-235.95488 L229.04245,-236.06558 L229.59479,-236.17581 L230.14682,-236.28557 L230.69856,-236.39487 L231.24998,-236.5037 L231.8011,-236.61203 L232.3519,-236.71991 L232.9024,-236.82732 L233.45259,-236.93425 L234.00246,-237.0407 L234.55203,-237.14667 L235.10127,-237.25217 L235.6502,-237.35718 L236.19884,-237.46172 L236.74715,-237.56577 L237.29514,-237.66933 L237.8428,-237.77242 L238.39017,-237.875 L238.9372,-237.97711 L239.48392,-238.07874 L240.03032,-238.17986 L240.5764,-238.28049 L241.12215,-238.38065 L241.66759,-238.48029 L242.21269,-238.57945 L242.75748,-238.6781 L243.30194,-238.77628 L243.84608,-238.87393 L244.3899,-238.9711 L244.93338,-239.06776 L245.47653,-239.16393 L246.01936,-239.25958 L246.56186,-239.35474 L247.10402,-239.44939 L247.64586,-239.54353 L248.18736,-239.63716 L248.72853,-239.73029 L249.26938,-239.8229 L249.80988,-239.91501 L250.35005,-240.00659 L250.88988,-240.09767 L251.42938,-240.18823 L251.96854,-240.27827 L252.50737,-240.3678 L253.04585,-240.4568 L253.58398,-240.54529 L254.1218,-240.63326 L254.65926,-240.7207 L255.19637,-240.80762 L255.73315,-240.89401 L256.2696,-240.97989 L256.80566,-241.06522 L257.3414,-241.15004 L257.8768,-241.23431 L258.41187,-241.31807 L258.94656,-241.40129 L259.48093,-241.48398 L260.01492,-241.56613 L260.54858,-241.64774 L261.08188,-241.72882 L261.61484,-241.80936 L262.14743,-241.88936 L262.6797,-241.96883 L263.21158,-242.04774 L263.74313,-242.12611 L264.27432,-242.20395 L264.80515,-242.28123 L265.3356,-242.35797 L265.86572,-242.43416 L266.39548,-242.5098 L266.92487,-242.58488 L267.45392,-242.65942 L267.98257,-242.73341 L268.5109,-242.80685 L269.03885,-242.87973 L269.56644,-242.95206 L270.09366,-243.02382 L270.6205,-243.09502 L271.147,-243.16566 L271.67313,-243.23575 L272.19888,-243.30527 L272.72427,-243.37424 L273.2493,-243.44263 L273.77396,-243.51045 L274.29822,-243.57771 L274.82214,-243.64441 L275.34567,-243.71053 L275.86884,-243.77608 L276.39163,-243.84106 L276.91406,-243.90546 L277.4361,-243.9693 L277.95776,-244.03255 L278.47903,-244.09523 L278.99997,-244.15733 L279.5205,-244.21886 L280.04065,-244.2798 L280.56042,-244.34015 L281.0798,-244.39993 L281.59882,-244.45912 L282.11746,-244.51773 L282.6357,-244.57576 L283.15356,-244.6332 L283.67105,-244.69003 L284.18814,-244.74629 L284.70486,-244.80196 L285.22116,-244.85703 L285.7371,-244.9115 L286.25266,-244.96538 L286.7678,-245.01866 L287.28256,-245.07135 L287.79694,-245.12344 L288.3109,-245.17493 L288.82452,-245.22581 L289.3377,-245.27611 L289.85052,-245.32579 L290.3629,-245.37486 L290.87494,-245.42334 L291.38654,-245.4712 L291.89777,-245.51846 L292.4086,-245.56511 L292.919,-245.61115 L293.42902,-245.65657 L293.93866,-245.70139 L294.44788,-245.74559 L294.9567,-245.78917 L295.46512,-245.83214 L295.9731,-245.87448 L296.4807,-245.91621 L296.9879,-245.95732 L297.49472,-245.99782 L298.00113,-246.03767 L298.5071,-246.07692 L299.01266,-246.11552 L299.51785,-246.15352 L300.02258,-246.19089 L300.52695,-246.22762 L301.03088,-246.26372 L301.5344,-246.2992 L302.0375,-246.33403 L302.5402,-246.36824 L303.04248,-246.40181 L303.54434,-246.43474 L304.0458,-246.46704 L304.5468,-246.4987 L305.04742,-246.52972 L305.54764,-246.5601 L306.04742,-246.58984 L306.54675,-246.61893 L307.04572,-246.64738 L307.54422,-246.67519 L308.0423,-246.70235 L308.53998,-246.72885 L309.03723,-246.75471 L309.53403,-246.77992 L310.03043,-246.80447 L310.5264,-246.82838 L311.02194,-246.85164 L311.51706,-246.87422 L312.01175,-246.89616 L312.50598,-246.91745 L312.99982,-246.93806 L313.4932,-246.95804 L313.98618,-246.97733 L314.4787,-246.99597 L314.9708,-247.01395 L315.46246,-247.03125 L315.95367,-247.0479 L316.44446,-247.06387 L316.9348,-247.07918 L317.42474,-247.09383 L317.9142,-247.10779 L318.40326,-247.12108 L318.89185,-247.1337 L319.38,-247.14565 L319.86774,-247.15692 L320.355,-247.16751 L320.84183,-247.17743 L321.32822,-247.18666 L321.81418,-247.19522 L322.29965,-247.2031 L322.78473,-247.21028 L323.26932,-247.2168 L323.75348,-247.22261 L324.23718,-247.22774 L324.72046,-247.2322 L325.20325,-247.23595 L325.6856,-247.23901 L326.1675,-247.2414 L326.649,-247.24307 L327.12997,-247.24406 L327.61053,-247.24435 L328.09064,-247.24396 L328.57025,-247.24286 L329.04944,-247.24106 L329.52817,-247.23856 L330.00644,-247.23535 L330.48425,-247.23145 L330.96158,-247.22685 L331.43848,-247.22153 L331.91492,-247.21552 L332.39087,-247.2088 L332.86636,-247.20135 L333.3414,-247.19322 L333.81598,-247.18437 L334.2901,-247.1748 L334.76373,-247.16452 L335.2369,-247.15353 L335.70963,-247.14183 L336.1819,-247.1294 L336.65366,-247.11626 L337.12494,-247.10239 L337.5958,-247.08781 L338.06613,-247.07251 L338.53604,-247.05647 L339.00546,-247.03973 L339.4744,-247.02225 L339.94287,-247.00404 L340.41086,-246.98512 L340.8784,-246.96545 L341.34543,-246.94507 L341.81198,-246.92395 L342.27808,-246.9021 L342.74365,-246.8795 L343.2088,-246.85619 L343.67343,-246.83212 L344.1376,-246.80733 L344.6013,-246.7818 L345.06448,-246.75552 L345.5272,-246.7285 L345.9894,-246.70074 L346.45117,-246.67224 L346.9124,-246.643 L347.3732,-246.613 L347.83347,-246.58228 L348.29327,-246.55078 L348.75256,-246.51855 L349.2114,-246.48557 L349.6697,-246.45183 L350.12753,-246.41733 L350.58487,-246.3821 L351.04172,-246.34608 L351.49808,-246.30933 L351.95395,-246.27182 L352.4093,-246.23354 L352.86417,-246.1945 L353.31854,-246.15471 L353.7724,-246.11415 L354.22577,-246.07283 L354.67865,-246.03073 L355.131,-245.98788 L355.5829,-245.94426 L356.03424,-245.89987 L356.4851,-245.8547 L356.93546,-245.80878 L357.3853,-245.76207 L357.8347,-245.7146 L358.2835,-245.66634 L358.73187,-245.61731 L359.1797,-245.5675 L359.627,-245.51692 L360.07382,-245.46556 L360.52014,-245.41342 L360.9659,-245.36049 L361.4112,-245.30678 L361.85596,-245.25229 L362.30023,-245.197 L362.74396,-245.14095 L363.1872,-245.08409 L363.6299,-245.02644 L364.0721,-244.968 L364.5138,-244.90878 L364.95496,-244.84875 L365.39557,-244.78795 L365.8357,-244.72633 L366.2753,-244.66394 L366.7144,-244.60074 L367.15295,-244.53673 L367.59097,-244.47192 L368.0285,-244.40633 L368.46548,-244.33992 L368.90195,-244.27272 L369.3379,-244.2047 L369.77332,-244.13588 L370.2082,-244.06625 L370.64255,-243.99582 L371.0764,-243.92458 L371.50967,-243.85251 L371.94244,-243.77965 L372.3747,-243.70596 L372.8064,-243.63147 L373.23758,-243.55615 L373.6682,-243.48003 L374.0983,-243.40308 L374.5279,-243.3253 L374.9569,-243.24672 L375.3854,-243.16731 L375.8134,-243.08708 L376.24078,-243.00603 L376.66766,-242.92413 L377.09402,-242.84143 L377.5198,-242.75789 L377.94507,-242.67352 L378.3698,-242.58833 L378.79398,-242.5023 L379.21762,-242.41544 L379.6407,-242.32774 L380.06323,-242.23921 L380.48523,-242.14986 L380.90668,-242.05965 L381.32758,-241.9686 L381.74792,-241.87672 L382.16772,-241.784 L382.58698,-241.69043 L383.00568,-241.59602 L383.42383,-241.50076 L383.84143,-241.40466 L384.25848,-241.30772 L384.675,-241.20993 L385.0909,-241.11128 L385.5063,-241.01178 L385.9211,-240.91144 L386.3354,-240.81024 L386.74908,-240.70818 L387.16223,-240.60527 L387.57483,-240.5015 L387.98685,-240.39688 L388.39832,-240.2914 L388.80923,-240.18504 L389.21957,-240.07784 L389.62936,-239.96977 L390.03857,-239.86084 L390.44724,-239.75104 L390.85532,-239.64037 L391.26282,-239.52884 L391.66977,-239.41643 L392.07617,-239.30316 L392.48196,-239.18901 L392.8872,-239.074 L393.2919,-238.95811 L393.69598,-238.84134 L394.09952,-238.72371 L394.50247,-238.60518 L394.90488,-238.48578 L395.30667,-238.36551 L395.70792,-238.24435 L396.10855,-238.12231 L396.50864,-237.99939 L396.90814,-237.87558 L397.30707,-237.75089 L397.7054,-237.6253 L398.10318,-237.49884 L398.50037,-237.37148 L398.89697,-237.24323 L399.293,-237.11409 L399.68842,-236.98405 L400.08328,-236.85312 L400.47754,-236.7213 L400.87122,-236.58858 L401.2643,-236.45496 L401.65683,-236.32045 L402.04877,-236.18503 L402.4401,-236.0487 L402.83084,-235.91148 L403.22098,-235.77336 L403.61053,-235.63432 L403.9995,-235.49438 L404.38788,-235.35355 L404.77567,-235.21179 L405.16287,-235.06914 L405.54947,-234.92555 L405.93546,-234.78107 L406.32086,-234.63567 L406.70566,-234.48935 L407.08987,-234.34212 L407.47348,-234.19397 L407.85648,-234.0449 L408.2389,-233.89493 L408.6207,-233.74402 L409.0019,-233.59218 L409.3825,-233.43944 L409.7625,-233.28575 L410.1419,-233.13115 L410.5207,-232.97563 L410.89886,-232.81917 L411.27643,-232.66179 L411.6534,-232.50346 L412.02975,-232.34422 L412.40552,-232.18404 L412.78064,-232.02292 L413.15518,-231.86087 L413.52908,-231.69788 L413.9024,-231.53397 L414.2751,-231.3691 L414.64716,-231.2033 L415.01862,-231.03654 L415.38947,-230.86887 L415.7597,-230.70023 L416.12933,-230.53065 L416.49832,-230.36012 L416.8667,-230.18866 L417.23444,-230.01624 L417.6016,-229.84288 L417.9681,-229.66855 L418.33398,-229.49329 L418.69928,-229.31706 L419.0639,-229.13988 L419.42795,-228.96175 L419.79135,-228.78265 L420.1541,-228.6026 L420.51627,-228.4216 L420.87778,-228.23962 L421.23868,-228.05669 L421.59894,-227.8728 L421.95856,-227.68794 L422.31757,-227.5021 L422.67593,-227.31532 L423.0337,-227.12756 L423.39078,-226.93883 L423.74725,-226.74913 L424.1031,-226.55847 L424.4583,-226.36682 L424.81287,-226.17421 L425.1668,-225.98062 L425.52008,-225.78604 L425.87274,-225.5905 L426.22476,-225.39398 L426.57614,-225.19647 L426.92688,-224.99799 L427.27698,-224.79852 L427.6264,-224.59807 L427.97522,-224.39664 L428.3234,-224.19421 L428.6709,-223.9908 L429.0178,-223.7864 L429.364,-223.58102 L429.7096,-223.37463 L430.0545,-223.16727 L430.3988,-222.95891 L430.74243,-222.74956 L431.08542,-222.5392 L431.42776,-222.32785 L431.76944,-222.1155 L432.11047,-221.90215 L432.45084,-221.6878 L432.79056,-221.47246 L433.12964,-221.2561 L433.46805,-221.03874 L433.8058,-220.82039 L434.14288,-220.60101 L434.47934,-220.38065 L434.8151,-220.15926 L435.15024,-219.93686 L435.48468,-219.71346 L435.81848,-219.48904 L436.1516,-219.26361 L436.4841,-219.03716 L436.81592,-218.8097 L437.14706,-218.58122 L437.47754,-218.35172 L437.80734,-218.1212 L438.1365,-217.88966 L438.46497,-217.6571 L438.7928,-217.42351 L439.11993,-217.1889 L439.4464,-216.95326 L439.77222,-216.71661 L440.09735,-216.47891 L440.4218,-216.2402 L440.74557,-216.00044 L441.0687,-215.75966 L441.39114,-215.51785 L441.7129,-215.275 L442.034,-215.03111 L442.3544,-214.7862 L442.67413,-214.54024 L442.99316,-214.29323 L443.31155,-214.0452 L443.62924,-213.79611 L443.94626,-213.54599 L444.26257,-213.29482 L444.57822,-213.04262 L444.8932,-212.78935 L445.2075,-212.53505 L445.52106,-212.2797 L445.83398,-212.02328 L446.1462,-211.76584 L446.45773,-211.50732 L446.7686,-211.24776 L447.07874,-210.98715 L447.3882,-210.72548 L447.697,-210.46274 L448.0051,-210.19896 L448.31247,-209.93411 L448.61917,-209.6682 L448.9252,-209.40123 L449.2305,-209.1332 L449.53513,-208.8641 L449.83905,-208.59393 L450.14227,-208.32271 L450.44482,-208.0504 L450.74664,-207.77704 L451.0478,-207.5026 L451.3482,-207.2271 L451.64795,-206.95052 L451.947,-206.67285 L452.2453,-206.39412 L452.54294,-206.11432 L452.83984,-205.83344 L453.13608,-205.55147 L453.43158,-205.26842 L453.72638,-204.9843 L454.02048,-204.69908 L454.31387,-204.4128 L454.60657,-204.12541 L454.89853,-203.83694 L455.1898,-203.5474 L455.48035,-203.25676 L455.7702,-202.96503 L456.05933,-202.67221 L456.34775,-202.3783 L456.63544,-202.0833 L456.92242,-201.7872 L457.2087,-201.49 L457.49426,-201.19171 L457.77908,-200.89232 L458.0632,-200.59183 L458.34662,-200.29024 L458.6293,-199.98753 L458.91125,-199.68375 L459.1925,-199.37885 L459.47302,-199.07285 L459.7528,-198.76573 L460.03186,-198.4575 L460.3102,-198.14818 L460.58783,-197.83774 L460.86475,-197.52618 L461.1409,-197.21353 L461.41635,-196.89975 L461.69107,-196.58485 L461.96506,-196.26884 L462.2383,-195.95172 L462.51083,-195.63347 L462.78262,-195.31412 L463.05368,-194.99362 L463.324,-194.67201 L463.5936,-194.34929 L463.86246,-194.02542 L464.13058,-193.70044 L464.39798,-193.37433 L464.66464,-193.0471 L464.93054,-192.71873 L465.1957,-192.38924 L465.46014,-192.05861 L465.72385,-191.72684 L465.98682,-191.39394 L466.24902,-191.0599 L466.5105,-190.72473 L466.7712,-190.38843 L467.03122,-190.05098 L467.29044,-189.71239 L467.54895,-189.37267 L467.8067,-189.03178 L468.0637,-188.68977 L468.31995,-188.34662 L468.57544,-188.0023 L468.8302,-187.65685 L469.0842,-187.31024 L469.33746,-186.9625 L469.58997,-186.61359 L469.8417,-186.26352 L470.0927,-185.91231 L470.34296,-185.55995 L470.59244,-185.20642 L470.84116,-184.85175 L471.08914,-184.4959 L471.33633,-184.1389 L471.5828,-183.78075 L471.8285,-183.42142 L472.07346,-183.06093 L472.31763,-182.69928 L472.56104,-182.33647 L472.8037,-181.97249 L473.0456,-181.60733 L473.2867,-181.24101 L473.52707,-180.87352 L473.7667,-180.50487 L474.00552,-180.13503 L474.2436,-179.764 L474.48087,-179.39183 L474.7174,-179.01846 L474.95316,-178.64392 L475.18817,-178.2682 L475.4224,-177.89131 L475.65582,-177.51323 L475.88852,-177.13397 L476.12042,-176.75352 L476.35153,-176.37189 L476.58188,-175.98907 L476.81146,-175.60506 L477.04028,-175.21986 L477.2683,-174.83348 L477.49554,-174.4459 L477.72202,-174.05714 L477.9477,-173.66718 L478.1726,-173.27602 L478.39673,-172.88367 L478.6201,-172.49011 L478.84265,-172.09537 L479.06442,-171.69942 L479.28543,-171.30228 L479.50565,-170.90393 L479.72507,-170.50436 L479.9437,-170.1036 L480.16156,-169.70164 L480.37863,-169.2985 L480.59488,-168.89415 L480.81033,-168.48862 L481.02496,-168.08192 L481.2388,-167.67407 L481.45178,-167.26508 L481.66394,-166.85495 L481.87527,-166.4437 L482.08575,-166.03133 L482.29538,-165.61786 L482.50415,-165.2033 L482.71207,-164.78764 L482.91907,-164.37093 L483.12524,-163.95314 L483.3305,-163.53432 L483.53485,-163.11444 L483.73834,-162.69354 L483.9409,-162.2716 L484.14255,-161.84868 L484.3433,-161.42474 L484.5431,-160.99983 L484.74197,-160.57393 L484.9399,-160.14706 L485.1369,-159.71924 L485.33292,-159.29047 L485.528,-158.86076 L485.7221,-158.43013 L485.91525,-157.9986 L486.10742,-157.56615 L486.29858,-157.1328 L486.48877,-156.69858 L486.67795,-156.26347 L486.86612,-155.82751 L487.05328,-155.3907 L487.2394,-154.95303 L487.42453,-154.51456 L487.6086,-154.07524 L487.79166,-153.63513 L487.97366,-153.19421 L488.1546,-152.7525 L488.3345,-152.31003 L488.5133,-151.86678 L488.69107,-151.42276 L488.86774,-150.978 L489.0433,-150.5325 L489.2178,-150.08629 L489.39117,-149.63936 L489.56345,-149.19171 L489.73462,-148.74338 L489.90466,-148.29436 L490.0736,-147.84467 L490.2414,-147.3943 L490.40805,-146.9433 L490.57355,-146.49165 L490.73788,-146.03937 L490.9011,-145.58646 L491.0631,-145.13295 L491.22397,-144.67883 L491.38364,-144.22412 L491.5421,-143.76884 L491.6994,-143.31299 L491.8555,-142.85658 L492.01038,-142.39963 L492.16406,-141.94212 L492.3165,-141.4841 L492.46774,-141.02556 L492.61774,-140.56651 L492.76648,-140.10698 L492.914,-139.64696 L493.06024,-139.18646 L493.20523,-138.7255 L493.34897,-138.26407 L493.49142,-137.80222 L493.6326,-137.33992 L493.7725,-136.87721 L493.91107,-136.4141 L494.04837,-135.95056 L494.18436,-135.48665 L494.31903,-135.02234 L494.4524,-134.55768 L494.5844,-134.09265 L494.71512,-133.62729 L494.84445,-133.16158 L494.97247,-132.69553 L495.09912,-132.22917 L495.22443,-131.76251 L495.34836,-131.29555 L495.47092,-130.82831 L495.59207,-130.3608 L495.71188,-129.893 L495.83026,-129.42497 L495.94727,-128.9567 L496.06284,-128.48817 L496.17703,-128.01944 L496.28976,-127.55048 L496.4011,-127.08134 L496.511,-126.61199 L496.61945,-126.14247 L496.72647,-125.67278 L496.832,-125.20293 L496.9361,-124.732925 L497.03873,-124.26279 L497.1399,-123.79252 L497.23956,-123.32213 L497.33774,-122.85164 L497.43445,-122.38105 L497.52963,-121.91037 L497.62332,-121.43962 L497.71548,-120.9688 L497.80615,-120.497925 L497.89526,-120.02701 L497.98285,-119.55606 L498.0689,-119.08509 L498.1534,-118.6141 L498.23636,-118.14311 L498.31775,-117.672134 L498.39758,-117.20117 L498.47583,-116.73024 L498.5525,-116.259346 L498.6276,-115.7885 L498.70108,-115.31772 L498.77295,-114.84701 L498.84323,-114.37637 L498.91193,-113.90584 L498.97897,-113.4354 L499.04437,-112.96508 L499.10815,-112.49488 L499.17032,-112.02482 L499.2308,-111.5549 L499.28964,-111.08514 L499.34683,-110.61553 L499.40237,-110.14611 L499.4562,-109.67687 L499.50836,-109.20783 L499.55884,-108.739 L499.60764,-108.270386 L499.6547,-107.802 L499.70007,-107.333855 L499.74374,-106.86595 L499.78568,-106.398315 L499.8259,-105.93095 L499.86438,-105.46386 L499.90112,-104.99706 L499.9361,-104.53057 L499.96933,-104.06439 L500.00082,-103.59853 L500.03052,-103.13301 L500.05847,-102.66782 L500.08463,-102.203 L500.10898,-101.73854 L500.13156,-101.27445 L500.15234,-100.81075 L500.1713,-100.34744 L500.18845,-99.884544 L500.2038,-99.422066 L500.2173,-98.960014 L500.22897,-98.4984 L500.2388,-98.03723 L500.24677,-97.57652 L500.2529,-97.11629 L500.25717,-96.65653 L500.25955,-96.197266 L500.2601,-95.7385 L500.25873,-95.28024 L500.2555,-94.82252 L500.25037,-94.36532 L500.24332,-93.90866 L500.23438,-93.45256 L500.2235,-92.99702 L500.21072,-92.54205 L500.196,-92.08768 L500.17938,-91.633896 L500.1608,-91.18072 L500.14026,-90.72816 L500.1178,-90.27623 L500.09335,-89.82493 L500.06693,-89.37428 L500.03854,-88.92429 L500.00818,-88.474976 L499.97583,-88.02634 L499.94147,-87.578384 L499.90512,-87.131134 L499.86676,-86.68459 L499.8264,-86.23878 L499.784,-85.79369 L499.73956,-85.34935 L499.6931,-84.905754 L499.64462,-84.46293 L499.5941,-84.020874 L499.54147,-83.579605 L499.48682,-83.13914 L499.43008,-82.69946 L499.37128,-82.26061 L499.3104,-81.822586 L499.24744,-81.3854 L499.18237,-80.94905 L499.1152,-80.51357 L499.04593,-80.07896 L498.97455,-79.64522 L498.90103,-79.212364 L498.82538,-78.78042 L498.74762,-78.34938 L498.6677,-77.919266 L498.58563,-77.490074 L498.50143,-77.06184 L498.41504,-76.634544 L498.3265,-76.20821 L498.23578,-75.78285 L498.14288,-75.35848 L498.0478,-74.935104 L497.9505,-74.51273 L497.851,-74.09137 L497.74933,-73.671036 L497.64542,-73.25174 L497.5393,-72.83349 L497.43094,-72.4163 L497.32034,-72.000175 L497.20752,-71.58512 L497.09244,-71.171165 L496.9751,-70.75831 L496.8555,-70.34656 L496.73364,-69.93593 L496.6095,-69.52643 L496.4831,-69.118065 L496.35437,-68.71086 L496.2234,-68.30482 L496.0901,-67.89994 L495.95447,-67.496254 L495.81653,-67.09376 L495.6763,-66.69246 L495.53372,-66.29238 L495.3888,-65.89353 L495.24155,-65.49591 L495.09195,-65.09954 L494.94,-64.70443 L494.78568,-64.31058 L494.629,-63.918007 L494.46994,-63.526722 L494.30847,-63.136738 L494.14465,-62.748062 L493.97842,-62.360706 L493.8098,-61.974678 L493.63876,-61.589993 L493.46533,-61.206657 L493.28946,-60.824684 L493.11115,-60.44408 L492.93042,-60.06486 L492.74722,-59.68703 L492.5616,-59.310608 L492.37354,-58.935596 L492.18298,-58.56201 L491.99,-58.189857 L491.7945,-57.819153 L491.59653,-57.4499 L491.3961,-57.08212 L491.19315,-56.71581 L490.98767,-56.35099 L490.77972,-55.987667 L490.56924,-55.62585 L490.35626,-55.265556 L490.14072,-54.906788 L489.92267,-54.54956 L489.70206,-54.193882 L489.4789,-53.839767 L489.2532,-53.48722 L489.02493,-53.136257 L488.7941,-52.786884 L488.5607,-52.439114 L488.3247,-52.092957 L488.08612,-51.748425 L487.84494,-51.405525 L487.60117,-51.06427 L487.3548,-50.72467 L487.10577,-50.386738 L486.85416,-50.05048 L486.5999,-49.715908 L486.34302,-49.383034 L486.0835,-49.05187 L485.82132,-48.722416 L485.5565,-48.394695 L485.289,-48.068714 L485.01883,-47.744484 L484.74597,-47.42201 L484.47046,-47.101307 L484.19226,-46.782387 L483.91135,-46.465256 L483.62775,-46.14993 L483.34143,-45.836414 L483.0524,-45.52472 L482.76065,-45.21486 L482.46616,-44.906845 L482.16895,-44.60068 L481.869,-44.296387 L481.56628,-43.993965 L481.26083,-43.693428 L480.9526,-43.39479 L480.6416,-43.098057 L480.32782,-42.80324 L480.0113,-42.510353 L479.69196,-42.219402 L479.36984,-41.930386 L479.04495,-41.643303 L478.71732,-41.358154 L478.38696,-41.07493 L478.05386,-40.79363 L477.71805,-40.51425 L477.37955,-40.236794 L477.03836,-39.961254 L476.69452,-39.68763 L476.348,-39.415913 L475.9988,-39.146107 L475.647,-38.878204 L475.29257,-38.612206 L474.93555,-38.34811 L474.5759,-38.085907 L474.21368,-37.825603 L473.8489,-37.56719 L473.48157,-37.310665 L473.11166,-37.05603 L472.73926,-36.803276 L472.36432,-36.552402 L471.98688,-36.30341 L471.60693,-36.05629 L471.22452,-35.811047 L470.83963,-35.56767 L470.45227,-35.32616 L470.0625,-35.086517 L469.6703,-34.848736 L469.27567,-34.612816 L468.87863,-34.37875 L468.47922,-34.146538 L468.0774,-33.916176 L467.67325,-33.687664 L467.26672,-33.460995 L466.85788,-33.23617 L466.44672,-33.013187 L466.0332,-32.792038 L465.61743,-32.572727 L465.19934,-32.355244 L464.779,-32.139595 L464.35638,-31.925768 L463.93152,-31.713766 L463.50443,-31.503584 L463.0751,-31.295221 L462.6436,-31.088673 L462.20987,-30.883938 L461.77396,-30.681011 L461.33588,-30.479893 L460.89563,-30.280579 L460.45325,-30.083067 L460.00873,-29.887352 L459.5621,-29.693436 L459.11337,-29.50131 L458.66254,-29.310978 L458.20963,-29.122433 L457.75464,-28.93567 L457.2976,-28.750694 L456.8385,-28.567495 L456.3774,-28.386074 L455.91428,-28.206427 L455.44916,-28.028551 L454.98203,-27.852444 L454.51294,-27.678102 L454.04187,-27.505526 L453.56885,-27.33471 L453.0939,-27.16565 L452.61703,-26.998344 L452.13824,-26.832792 L451.65753,-26.66899 L451.17496,-26.506933 L450.6905,-26.346622 L450.2042,-26.188051 L449.716,-26.03122 L449.226,-25.876123 L448.7342,-25.72276 L448.24057,-25.571127 L447.74512,-25.421223 L447.2479,-25.273043 L446.74893,-25.126583 L446.24817,-24.981846 L445.74567,-24.838823 L445.24146,-24.697515 L444.7355,-24.557919 L444.22784,-24.420029 L443.7185,-24.283846 L443.2075,-24.149366 L442.6948,-24.016586 L442.18045,-23.885504 L441.66443,-23.756115 L441.14682,-23.62842 L440.62756,-23.502413 L440.10672,-23.378094 L439.5843,-23.255457 L439.06027,-23.134502 L438.5347,-23.015224 L438.00757,-22.897623 L437.47888,-22.781694 L436.9487,-22.667437 L436.417,-22.554844 L435.88376,-22.443918 L435.34906,-22.334652 L434.8129,-22.227047 L434.27527,-22.121096 L433.73618,-22.0168 L433.19565,-21.914156 L432.6537,-21.813158 L432.11032,-21.713806 L431.56558,-21.616096 L431.01944,-21.520027 L430.47192,-21.425596 L429.92307,-21.332798 L429.37283,-21.24163 L428.8213,-21.152094 L428.2684,-21.064182 L427.71423,-20.977896 L427.15875,-20.893229 L426.602,-20.810179 L426.04398,-20.728746 L425.48468,-20.648924 L424.92416,-20.570713 L424.3624,-20.494108 L423.79944,-20.419107 L423.23526,-20.345709 L422.6699,-20.273909 L422.10333,-20.203705 L421.5356,-20.135094 L420.96677,-20.068073 L420.39676,-20.002642 L419.82562,-19.938793 L419.25336,-19.876528 L418.68002,-19.815844 L418.10556,-19.756735 L417.53006,-19.6992 L416.9535,-19.643236 L416.37585,-19.588842 L415.79718,-19.536013 L415.2175,-19.484747 L414.6368,-19.435041 L414.0551,-19.386894 L413.4724,-19.340302 L412.88876,-19.29526 L412.30414,-19.25177 L411.7186,-19.209826 L411.13208,-19.169424 L410.54468,-19.130564 L409.95633,-19.093243 L409.36713,-19.057459 L408.777,-19.023207 L408.18604,-18.990484 L407.5942,-18.95929 L407.00156,-18.929619 L406.40805,-18.901472 L405.81372,-18.874844 L405.2186,-18.849731 L404.62268,-18.826132 L404.02597,-18.804045 L403.4285,-18.783466 L402.8303,-18.764393 L402.23132,-18.746822 L401.63165,-18.730751 L401.03125,-18.716179 L400.43015,-18.7031 L399.82834,-18.691513 L399.22586,-18.681416 L398.62274,-18.672804 L398.01895,-18.665676 L397.41452,-18.660028 L396.80948,-18.65586 L396.20383,-18.653168 L395.59756,-18.651947 L394.99072,-18.652195 L394.38333,-18.653912 L393.77533,-18.657093 L393.1668,-18.661736 L392.55777,-18.667837 L391.94818,-18.675394 L391.3381,-18.684406 L390.7275,-18.694868 L390.11646,-18.706778 L389.5049,-18.720133 L388.8929,-18.73493 L388.2805,-18.75117 L387.6676,-18.768843 L387.05432,-18.78795 L386.4406,-18.808493 L385.82654,-18.830462 L385.21207,-18.853855 L384.59723,-18.878674 L383.98206,-18.904913 L383.36652,-18.93257 L382.75067,-18.961641 L382.1345,-18.992126 L381.518,-19.02402 L380.90125,-19.057322 L380.2842,-19.092026 L379.6669,-19.128132 L379.04935,-19.165636 L378.43155,-19.204538 L377.81354,-19.244831 L377.1953,-19.286516 L376.57687,-19.329588 L375.95825,-19.374044 L375.33948,-19.419884 L374.72052,-19.467102 L374.1014,-19.515697 L373.48218,-19.565668 L372.86282,-19.617008 L372.24335,-19.669716 L371.62378,-19.723791 L371.00415,-19.77923 L370.38443,-19.836027 L369.76465,-19.894182 L369.14484,-19.953693 L368.525,-20.014555 L367.90512,-20.076767 L367.28525,-20.140326 L366.66537,-20.205227 L366.04553,-20.271471 L365.4257,-20.339052 L364.80594,-20.407969 L364.18622,-20.478218 L363.56656,-20.549799 L362.94702,-20.622705 L362.32755,-20.696938 L361.7082,-20.772491 L361.08896,-20.849365 L360.46988,-20.927553 L359.85092,-21.007057 L359.23215,-21.087872 L358.61353,-21.169992 L357.99512,-21.25342 L357.3769,-21.338152 L356.75888,-21.424181 L356.14108,-21.511509 L355.52356,-21.60013 L354.90625,-21.690044 L354.2892,-21.781246 L353.6725,-21.873735 L353.056,-21.967508 L352.43985,-22.062561 L351.824,-22.158892 L351.2085,-22.256498 L350.59332,-22.355377 L349.97852,-22.455526 L349.36404,-22.556942 L348.74997,-22.659622 L348.13632,-22.763565 L347.52304,-22.868765 L346.9102,-22.975222 L346.29776,-23.082932 L345.6858,-23.191893 L345.07428,-23.302101 L344.46323,-23.413553 L343.85266,-23.52625 L343.2426,-23.640186 L342.63306,-23.755358 L342.02402,-23.871765 L341.4155,-23.989403 L340.80756,-24.10827 L340.20016,-24.228363 L339.59335,-24.349678 L338.98712,-24.472216 L338.3815,-24.595968 L337.77646,-24.720938 L337.1721,-24.84712 L336.56833,-24.97451 L335.9652,-25.103107 L335.36276,-25.232908 L334.76102,-25.363913 L334.15994,-25.496113 L333.55957,-25.62951 L332.9599,-25.764101 L332.361,-25.899881 L331.7628,-26.03685 L331.16537,-26.175001 L330.5687,-26.314337 L329.9728,-26.454851 L329.37772,-26.596542 L328.78342,-26.739407 L328.18997,-26.883442 L327.59732,-27.028646 L327.00552,-27.175016 L326.41458,-27.32255 L325.82452,-27.471241 L325.23535,-27.621092 L324.64706,-27.772097 L324.0597,-27.924253 L323.47324,-28.07756 L322.8877,-28.232012 L322.30313,-28.387608 L321.7195,-28.544346 L321.13687,-28.70222 L320.5552,-28.86123 L319.97455,-29.021376 L319.3949,-29.182648 L318.81628,-29.345049 L318.2387,-29.508574 L317.66217,-29.673222 L317.0867,-29.838987 L316.51233,-30.005869 L315.93903,-30.173866 L315.36682,-30.342972 L314.79572,-30.513187 L314.22577,-30.684507 L313.65695,-30.85693 L313.0893,-31.030453 L312.5228,-31.205072 L311.95746,-31.380785 L311.39334,-31.55759 L310.8304,-31.735485 L310.2687,-31.914467 L309.70825,-32.09453 L309.14902,-32.275673 L308.59103,-32.457897 L308.03433,-32.641193 L307.4789,-32.825565 L306.9248,-33.011005 L306.37198,-33.19751 L305.8205,-33.385082 L305.27032,-33.573715 L304.7215,-33.763405 L304.17404,-33.95415 L303.62796,-34.145954 L303.08328,-34.338802 L302.53998,-34.532703 L301.99808,-34.727646 L301.4576,-34.92363 L300.9186,-35.120655 L300.381,-35.318718 L299.8449,-35.517815 L299.31027,-35.71794 L298.77713,-35.919098 L298.24548,-36.12128 L297.71533,-36.324486 L297.18674,-36.52871 L296.65967,-36.73395 L296.13416,-36.940212 L295.6102,-37.14748 L295.08783,-37.35576 L294.56705,-37.565044 L294.04788,-37.775333 L293.53033,-37.986626 L293.0144,-38.198914 L292.50012,-38.4122 L291.98752,-38.626476 L291.47656,-38.841747 L290.9673,-39.058002 L290.4597,-39.27524 L289.95383,-39.49346 L289.44968,-39.712666 L288.94727,-39.932842 L288.4466,-40.153996 L287.94766,-40.376118 L287.45053,-40.59921 L286.95517,-40.823265 L286.4616,-41.048283 L285.96988,-41.27426 L285.47995,-41.501198 L284.99185,-41.729088 L284.5056,-41.95793 L284.02124,-42.187725 L283.53876,-42.41846 L283.05814,-42.650143 L282.57944,-42.882767 L282.10263,-43.116325 L281.62775,-43.350822 L281.15482,-43.58625 L280.68384,-43.82261 L280.21484,-44.059895 L279.7478,-44.298107 L279.28275,-44.537235 L278.81973,-44.777287 L278.3587,-45.018253 L277.89972,-45.260136 L277.44275,-45.502926 L276.98785,-45.746624 L276.53503,-45.991226 L276.0843,-46.236736 L275.63565,-46.48314 L275.1891,-46.730442 L274.74466,-46.97864 L274.30237,-47.22773 L273.86224,-47.477707 L273.42426,-47.728573 L272.98843,-47.98032 L272.5548,-48.232944 L272.12338,-48.48645 L271.69415,-48.74083 L271.26715,-48.996082 L270.84238,-49.252205 L270.41986,-49.509193 L269.9996,-49.767048 L269.58163,-50.02576 L269.16595,-50.285336 L268.75256,-50.545765 L268.3415,-50.807045 L267.93274,-51.06918 L267.5263,-51.332157 L267.12225,-51.59598 L266.72055,-51.86065 L266.32123,-52.126156 L265.92432,-52.392498 L265.5298,-52.659676 L265.1377,-52.927685 L264.74802,-53.19652 L264.36078,-53.466183 L263.97598,-53.736668 L263.5937,-54.007977 L263.21384,-54.280098 L262.83652,-54.553036 L262.46167,-54.826786 L262.08936,-55.101345 L261.71957,-55.37671 L261.35236,-55.652878 L260.98767,-55.929848 L260.62555,-56.20762 L260.26605,-56.486183 L259.90912,-56.765537 L259.5548,-57.045685 L259.2031,-57.326622 L258.85403,-57.60834 L258.50763,-57.89084 L258.16388,-58.17412 L257.8228,-58.458176 L257.48444,-58.743008 L257.14874,-59.028606 L256.81577,-59.314976 L256.4855,-59.60211 L256.15802,-59.890007 L255.83325,-60.178665 L255.51125,-60.46808 L255.19203,-60.758247 L254.87561,-61.049168 L254.56198,-61.340836 L254.25117,-61.63325 L253.94319,-61.92641 L253.63805,-62.22031 L253.33577,-62.514946 L253.03635,-62.810318 L252.73982,-63.106422 L252.44617,-63.40326 L252.15544,-63.70082 L251.86761,-63.999107 L251.58273,-64.29812 L251.30078,-64.59784 L251.0218,-64.898285 L250.74579,-65.19944 L250.47276,-65.501305 L250.20273,-65.80388 L249.9357,-66.10716 L249.67169,-66.41114 L249.41072,-66.71582 L249.1528,-67.0212 L248.89795,-67.32727 L248.64616,-67.63404 L248.39746,-67.94149 L248.15186,-68.249626 L247.90936,-68.55845 L247.67,-68.86795 L247.43378,-69.17813 L247.2007,-69.48898 L246.9708,-69.800514 L246.74406,-70.11271 L246.52051,-70.42557 L246.30017,-70.7391 L246.08304,-71.05328 L245.86914,-71.36813 L245.6585,-71.68363 L245.45108,-71.99979 L245.24695,-72.3166 L245.04608,-72.63405 L244.84853,-72.95214 L244.65427,-73.27088 L244.46332,-73.59026 L244.27571,-73.91028 L244.09145,-74.23093 L243.91054,-74.55221 L243.733,-74.874115 L243.55884,-75.196655 L243.38808,-75.519806 L243.22073,-75.84359 L243.0568,-76.167984 L242.8963,-76.49299 L242.73926,-76.81861 L242.58566,-77.144844 L242.43555,-77.47168 L242.28893,-77.79912 L242.14578,-78.12716 L242.00616,-78.4558 L241.87007,-78.785034 L241.73752,-79.11486 L241.6085,-79.44528 L241.48306,-79.77628 L241.36119,-80.10787 L241.24292,-80.44004 L241.12823,-80.7728 L241.01718,-81.10612 L240.90974,-81.44002 L240.80595,-81.77449 L240.70581,-82.10953 L240.60933,-82.44513 L240.51654,-82.781296 L240.42743,-83.11803 L240.34204,-83.45531 L240.26036,-83.793144 L240.1824,-84.13153 L240.1082,-84.470474 L240.03775,-84.80995 L239.97107,-85.14999 L239.90816,-85.49055 L239.849,-85.83166 L239.79356,-86.1733 L239.74187,-86.51547 L239.69385,-86.858185 L239.64954,-87.201416 L239.60889,-87.54518 L239.57188,-87.889465 L239.53851,-88.23427 L239.50876,-88.5796 L239.4826,-88.92544 L239.46004,-89.2718 L239.44104,-89.61866 L239.42558,-89.96604 L239.41367,-90.31392 L239.40526,-90.66231 L239.40036,-91.0112 L239.39893,-91.36059 L239.40097,-91.71048 L239.40646,-92.06086 L239.41539,-92.411736 L239.42772,-92.76309 L239.44345,-93.114944 L239.46255,-93.467285 L239.48503,-93.8201 L239.51086,-94.1734 L239.54001,-94.527176 L239.57248,-94.881424 L239.60823,-95.23615 L239.64728,-95.59135 L239.68958,-95.94701 L239.73512,-96.30314 L239.78389,-96.65973 L239.83588,-97.016785 L239.89107,-97.37429 L239.94942,-97.73226 L240.01094,-98.090675 L240.0756,-98.44955 L240.14339,-98.80887 L240.2143,-99.16863 L240.28828,-99.52885 L240.36536,-99.889496 L240.44548,-100.25058 L240.52866,-100.61211 L240.61484,-100.97407 L240.70406,-101.336464 L240.79625,-101.69928 L240.89142,-102.06253 L240.98955,-102.4262 L241.0906,-102.7903 L241.19461,-103.15481 L241.3015,-103.51974 L241.4113,-103.885086 L241.52396,-104.25084 L241.63948,-104.61701 L241.75784,-104.98358 L241.87903,-105.35056 L242.003,-105.71795 L242.12979,-106.08573 L242.25934,-106.45391 L242.39163,-106.82249 L242.52669,-107.19145 L242.66444,-107.56081 L242.80492,-107.93056 L242.94806,-108.30069 L243.09389,-108.6712 L243.24237,-109.0421 L243.39348,-109.413376 L243.54723,-109.78503 L243.70355,-110.15704 L243.86249,-110.52944 L244.02397,-110.90221 L244.18802,-111.27533 L244.3546,-111.64883 L244.5237,-112.02268 L244.6953,-112.39689 L244.86938,-112.77146 L245.04594,-113.146385 L245.22495,-113.52166 L245.40639,-113.897285 L245.59024,-114.273254 L245.77649,-114.649574 L245.96513,-115.02623 L246.15613,-115.40322 L246.34949,-115.780556 L246.54517,-116.158226 L246.74318,-116.536224 L246.94347,-116.91456 L247.14606,-117.29321 L247.3509,-117.672195 L247.558,-118.051506 L247.76732,-118.43113 L247.97887,-118.81107 L248.1926,-119.19133 L248.40851,-119.5719 L248.62659,-119.95278 L248.84682,-120.33397 L249.06918,-120.71547 L249.29366,-121.09727 L249.52022,-121.47936 L249.74886,-121.86176 L249.97957,-122.24445 L250.21231,-122.62744 L250.4471,-123.01071 L250.68388,-123.39428 L250.92267,-123.77813 L251.16344,-124.16227 L251.40616,-124.546684 L251.65083,-124.93138 L251.89742,-125.31635 L252.14592,-125.7016 L252.39632,-126.08712 L252.64859,-126.4729 L252.90273,-126.858955 L253.1587,-127.24528 L253.4165,-127.63185 L253.67612,-128.01869 L253.93752,-128.40579 L254.20068,-128.79314 L254.46562,-129.18074 L254.73228,-129.5686 L255.00069,-129.9567 L255.2708,-130.34505 L255.54259,-130.73363 L255.81606,-131.12245 L256.0912,-131.51152 L256.36795,-131.90082 L256.64633,-132.29036 L256.92633,-132.68011 L257.20792,-133.07011 L257.49106,-133.46033 L257.77576,-133.85077 L258.062,-134.24142 L258.3498,-134.63231 L258.63904,-135.0234 L258.9298,-135.41472 L259.22205,-135.80623 L259.51572,-136.19795 L259.81085,-136.58989 L260.1074,-136.98203 L260.40533,-137.37437 L260.70465,-137.7669 L261.00534,-138.15964 L261.3074,-138.55257 L261.61078,-138.9457 L261.91547,-139.33899 L262.2215,-139.7325 L262.52878,-140.12617 L262.83734,-140.52003 L263.14713,-140.91408 L263.4582,-141.30829 L263.77045,-141.70268 L264.0839,-142.09724 L264.39853,-142.49199 L264.71436,-142.88689 L265.0313,-143.28195 L265.3494,-143.67719 L265.66858,-144.07257 L265.9889,-144.46812 L266.31027,-144.86382 L266.63272,-145.25967 L266.95624,-145.65569 L267.28076,-146.05183 L267.6063,-146.44814 L267.93283,-146.84457 L268.26035,-147.24115 L268.58884,-147.63788 L268.91827,-148.03473 L269.24863,-148.43172 L269.5799,-148.82884 L269.91208,-149.22609 L270.24512,-149.62347 L270.57904,-150.02097 L270.9138,-150.4186 L271.24936,-150.81633 L271.58575,-151.21419 L271.92294,-151.61215 L272.26093,-152.01024 L272.59964,-152.40842 L272.93912,-152.80672 L273.2793,-153.20512 L273.6202,-153.60362 L273.96182,-154.00223 L274.30408,-154.40092 L274.64703,-154.79971 L274.9906,-155.19861 L275.3348,-155.59758 L275.67963,-155.99664 L276.02502,-156.39578 L276.371,-156.79501 L276.71753,-157.19434 L277.0646,-157.59372 L277.4122,-157.99318 L277.7603,-158.39272 L278.10892,-158.79233 L278.45798,-159.192 L278.8075,-159.59174 L279.15747,-159.99155 L279.50784,-160.3914 L279.85864,-160.79132 L280.20984,-161.1913 L280.5614,-161.59132 L280.9133,-161.99141 L281.26553,-162.39154 L281.6181,-162.79172 L281.97098,-163.19194 L282.32416,-163.5922 L282.67758,-163.9925 L283.03125,-164.39284 L283.3852,-164.7932 L283.73932,-165.1936 L284.09366,-165.59404 L284.4482,-165.99449 L284.8029,-166.39497 L285.15775,-166.79547 L285.51273,-167.196 L285.86783,-167.59654 L286.22305,-167.9971 L286.57834,-168.39766 L286.9337,-168.79823 L287.2891,-169.19882 L287.64453,-169.59941" fill="none" stroke="#000000" stroke-linejoin="round" stroke-width="2"/>
</g>
</g>
<g>
<g>
<path d="M0,-191.25 L0,-191.25 L0,-191.25 L0.37587705,-191.37114 L1.1083761,-191.5505 L2.169505,-191.74663 L3.529127,-191.93173 L5.1572366,-192.09119 L7.0256524,-192.22186 L9.108978,-192.32864 L11.38465,-192.42232 L13.832691,-192.51585 L16.43522,-192.62193 L19.17597,-192.75322 L22.040085,-192.91972 L25.014,-193.12857 L28.085388,-193.3842 L31.242954,-193.69029 L34.476788,-194.04672 L37.777878,-194.45354 L41.13828,-194.90945 L44.551018,-195.41225 L48.00999,-195.95915 L51.509647,-196.54819 L55.045387,-197.1758 L58.61319,-197.83858 L62.20931,-198.53416 L65.830505,-199.26007 L69.47414,-200.01303 L73.137695,-200.7908 L76.818985,-201.59122 L80.5161,-202.41214 L84.22736,-203.25153 L87.951324,-204.1075 L91.68668,-204.97824 L95.432335,-205.8621 L99.18727,-206.75757 L102.95063,-207.66318 L106.72166,-208.57759 L110.49967,-209.4996 L114.284096,-210.42804 L118.07441,-211.36183 L121.87018,-212.29999 L125.67101,-213.24152 L129.47661,-214.1855 L133.2867,-215.13097 L137.10106,-216.07712 L140.91946,-217.02316 L144.74182,-217.9682 L148.56798,-218.91153 L152.39789,-219.85228 L156.23141,-220.78986 L160.06859,-221.72337 L163.90932,-222.65233 L167.75363,-223.57585 L171.60147,-224.4935 L175.45291,-225.40439 L179.30803,-226.30771 L183.16675,-227.20316 L187.02916,-228.08986 L190.89539,-228.96703 L194.76549,-229.83386 L198.63937,-230.69028 L202.51717,-231.53537 L206.39897,-232.36835 L210.28487,-233.18845 L214.17494,-233.99493 L218.06924,-234.78708 L221.96785,-235.56422 L225.87079,-236.32564 L229.77812,-237.07066 L233.68988,-237.79858 L237.60631,-238.5078 L241.52734,-239.19788 L245.45296,-239.8683 L249.38312,-240.51846 L253.31801,-241.1467 L257.25754,-241.75261 L261.2016,-242.33571 L265.15033,-242.89423 L269.10358,-243.42784 L273.0614,-243.93483 L277.0238,-244.41367 L280.99048,-244.86429 L284.96146,-245.28503 L288.93658,-245.67435 L292.91568,-246.03085 L296.89856,-246.35321 L300.88495,-246.64012 L304.87454,-246.8903 L308.86697,-247.10251 L312.86185,-247.27545 L316.85876,-247.40782 L320.85718,-247.49834 L324.8566,-247.54367 L328.85638,-247.54309 L332.85583,-247.49559 L336.85413,-247.3979 L340.85034,-247.24725 L344.84357,-247.04344 L348.83264,-246.78351 L352.8163,-246.46489 L356.79315,-246.08527 L360.7617,-245.64249 L364.72025,-245.13452 L368.66708,-244.55948 L372.6003,-243.9155 L376.51797,-243.20079 L380.41788,-242.41367 L384.29694,-241.54956 L388.1529,-240.60785 L391.98334,-239.58772 L395.78452,-238.48517 L399.554,-237.30026 L403.2877,-236.02966 L406.98306,-234.67407 L410.63577,-233.23067 L414.24155,-231.69754 L417.79803,-230.07666 L421.30066,-228.36629 L424.7471,-226.56871 L428.1327,-224.6826 L431.45294,-222.70753 L434.70615,-220.64685 L437.89035,-218.50334 L441.00076,-216.27652 L444.03592,-213.96973 L446.99423,-211.58594 L449.8711,-209.12524 L452.6657,-206.59132 L455.37714,-203.98753 L458.00446,-201.31699 L460.54678,-198.5827 L463.0064,-195.78975 L465.3818,-192.9402 L467.67493,-190.03831 L469.8841,-187.0858 L472.0113,-184.08647 L474.05807,-181.0436 L476.02567,-177.96004 L477.91507,-174.83838 L479.72726,-171.68103 L481.4631,-168.49023 L483.12338,-165.26807 L484.71167,-162.01756 L486.22742,-158.74004 L487.6732,-155.4378 L489.04752,-152.11174 L490.35226,-148.76378 L491.58524,-145.39458 L492.74783,-142.0058 L493.84048,-138.59883 L494.85974,-135.17407 L495.80603,-131.73294 L496.67545,-128.27596 L497.46817,-124.80453 L498.18356,-121.31997 L498.81647,-117.822914 L499.3662,-114.31486 L499.82724,-110.79679 L500.19867,-107.27043 L500.47424,-103.737175 L500.64804,-100.19885 L500.7194,-96.65775 L500.68112,-93.11625 L500.5264,-89.57723 L500.24857,-86.04412 L499.8409,-82.52089 L499.29672,-79.01215 L498.60242,-75.524254 L497.75317,-72.063324 L496.74368,-68.6363 L495.56052,-65.25312 L494.2005,-61.922443 L492.65186,-58.656986 L490.90546,-55.470703 L488.96356,-52.374397 L486.81943,-49.384537 L484.47018,-46.518063 L481.9262,-43.784973 L479.19287,-41.19918 L476.28763,-38.764744 L473.2217,-36.490063 L470.01425,-34.373882 L466.68256,-32.413956 L463.24225,-30.60715 L459.70737,-28.949575 L456.09067,-27.436735 L452.40594,-26.058521 L448.66208,-24.81155 L444.86908,-23.686954 L441.03506,-22.67735 L437.16534,-21.780811 L433.26627,-20.990211 L429.34308,-20.299534 L425.40012,-19.703594 L421.4411,-19.197851 L417.46976,-18.774643 L413.48856,-18.43168 L409.4998,-18.16661 L405.5057,-17.973785 L401.50806,-17.852112 L397.50848,-17.800226 L393.5085,-17.813555 L389.5095,-17.89163 L385.51257,-18.03073 L381.5188,-18.22804 L377.52927,-18.484257 L373.54486,-18.79672 L369.5667,-19.166216 L365.5955,-19.590288 L361.6319,-20.067148 L357.67712,-20.598198 L353.73175,-21.181578 L349.79703,-21.818676 L345.87344,-22.507706 L341.96167,-23.247477 L338.0631,-24.039946 L334.17828,-24.883799 L330.30878,-25.781006 L326.45514,-26.73029 L322.61905,-27.733768 L318.80118,-28.790276 L315.00342,-29.902155 L311.22766,-31.07134 L307.47586,-32.29952 L303.7501,-33.588257 L300.051,-34.93593 L296.38126,-36.345093 L292.74533,-37.82144 L289.14584,-39.366158 L285.5857,-40.980724 L282.0704,-42.67062 L278.60318,-44.436684 L275.19067,-46.284355 L271.83978,-48.21844 L268.558,-50.24335 L265.3537,-52.36323 L262.236,-54.582054 L259.22006,-56.908566 L256.32214,-59.349823 L253.55986,-61.911385 L250.95255,-64.59727 L248.52145,-67.40974 L246.29898,-70.354416 L244.31853,-73.43152 L242.61378,-76.63544 L241.21762,-79.95435 L240.15593,-83.36899 L239.4412,-86.85366 L239.07349,-90.38033 L239.04257,-93.92189 L239.33046,-97.45437 L239.90544,-100.95926 L240.73804,-104.423355 L241.8008,-107.83772 L243.06255,-111.19858 L244.50262,-114.502754 L246.09702,-117.750916 L247.8256,-120.94479 L249.67134,-124.086876 L251.61949,-127.18009 L253.65465,-130.22908 L255.76675,-133.23677 L257.94464,-136.20744 L260.18085,-139.14397 L262.46683,-142.05028 L264.7954,-144.92995 L267.1604,-147.78625 L269.5565,-150.6222 L271.97876,-153.44063 L274.42288,-156.24423 L276.8848,-159.03561 L279.36075,-161.81723 L281.84717,-164.59154 L284.34073,-167.3608 L286.83923,-170.12657 L289.34116,-172.88992 L291.84552,-175.65154 L294.35168,-178.41188 L296.85916,-181.17128 L299.36765,-183.92996 L301.8769,-186.68808 L304.38678,-189.44577 L306.89713,-192.20311 L309.4079,-194.96017 L311.91898,-197.717 L314.86746,-200.11034 L318.0525,-202.25288 L321.3878,-204.20801 L324.8296,-206.0126 L328.35327,-207.6887 L331.94397,-209.24942 L335.59396,-210.69824 L339.29544,-212.04076 L343.04266,-213.27982 L346.83264,-214.41235 L350.66202,-215.43567 L354.52725,-216.34726 L358.4245,-217.1448 L362.3498,-217.82613 L366.29895,-218.38913 L370.26758,-218.8318 L374.25162,-219.14767 L378.24594,-219.3366 L382.24542,-219.39331 L386.24442,-219.314 L390.23715,-219.10057 L394.21744,-218.74933 L398.1787,-218.25775 L402.1142,-217.6243 L406.01816,-216.85286 L409.88348,-215.94157 L413.703,-214.88974 L417.47144,-213.70215 L421.1814,-212.37814 L424.82803,-210.92267 L428.40396,-209.33565 L431.9049,-207.62257 L435.32657,-205.7882 L438.66476,-203.83694 L441.91544,-201.77312 L445.07483,-199.60101 L448.14276,-197.32843 L451.11517,-194.95847 L453.9922,-192.49786 L456.77338,-189.95241 L459.4583,-187.32716 L462.0465,-184.62682 L464.5375,-181.85576 L466.93463,-179.0205 L469.23663,-176.12413 L471.44644,-173.172 L473.56622,-170.16853 L475.59763,-167.1176 L477.54208,-164.02254 L479.40054,-160.88635 L481.17383,-157.71173 L482.8658,-154.50253 L484.4757,-151.26038 L486.00623,-147.9882 L487.45547,-144.68718 L488.82547,-141.35971 L490.1136,-138.00671 L491.32126,-134.63033 L492.44525,-131.23135 L493.48654,-127.8118 L494.44122,-124.37249 L495.3099,-120.91535 L496.088,-117.44134 L496.77136,-113.95174 L497.36047,-110.44869 L497.85,-106.93365 L498.23492,-103.40842 L498.51532,-99.875465 L498.68466,-96.336975 L498.73676,-92.79561 L498.66547,-89.2545 L498.4646,-85.7173 L498.1279,-82.18821 L497.64218,-78.672745 L497.0029,-75.176605 L496.19736,-71.7075 L495.2222,-68.27269 L494.06512,-64.88243 L492.71588,-61.54834 L491.1745,-58.28018 L489.43158,-55.092407 L487.48068,-52.00055 L485.31833,-49.02098 L482.9445,-46.170437 L480.3729,-43.45769 L477.61127,-40.895554 L474.6722,-38.49316 L471.57672,-36.250072 L468.34354,-34.164845 L464.98947,-32.23508 L461.52975,-30.457537 L457.97815,-28.828257 L454.34702,-27.342705 L450.6499,-25.990805 L446.8954,-24.769175 L443.09326,-23.669006 L439.24994,-22.687496 L435.37274,-21.816711 L431.4676,-21.050037 L427.53943,-20.381842 L423.5924,-19.807234 L419.63016,-19.32189 L415.6562,-18.918346 L411.67297,-18.594442 L407.68265,-18.34793 L403.68753,-18.173265 L399.68924,-18.069422 L395.68942,-18.035103 L391.68958,-18.065794 L387.69095,-18.158089 L383.69473,-18.312311 L379.702,-18.525389 L375.71384,-18.797846 L371.73114,-19.126907 L367.755,-19.513288 L363.78616,-19.954487 L359.82532,-20.448692 L355.8736,-20.997307 L351.93164,-21.598469 L348.0001,-22.250898 L344.08026,-22.956432 L340.17276,-23.713623 L336.27893,-24.52428 L332.3994,-25.386972 L328.5357,-26.303621 L324.68845,-27.272905 L320.85928,-28.296947 L317.05,-29.377453 L313.26114,-30.512945 L309.4948,-31.70569 L305.75305,-32.957638 L302.03806,-34.270557 L298.35208,-35.646145 L294.69763,-37.086094 L291.0773,-38.592175 L287.49408,-40.16624 L283.9533,-41.813927 L280.45813,-43.536224 L277.01483,-45.338566 L273.62704,-47.22162 L270.3025,-49.19101 L267.05295,-51.256226 L263.88663,-53.420403 L260.81287,-55.68679 L257.84747,-58.06368 L255.00742,-60.55768 L252.3112,-63.173847 L249.77911,-65.915565 L247.44202,-68.78983 L245.33208,-71.798706 L243.48235,-74.93894 L241.92584,-78.20147 L240.69304,-81.57073 L239.80281,-85.023575 L239.26102,-88.5326 L239.0622,-92.06989 L239.1918,-95.609695 L239.61986,-99.13103 L240.31781,-102.61836 L241.2585,-106.06069 L242.41635,-109.450745 L243.76743,-112.78426 L245.28487,-116.06118 L246.94655,-119.28279 L248.73383,-122.45125 L250.63081,-125.569305 L252.62093,-128.64151 L254.69345,-131.67072 L256.8386,-134.66 L259.04562,-137.61377 L261.3057,-140.53592 L263.61142,-143.42998 L265.95758,-146.29845 L268.338,-149.1447 L270.7473,-151.97183 L273.18073,-154.78273 L275.63394,-157.58011 L278.10297,-160.36655 L280.5841,-163.14456 L283.0738,-165.91655 L285.5693,-168.68443 L288.06885,-171.4495 L290.57123,-174.21252 L293.07562,-176.97409 L295.58154,-179.7346 L298.0886,-182.49431 L300.59653,-185.25339 L303.1051,-188.01201 L305.61423,-190.77023 L308.12378,-193.52815 L310.63367,-196.28583 L313.1439,-199.04327 L316.1084,-201.421 L319.31473,-203.53851 L322.6733,-205.46211 L326.139,-207.23053 L329.6864,-208.86696 L333.30237,-210.38124 L336.9757,-211.78299 L340.69888,-213.07764 L344.46786,-214.26382 L348.27875,-215.33994 L352.12628,-216.30852 L356.0072,-217.16618 L359.91797,-217.9101 L363.85468,-218.53769 L367.81387,-219.04222 L371.79068,-219.42316 L375.78018,-219.67963 L379.77762,-219.80595 L383.77762,-219.79793 L387.77444,-219.6572 L391.76218,-219.37984 L395.7344,-218.96313 L399.6853,-218.41003 L403.60815,-217.71779 L407.49597,-216.88487 L411.34167,-215.91072 L415.13995,-214.80017 L418.88348,-213.55244 L422.56732,-212.17236 L426.1841,-210.65965 L429.72937,-209.01958 L433.19864,-207.2567 L436.58752,-205.37523 L439.8918,-203.37924 L443.10745,-201.27286 L446.2308,-199.06024 L449.26175,-196.74908 L452.19638,-194.34248 L455.03494,-191.84715 L457.77725,-189.2688 L460.4229,-186.6125 L462.97168,-183.8829 L465.4267,-181.08678 L467.78677,-178.22728 L470.0547,-175.30988 L472.23245,-172.33914 L474.3183,-169.31711 L476.31802,-166.2498 L478.2324,-163.14009 L480.06198,-159.99062 L481.80722,-156.80383 L483.47174,-153.58339 L485.05457,-150.3308 L486.55475,-147.04765 L487.975,-143.73676 L489.31326,-140.39919 L490.57138,-137.03726 L491.74646,-133.65187 L492.83975,-130.24507 L493.84772,-126.81768 L494.77106,-123.371666 L495.6055,-119.90792 L496.35135,-116.42837 L497.0036,-112.934105 L497.56216,-109.42714 L498.02118,-105.90887 L498.37524,-102.3811 L498.61908,-98.84602 L498.74744,-95.30618 L498.76053,-91.764534 L498.64523,-88.22434 L498.39633,-84.68954 L498.00818,-81.16458 L497.47473,-77.65455 L496.7826,-74.16631 L495.92743,-70.70653 L494.8965,-67.28451 L493.687,-63.90863 L492.28708,-60.590946 L490.68732,-57.34487 L488.88068,-54.185028 L486.86276,-51.127068 L484.6407,-48.182167 L482.21265,-45.36762 L479.5842,-42.69792 L476.7735,-40.17799 L473.7919,-37.81707 L470.65927,-35.61476 L467.3889,-33.57552 L463.99945,-31.694815 L460.50726,-29.967777 L456.9296,-28.3838 L453.27734,-26.939453 L449.56052,-25.630562 L445.79025,-24.447601 L441.97534,-23.382719 L438.1216,-22.433746 L434.23587,-21.593279 L430.32373,-20.855091 L426.38983,-20.213835 L422.43817,-19.664833 L418.4722,-19.203934 L414.4953,-18.823833 L410.5098,-18.522469 L406.51788,-18.29767 L402.52164,-18.143988 L398.52277,-18.060453 L394.5228,-18.042711 L390.52316,-18.090479 L386.5251,-18.20009 L382.5298,-18.371687 L378.53827,-18.60209 L374.55167,-18.891747 L370.5708,-19.237844 L366.59647,-19.638315 L362.62976,-20.094362 L358.67136,-20.603903 L354.72247,-21.16816 L350.78363,-21.785152 L346.8555,-22.453524 L342.9394,-23.17507 L339.0359,-23.948328 L335.14642,-24.7751 L331.2715,-25.653967 L327.41278,-26.586868 L323.5708,-27.572502 L319.74734,-28.613026 L315.94412,-29.710186 L312.16174,-30.862528 L308.40237,-32.07237 L304.6681,-33.341698 L300.96115,-34.67234 L297.28387,-36.06604 L293.63882,-37.524548 L290.0287,-39.04967 L286.4565,-40.64333 L282.92786,-42.31124 L279.44592,-44.054443 L276.01718,-45.878445 L272.64847,-47.788097 L269.3471,-49.787827 L266.1211,-51.88179 L262.97943,-54.07396 L259.93683,-56.37307 L257.00903,-58.786213 L254.21315,-61.319054 L251.56805,-63.975807 L249.09444,-66.759056 L246.82399,-69.674904 L244.78955,-72.72427 L243.02454,-75.9025 L241.56184,-79.198875 L240.42953,-82.59568 L239.64261,-86.06814 L239.20338,-89.58839 L239.1035,-93.12895 L239.32628,-96.665115 L239.84067,-100.177376 L240.61757,-103.6516 L241.62964,-107.078026 L242.8514,-110.45045 L244.25403,-113.76723 L245.8138,-117.02853 L247.51076,-120.23569 L249.32782,-123.39084 L251.25018,-126.49668 L253.2649,-129.5563 L255.35812,-132.57431 L257.5208,-135.55368 L259.74283,-138.49861 L262.01578,-141.41293 L264.3339,-144.29922 L266.69034,-147.16107 L269.07935,-150.0017 L271.4957,-152.8241 L273.93488,-155.63107 L276.39267,-158.42531 L278.86517,-161.20934 L281.3488,-163.98561 L283.84006,-166.75648 L286.33655,-169.52368 L288.83667,-172.2883 L291.33942,-175.05107 L293.84402,-177.81252 L296.35,-180.57298 L298.85706,-183.33269 L301.3649,-186.09183 L303.87338,-188.85051 L306.38235,-191.60884 L308.89175,-194.36687 L311.40146,-197.12466 L314.34378,-199.52393 L317.51715,-201.68001 L320.84186,-203.64923 L324.27368,-205.46863 L327.7879,-207.16028 L331.36954,-208.7372 L335.00888,-210.20691 L338.70105,-211.56938 L342.43994,-212.82799 L346.22244,-213.97995 L350.04364,-215.027 L353.90073,-215.96523 L357.79037,-216.7914 L361.70886,-217.50269 L365.65308,-218.09213 L369.6182,-218.55902 L373.59933,-218.90231 L377.59204,-219.11613 L381.5909,-219.20084 L385.5905,-219.15149 L389.58493,-218.96457 L393.56836,-218.64227 L397.5343,-218.18117 L401.47607,-217.579 L405.3867,-216.83452 L409.2605,-215.9519 L413.09024,-214.92963 L416.8687,-213.76735 L420.59076,-212.47018 L424.24905,-211.03789 L427.83893,-209.47574 L431.35315,-207.78409 L434.78772,-205.96872 L438.1387,-204.03473 L441.4022,-201.98682 L444.57767,-199.83318 L447.66086,-197.57687 L450.6481,-195.22154 L453.5396,-192.7743 L456.33517,-190.24121 L459.03436,-187.62746 L461.63678,-184.93785 L464.142,-182.17685 L466.5533,-179.35104 L468.86948,-176.46355 L471.09338,-173.51971 L473.22717,-170.52405 L475.27252,-167.48041 L477.23074,-164.39218 L479.1029,-161.26239 L480.88977,-158.09373 L482.59525,-154.89012 L484.2185,-151.6532 L485.76233,-148.38596 L487.22482,-145.08951 L488.6045,-141.76518 L489.90347,-138.41547 L491.12286,-135.04237 L492.25922,-131.64664 L493.31335,-128.23016 L494.2813,-124.79376 L495.1636,-121.339325 L495.95563,-117.86778 L496.65326,-114.380394 L497.25696,-110.879295 L497.76144,-107.36591 L498.16168,-103.84202 L498.4578,-100.31007 L498.64334,-96.77222 L498.71216,-93.23107 L498.65814,-89.68973 L498.4752,-86.15177 L498.15704,-82.62132 L497.6906,-79.10381 L497.07135,-75.60485 L496.28668,-72.131996 L495.33313,-68.69244 L494.1985,-65.29625 L492.8806,-61.952316 L491.36832,-58.67354 L489.65286,-55.4741 L487.7283,-52.36932 L485.59143,-49.375378 L483.24213,-46.508934 L480.69373,-43.77908 L477.9536,-41.198914 L475.03415,-38.777866 L471.95633,-36.515804 L468.73892,-34.41152 L465.39883,-32.462822 L461.95142,-30.666645 L458.41055,-29.019161 L454.78873,-27.515938 L451.0972,-26.152073 L447.34814,-24.917414 L443.55106,-23.80365 L439.71228,-22.808353 L435.83902,-21.923832 L431.9373,-21.143637 L428.01202,-20.462242 L424.0674,-19.874826 L420.10712,-19.37711 L416.13425,-18.965244 L412.15198,-18.632238 L408.16245,-18.376202 L404.16766,-18.195118 L400.16965,-18.083721 L396.16995,-18.041145 L392.17,-18.063179 L388.1712,-18.149612 L384.17468,-18.296906 L380.1816,-18.505266 L376.19293,-18.771616 L372.2095,-19.093664 L368.23245,-19.472452 L364.26248,-19.905708 L360.30075,-20.3945 L356.3479,-20.936684 L352.40457,-21.53074 L348.47202,-22.17832 L344.5508,-22.877806 L340.64227,-23.630842 L336.74698,-24.435867 L332.86633,-25.29465 L329.00098,-26.205748 L325.15244,-27.171133 L321.32135,-28.189524 L317.50958,-29.26314 L313.71777,-30.390875 L309.94806,-31.575243 L306.20255,-32.81835 L302.48343,-34.122078 L298.79297,-35.488186 L295.13364,-36.918415 L291.50806,-38.414547 L287.91916,-39.978436 L284.37222,-41.615704 L280.8704,-43.327328 L277.41977,-45.118702 L274.02692,-46.994576 L270.69562,-48.955013 L267.43774,-51.009888 L264.26147,-53.162643 L261.1762,-55.41674 L258.1976,-57.78062 L255.34239,-60.261032 L252.62892,-62.86317 L250.07721,-65.5906 L247.71782,-68.45055 L245.5826,-71.4454 L243.70439,-74.57236 L242.1162,-77.82289 L240.849,-81.18214 L239.92297,-84.62759 L239.34521,-88.13211 L239.11122,-91.66772 L239.2073,-95.20836 L239.6039,-98.732574 L240.27272,-102.22438 L241.18672,-105.672356 L242.32033,-109.06881 L243.6496,-112.409195 L245.14746,-115.69318 L246.79161,-118.92183 L248.56325,-122.09717 L250.4463,-125.22183 L252.42688,-128.29887 L254.49026,-131.33295 L256.6269,-134.32701 L258.8261,-137.28535 L261.07907,-140.2118 L263.3798,-143.109 L265.7212,-145.9805 L268.09723,-148.82962 L270.5026,-151.6594 L272.93256,-154.47264 L275.38275,-157.27206 L277.8493,-160.06024 L280.32843,-162.83965 L282.81665,-165.61269 L285.311,-168.38141 L287.80957,-171.14713 L290.31113,-173.91074 L292.81485,-176.6728 L295.32013,-179.43378 L297.82657,-182.1939 L300.33392,-184.95338 L302.842,-187.71236 L305.35062,-190.47095 L307.85968,-193.22922 L310.3691,-195.98723 L312.8788,-198.74503 L315.83755,-201.1284 L319.03677,-203.25433 L322.38788,-205.18813 L325.84882,-206.96384 L329.39285,-208.60594 L333.00406,-210.12907 L336.6721,-211.54178 L340.39157,-212.8447 L344.1562,-214.04169 L347.96255,-215.13031 L351.807,-216.10829 L355.68582,-216.97345 L359.59506,-217.72368 L363.5306,-218.35695 L367.4882,-218.87128 L371.46344,-219.26479 L375.45212,-219.53108 L379.44904,-219.67009 L383.449,-219.67667 L387.44653,-219.55173 L391.43567,-219.29092 L395.41013,-218.8912 L399.36322,-218.35056 L403.28925,-217.6725 L407.18118,-216.85481 L411.03195,-215.89644 L414.83612,-214.80188 L418.5864,-213.5701 L422.2756,-212.20134 L425.89908,-210.70122 L429.45212,-209.07439 L432.92743,-207.32086 L436.32114,-205.44623 L439.6294,-203.45543 L442.85153,-201.35683 L445.98325,-199.1535 L449.02066,-196.84903 L451.96387,-194.4506 L454.81238,-191.96417 L457.5656,-189.39499 L460.2229,-186.74779 L462.78363,-184.02701 L465.24738,-181.23688 L467.61734,-178.3838 L469.8924,-175.47078 L472.07544,-172.50307 L474.16867,-169.48506 L476.17383,-166.42052 L478.09225,-163.31277 L479.925,-160.16473 L481.67615,-156.98051 L483.34515,-153.76187 L484.9314,-150.51059 L486.43784,-147.22969 L487.86276,-143.92036 L489.20816,-140.58505 L490.4715,-137.22467 L491.65424,-133.84135 L492.75305,-130.43594 L493.76895,-127.01041 L494.69797,-123.56558 L495.54062,-120.10339 L496.29227,-116.624825 L496.95306,-113.13182 L497.51758,-109.625595 L497.9808,-106.10776 L498.3428,-102.58063 L498.5973,-99.046135 L498.73828,-95.50667 L498.7599,-91.96506 L498.65625,-88.424576 L498.42123,-84.88903 L498.0487,-81.362755 L497.52542,-77.851524 L496.8469,-74.36119 L496.00043,-70.899734 L494.9827,-67.47462 L493.7815,-64.09641 L492.38666,-60.777058 L490.79852,-57.526497 L489.00797,-54.359497 L487.00888,-51.29185 L484.7984,-48.340107 L482.37732,-45.52087 L479.76062,-42.842155 L476.95697,-40.31607 L473.9857,-37.94497 L470.85925,-35.73578 L467.59726,-33.68601 L464.21698,-31.792439 L460.7338,-30.051178 L457.1615,-28.457779 L453.51233,-27.007336 L449.7995,-25.689556 L446.03152,-24.500866 L442.21793,-23.432377 L438.36627,-22.476728 L434.4829,-21.62767 L430.57312,-20.87979 L426.6414,-20.228296 L422.6916,-19.668901 L418.72714,-19.197708 L414.75104,-18.811152 L410.76593,-18.505953 L406.77438,-18.275719 L402.77832,-18.118881 L398.77957,-18.030539 L394.77963,-18.010056 L390.77994,-18.05342 L386.78177,-18.160547 L382.78622,-18.328014 L378.79453,-18.556099 L374.80756,-18.841805 L370.82648,-19.185688 L366.852,-19.58509 L362.88483,-20.038069 L358.92618,-20.545921 L354.97662,-21.106684 L351.03738,-21.721676 L347.10904,-22.389029 L343.19223,-23.107487 L339.28827,-23.878952 L335.3978,-24.702055 L331.52228,-25.578718 L327.6623,-26.507612 L323.81952,-27.490803 L319.99457,-28.52708 L316.18933,-29.618734 L312.40564,-30.767645 L308.64542,-31.975447 L304.90933,-33.24058 L301.19977,-34.5655 L297.51923,-35.95239 L293.8703,-37.4033 L290.25763,-38.9237 L286.68384,-40.514534 L283.15204,-42.177197 L279.66806,-43.91721 L276.23538,-45.735405 L272.8611,-47.63734 L269.5527,-49.627945" fill="none" stroke="#35C788" stroke-linejoin="round" stroke-width="2"/>
</g>
</g>
<g>
<g>
<line stroke="black" stroke-width="1" x1="0" x2="0" y1="0" y2="10"/>
<line stroke="black" stroke-width="1" x1="96" x2="96" y1="0" y2="10"/>
<line stroke="black" stroke-width="1" x1="192" x2="192" y1="0" y2="10"/>
<line stroke="black" stroke-width="1" x1="288" x2="288" y1="0" y2="10"/>
<line stroke="black" stroke-width="1" x1="384" x2="384" y1="0" y2="10"/>
<line stroke="black" stroke-width="1" x1="480" x2="480" y1="0" y2="10"/>
</g>
<line stroke="black" stroke-width="1" x1="0" x2="480" y1="0" y2="0"/>
<g>
<text font-size="12" text-anchor="middle" x="0" y="20">
0
</text>
<text font-size="12" text-anchor="middle" x="96" y="20">
20
</text>
<text font-size="12" text-anchor="middle" x="192" y="20">
40
</text>
<text font-size="12" text-anchor="middle" x="288" y="20">
60
</text>
<text font-size="12" text-anchor="middle" x="384" y="20">
80
</text>
<text font-size="12" text-anchor="middle" x="480" y="20">
100
</text>
</g>
<text font-size="12" text-anchor="middle" x="240" y="30">
x [m]
</text>
</g>
<g>
<g>
<line stroke="black" stroke-width="1" x1="0" x2="-10" y1="0" y2="0"/>
<line stroke="black" stroke-width="1" x1="0" x2="-10" y1="-85" y2="-85"/>
<line stroke="black" stroke-width="1" x1="0" x2="-10" y1="-170" y2="-170"/>
<line stroke="black" stroke-width="1" x1="0" x2="-10" y1="-255" y2="-255"/>
<line stroke="black" stroke-width="1" x1="0" x2="-10" y1="-340" y2="-340"/>
</g>
<line stroke="black" stroke-width="1" x1="0" x2="0" y1="0" y2="-340"/>
<g>
<text dominant-baseline="middle" font-size="12" text-anchor="end" x="-15" y="0">
-40
</text>
<text dominant-baseline="middle" font-size="12" text-anchor="end" x="-15" y="-85">
-20
</text>
<text dominant-baseline="middle" font-size="12" text-anchor="end" x="-15" y="-170">
0
</text>
<text dominant-baseline="middle" font-size="12" text-anchor="end" x="-15" y="-255">
20
</text>
<text dominant-baseline="middle" font-size="12" text-anchor="end" x="-15" y="-340">
40
</text>
</g>
<text font-size="12" text-anchor="middle" transform="rotate(-90 -36 -170)" x="-36" y="-182">
y [m]
</text>
</g>
</g>
</svg>